  0
SECTION
  2
HEADER
  9
$ANGBASE
  50
0.0
  9
$ANGDIR
  70
1
  9
$MEASUREMENT
  70
0
  0
ENDSEC
  0
SECTION
  2
TABLES
  0
TABLE
  2
LTYPE
  70
4
  0
LTYPE
  5
40F
  2
CONTINUOUS
  70
0
  3
Solid line
  72
65
  73
0
  40
0.0
  0
LTYPE
  5
410
  2
DASHDOT
 70
0
  3
Dash Dot ____ _ ____ _
 72
65
 73
4
 40
2.0
 49
1.25
 49
-0.25
 49
0.25
 49
-0.25
  0
LTYPE
  5
411
  2
DASHED
 70
0
  3
Dashed __ __ __ __ __
 72
65
 73
2
 40
0.75
 49
0.5
 49
-0.25
  0
LTYPE
  5
43B
  2
DOTTED
 70
0
  3
Dotted .  .  .  .
 72
65
 73
2
 40
0.2
 49
0.0
 49
-0.2
  0
ENDTAB
  0
TABLE
  2
STYLE
  70
4
  0
STYLE
  2
KICAD
  70
0
  40
0
  41
1
  42
1
  50
0
  71
0
  3
isocp.shx
  0
STYLE
  2
KICADB
  70
0
  40
0
  41
1
  42
1
  50
0
  71
0
  3
isocp.shx
  0
STYLE
  2
KICADI
  70
0
  40
0
  41
1
  42
1
  50
15
  71
0
  3
isocp.shx
  0
STYLE
  2
KICADBI
  70
0
  40
0
  41
1
  42
1
  50
15
  71
0
  3
isocp.shx
  0
ENDTAB
  0
TABLE
  2
LAYER
  70
1
  0
LAYER
  2
BLACK
  70
0
  62
7
  6
CONTINUOUS
  0
ENDTAB
  0
ENDSEC
  0
SECTION
  2
ENTITIES
0
LINE
8
BLACK
6
CONTINUOUS
10
15.67
20
-1.82902
11
15.67
21
-1.82902
0
LINE
8
BLACK
6
CONTINUOUS
10
15.67
20
-1.82902
11
15.6702
21
-1.82903
0
LINE
8
BLACK
6
CONTINUOUS
10
15.6702
20
-1.82903
11
15.6704
21
-1.82909
0
LINE
8
BLACK
6
CONTINUOUS
10
15.6704
20
-1.82909
11
15.6705
21
-1.82918
0
LINE
8
BLACK
6
CONTINUOUS
10
15.6705
20
-1.82918
11
15.6707
21
-1.8293
0
LINE
8
BLACK
6
CONTINUOUS
10
15.6707
20
-1.8293
11
15.6708
21
-1.82945
0
LINE
8
BLACK
6
CONTINUOUS
10
15.6708
20
-1.82945
11
15.6709
21
-1.82962
0
LINE
8
BLACK
6
CONTINUOUS
10
15.6709
20
-1.82962
11
15.671
21
-1.82981
0
LINE
8
BLACK
6
CONTINUOUS
10
15.671
20
-1.82981
11
15.671
21
-1.83
0
LINE
8
BLACK
6
CONTINUOUS
10
15.671
20
-1.83
11
15.671
21
-1.83005
0
LINE
8
BLACK
6
CONTINUOUS
10
15.671
20
-1.83005
11
15.671
21
-6.98995
0
LINE
8
BLACK
6
CONTINUOUS
10
15.671
20
-6.98995
11
15.671
21
-6.99
0
LINE
8
BLACK
6
CONTINUOUS
10
15.671
20
-6.99
11
15.671
21
-6.99005
0
LINE
8
BLACK
6
CONTINUOUS
10
15.671
20
-6.99005
11
15.671
21
-6.99005
0
LINE
8
BLACK
6
CONTINUOUS
10
15.671
20
-6.99005
11
15.671
21
-6.99019
0
LINE
8
BLACK
6
CONTINUOUS
10
15.671
20
-6.99019
11
15.6709
21
-6.99038
0
LINE
8
BLACK
6
CONTINUOUS
10
15.6709
20
-6.99038
11
15.6708
21
-6.99055
0
LINE
8
BLACK
6
CONTINUOUS
10
15.6708
20
-6.99055
11
15.6707
21
-6.9907
0
LINE
8
BLACK
6
CONTINUOUS
10
15.6707
20
-6.9907
11
15.6705
21
-6.99082
0
LINE
8
BLACK
6
CONTINUOUS
10
15.6705
20
-6.99082
11
15.6704
21
-6.99091
0
LINE
8
BLACK
6
CONTINUOUS
10
15.6704
20
-6.99091
11
15.6702
21
-6.99097
0
LINE
8
BLACK
6
CONTINUOUS
10
15.6702
20
-6.99097
11
15.67
21
-6.99099
0
LINE
8
BLACK
6
CONTINUOUS
10
15.67
20
-6.99099
11
15.67
21
-6.99098
0
LINE
8
BLACK
6
CONTINUOUS
10
15.67
20
-6.99098
11
0.820048
21
-6.99098
0
LINE
8
BLACK
6
CONTINUOUS
10
0.820048
20
-6.99098
11
0.82
21
-6.99099
0
LINE
8
BLACK
6
CONTINUOUS
10
0.82
20
-6.99099
11
0.819807
21
-6.99097
0
LINE
8
BLACK
6
CONTINUOUS
10
0.819807
20
-6.99097
11
0.819622
21
-6.99091
0
LINE
8
BLACK
6
CONTINUOUS
10
0.819622
20
-6.99091
11
0.819451
21
-6.99082
0
LINE
8
BLACK
6
CONTINUOUS
10
0.819451
20
-6.99082
11
0.819301
21
-6.9907
0
LINE
8
BLACK
6
CONTINUOUS
10
0.819301
20
-6.9907
11
0.819178
21
-6.99055
0
LINE
8
BLACK
6
CONTINUOUS
10
0.819178
20
-6.99055
11
0.819086
21
-6.99038
0
LINE
8
BLACK
6
CONTINUOUS
10
0.819086
20
-6.99038
11
0.81903
21
-6.99019
0
LINE
8
BLACK
6
CONTINUOUS
10
0.81903
20
-6.99019
11
0.819011
21
-6.99
0
LINE
8
BLACK
6
CONTINUOUS
10
0.819011
20
-6.99
11
0.819016
21
-6.98995
0
LINE
8
BLACK
6
CONTINUOUS
10
0.819016
20
-6.98995
11
0.819016
21
-1.83005
0
LINE
8
BLACK
6
CONTINUOUS
10
0.819016
20
-1.83005
11
0.819011
21
-1.83
0
LINE
8
BLACK
6
CONTINUOUS
10
0.819011
20
-1.83
11
0.81903
21
-1.82981
0
LINE
8
BLACK
6
CONTINUOUS
10
0.81903
20
-1.82981
11
0.819086
21
-1.82962
0
LINE
8
BLACK
6
CONTINUOUS
10
0.819086
20
-1.82962
11
0.819178
21
-1.82945
0
LINE
8
BLACK
6
CONTINUOUS
10
0.819178
20
-1.82945
11
0.819301
21
-1.8293
0
LINE
8
BLACK
6
CONTINUOUS
10
0.819301
20
-1.8293
11
0.819451
21
-1.82918
0
LINE
8
BLACK
6
CONTINUOUS
10
0.819451
20
-1.82918
11
0.819622
21
-1.82909
0
LINE
8
BLACK
6
CONTINUOUS
10
0.819622
20
-1.82909
11
0.819807
21
-1.82903
0
LINE
8
BLACK
6
CONTINUOUS
10
0.819807
20
-1.82903
11
0.819952
21
-1.82902
0
LINE
8
BLACK
6
CONTINUOUS
10
0.819952
20
-1.82902
11
0.819952
21
-1.82902
0
LINE
8
BLACK
6
CONTINUOUS
10
0.819952
20
-1.82902
11
0.82
21
-1.82901
0
LINE
8
BLACK
6
CONTINUOUS
10
0.82
20
-1.82901
11
0.820048
21
-1.82902
0
LINE
8
BLACK
6
CONTINUOUS
10
0.820048
20
-1.82902
11
15.67
21
-1.82902
0
LINE
8
BLACK
6
CONTINUOUS
10
15.67
20
-1.82902
11
15.67
21
-1.82901
0
LINE
8
BLACK
6
CONTINUOUS
10
15.67
20
-1.82901
11
15.67
21
-1.82902
0
LINE
8
BLACK
6
CONTINUOUS
10
0.820984
20
-1.83098
11
0.820984
21
-6.98902
0
LINE
8
BLACK
6
CONTINUOUS
10
0.820984
20
-6.98902
11
15.669
21
-6.98902
0
LINE
8
BLACK
6
CONTINUOUS
10
15.669
20
-6.98902
11
15.669
21
-1.83098
0
LINE
8
BLACK
6
CONTINUOUS
10
15.669
20
-1.83098
11
0.820984
21
-1.83098
0
LINE
8
BLACK
6
CONTINUOUS
10
7.15513
20
-6.89067
11
7.15513
21
-6.89067
0
LINE
8
BLACK
6
CONTINUOUS
10
7.15513
20
-6.89067
11
7.15513
21
-6.89067
0
LINE
8
BLACK
6
CONTINUOUS
10
7.15513
20
-6.89067
11
7.15641
21
-6.89304
0
LINE
8
BLACK
6
CONTINUOUS
10
7.15641
20
-6.89304
11
7.15641
21
-6.89304
0
LINE
8
BLACK
6
CONTINUOUS
10
7.15641
20
-6.89304
11
7.15641
21
-6.89304
0
LINE
8
BLACK
6
CONTINUOUS
10
7.15641
20
-6.89304
11
7.15641
21
-6.89304
0
LINE
8
BLACK
6
CONTINUOUS
10
7.15641
20
-6.89304
11
7.1572
21
-6.89561
0
LINE
8
BLACK
6
CONTINUOUS
10
7.1572
20
-6.89561
11
7.1572
21
-6.89561
0
LINE
8
BLACK
6
CONTINUOUS
10
7.1572
20
-6.89561
11
7.15748
21
-6.89828
0
LINE
8
BLACK
6
CONTINUOUS
10
7.15748
20
-6.89828
11
7.15748
21
-6.89828
0
LINE
8
BLACK
6
CONTINUOUS
10
7.15748
20
-6.89828
11
7.15748
21
-6.89838
0
LINE
8
BLACK
6
CONTINUOUS
10
7.15748
20
-6.89838
11
7.15748
21
-6.94562
0
LINE
8
BLACK
6
CONTINUOUS
10
7.15748
20
-6.94562
11
7.15722
21
-6.9483
0
LINE
8
BLACK
6
CONTINUOUS
10
7.15722
20
-6.9483
11
7.15722
21
-6.9483
0
LINE
8
BLACK
6
CONTINUOUS
10
7.15722
20
-6.9483
11
7.15644
21
-6.95087
0
LINE
8
BLACK
6
CONTINUOUS
10
7.15644
20
-6.95087
11
7.15644
21
-6.95087
0
LINE
8
BLACK
6
CONTINUOUS
10
7.15644
20
-6.95087
11
7.15644
21
-6.95087
0
LINE
8
BLACK
6
CONTINUOUS
10
7.15644
20
-6.95087
11
7.15644
21
-6.95087
0
LINE
8
BLACK
6
CONTINUOUS
10
7.15644
20
-6.95087
11
7.15518
21
-6.95325
0
LINE
8
BLACK
6
CONTINUOUS
10
7.15518
20
-6.95325
11
7.15518
21
-6.95325
0
LINE
8
BLACK
6
CONTINUOUS
10
7.15518
20
-6.95325
11
7.15518
21
-6.95325
0
LINE
8
BLACK
6
CONTINUOUS
10
7.15518
20
-6.95325
11
7.15518
21
-6.95325
0
LINE
8
BLACK
6
CONTINUOUS
10
7.15518
20
-6.95325
11
7.15518
21
-6.95325
0
LINE
8
BLACK
6
CONTINUOUS
10
7.15518
20
-6.95325
11
7.15348
21
-6.95533
0
LINE
8
BLACK
6
CONTINUOUS
10
7.15348
20
-6.95533
11
7.15348
21
-6.95533
0
LINE
8
BLACK
6
CONTINUOUS
10
7.15348
20
-6.95533
11
7.15348
21
-6.95533
0
LINE
8
BLACK
6
CONTINUOUS
10
7.15348
20
-6.95533
11
7.15348
21
-6.95533
0
LINE
8
BLACK
6
CONTINUOUS
10
7.15348
20
-6.95533
11
7.15141
21
-6.95705
0
LINE
8
BLACK
6
CONTINUOUS
10
7.15141
20
-6.95705
11
7.15141
21
-6.95705
0
LINE
8
BLACK
6
CONTINUOUS
10
7.15141
20
-6.95705
11
7.15141
21
-6.95705
0
LINE
8
BLACK
6
CONTINUOUS
10
7.15141
20
-6.95705
11
7.14904
21
-6.95833
0
LINE
8
BLACK
6
CONTINUOUS
10
7.14904
20
-6.95833
11
7.14904
21
-6.95833
0
LINE
8
BLACK
6
CONTINUOUS
10
7.14904
20
-6.95833
11
7.14647
21
-6.95912
0
LINE
8
BLACK
6
CONTINUOUS
10
7.14647
20
-6.95912
11
7.14647
21
-6.95912
0
LINE
8
BLACK
6
CONTINUOUS
10
7.14647
20
-6.95912
11
7.1438
21
-6.9594
0
LINE
8
BLACK
6
CONTINUOUS
10
7.1438
20
-6.9594
11
7.1438
21
-6.9594
0
LINE
8
BLACK
6
CONTINUOUS
10
7.1438
20
-6.9594
11
7.1437
21
-6.9594
0
LINE
8
BLACK
6
CONTINUOUS
10
7.1437
20
-6.9594
11
7.1437
21
-6.9594
0
LINE
8
BLACK
6
CONTINUOUS
10
7.1437
20
-6.9594
11
7.14102
21
-6.95914
0
LINE
8
BLACK
6
CONTINUOUS
10
7.14102
20
-6.95914
11
7.14102
21
-6.95914
0
LINE
8
BLACK
6
CONTINUOUS
10
7.14102
20
-6.95914
11
7.14102
21
-6.95914
0
LINE
8
BLACK
6
CONTINUOUS
10
7.14102
20
-6.95914
11
7.13845
21
-6.95836
0
LINE
8
BLACK
6
CONTINUOUS
10
7.13845
20
-6.95836
11
7.13845
21
-6.95836
0
LINE
8
BLACK
6
CONTINUOUS
10
7.13845
20
-6.95836
11
7.13845
21
-6.95836
0
LINE
8
BLACK
6
CONTINUOUS
10
7.13845
20
-6.95836
11
7.13845
21
-6.95836
0
LINE
8
BLACK
6
CONTINUOUS
10
7.13845
20
-6.95836
11
7.13607
21
-6.9571
0
LINE
8
BLACK
6
CONTINUOUS
10
7.13607
20
-6.9571
11
7.13607
21
-6.9571
0
LINE
8
BLACK
6
CONTINUOUS
10
7.13607
20
-6.9571
11
7.13607
21
-6.9571
0
LINE
8
BLACK
6
CONTINUOUS
10
7.13607
20
-6.9571
11
7.13607
21
-6.9571
0
LINE
8
BLACK
6
CONTINUOUS
10
7.13607
20
-6.9571
11
7.13399
21
-6.9554
0
LINE
8
BLACK
6
CONTINUOUS
10
7.13399
20
-6.9554
11
7.13399
21
-6.9554
0
LINE
8
BLACK
6
CONTINUOUS
10
7.13399
20
-6.9554
11
7.13399
21
-6.9554
0
LINE
8
BLACK
6
CONTINUOUS
10
7.13399
20
-6.9554
11
7.13399
21
-6.9554
0
LINE
8
BLACK
6
CONTINUOUS
10
7.13399
20
-6.9554
11
7.13228
21
-6.95333
0
LINE
8
BLACK
6
CONTINUOUS
10
7.13228
20
-6.95333
11
7.13228
21
-6.95333
0
LINE
8
BLACK
6
CONTINUOUS
10
7.13228
20
-6.95333
11
7.13228
21
-6.95333
0
LINE
8
BLACK
6
CONTINUOUS
10
7.13228
20
-6.95333
11
7.131
21
-6.95096
0
LINE
8
BLACK
6
CONTINUOUS
10
7.131
20
-6.95096
11
7.131
21
-6.95096
0
LINE
8
BLACK
6
CONTINUOUS
10
7.131
20
-6.95096
11
7.131
21
-6.95096
0
LINE
8
BLACK
6
CONTINUOUS
10
7.131
20
-6.95096
11
7.1302
21
-6.94839
0
LINE
8
BLACK
6
CONTINUOUS
10
7.1302
20
-6.94839
11
7.1302
21
-6.94839
0
LINE
8
BLACK
6
CONTINUOUS
10
7.1302
20
-6.94839
11
7.1302
21
-6.94839
0
LINE
8
BLACK
6
CONTINUOUS
10
7.1302
20
-6.94839
11
7.12992
21
-6.94572
0
LINE
8
BLACK
6
CONTINUOUS
10
7.12992
20
-6.94572
11
7.12992
21
-6.94572
0
LINE
8
BLACK
6
CONTINUOUS
10
7.12992
20
-6.94572
11
7.12992
21
-6.94562
0
LINE
8
BLACK
6
CONTINUOUS
10
7.12992
20
-6.94562
11
7.12992
21
-6.94562
0
LINE
8
BLACK
6
CONTINUOUS
10
7.12992
20
-6.94562
11
7.12992
21
-6.94562
0
LINE
8
BLACK
6
CONTINUOUS
10
7.12992
20
-6.94562
11
7.12992
21
-6.89838
0
LINE
8
BLACK
6
CONTINUOUS
10
7.12992
20
-6.89838
11
7.12992
21
-6.89838
0
LINE
8
BLACK
6
CONTINUOUS
10
7.12992
20
-6.89838
11
7.13018
21
-6.8957
0
LINE
8
BLACK
6
CONTINUOUS
10
7.13018
20
-6.8957
11
7.13018
21
-6.8957
0
LINE
8
BLACK
6
CONTINUOUS
10
7.13018
20
-6.8957
11
7.13018
21
-6.8957
0
LINE
8
BLACK
6
CONTINUOUS
10
7.13018
20
-6.8957
11
7.13018
21
-6.8957
0
LINE
8
BLACK
6
CONTINUOUS
10
7.13018
20
-6.8957
11
7.13096
21
-6.89313
0
LINE
8
BLACK
6
CONTINUOUS
10
7.13096
20
-6.89313
11
7.13096
21
-6.89313
0
LINE
8
BLACK
6
CONTINUOUS
10
7.13096
20
-6.89313
11
7.13096
21
-6.89313
0
LINE
8
BLACK
6
CONTINUOUS
10
7.13096
20
-6.89313
11
7.13222
21
-6.89075
0
LINE
8
BLACK
6
CONTINUOUS
10
7.13222
20
-6.89075
11
7.13222
21
-6.89075
0
LINE
8
BLACK
6
CONTINUOUS
10
7.13222
20
-6.89075
11
7.13222
21
-6.89075
0
LINE
8
BLACK
6
CONTINUOUS
10
7.13222
20
-6.89075
11
7.13222
21
-6.89075
0
LINE
8
BLACK
6
CONTINUOUS
10
7.13222
20
-6.89075
11
7.13392
21
-6.88867
0
LINE
8
BLACK
6
CONTINUOUS
10
7.13392
20
-6.88867
11
7.13392
21
-6.88867
0
LINE
8
BLACK
6
CONTINUOUS
10
7.13392
20
-6.88867
11
7.13599
21
-6.88695
0
LINE
8
BLACK
6
CONTINUOUS
10
7.13599
20
-6.88695
11
7.13599
21
-6.88695
0
LINE
8
BLACK
6
CONTINUOUS
10
7.13599
20
-6.88695
11
7.13599
21
-6.88695
0
LINE
8
BLACK
6
CONTINUOUS
10
7.13599
20
-6.88695
11
7.13836
21
-6.88567
0
LINE
8
BLACK
6
CONTINUOUS
10
7.13836
20
-6.88567
11
7.13836
21
-6.88567
0
LINE
8
BLACK
6
CONTINUOUS
10
7.13836
20
-6.88567
11
7.13836
21
-6.88567
0
LINE
8
BLACK
6
CONTINUOUS
10
7.13836
20
-6.88567
11
7.13836
21
-6.88567
0
LINE
8
BLACK
6
CONTINUOUS
10
7.13836
20
-6.88567
11
7.14093
21
-6.88488
0
LINE
8
BLACK
6
CONTINUOUS
10
7.14093
20
-6.88488
11
7.14093
21
-6.88488
0
LINE
8
BLACK
6
CONTINUOUS
10
7.14093
20
-6.88488
11
7.1436
21
-6.8846
0
LINE
8
BLACK
6
CONTINUOUS
10
7.1436
20
-6.8846
11
7.1436
21
-6.8846
0
LINE
8
BLACK
6
CONTINUOUS
10
7.1436
20
-6.8846
11
7.1437
21
-6.8846
0
LINE
8
BLACK
6
CONTINUOUS
10
7.1437
20
-6.8846
11
7.1437
21
-6.8846
0
LINE
8
BLACK
6
CONTINUOUS
10
7.1437
20
-6.8846
11
7.14638
21
-6.88486
0
LINE
8
BLACK
6
CONTINUOUS
10
7.14638
20
-6.88486
11
7.14638
21
-6.88486
0
LINE
8
BLACK
6
CONTINUOUS
10
7.14638
20
-6.88486
11
7.14638
21
-6.88486
0
LINE
8
BLACK
6
CONTINUOUS
10
7.14638
20
-6.88486
11
7.14638
21
-6.88486
0
LINE
8
BLACK
6
CONTINUOUS
10
7.14638
20
-6.88486
11
7.14895
21
-6.88564
0
LINE
8
BLACK
6
CONTINUOUS
10
7.14895
20
-6.88564
11
7.14895
21
-6.88564
0
LINE
8
BLACK
6
CONTINUOUS
10
7.14895
20
-6.88564
11
7.14895
21
-6.88564
0
LINE
8
BLACK
6
CONTINUOUS
10
7.14895
20
-6.88564
11
7.15133
21
-6.8869
0
LINE
8
BLACK
6
CONTINUOUS
10
7.15133
20
-6.8869
11
7.15133
21
-6.8869
0
LINE
8
BLACK
6
CONTINUOUS
10
7.15133
20
-6.8869
11
7.15133
21
-6.8869
0
LINE
8
BLACK
6
CONTINUOUS
10
7.15133
20
-6.8869
11
7.15133
21
-6.8869
0
LINE
8
BLACK
6
CONTINUOUS
10
7.15133
20
-6.8869
11
7.15341
21
-6.8886
0
LINE
8
BLACK
6
CONTINUOUS
10
7.15341
20
-6.8886
11
7.15341
21
-6.8886
0
LINE
8
BLACK
6
CONTINUOUS
10
7.15341
20
-6.8886
11
7.15513
21
-6.89067
0
LINE
8
BLACK
6
CONTINUOUS
10
7.12992
20
-6.94572
11
7.1302
21
-6.94839
0
LINE
8
BLACK
6
CONTINUOUS
10
7.1302
20
-6.94839
11
7.131
21
-6.95096
0
LINE
8
BLACK
6
CONTINUOUS
10
7.131
20
-6.95096
11
7.13228
21
-6.95333
0
LINE
8
BLACK
6
CONTINUOUS
10
7.13228
20
-6.95333
11
7.13399
21
-6.9554
0
LINE
8
BLACK
6
CONTINUOUS
10
7.13399
20
-6.9554
11
7.13608
21
-6.9571
0
LINE
8
BLACK
6
CONTINUOUS
10
7.13608
20
-6.9571
11
7.13845
21
-6.95836
0
LINE
8
BLACK
6
CONTINUOUS
10
7.13845
20
-6.95836
11
7.14102
21
-6.95914
0
LINE
8
BLACK
6
CONTINUOUS
10
7.14102
20
-6.95914
11
7.1437
21
-6.9594
0
LINE
8
BLACK
6
CONTINUOUS
10
7.1437
20
-6.9594
11
7.1438
21
-6.9594
0
LINE
8
BLACK
6
CONTINUOUS
10
7.1438
20
-6.9594
11
7.14647
21
-6.95912
0
LINE
8
BLACK
6
CONTINUOUS
10
7.14647
20
-6.95912
11
7.14904
21
-6.95832
0
LINE
8
BLACK
6
CONTINUOUS
10
7.14904
20
-6.95832
11
7.15141
21
-6.95704
0
LINE
8
BLACK
6
CONTINUOUS
10
7.15141
20
-6.95704
11
7.15348
21
-6.95533
0
LINE
8
BLACK
6
CONTINUOUS
10
7.15348
20
-6.95533
11
7.15518
21
-6.95325
0
LINE
8
BLACK
6
CONTINUOUS
10
7.15518
20
-6.95325
11
7.15644
21
-6.95087
0
LINE
8
BLACK
6
CONTINUOUS
10
7.15644
20
-6.95087
11
7.15722
21
-6.9483
0
LINE
8
BLACK
6
CONTINUOUS
10
7.15722
20
-6.9483
11
7.15748
21
-6.94562
0
LINE
8
BLACK
6
CONTINUOUS
10
7.15748
20
-6.94562
11
7.15748
21
-6.94562
0
LINE
8
BLACK
6
CONTINUOUS
10
7.15748
20
-6.94562
11
7.15748
21
-6.94562
0
LINE
8
BLACK
6
CONTINUOUS
10
7.15748
20
-6.94562
11
7.15748
21
-6.89838
0
LINE
8
BLACK
6
CONTINUOUS
10
7.15748
20
-6.89838
11
7.15748
21
-6.89828
0
LINE
8
BLACK
6
CONTINUOUS
10
7.15748
20
-6.89828
11
7.1572
21
-6.89561
0
LINE
8
BLACK
6
CONTINUOUS
10
7.1572
20
-6.89561
11
7.1564
21
-6.89304
0
LINE
8
BLACK
6
CONTINUOUS
10
7.1564
20
-6.89304
11
7.15512
21
-6.89067
0
LINE
8
BLACK
6
CONTINUOUS
10
7.15512
20
-6.89067
11
7.15341
21
-6.8886
0
LINE
8
BLACK
6
CONTINUOUS
10
7.15341
20
-6.8886
11
7.15132
21
-6.8869
0
LINE
8
BLACK
6
CONTINUOUS
10
7.15132
20
-6.8869
11
7.14895
21
-6.88564
0
LINE
8
BLACK
6
CONTINUOUS
10
7.14895
20
-6.88564
11
7.14638
21
-6.88486
0
LINE
8
BLACK
6
CONTINUOUS
10
7.14638
20
-6.88486
11
7.1437
21
-6.8846
0
LINE
8
BLACK
6
CONTINUOUS
10
7.1437
20
-6.8846
11
7.1436
21
-6.8846
0
LINE
8
BLACK
6
CONTINUOUS
10
7.1436
20
-6.8846
11
7.14093
21
-6.88488
0
LINE
8
BLACK
6
CONTINUOUS
10
7.14093
20
-6.88488
11
7.13836
21
-6.88568
0
LINE
8
BLACK
6
CONTINUOUS
10
7.13836
20
-6.88568
11
7.136
21
-6.88696
0
LINE
8
BLACK
6
CONTINUOUS
10
7.136
20
-6.88696
11
7.13392
21
-6.88867
0
LINE
8
BLACK
6
CONTINUOUS
10
7.13392
20
-6.88867
11
7.13223
21
-6.89075
0
LINE
8
BLACK
6
CONTINUOUS
10
7.13223
20
-6.89075
11
7.13096
21
-6.89313
0
LINE
8
BLACK
6
CONTINUOUS
10
7.13096
20
-6.89313
11
7.13019
21
-6.8957
0
LINE
8
BLACK
6
CONTINUOUS
10
7.13019
20
-6.8957
11
7.12992
21
-6.89838
0
LINE
8
BLACK
6
CONTINUOUS
10
7.12992
20
-6.89838
11
7.12992
21
-6.94562
0
LINE
8
BLACK
6
CONTINUOUS
10
7.12992
20
-6.94562
11
7.12992
21
-6.94572
0
LINE
8
BLACK
6
CONTINUOUS
10
12.1177
20
-6.89067
11
12.1177
21
-6.89067
0
LINE
8
BLACK
6
CONTINUOUS
10
12.1177
20
-6.89067
11
12.1177
21
-6.89067
0
LINE
8
BLACK
6
CONTINUOUS
10
12.1177
20
-6.89067
11
12.119
21
-6.89304
0
LINE
8
BLACK
6
CONTINUOUS
10
12.119
20
-6.89304
11
12.119
21
-6.89304
0
LINE
8
BLACK
6
CONTINUOUS
10
12.119
20
-6.89304
11
12.119
21
-6.89304
0
LINE
8
BLACK
6
CONTINUOUS
10
12.119
20
-6.89304
11
12.119
21
-6.89304
0
LINE
8
BLACK
6
CONTINUOUS
10
12.119
20
-6.89304
11
12.1198
21
-6.89561
0
LINE
8
BLACK
6
CONTINUOUS
10
12.1198
20
-6.89561
11
12.1198
21
-6.89561
0
LINE
8
BLACK
6
CONTINUOUS
10
12.1198
20
-6.89561
11
12.1201
21
-6.89828
0
LINE
8
BLACK
6
CONTINUOUS
10
12.1201
20
-6.89828
11
12.1201
21
-6.89828
0
LINE
8
BLACK
6
CONTINUOUS
10
12.1201
20
-6.89828
11
12.1201
21
-6.89838
0
LINE
8
BLACK
6
CONTINUOUS
10
12.1201
20
-6.89838
11
12.1201
21
-6.94562
0
LINE
8
BLACK
6
CONTINUOUS
10
12.1201
20
-6.94562
11
12.1198
21
-6.9483
0
LINE
8
BLACK
6
CONTINUOUS
10
12.1198
20
-6.9483
11
12.1198
21
-6.9483
0
LINE
8
BLACK
6
CONTINUOUS
10
12.1198
20
-6.9483
11
12.119
21
-6.95087
0
LINE
8
BLACK
6
CONTINUOUS
10
12.119
20
-6.95087
11
12.119
21
-6.95087
0
LINE
8
BLACK
6
CONTINUOUS
10
12.119
20
-6.95087
11
12.119
21
-6.95087
0
LINE
8
BLACK
6
CONTINUOUS
10
12.119
20
-6.95087
11
12.119
21
-6.95087
0
LINE
8
BLACK
6
CONTINUOUS
10
12.119
20
-6.95087
11
12.1178
21
-6.95325
0
LINE
8
BLACK
6
CONTINUOUS
10
12.1178
20
-6.95325
11
12.1178
21
-6.95325
0
LINE
8
BLACK
6
CONTINUOUS
10
12.1178
20
-6.95325
11
12.1178
21
-6.95325
0
LINE
8
BLACK
6
CONTINUOUS
10
12.1178
20
-6.95325
11
12.1178
21
-6.95325
0
LINE
8
BLACK
6
CONTINUOUS
10
12.1178
20
-6.95325
11
12.1178
21
-6.95325
0
LINE
8
BLACK
6
CONTINUOUS
10
12.1178
20
-6.95325
11
12.1161
21
-6.95533
0
LINE
8
BLACK
6
CONTINUOUS
10
12.1161
20
-6.95533
11
12.1161
21
-6.95533
0
LINE
8
BLACK
6
CONTINUOUS
10
12.1161
20
-6.95533
11
12.1161
21
-6.95533
0
LINE
8
BLACK
6
CONTINUOUS
10
12.1161
20
-6.95533
11
12.1161
21
-6.95533
0
LINE
8
BLACK
6
CONTINUOUS
10
12.1161
20
-6.95533
11
12.114
21
-6.95705
0
LINE
8
BLACK
6
CONTINUOUS
10
12.114
20
-6.95705
11
12.114
21
-6.95705
0
LINE
8
BLACK
6
CONTINUOUS
10
12.114
20
-6.95705
11
12.114
21
-6.95705
0
LINE
8
BLACK
6
CONTINUOUS
10
12.114
20
-6.95705
11
12.1116
21
-6.95833
0
LINE
8
BLACK
6
CONTINUOUS
10
12.1116
20
-6.95833
11
12.1116
21
-6.95833
0
LINE
8
BLACK
6
CONTINUOUS
10
12.1116
20
-6.95833
11
12.1091
21
-6.95912
0
LINE
8
BLACK
6
CONTINUOUS
10
12.1091
20
-6.95912
11
12.1091
21
-6.95912
0
LINE
8
BLACK
6
CONTINUOUS
10
12.1091
20
-6.95912
11
12.1064
21
-6.9594
0
LINE
8
BLACK
6
CONTINUOUS
10
12.1064
20
-6.9594
11
12.1064
21
-6.9594
0
LINE
8
BLACK
6
CONTINUOUS
10
12.1064
20
-6.9594
11
12.1063
21
-6.9594
0
LINE
8
BLACK
6
CONTINUOUS
10
12.1063
20
-6.9594
11
12.1063
21
-6.9594
0
LINE
8
BLACK
6
CONTINUOUS
10
12.1063
20
-6.9594
11
12.1036
21
-6.95914
0
LINE
8
BLACK
6
CONTINUOUS
10
12.1036
20
-6.95914
11
12.1036
21
-6.95914
0
LINE
8
BLACK
6
CONTINUOUS
10
12.1036
20
-6.95914
11
12.1036
21
-6.95914
0
LINE
8
BLACK
6
CONTINUOUS
10
12.1036
20
-6.95914
11
12.101
21
-6.95836
0
LINE
8
BLACK
6
CONTINUOUS
10
12.101
20
-6.95836
11
12.101
21
-6.95836
0
LINE
8
BLACK
6
CONTINUOUS
10
12.101
20
-6.95836
11
12.101
21
-6.95836
0
LINE
8
BLACK
6
CONTINUOUS
10
12.101
20
-6.95836
11
12.101
21
-6.95836
0
LINE
8
BLACK
6
CONTINUOUS
10
12.101
20
-6.95836
11
12.0987
21
-6.9571
0
LINE
8
BLACK
6
CONTINUOUS
10
12.0987
20
-6.9571
11
12.0987
21
-6.9571
0
LINE
8
BLACK
6
CONTINUOUS
10
12.0987
20
-6.9571
11
12.0987
21
-6.9571
0
LINE
8
BLACK
6
CONTINUOUS
10
12.0987
20
-6.9571
11
12.0987
21
-6.9571
0
LINE
8
BLACK
6
CONTINUOUS
10
12.0987
20
-6.9571
11
12.0966
21
-6.9554
0
LINE
8
BLACK
6
CONTINUOUS
10
12.0966
20
-6.9554
11
12.0966
21
-6.9554
0
LINE
8
BLACK
6
CONTINUOUS
10
12.0966
20
-6.9554
11
12.0966
21
-6.9554
0
LINE
8
BLACK
6
CONTINUOUS
10
12.0966
20
-6.9554
11
12.0966
21
-6.9554
0
LINE
8
BLACK
6
CONTINUOUS
10
12.0966
20
-6.9554
11
12.0949
21
-6.95333
0
LINE
8
BLACK
6
CONTINUOUS
10
12.0949
20
-6.95333
11
12.0949
21
-6.95333
0
LINE
8
BLACK
6
CONTINUOUS
10
12.0949
20
-6.95333
11
12.0949
21
-6.95333
0
LINE
8
BLACK
6
CONTINUOUS
10
12.0949
20
-6.95333
11
12.0936
21
-6.95096
0
LINE
8
BLACK
6
CONTINUOUS
10
12.0936
20
-6.95096
11
12.0936
21
-6.95096
0
LINE
8
BLACK
6
CONTINUOUS
10
12.0936
20
-6.95096
11
12.0936
21
-6.95096
0
LINE
8
BLACK
6
CONTINUOUS
10
12.0936
20
-6.95096
11
12.0928
21
-6.94839
0
LINE
8
BLACK
6
CONTINUOUS
10
12.0928
20
-6.94839
11
12.0928
21
-6.94839
0
LINE
8
BLACK
6
CONTINUOUS
10
12.0928
20
-6.94839
11
12.0928
21
-6.94839
0
LINE
8
BLACK
6
CONTINUOUS
10
12.0928
20
-6.94839
11
12.0925
21
-6.94572
0
LINE
8
BLACK
6
CONTINUOUS
10
12.0925
20
-6.94572
11
12.0925
21
-6.94572
0
LINE
8
BLACK
6
CONTINUOUS
10
12.0925
20
-6.94572
11
12.0925
21
-6.94562
0
LINE
8
BLACK
6
CONTINUOUS
10
12.0925
20
-6.94562
11
12.0925
21
-6.94562
0
LINE
8
BLACK
6
CONTINUOUS
10
12.0925
20
-6.94562
11
12.0925
21
-6.94562
0
LINE
8
BLACK
6
CONTINUOUS
10
12.0925
20
-6.94562
11
12.0925
21
-6.89838
0
LINE
8
BLACK
6
CONTINUOUS
10
12.0925
20
-6.89838
11
12.0925
21
-6.89838
0
LINE
8
BLACK
6
CONTINUOUS
10
12.0925
20
-6.89838
11
12.0928
21
-6.8957
0
LINE
8
BLACK
6
CONTINUOUS
10
12.0928
20
-6.8957
11
12.0928
21
-6.8957
0
LINE
8
BLACK
6
CONTINUOUS
10
12.0928
20
-6.8957
11
12.0928
21
-6.8957
0
LINE
8
BLACK
6
CONTINUOUS
10
12.0928
20
-6.8957
11
12.0928
21
-6.8957
0
LINE
8
BLACK
6
CONTINUOUS
10
12.0928
20
-6.8957
11
12.0936
21
-6.89313
0
LINE
8
BLACK
6
CONTINUOUS
10
12.0936
20
-6.89313
11
12.0936
21
-6.89313
0
LINE
8
BLACK
6
CONTINUOUS
10
12.0936
20
-6.89313
11
12.0936
21
-6.89313
0
LINE
8
BLACK
6
CONTINUOUS
10
12.0936
20
-6.89313
11
12.0948
21
-6.89075
0
LINE
8
BLACK
6
CONTINUOUS
10
12.0948
20
-6.89075
11
12.0948
21
-6.89075
0
LINE
8
BLACK
6
CONTINUOUS
10
12.0948
20
-6.89075
11
12.0948
21
-6.89075
0
LINE
8
BLACK
6
CONTINUOUS
10
12.0948
20
-6.89075
11
12.0948
21
-6.89075
0
LINE
8
BLACK
6
CONTINUOUS
10
12.0948
20
-6.89075
11
12.0965
21
-6.88867
0
LINE
8
BLACK
6
CONTINUOUS
10
12.0965
20
-6.88867
11
12.0965
21
-6.88867
0
LINE
8
BLACK
6
CONTINUOUS
10
12.0965
20
-6.88867
11
12.0986
21
-6.88695
0
LINE
8
BLACK
6
CONTINUOUS
10
12.0986
20
-6.88695
11
12.0986
21
-6.88695
0
LINE
8
BLACK
6
CONTINUOUS
10
12.0986
20
-6.88695
11
12.0986
21
-6.88695
0
LINE
8
BLACK
6
CONTINUOUS
10
12.0986
20
-6.88695
11
12.101
21
-6.88567
0
LINE
8
BLACK
6
CONTINUOUS
10
12.101
20
-6.88567
11
12.101
21
-6.88567
0
LINE
8
BLACK
6
CONTINUOUS
10
12.101
20
-6.88567
11
12.101
21
-6.88567
0
LINE
8
BLACK
6
CONTINUOUS
10
12.101
20
-6.88567
11
12.101
21
-6.88567
0
LINE
8
BLACK
6
CONTINUOUS
10
12.101
20
-6.88567
11
12.1035
21
-6.88488
0
LINE
8
BLACK
6
CONTINUOUS
10
12.1035
20
-6.88488
11
12.1035
21
-6.88488
0
LINE
8
BLACK
6
CONTINUOUS
10
12.1035
20
-6.88488
11
12.1062
21
-6.8846
0
LINE
8
BLACK
6
CONTINUOUS
10
12.1062
20
-6.8846
11
12.1062
21
-6.8846
0
LINE
8
BLACK
6
CONTINUOUS
10
12.1062
20
-6.8846
11
12.1063
21
-6.8846
0
LINE
8
BLACK
6
CONTINUOUS
10
12.1063
20
-6.8846
11
12.1063
21
-6.8846
0
LINE
8
BLACK
6
CONTINUOUS
10
12.1063
20
-6.8846
11
12.109
21
-6.88486
0
LINE
8
BLACK
6
CONTINUOUS
10
12.109
20
-6.88486
11
12.109
21
-6.88486
0
LINE
8
BLACK
6
CONTINUOUS
10
12.109
20
-6.88486
11
12.109
21
-6.88486
0
LINE
8
BLACK
6
CONTINUOUS
10
12.109
20
-6.88486
11
12.109
21
-6.88486
0
LINE
8
BLACK
6
CONTINUOUS
10
12.109
20
-6.88486
11
12.1116
21
-6.88564
0
LINE
8
BLACK
6
CONTINUOUS
10
12.1116
20
-6.88564
11
12.1116
21
-6.88564
0
LINE
8
BLACK
6
CONTINUOUS
10
12.1116
20
-6.88564
11
12.1116
21
-6.88564
0
LINE
8
BLACK
6
CONTINUOUS
10
12.1116
20
-6.88564
11
12.1139
21
-6.8869
0
LINE
8
BLACK
6
CONTINUOUS
10
12.1139
20
-6.8869
11
12.1139
21
-6.8869
0
LINE
8
BLACK
6
CONTINUOUS
10
12.1139
20
-6.8869
11
12.1139
21
-6.8869
0
LINE
8
BLACK
6
CONTINUOUS
10
12.1139
20
-6.8869
11
12.1139
21
-6.8869
0
LINE
8
BLACK
6
CONTINUOUS
10
12.1139
20
-6.8869
11
12.116
21
-6.8886
0
LINE
8
BLACK
6
CONTINUOUS
10
12.116
20
-6.8886
11
12.116
21
-6.8886
0
LINE
8
BLACK
6
CONTINUOUS
10
12.116
20
-6.8886
11
12.1177
21
-6.89067
0
LINE
8
BLACK
6
CONTINUOUS
10
12.0925
20
-6.94572
11
12.0928
21
-6.94839
0
LINE
8
BLACK
6
CONTINUOUS
10
12.0928
20
-6.94839
11
12.0936
21
-6.95096
0
LINE
8
BLACK
6
CONTINUOUS
10
12.0936
20
-6.95096
11
12.0949
21
-6.95333
0
LINE
8
BLACK
6
CONTINUOUS
10
12.0949
20
-6.95333
11
12.0966
21
-6.9554
0
LINE
8
BLACK
6
CONTINUOUS
10
12.0966
20
-6.9554
11
12.0987
21
-6.9571
0
LINE
8
BLACK
6
CONTINUOUS
10
12.0987
20
-6.9571
11
12.101
21
-6.95836
0
LINE
8
BLACK
6
CONTINUOUS
10
12.101
20
-6.95836
11
12.1036
21
-6.95914
0
LINE
8
BLACK
6
CONTINUOUS
10
12.1036
20
-6.95914
11
12.1063
21
-6.9594
0
LINE
8
BLACK
6
CONTINUOUS
10
12.1063
20
-6.9594
11
12.1064
21
-6.9594
0
LINE
8
BLACK
6
CONTINUOUS
10
12.1064
20
-6.9594
11
12.1091
21
-6.95912
0
LINE
8
BLACK
6
CONTINUOUS
10
12.1091
20
-6.95912
11
12.1116
21
-6.95832
0
LINE
8
BLACK
6
CONTINUOUS
10
12.1116
20
-6.95832
11
12.114
21
-6.95704
0
LINE
8
BLACK
6
CONTINUOUS
10
12.114
20
-6.95704
11
12.1161
21
-6.95533
0
LINE
8
BLACK
6
CONTINUOUS
10
12.1161
20
-6.95533
11
12.1178
21
-6.95325
0
LINE
8
BLACK
6
CONTINUOUS
10
12.1178
20
-6.95325
11
12.119
21
-6.95087
0
LINE
8
BLACK
6
CONTINUOUS
10
12.119
20
-6.95087
11
12.1198
21
-6.9483
0
LINE
8
BLACK
6
CONTINUOUS
10
12.1198
20
-6.9483
11
12.1201
21
-6.94562
0
LINE
8
BLACK
6
CONTINUOUS
10
12.1201
20
-6.94562
11
12.1201
21
-6.94562
0
LINE
8
BLACK
6
CONTINUOUS
10
12.1201
20
-6.94562
11
12.1201
21
-6.94562
0
LINE
8
BLACK
6
CONTINUOUS
10
12.1201
20
-6.94562
11
12.1201
21
-6.89838
0
LINE
8
BLACK
6
CONTINUOUS
10
12.1201
20
-6.89838
11
12.1201
21
-6.89828
0
LINE
8
BLACK
6
CONTINUOUS
10
12.1201
20
-6.89828
11
12.1198
21
-6.89561
0
LINE
8
BLACK
6
CONTINUOUS
10
12.1198
20
-6.89561
11
12.119
21
-6.89304
0
LINE
8
BLACK
6
CONTINUOUS
10
12.119
20
-6.89304
11
12.1177
21
-6.89067
0
LINE
8
BLACK
6
CONTINUOUS
10
12.1177
20
-6.89067
11
12.116
21
-6.8886
0
LINE
8
BLACK
6
CONTINUOUS
10
12.116
20
-6.8886
11
12.1139
21
-6.8869
0
LINE
8
BLACK
6
CONTINUOUS
10
12.1139
20
-6.8869
11
12.1115
21
-6.88564
0
LINE
8
BLACK
6
CONTINUOUS
10
12.1115
20
-6.88564
11
12.109
21
-6.88486
0
LINE
8
BLACK
6
CONTINUOUS
10
12.109
20
-6.88486
11
12.1063
21
-6.8846
0
LINE
8
BLACK
6
CONTINUOUS
10
12.1063
20
-6.8846
11
12.1062
21
-6.8846
0
LINE
8
BLACK
6
CONTINUOUS
10
12.1062
20
-6.8846
11
12.1035
21
-6.88488
0
LINE
8
BLACK
6
CONTINUOUS
10
12.1035
20
-6.88488
11
12.101
21
-6.88568
0
LINE
8
BLACK
6
CONTINUOUS
10
12.101
20
-6.88568
11
12.0986
21
-6.88696
0
LINE
8
BLACK
6
CONTINUOUS
10
12.0986
20
-6.88696
11
12.0965
21
-6.88867
0
LINE
8
BLACK
6
CONTINUOUS
10
12.0965
20
-6.88867
11
12.0948
21
-6.89075
0
LINE
8
BLACK
6
CONTINUOUS
10
12.0948
20
-6.89075
11
12.0936
21
-6.89313
0
LINE
8
BLACK
6
CONTINUOUS
10
12.0936
20
-6.89313
11
12.0928
21
-6.8957
0
LINE
8
BLACK
6
CONTINUOUS
10
12.0928
20
-6.8957
11
12.0925
21
-6.89838
0
LINE
8
BLACK
6
CONTINUOUS
10
12.0925
20
-6.89838
11
12.0925
21
-6.94562
0
LINE
8
BLACK
6
CONTINUOUS
10
12.0925
20
-6.94562
11
12.0925
21
-6.94572
0
LINE
8
BLACK
6
CONTINUOUS
10
9.65513
20
-6.89067
11
9.65513
21
-6.89067
0
LINE
8
BLACK
6
CONTINUOUS
10
9.65513
20
-6.89067
11
9.65513
21
-6.89067
0
LINE
8
BLACK
6
CONTINUOUS
10
9.65513
20
-6.89067
11
9.65641
21
-6.89304
0
LINE
8
BLACK
6
CONTINUOUS
10
9.65641
20
-6.89304
11
9.65641
21
-6.89304
0
LINE
8
BLACK
6
CONTINUOUS
10
9.65641
20
-6.89304
11
9.65641
21
-6.89304
0
LINE
8
BLACK
6
CONTINUOUS
10
9.65641
20
-6.89304
11
9.65641
21
-6.89304
0
LINE
8
BLACK
6
CONTINUOUS
10
9.65641
20
-6.89304
11
9.6572
21
-6.89561
0
LINE
8
BLACK
6
CONTINUOUS
10
9.6572
20
-6.89561
11
9.6572
21
-6.89561
0
LINE
8
BLACK
6
CONTINUOUS
10
9.6572
20
-6.89561
11
9.65748
21
-6.89828
0
LINE
8
BLACK
6
CONTINUOUS
10
9.65748
20
-6.89828
11
9.65748
21
-6.89828
0
LINE
8
BLACK
6
CONTINUOUS
10
9.65748
20
-6.89828
11
9.65748
21
-6.89838
0
LINE
8
BLACK
6
CONTINUOUS
10
9.65748
20
-6.89838
11
9.65748
21
-6.94562
0
LINE
8
BLACK
6
CONTINUOUS
10
9.65748
20
-6.94562
11
9.65722
21
-6.9483
0
LINE
8
BLACK
6
CONTINUOUS
10
9.65722
20
-6.9483
11
9.65722
21
-6.9483
0
LINE
8
BLACK
6
CONTINUOUS
10
9.65722
20
-6.9483
11
9.65644
21
-6.95087
0
LINE
8
BLACK
6
CONTINUOUS
10
9.65644
20
-6.95087
11
9.65644
21
-6.95087
0
LINE
8
BLACK
6
CONTINUOUS
10
9.65644
20
-6.95087
11
9.65644
21
-6.95087
0
LINE
8
BLACK
6
CONTINUOUS
10
9.65644
20
-6.95087
11
9.65644
21
-6.95087
0
LINE
8
BLACK
6
CONTINUOUS
10
9.65644
20
-6.95087
11
9.65518
21
-6.95325
0
LINE
8
BLACK
6
CONTINUOUS
10
9.65518
20
-6.95325
11
9.65518
21
-6.95325
0
LINE
8
BLACK
6
CONTINUOUS
10
9.65518
20
-6.95325
11
9.65518
21
-6.95325
0
LINE
8
BLACK
6
CONTINUOUS
10
9.65518
20
-6.95325
11
9.65518
21
-6.95325
0
LINE
8
BLACK
6
CONTINUOUS
10
9.65518
20
-6.95325
11
9.65518
21
-6.95325
0
LINE
8
BLACK
6
CONTINUOUS
10
9.65518
20
-6.95325
11
9.65348
21
-6.95533
0
LINE
8
BLACK
6
CONTINUOUS
10
9.65348
20
-6.95533
11
9.65348
21
-6.95533
0
LINE
8
BLACK
6
CONTINUOUS
10
9.65348
20
-6.95533
11
9.65348
21
-6.95533
0
LINE
8
BLACK
6
CONTINUOUS
10
9.65348
20
-6.95533
11
9.65348
21
-6.95533
0
LINE
8
BLACK
6
CONTINUOUS
10
9.65348
20
-6.95533
11
9.65141
21
-6.95705
0
LINE
8
BLACK
6
CONTINUOUS
10
9.65141
20
-6.95705
11
9.65141
21
-6.95705
0
LINE
8
BLACK
6
CONTINUOUS
10
9.65141
20
-6.95705
11
9.65141
21
-6.95705
0
LINE
8
BLACK
6
CONTINUOUS
10
9.65141
20
-6.95705
11
9.64904
21
-6.95833
0
LINE
8
BLACK
6
CONTINUOUS
10
9.64904
20
-6.95833
11
9.64904
21
-6.95833
0
LINE
8
BLACK
6
CONTINUOUS
10
9.64904
20
-6.95833
11
9.64647
21
-6.95912
0
LINE
8
BLACK
6
CONTINUOUS
10
9.64647
20
-6.95912
11
9.64647
21
-6.95912
0
LINE
8
BLACK
6
CONTINUOUS
10
9.64647
20
-6.95912
11
9.6438
21
-6.9594
0
LINE
8
BLACK
6
CONTINUOUS
10
9.6438
20
-6.9594
11
9.6438
21
-6.9594
0
LINE
8
BLACK
6
CONTINUOUS
10
9.6438
20
-6.9594
11
9.6437
21
-6.9594
0
LINE
8
BLACK
6
CONTINUOUS
10
9.6437
20
-6.9594
11
9.6437
21
-6.9594
0
LINE
8
BLACK
6
CONTINUOUS
10
9.6437
20
-6.9594
11
9.64102
21
-6.95914
0
LINE
8
BLACK
6
CONTINUOUS
10
9.64102
20
-6.95914
11
9.64102
21
-6.95914
0
LINE
8
BLACK
6
CONTINUOUS
10
9.64102
20
-6.95914
11
9.64102
21
-6.95914
0
LINE
8
BLACK
6
CONTINUOUS
10
9.64102
20
-6.95914
11
9.63845
21
-6.95836
0
LINE
8
BLACK
6
CONTINUOUS
10
9.63845
20
-6.95836
11
9.63845
21
-6.95836
0
LINE
8
BLACK
6
CONTINUOUS
10
9.63845
20
-6.95836
11
9.63845
21
-6.95836
0
LINE
8
BLACK
6
CONTINUOUS
10
9.63845
20
-6.95836
11
9.63845
21
-6.95836
0
LINE
8
BLACK
6
CONTINUOUS
10
9.63845
20
-6.95836
11
9.63607
21
-6.9571
0
LINE
8
BLACK
6
CONTINUOUS
10
9.63607
20
-6.9571
11
9.63607
21
-6.9571
0
LINE
8
BLACK
6
CONTINUOUS
10
9.63607
20
-6.9571
11
9.63607
21
-6.9571
0
LINE
8
BLACK
6
CONTINUOUS
10
9.63607
20
-6.9571
11
9.63607
21
-6.9571
0
LINE
8
BLACK
6
CONTINUOUS
10
9.63607
20
-6.9571
11
9.63399
21
-6.9554
0
LINE
8
BLACK
6
CONTINUOUS
10
9.63399
20
-6.9554
11
9.63399
21
-6.9554
0
LINE
8
BLACK
6
CONTINUOUS
10
9.63399
20
-6.9554
11
9.63399
21
-6.9554
0
LINE
8
BLACK
6
CONTINUOUS
10
9.63399
20
-6.9554
11
9.63399
21
-6.9554
0
LINE
8
BLACK
6
CONTINUOUS
10
9.63399
20
-6.9554
11
9.63228
21
-6.95333
0
LINE
8
BLACK
6
CONTINUOUS
10
9.63228
20
-6.95333
11
9.63228
21
-6.95333
0
LINE
8
BLACK
6
CONTINUOUS
10
9.63228
20
-6.95333
11
9.63228
21
-6.95333
0
LINE
8
BLACK
6
CONTINUOUS
10
9.63228
20
-6.95333
11
9.631
21
-6.95096
0
LINE
8
BLACK
6
CONTINUOUS
10
9.631
20
-6.95096
11
9.631
21
-6.95096
0
LINE
8
BLACK
6
CONTINUOUS
10
9.631
20
-6.95096
11
9.631
21
-6.95096
0
LINE
8
BLACK
6
CONTINUOUS
10
9.631
20
-6.95096
11
9.6302
21
-6.94839
0
LINE
8
BLACK
6
CONTINUOUS
10
9.6302
20
-6.94839
11
9.6302
21
-6.94839
0
LINE
8
BLACK
6
CONTINUOUS
10
9.6302
20
-6.94839
11
9.6302
21
-6.94839
0
LINE
8
BLACK
6
CONTINUOUS
10
9.6302
20
-6.94839
11
9.62992
21
-6.94572
0
LINE
8
BLACK
6
CONTINUOUS
10
9.62992
20
-6.94572
11
9.62992
21
-6.94572
0
LINE
8
BLACK
6
CONTINUOUS
10
9.62992
20
-6.94572
11
9.62992
21
-6.94562
0
LINE
8
BLACK
6
CONTINUOUS
10
9.62992
20
-6.94562
11
9.62992
21
-6.94562
0
LINE
8
BLACK
6
CONTINUOUS
10
9.62992
20
-6.94562
11
9.62992
21
-6.94562
0
LINE
8
BLACK
6
CONTINUOUS
10
9.62992
20
-6.94562
11
9.62992
21
-6.89838
0
LINE
8
BLACK
6
CONTINUOUS
10
9.62992
20
-6.89838
11
9.62992
21
-6.89838
0
LINE
8
BLACK
6
CONTINUOUS
10
9.62992
20
-6.89838
11
9.63018
21
-6.8957
0
LINE
8
BLACK
6
CONTINUOUS
10
9.63018
20
-6.8957
11
9.63018
21
-6.8957
0
LINE
8
BLACK
6
CONTINUOUS
10
9.63018
20
-6.8957
11
9.63018
21
-6.8957
0
LINE
8
BLACK
6
CONTINUOUS
10
9.63018
20
-6.8957
11
9.63018
21
-6.8957
0
LINE
8
BLACK
6
CONTINUOUS
10
9.63018
20
-6.8957
11
9.63096
21
-6.89313
0
LINE
8
BLACK
6
CONTINUOUS
10
9.63096
20
-6.89313
11
9.63096
21
-6.89313
0
LINE
8
BLACK
6
CONTINUOUS
10
9.63096
20
-6.89313
11
9.63096
21
-6.89313
0
LINE
8
BLACK
6
CONTINUOUS
10
9.63096
20
-6.89313
11
9.63222
21
-6.89075
0
LINE
8
BLACK
6
CONTINUOUS
10
9.63222
20
-6.89075
11
9.63222
21
-6.89075
0
LINE
8
BLACK
6
CONTINUOUS
10
9.63222
20
-6.89075
11
9.63222
21
-6.89075
0
LINE
8
BLACK
6
CONTINUOUS
10
9.63222
20
-6.89075
11
9.63222
21
-6.89075
0
LINE
8
BLACK
6
CONTINUOUS
10
9.63222
20
-6.89075
11
9.63392
21
-6.88867
0
LINE
8
BLACK
6
CONTINUOUS
10
9.63392
20
-6.88867
11
9.63392
21
-6.88867
0
LINE
8
BLACK
6
CONTINUOUS
10
9.63392
20
-6.88867
11
9.63599
21
-6.88695
0
LINE
8
BLACK
6
CONTINUOUS
10
9.63599
20
-6.88695
11
9.63599
21
-6.88695
0
LINE
8
BLACK
6
CONTINUOUS
10
9.63599
20
-6.88695
11
9.63599
21
-6.88695
0
LINE
8
BLACK
6
CONTINUOUS
10
9.63599
20
-6.88695
11
9.63836
21
-6.88567
0
LINE
8
BLACK
6
CONTINUOUS
10
9.63836
20
-6.88567
11
9.63836
21
-6.88567
0
LINE
8
BLACK
6
CONTINUOUS
10
9.63836
20
-6.88567
11
9.63836
21
-6.88567
0
LINE
8
BLACK
6
CONTINUOUS
10
9.63836
20
-6.88567
11
9.63836
21
-6.88567
0
LINE
8
BLACK
6
CONTINUOUS
10
9.63836
20
-6.88567
11
9.64093
21
-6.88488
0
LINE
8
BLACK
6
CONTINUOUS
10
9.64093
20
-6.88488
11
9.64093
21
-6.88488
0
LINE
8
BLACK
6
CONTINUOUS
10
9.64093
20
-6.88488
11
9.6436
21
-6.8846
0
LINE
8
BLACK
6
CONTINUOUS
10
9.6436
20
-6.8846
11
9.6436
21
-6.8846
0
LINE
8
BLACK
6
CONTINUOUS
10
9.6436
20
-6.8846
11
9.6437
21
-6.8846
0
LINE
8
BLACK
6
CONTINUOUS
10
9.6437
20
-6.8846
11
9.6437
21
-6.8846
0
LINE
8
BLACK
6
CONTINUOUS
10
9.6437
20
-6.8846
11
9.64638
21
-6.88486
0
LINE
8
BLACK
6
CONTINUOUS
10
9.64638
20
-6.88486
11
9.64638
21
-6.88486
0
LINE
8
BLACK
6
CONTINUOUS
10
9.64638
20
-6.88486
11
9.64638
21
-6.88486
0
LINE
8
BLACK
6
CONTINUOUS
10
9.64638
20
-6.88486
11
9.64638
21
-6.88486
0
LINE
8
BLACK
6
CONTINUOUS
10
9.64638
20
-6.88486
11
9.64895
21
-6.88564
0
LINE
8
BLACK
6
CONTINUOUS
10
9.64895
20
-6.88564
11
9.64895
21
-6.88564
0
LINE
8
BLACK
6
CONTINUOUS
10
9.64895
20
-6.88564
11
9.64895
21
-6.88564
0
LINE
8
BLACK
6
CONTINUOUS
10
9.64895
20
-6.88564
11
9.65133
21
-6.8869
0
LINE
8
BLACK
6
CONTINUOUS
10
9.65133
20
-6.8869
11
9.65133
21
-6.8869
0
LINE
8
BLACK
6
CONTINUOUS
10
9.65133
20
-6.8869
11
9.65133
21
-6.8869
0
LINE
8
BLACK
6
CONTINUOUS
10
9.65133
20
-6.8869
11
9.65133
21
-6.8869
0
LINE
8
BLACK
6
CONTINUOUS
10
9.65133
20
-6.8869
11
9.65341
21
-6.8886
0
LINE
8
BLACK
6
CONTINUOUS
10
9.65341
20
-6.8886
11
9.65341
21
-6.8886
0
LINE
8
BLACK
6
CONTINUOUS
10
9.65341
20
-6.8886
11
9.65513
21
-6.89067
0
LINE
8
BLACK
6
CONTINUOUS
10
9.62992
20
-6.94572
11
9.6302
21
-6.94839
0
LINE
8
BLACK
6
CONTINUOUS
10
9.6302
20
-6.94839
11
9.631
21
-6.95096
0
LINE
8
BLACK
6
CONTINUOUS
10
9.631
20
-6.95096
11
9.63228
21
-6.95333
0
LINE
8
BLACK
6
CONTINUOUS
10
9.63228
20
-6.95333
11
9.63399
21
-6.9554
0
LINE
8
BLACK
6
CONTINUOUS
10
9.63399
20
-6.9554
11
9.63608
21
-6.9571
0
LINE
8
BLACK
6
CONTINUOUS
10
9.63608
20
-6.9571
11
9.63845
21
-6.95836
0
LINE
8
BLACK
6
CONTINUOUS
10
9.63845
20
-6.95836
11
9.64102
21
-6.95914
0
LINE
8
BLACK
6
CONTINUOUS
10
9.64102
20
-6.95914
11
9.6437
21
-6.9594
0
LINE
8
BLACK
6
CONTINUOUS
10
9.6437
20
-6.9594
11
9.6438
21
-6.9594
0
LINE
8
BLACK
6
CONTINUOUS
10
9.6438
20
-6.9594
11
9.64647
21
-6.95912
0
LINE
8
BLACK
6
CONTINUOUS
10
9.64647
20
-6.95912
11
9.64904
21
-6.95832
0
LINE
8
BLACK
6
CONTINUOUS
10
9.64904
20
-6.95832
11
9.65141
21
-6.95704
0
LINE
8
BLACK
6
CONTINUOUS
10
9.65141
20
-6.95704
11
9.65348
21
-6.95533
0
LINE
8
BLACK
6
CONTINUOUS
10
9.65348
20
-6.95533
11
9.65518
21
-6.95325
0
LINE
8
BLACK
6
CONTINUOUS
10
9.65518
20
-6.95325
11
9.65644
21
-6.95087
0
LINE
8
BLACK
6
CONTINUOUS
10
9.65644
20
-6.95087
11
9.65722
21
-6.9483
0
LINE
8
BLACK
6
CONTINUOUS
10
9.65722
20
-6.9483
11
9.65748
21
-6.94562
0
LINE
8
BLACK
6
CONTINUOUS
10
9.65748
20
-6.94562
11
9.65748
21
-6.94562
0
LINE
8
BLACK
6
CONTINUOUS
10
9.65748
20
-6.94562
11
9.65748
21
-6.94562
0
LINE
8
BLACK
6
CONTINUOUS
10
9.65748
20
-6.94562
11
9.65748
21
-6.89838
0
LINE
8
BLACK
6
CONTINUOUS
10
9.65748
20
-6.89838
11
9.65748
21
-6.89828
0
LINE
8
BLACK
6
CONTINUOUS
10
9.65748
20
-6.89828
11
9.6572
21
-6.89561
0
LINE
8
BLACK
6
CONTINUOUS
10
9.6572
20
-6.89561
11
9.6564
21
-6.89304
0
LINE
8
BLACK
6
CONTINUOUS
10
9.6564
20
-6.89304
11
9.65512
21
-6.89067
0
LINE
8
BLACK
6
CONTINUOUS
10
9.65512
20
-6.89067
11
9.65341
21
-6.8886
0
LINE
8
BLACK
6
CONTINUOUS
10
9.65341
20
-6.8886
11
9.65132
21
-6.8869
0
LINE
8
BLACK
6
CONTINUOUS
10
9.65132
20
-6.8869
11
9.64895
21
-6.88564
0
LINE
8
BLACK
6
CONTINUOUS
10
9.64895
20
-6.88564
11
9.64638
21
-6.88486
0
LINE
8
BLACK
6
CONTINUOUS
10
9.64638
20
-6.88486
11
9.6437
21
-6.8846
0
LINE
8
BLACK
6
CONTINUOUS
10
9.6437
20
-6.8846
11
9.6436
21
-6.8846
0
LINE
8
BLACK
6
CONTINUOUS
10
9.6436
20
-6.8846
11
9.64093
21
-6.88488
0
LINE
8
BLACK
6
CONTINUOUS
10
9.64093
20
-6.88488
11
9.63836
21
-6.88568
0
LINE
8
BLACK
6
CONTINUOUS
10
9.63836
20
-6.88568
11
9.636
21
-6.88696
0
LINE
8
BLACK
6
CONTINUOUS
10
9.636
20
-6.88696
11
9.63392
21
-6.88867
0
LINE
8
BLACK
6
CONTINUOUS
10
9.63392
20
-6.88867
11
9.63223
21
-6.89075
0
LINE
8
BLACK
6
CONTINUOUS
10
9.63223
20
-6.89075
11
9.63096
21
-6.89313
0
LINE
8
BLACK
6
CONTINUOUS
10
9.63096
20
-6.89313
11
9.63019
21
-6.8957
0
LINE
8
BLACK
6
CONTINUOUS
10
9.63019
20
-6.8957
11
9.62992
21
-6.89838
0
LINE
8
BLACK
6
CONTINUOUS
10
9.62992
20
-6.89838
11
9.62992
21
-6.94562
0
LINE
8
BLACK
6
CONTINUOUS
10
9.62992
20
-6.94562
11
9.62992
21
-6.94572
0
LINE
8
BLACK
6
CONTINUOUS
10
7.86772
20
-6.89067
11
7.86772
21
-6.89067
0
LINE
8
BLACK
6
CONTINUOUS
10
7.86772
20
-6.89067
11
7.86772
21
-6.89067
0
LINE
8
BLACK
6
CONTINUOUS
10
7.86772
20
-6.89067
11
7.869
21
-6.89304
0
LINE
8
BLACK
6
CONTINUOUS
10
7.869
20
-6.89304
11
7.869
21
-6.89304
0
LINE
8
BLACK
6
CONTINUOUS
10
7.869
20
-6.89304
11
7.869
21
-6.89304
0
LINE
8
BLACK
6
CONTINUOUS
10
7.869
20
-6.89304
11
7.869
21
-6.89304
0
LINE
8
BLACK
6
CONTINUOUS
10
7.869
20
-6.89304
11
7.8698
21
-6.89561
0
LINE
8
BLACK
6
CONTINUOUS
10
7.8698
20
-6.89561
11
7.8698
21
-6.89561
0
LINE
8
BLACK
6
CONTINUOUS
10
7.8698
20
-6.89561
11
7.87008
21
-6.89828
0
LINE
8
BLACK
6
CONTINUOUS
10
7.87008
20
-6.89828
11
7.87008
21
-6.89828
0
LINE
8
BLACK
6
CONTINUOUS
10
7.87008
20
-6.89828
11
7.87008
21
-6.89838
0
LINE
8
BLACK
6
CONTINUOUS
10
7.87008
20
-6.89838
11
7.87008
21
-6.94562
0
LINE
8
BLACK
6
CONTINUOUS
10
7.87008
20
-6.94562
11
7.86982
21
-6.9483
0
LINE
8
BLACK
6
CONTINUOUS
10
7.86982
20
-6.9483
11
7.86982
21
-6.9483
0
LINE
8
BLACK
6
CONTINUOUS
10
7.86982
20
-6.9483
11
7.86904
21
-6.95087
0
LINE
8
BLACK
6
CONTINUOUS
10
7.86904
20
-6.95087
11
7.86904
21
-6.95087
0
LINE
8
BLACK
6
CONTINUOUS
10
7.86904
20
-6.95087
11
7.86904
21
-6.95087
0
LINE
8
BLACK
6
CONTINUOUS
10
7.86904
20
-6.95087
11
7.86904
21
-6.95087
0
LINE
8
BLACK
6
CONTINUOUS
10
7.86904
20
-6.95087
11
7.86778
21
-6.95325
0
LINE
8
BLACK
6
CONTINUOUS
10
7.86778
20
-6.95325
11
7.86778
21
-6.95325
0
LINE
8
BLACK
6
CONTINUOUS
10
7.86778
20
-6.95325
11
7.86778
21
-6.95325
0
LINE
8
BLACK
6
CONTINUOUS
10
7.86778
20
-6.95325
11
7.86778
21
-6.95325
0
LINE
8
BLACK
6
CONTINUOUS
10
7.86778
20
-6.95325
11
7.86778
21
-6.95325
0
LINE
8
BLACK
6
CONTINUOUS
10
7.86778
20
-6.95325
11
7.86608
21
-6.95533
0
LINE
8
BLACK
6
CONTINUOUS
10
7.86608
20
-6.95533
11
7.86608
21
-6.95533
0
LINE
8
BLACK
6
CONTINUOUS
10
7.86608
20
-6.95533
11
7.86608
21
-6.95533
0
LINE
8
BLACK
6
CONTINUOUS
10
7.86608
20
-6.95533
11
7.86608
21
-6.95533
0
LINE
8
BLACK
6
CONTINUOUS
10
7.86608
20
-6.95533
11
7.86401
21
-6.95705
0
LINE
8
BLACK
6
CONTINUOUS
10
7.86401
20
-6.95705
11
7.86401
21
-6.95705
0
LINE
8
BLACK
6
CONTINUOUS
10
7.86401
20
-6.95705
11
7.86401
21
-6.95705
0
LINE
8
BLACK
6
CONTINUOUS
10
7.86401
20
-6.95705
11
7.86164
21
-6.95833
0
LINE
8
BLACK
6
CONTINUOUS
10
7.86164
20
-6.95833
11
7.86164
21
-6.95833
0
LINE
8
BLACK
6
CONTINUOUS
10
7.86164
20
-6.95833
11
7.85907
21
-6.95912
0
LINE
8
BLACK
6
CONTINUOUS
10
7.85907
20
-6.95912
11
7.85907
21
-6.95912
0
LINE
8
BLACK
6
CONTINUOUS
10
7.85907
20
-6.95912
11
7.8564
21
-6.9594
0
LINE
8
BLACK
6
CONTINUOUS
10
7.8564
20
-6.9594
11
7.8564
21
-6.9594
0
LINE
8
BLACK
6
CONTINUOUS
10
7.8564
20
-6.9594
11
7.8563
21
-6.9594
0
LINE
8
BLACK
6
CONTINUOUS
10
7.8563
20
-6.9594
11
7.8563
21
-6.9594
0
LINE
8
BLACK
6
CONTINUOUS
10
7.8563
20
-6.9594
11
7.85362
21
-6.95914
0
LINE
8
BLACK
6
CONTINUOUS
10
7.85362
20
-6.95914
11
7.85362
21
-6.95914
0
LINE
8
BLACK
6
CONTINUOUS
10
7.85362
20
-6.95914
11
7.85362
21
-6.95914
0
LINE
8
BLACK
6
CONTINUOUS
10
7.85362
20
-6.95914
11
7.85105
21
-6.95836
0
LINE
8
BLACK
6
CONTINUOUS
10
7.85105
20
-6.95836
11
7.85105
21
-6.95836
0
LINE
8
BLACK
6
CONTINUOUS
10
7.85105
20
-6.95836
11
7.85105
21
-6.95836
0
LINE
8
BLACK
6
CONTINUOUS
10
7.85105
20
-6.95836
11
7.85105
21
-6.95836
0
LINE
8
BLACK
6
CONTINUOUS
10
7.85105
20
-6.95836
11
7.84867
21
-6.9571
0
LINE
8
BLACK
6
CONTINUOUS
10
7.84867
20
-6.9571
11
7.84867
21
-6.9571
0
LINE
8
BLACK
6
CONTINUOUS
10
7.84867
20
-6.9571
11
7.84867
21
-6.9571
0
LINE
8
BLACK
6
CONTINUOUS
10
7.84867
20
-6.9571
11
7.84867
21
-6.9571
0
LINE
8
BLACK
6
CONTINUOUS
10
7.84867
20
-6.9571
11
7.84659
21
-6.9554
0
LINE
8
BLACK
6
CONTINUOUS
10
7.84659
20
-6.9554
11
7.84659
21
-6.9554
0
LINE
8
BLACK
6
CONTINUOUS
10
7.84659
20
-6.9554
11
7.84659
21
-6.9554
0
LINE
8
BLACK
6
CONTINUOUS
10
7.84659
20
-6.9554
11
7.84659
21
-6.9554
0
LINE
8
BLACK
6
CONTINUOUS
10
7.84659
20
-6.9554
11
7.84487
21
-6.95333
0
LINE
8
BLACK
6
CONTINUOUS
10
7.84487
20
-6.95333
11
7.84487
21
-6.95333
0
LINE
8
BLACK
6
CONTINUOUS
10
7.84487
20
-6.95333
11
7.84487
21
-6.95333
0
LINE
8
BLACK
6
CONTINUOUS
10
7.84487
20
-6.95333
11
7.84359
21
-6.95096
0
LINE
8
BLACK
6
CONTINUOUS
10
7.84359
20
-6.95096
11
7.84359
21
-6.95096
0
LINE
8
BLACK
6
CONTINUOUS
10
7.84359
20
-6.95096
11
7.84359
21
-6.95096
0
LINE
8
BLACK
6
CONTINUOUS
10
7.84359
20
-6.95096
11
7.8428
21
-6.94839
0
LINE
8
BLACK
6
CONTINUOUS
10
7.8428
20
-6.94839
11
7.8428
21
-6.94839
0
LINE
8
BLACK
6
CONTINUOUS
10
7.8428
20
-6.94839
11
7.8428
21
-6.94839
0
LINE
8
BLACK
6
CONTINUOUS
10
7.8428
20
-6.94839
11
7.84252
21
-6.94572
0
LINE
8
BLACK
6
CONTINUOUS
10
7.84252
20
-6.94572
11
7.84252
21
-6.94572
0
LINE
8
BLACK
6
CONTINUOUS
10
7.84252
20
-6.94572
11
7.84252
21
-6.94562
0
LINE
8
BLACK
6
CONTINUOUS
10
7.84252
20
-6.94562
11
7.84252
21
-6.94562
0
LINE
8
BLACK
6
CONTINUOUS
10
7.84252
20
-6.94562
11
7.84252
21
-6.94562
0
LINE
8
BLACK
6
CONTINUOUS
10
7.84252
20
-6.94562
11
7.84252
21
-6.89838
0
LINE
8
BLACK
6
CONTINUOUS
10
7.84252
20
-6.89838
11
7.84252
21
-6.89838
0
LINE
8
BLACK
6
CONTINUOUS
10
7.84252
20
-6.89838
11
7.84278
21
-6.8957
0
LINE
8
BLACK
6
CONTINUOUS
10
7.84278
20
-6.8957
11
7.84278
21
-6.8957
0
LINE
8
BLACK
6
CONTINUOUS
10
7.84278
20
-6.8957
11
7.84278
21
-6.8957
0
LINE
8
BLACK
6
CONTINUOUS
10
7.84278
20
-6.8957
11
7.84278
21
-6.8957
0
LINE
8
BLACK
6
CONTINUOUS
10
7.84278
20
-6.8957
11
7.84356
21
-6.89313
0
LINE
8
BLACK
6
CONTINUOUS
10
7.84356
20
-6.89313
11
7.84356
21
-6.89313
0
LINE
8
BLACK
6
CONTINUOUS
10
7.84356
20
-6.89313
11
7.84356
21
-6.89313
0
LINE
8
BLACK
6
CONTINUOUS
10
7.84356
20
-6.89313
11
7.84482
21
-6.89075
0
LINE
8
BLACK
6
CONTINUOUS
10
7.84482
20
-6.89075
11
7.84482
21
-6.89075
0
LINE
8
BLACK
6
CONTINUOUS
10
7.84482
20
-6.89075
11
7.84482
21
-6.89075
0
LINE
8
BLACK
6
CONTINUOUS
10
7.84482
20
-6.89075
11
7.84482
21
-6.89075
0
LINE
8
BLACK
6
CONTINUOUS
10
7.84482
20
-6.89075
11
7.84652
21
-6.88867
0
LINE
8
BLACK
6
CONTINUOUS
10
7.84652
20
-6.88867
11
7.84652
21
-6.88867
0
LINE
8
BLACK
6
CONTINUOUS
10
7.84652
20
-6.88867
11
7.84859
21
-6.88695
0
LINE
8
BLACK
6
CONTINUOUS
10
7.84859
20
-6.88695
11
7.84859
21
-6.88695
0
LINE
8
BLACK
6
CONTINUOUS
10
7.84859
20
-6.88695
11
7.84859
21
-6.88695
0
LINE
8
BLACK
6
CONTINUOUS
10
7.84859
20
-6.88695
11
7.85096
21
-6.88567
0
LINE
8
BLACK
6
CONTINUOUS
10
7.85096
20
-6.88567
11
7.85096
21
-6.88567
0
LINE
8
BLACK
6
CONTINUOUS
10
7.85096
20
-6.88567
11
7.85096
21
-6.88567
0
LINE
8
BLACK
6
CONTINUOUS
10
7.85096
20
-6.88567
11
7.85096
21
-6.88567
0
LINE
8
BLACK
6
CONTINUOUS
10
7.85096
20
-6.88567
11
7.85353
21
-6.88488
0
LINE
8
BLACK
6
CONTINUOUS
10
7.85353
20
-6.88488
11
7.85353
21
-6.88488
0
LINE
8
BLACK
6
CONTINUOUS
10
7.85353
20
-6.88488
11
7.8562
21
-6.8846
0
LINE
8
BLACK
6
CONTINUOUS
10
7.8562
20
-6.8846
11
7.8562
21
-6.8846
0
LINE
8
BLACK
6
CONTINUOUS
10
7.8562
20
-6.8846
11
7.8563
21
-6.8846
0
LINE
8
BLACK
6
CONTINUOUS
10
7.8563
20
-6.8846
11
7.8563
21
-6.8846
0
LINE
8
BLACK
6
CONTINUOUS
10
7.8563
20
-6.8846
11
7.85898
21
-6.88486
0
LINE
8
BLACK
6
CONTINUOUS
10
7.85898
20
-6.88486
11
7.85898
21
-6.88486
0
LINE
8
BLACK
6
CONTINUOUS
10
7.85898
20
-6.88486
11
7.85898
21
-6.88486
0
LINE
8
BLACK
6
CONTINUOUS
10
7.85898
20
-6.88486
11
7.85898
21
-6.88486
0
LINE
8
BLACK
6
CONTINUOUS
10
7.85898
20
-6.88486
11
7.86155
21
-6.88564
0
LINE
8
BLACK
6
CONTINUOUS
10
7.86155
20
-6.88564
11
7.86155
21
-6.88564
0
LINE
8
BLACK
6
CONTINUOUS
10
7.86155
20
-6.88564
11
7.86155
21
-6.88564
0
LINE
8
BLACK
6
CONTINUOUS
10
7.86155
20
-6.88564
11
7.86393
21
-6.8869
0
LINE
8
BLACK
6
CONTINUOUS
10
7.86393
20
-6.8869
11
7.86393
21
-6.8869
0
LINE
8
BLACK
6
CONTINUOUS
10
7.86393
20
-6.8869
11
7.86393
21
-6.8869
0
LINE
8
BLACK
6
CONTINUOUS
10
7.86393
20
-6.8869
11
7.86393
21
-6.8869
0
LINE
8
BLACK
6
CONTINUOUS
10
7.86393
20
-6.8869
11
7.86601
21
-6.8886
0
LINE
8
BLACK
6
CONTINUOUS
10
7.86601
20
-6.8886
11
7.86601
21
-6.8886
0
LINE
8
BLACK
6
CONTINUOUS
10
7.86601
20
-6.8886
11
7.86772
21
-6.89067
0
LINE
8
BLACK
6
CONTINUOUS
10
7.84252
20
-6.94572
11
7.8428
21
-6.94839
0
LINE
8
BLACK
6
CONTINUOUS
10
7.8428
20
-6.94839
11
7.8436
21
-6.95096
0
LINE
8
BLACK
6
CONTINUOUS
10
7.8436
20
-6.95096
11
7.84488
21
-6.95333
0
LINE
8
BLACK
6
CONTINUOUS
10
7.84488
20
-6.95333
11
7.84659
21
-6.9554
0
LINE
8
BLACK
6
CONTINUOUS
10
7.84659
20
-6.9554
11
7.84867
21
-6.9571
0
LINE
8
BLACK
6
CONTINUOUS
10
7.84867
20
-6.9571
11
7.85105
21
-6.95836
0
LINE
8
BLACK
6
CONTINUOUS
10
7.85105
20
-6.95836
11
7.85362
21
-6.95914
0
LINE
8
BLACK
6
CONTINUOUS
10
7.85362
20
-6.95914
11
7.8563
21
-6.9594
0
LINE
8
BLACK
6
CONTINUOUS
10
7.8563
20
-6.9594
11
7.8564
21
-6.9594
0
LINE
8
BLACK
6
CONTINUOUS
10
7.8564
20
-6.9594
11
7.85907
21
-6.95912
0
LINE
8
BLACK
6
CONTINUOUS
10
7.85907
20
-6.95912
11
7.86164
21
-6.95832
0
LINE
8
BLACK
6
CONTINUOUS
10
7.86164
20
-6.95832
11
7.864
21
-6.95704
0
LINE
8
BLACK
6
CONTINUOUS
10
7.864
20
-6.95704
11
7.86608
21
-6.95533
0
LINE
8
BLACK
6
CONTINUOUS
10
7.86608
20
-6.95533
11
7.86777
21
-6.95325
0
LINE
8
BLACK
6
CONTINUOUS
10
7.86777
20
-6.95325
11
7.86904
21
-6.95087
0
LINE
8
BLACK
6
CONTINUOUS
10
7.86904
20
-6.95087
11
7.86981
21
-6.9483
0
LINE
8
BLACK
6
CONTINUOUS
10
7.86981
20
-6.9483
11
7.87008
21
-6.94562
0
LINE
8
BLACK
6
CONTINUOUS
10
7.87008
20
-6.94562
11
7.87008
21
-6.94562
0
LINE
8
BLACK
6
CONTINUOUS
10
7.87008
20
-6.94562
11
7.87008
21
-6.94562
0
LINE
8
BLACK
6
CONTINUOUS
10
7.87008
20
-6.94562
11
7.87008
21
-6.89838
0
LINE
8
BLACK
6
CONTINUOUS
10
7.87008
20
-6.89838
11
7.87008
21
-6.89828
0
LINE
8
BLACK
6
CONTINUOUS
10
7.87008
20
-6.89828
11
7.8698
21
-6.89561
0
LINE
8
BLACK
6
CONTINUOUS
10
7.8698
20
-6.89561
11
7.869
21
-6.89304
0
LINE
8
BLACK
6
CONTINUOUS
10
7.869
20
-6.89304
11
7.86772
21
-6.89067
0
LINE
8
BLACK
6
CONTINUOUS
10
7.86772
20
-6.89067
11
7.86601
21
-6.8886
0
LINE
8
BLACK
6
CONTINUOUS
10
7.86601
20
-6.8886
11
7.86392
21
-6.8869
0
LINE
8
BLACK
6
CONTINUOUS
10
7.86392
20
-6.8869
11
7.86155
21
-6.88564
0
LINE
8
BLACK
6
CONTINUOUS
10
7.86155
20
-6.88564
11
7.85898
21
-6.88486
0
LINE
8
BLACK
6
CONTINUOUS
10
7.85898
20
-6.88486
11
7.8563
21
-6.8846
0
LINE
8
BLACK
6
CONTINUOUS
10
7.8563
20
-6.8846
11
7.8562
21
-6.8846
0
LINE
8
BLACK
6
CONTINUOUS
10
7.8562
20
-6.8846
11
7.85353
21
-6.88488
0
LINE
8
BLACK
6
CONTINUOUS
10
7.85353
20
-6.88488
11
7.85096
21
-6.88568
0
LINE
8
BLACK
6
CONTINUOUS
10
7.85096
20
-6.88568
11
7.84859
21
-6.88696
0
LINE
8
BLACK
6
CONTINUOUS
10
7.84859
20
-6.88696
11
7.84652
21
-6.88867
0
LINE
8
BLACK
6
CONTINUOUS
10
7.84652
20
-6.88867
11
7.84482
21
-6.89075
0
LINE
8
BLACK
6
CONTINUOUS
10
7.84482
20
-6.89075
11
7.84356
21
-6.89313
0
LINE
8
BLACK
6
CONTINUOUS
10
7.84356
20
-6.89313
11
7.84278
21
-6.8957
0
LINE
8
BLACK
6
CONTINUOUS
10
7.84278
20
-6.8957
11
7.84252
21
-6.89838
0
LINE
8
BLACK
6
CONTINUOUS
10
7.84252
20
-6.89838
11
7.84252
21
-6.94562
0
LINE
8
BLACK
6
CONTINUOUS
10
7.84252
20
-6.94562
11
7.84252
21
-6.94572
0
LINE
8
BLACK
6
CONTINUOUS
10
9.36772
20
-6.89067
11
9.36772
21
-6.89067
0
LINE
8
BLACK
6
CONTINUOUS
10
9.36772
20
-6.89067
11
9.36772
21
-6.89067
0
LINE
8
BLACK
6
CONTINUOUS
10
9.36772
20
-6.89067
11
9.369
21
-6.89304
0
LINE
8
BLACK
6
CONTINUOUS
10
9.369
20
-6.89304
11
9.369
21
-6.89304
0
LINE
8
BLACK
6
CONTINUOUS
10
9.369
20
-6.89304
11
9.369
21
-6.89304
0
LINE
8
BLACK
6
CONTINUOUS
10
9.369
20
-6.89304
11
9.369
21
-6.89304
0
LINE
8
BLACK
6
CONTINUOUS
10
9.369
20
-6.89304
11
9.3698
21
-6.89561
0
LINE
8
BLACK
6
CONTINUOUS
10
9.3698
20
-6.89561
11
9.3698
21
-6.89561
0
LINE
8
BLACK
6
CONTINUOUS
10
9.3698
20
-6.89561
11
9.37008
21
-6.89828
0
LINE
8
BLACK
6
CONTINUOUS
10
9.37008
20
-6.89828
11
9.37008
21
-6.89828
0
LINE
8
BLACK
6
CONTINUOUS
10
9.37008
20
-6.89828
11
9.37008
21
-6.89838
0
LINE
8
BLACK
6
CONTINUOUS
10
9.37008
20
-6.89838
11
9.37008
21
-6.94562
0
LINE
8
BLACK
6
CONTINUOUS
10
9.37008
20
-6.94562
11
9.36982
21
-6.9483
0
LINE
8
BLACK
6
CONTINUOUS
10
9.36982
20
-6.9483
11
9.36982
21
-6.9483
0
LINE
8
BLACK
6
CONTINUOUS
10
9.36982
20
-6.9483
11
9.36904
21
-6.95087
0
LINE
8
BLACK
6
CONTINUOUS
10
9.36904
20
-6.95087
11
9.36904
21
-6.95087
0
LINE
8
BLACK
6
CONTINUOUS
10
9.36904
20
-6.95087
11
9.36904
21
-6.95087
0
LINE
8
BLACK
6
CONTINUOUS
10
9.36904
20
-6.95087
11
9.36904
21
-6.95087
0
LINE
8
BLACK
6
CONTINUOUS
10
9.36904
20
-6.95087
11
9.36778
21
-6.95325
0
LINE
8
BLACK
6
CONTINUOUS
10
9.36778
20
-6.95325
11
9.36778
21
-6.95325
0
LINE
8
BLACK
6
CONTINUOUS
10
9.36778
20
-6.95325
11
9.36778
21
-6.95325
0
LINE
8
BLACK
6
CONTINUOUS
10
9.36778
20
-6.95325
11
9.36778
21
-6.95325
0
LINE
8
BLACK
6
CONTINUOUS
10
9.36778
20
-6.95325
11
9.36778
21
-6.95325
0
LINE
8
BLACK
6
CONTINUOUS
10
9.36778
20
-6.95325
11
9.36608
21
-6.95533
0
LINE
8
BLACK
6
CONTINUOUS
10
9.36608
20
-6.95533
11
9.36608
21
-6.95533
0
LINE
8
BLACK
6
CONTINUOUS
10
9.36608
20
-6.95533
11
9.36608
21
-6.95533
0
LINE
8
BLACK
6
CONTINUOUS
10
9.36608
20
-6.95533
11
9.36608
21
-6.95533
0
LINE
8
BLACK
6
CONTINUOUS
10
9.36608
20
-6.95533
11
9.36401
21
-6.95705
0
LINE
8
BLACK
6
CONTINUOUS
10
9.36401
20
-6.95705
11
9.36401
21
-6.95705
0
LINE
8
BLACK
6
CONTINUOUS
10
9.36401
20
-6.95705
11
9.36401
21
-6.95705
0
LINE
8
BLACK
6
CONTINUOUS
10
9.36401
20
-6.95705
11
9.36164
21
-6.95833
0
LINE
8
BLACK
6
CONTINUOUS
10
9.36164
20
-6.95833
11
9.36164
21
-6.95833
0
LINE
8
BLACK
6
CONTINUOUS
10
9.36164
20
-6.95833
11
9.35907
21
-6.95912
0
LINE
8
BLACK
6
CONTINUOUS
10
9.35907
20
-6.95912
11
9.35907
21
-6.95912
0
LINE
8
BLACK
6
CONTINUOUS
10
9.35907
20
-6.95912
11
9.3564
21
-6.9594
0
LINE
8
BLACK
6
CONTINUOUS
10
9.3564
20
-6.9594
11
9.3564
21
-6.9594
0
LINE
8
BLACK
6
CONTINUOUS
10
9.3564
20
-6.9594
11
9.3563
21
-6.9594
0
LINE
8
BLACK
6
CONTINUOUS
10
9.3563
20
-6.9594
11
9.3563
21
-6.9594
0
LINE
8
BLACK
6
CONTINUOUS
10
9.3563
20
-6.9594
11
9.35362
21
-6.95914
0
LINE
8
BLACK
6
CONTINUOUS
10
9.35362
20
-6.95914
11
9.35362
21
-6.95914
0
LINE
8
BLACK
6
CONTINUOUS
10
9.35362
20
-6.95914
11
9.35362
21
-6.95914
0
LINE
8
BLACK
6
CONTINUOUS
10
9.35362
20
-6.95914
11
9.35105
21
-6.95836
0
LINE
8
BLACK
6
CONTINUOUS
10
9.35105
20
-6.95836
11
9.35105
21
-6.95836
0
LINE
8
BLACK
6
CONTINUOUS
10
9.35105
20
-6.95836
11
9.35105
21
-6.95836
0
LINE
8
BLACK
6
CONTINUOUS
10
9.35105
20
-6.95836
11
9.35105
21
-6.95836
0
LINE
8
BLACK
6
CONTINUOUS
10
9.35105
20
-6.95836
11
9.34867
21
-6.9571
0
LINE
8
BLACK
6
CONTINUOUS
10
9.34867
20
-6.9571
11
9.34867
21
-6.9571
0
LINE
8
BLACK
6
CONTINUOUS
10
9.34867
20
-6.9571
11
9.34867
21
-6.9571
0
LINE
8
BLACK
6
CONTINUOUS
10
9.34867
20
-6.9571
11
9.34867
21
-6.9571
0
LINE
8
BLACK
6
CONTINUOUS
10
9.34867
20
-6.9571
11
9.34659
21
-6.9554
0
LINE
8
BLACK
6
CONTINUOUS
10
9.34659
20
-6.9554
11
9.34659
21
-6.9554
0
LINE
8
BLACK
6
CONTINUOUS
10
9.34659
20
-6.9554
11
9.34659
21
-6.9554
0
LINE
8
BLACK
6
CONTINUOUS
10
9.34659
20
-6.9554
11
9.34659
21
-6.9554
0
LINE
8
BLACK
6
CONTINUOUS
10
9.34659
20
-6.9554
11
9.34487
21
-6.95333
0
LINE
8
BLACK
6
CONTINUOUS
10
9.34487
20
-6.95333
11
9.34487
21
-6.95333
0
LINE
8
BLACK
6
CONTINUOUS
10
9.34487
20
-6.95333
11
9.34487
21
-6.95333
0
LINE
8
BLACK
6
CONTINUOUS
10
9.34487
20
-6.95333
11
9.34359
21
-6.95096
0
LINE
8
BLACK
6
CONTINUOUS
10
9.34359
20
-6.95096
11
9.34359
21
-6.95096
0
LINE
8
BLACK
6
CONTINUOUS
10
9.34359
20
-6.95096
11
9.34359
21
-6.95096
0
LINE
8
BLACK
6
CONTINUOUS
10
9.34359
20
-6.95096
11
9.3428
21
-6.94839
0
LINE
8
BLACK
6
CONTINUOUS
10
9.3428
20
-6.94839
11
9.3428
21
-6.94839
0
LINE
8
BLACK
6
CONTINUOUS
10
9.3428
20
-6.94839
11
9.3428
21
-6.94839
0
LINE
8
BLACK
6
CONTINUOUS
10
9.3428
20
-6.94839
11
9.34252
21
-6.94572
0
LINE
8
BLACK
6
CONTINUOUS
10
9.34252
20
-6.94572
11
9.34252
21
-6.94572
0
LINE
8
BLACK
6
CONTINUOUS
10
9.34252
20
-6.94572
11
9.34252
21
-6.94562
0
LINE
8
BLACK
6
CONTINUOUS
10
9.34252
20
-6.94562
11
9.34252
21
-6.94562
0
LINE
8
BLACK
6
CONTINUOUS
10
9.34252
20
-6.94562
11
9.34252
21
-6.94562
0
LINE
8
BLACK
6
CONTINUOUS
10
9.34252
20
-6.94562
11
9.34252
21
-6.89838
0
LINE
8
BLACK
6
CONTINUOUS
10
9.34252
20
-6.89838
11
9.34252
21
-6.89838
0
LINE
8
BLACK
6
CONTINUOUS
10
9.34252
20
-6.89838
11
9.34278
21
-6.8957
0
LINE
8
BLACK
6
CONTINUOUS
10
9.34278
20
-6.8957
11
9.34278
21
-6.8957
0
LINE
8
BLACK
6
CONTINUOUS
10
9.34278
20
-6.8957
11
9.34278
21
-6.8957
0
LINE
8
BLACK
6
CONTINUOUS
10
9.34278
20
-6.8957
11
9.34278
21
-6.8957
0
LINE
8
BLACK
6
CONTINUOUS
10
9.34278
20
-6.8957
11
9.34356
21
-6.89313
0
LINE
8
BLACK
6
CONTINUOUS
10
9.34356
20
-6.89313
11
9.34356
21
-6.89313
0
LINE
8
BLACK
6
CONTINUOUS
10
9.34356
20
-6.89313
11
9.34356
21
-6.89313
0
LINE
8
BLACK
6
CONTINUOUS
10
9.34356
20
-6.89313
11
9.34482
21
-6.89075
0
LINE
8
BLACK
6
CONTINUOUS
10
9.34482
20
-6.89075
11
9.34482
21
-6.89075
0
LINE
8
BLACK
6
CONTINUOUS
10
9.34482
20
-6.89075
11
9.34482
21
-6.89075
0
LINE
8
BLACK
6
CONTINUOUS
10
9.34482
20
-6.89075
11
9.34482
21
-6.89075
0
LINE
8
BLACK
6
CONTINUOUS
10
9.34482
20
-6.89075
11
9.34652
21
-6.88867
0
LINE
8
BLACK
6
CONTINUOUS
10
9.34652
20
-6.88867
11
9.34652
21
-6.88867
0
LINE
8
BLACK
6
CONTINUOUS
10
9.34652
20
-6.88867
11
9.34859
21
-6.88695
0
LINE
8
BLACK
6
CONTINUOUS
10
9.34859
20
-6.88695
11
9.34859
21
-6.88695
0
LINE
8
BLACK
6
CONTINUOUS
10
9.34859
20
-6.88695
11
9.34859
21
-6.88695
0
LINE
8
BLACK
6
CONTINUOUS
10
9.34859
20
-6.88695
11
9.35096
21
-6.88567
0
LINE
8
BLACK
6
CONTINUOUS
10
9.35096
20
-6.88567
11
9.35096
21
-6.88567
0
LINE
8
BLACK
6
CONTINUOUS
10
9.35096
20
-6.88567
11
9.35096
21
-6.88567
0
LINE
8
BLACK
6
CONTINUOUS
10
9.35096
20
-6.88567
11
9.35096
21
-6.88567
0
LINE
8
BLACK
6
CONTINUOUS
10
9.35096
20
-6.88567
11
9.35353
21
-6.88488
0
LINE
8
BLACK
6
CONTINUOUS
10
9.35353
20
-6.88488
11
9.35353
21
-6.88488
0
LINE
8
BLACK
6
CONTINUOUS
10
9.35353
20
-6.88488
11
9.3562
21
-6.8846
0
LINE
8
BLACK
6
CONTINUOUS
10
9.3562
20
-6.8846
11
9.3562
21
-6.8846
0
LINE
8
BLACK
6
CONTINUOUS
10
9.3562
20
-6.8846
11
9.3563
21
-6.8846
0
LINE
8
BLACK
6
CONTINUOUS
10
9.3563
20
-6.8846
11
9.3563
21
-6.8846
0
LINE
8
BLACK
6
CONTINUOUS
10
9.3563
20
-6.8846
11
9.35898
21
-6.88486
0
LINE
8
BLACK
6
CONTINUOUS
10
9.35898
20
-6.88486
11
9.35898
21
-6.88486
0
LINE
8
BLACK
6
CONTINUOUS
10
9.35898
20
-6.88486
11
9.35898
21
-6.88486
0
LINE
8
BLACK
6
CONTINUOUS
10
9.35898
20
-6.88486
11
9.35898
21
-6.88486
0
LINE
8
BLACK
6
CONTINUOUS
10
9.35898
20
-6.88486
11
9.36155
21
-6.88564
0
LINE
8
BLACK
6
CONTINUOUS
10
9.36155
20
-6.88564
11
9.36155
21
-6.88564
0
LINE
8
BLACK
6
CONTINUOUS
10
9.36155
20
-6.88564
11
9.36155
21
-6.88564
0
LINE
8
BLACK
6
CONTINUOUS
10
9.36155
20
-6.88564
11
9.36393
21
-6.8869
0
LINE
8
BLACK
6
CONTINUOUS
10
9.36393
20
-6.8869
11
9.36393
21
-6.8869
0
LINE
8
BLACK
6
CONTINUOUS
10
9.36393
20
-6.8869
11
9.36393
21
-6.8869
0
LINE
8
BLACK
6
CONTINUOUS
10
9.36393
20
-6.8869
11
9.36393
21
-6.8869
0
LINE
8
BLACK
6
CONTINUOUS
10
9.36393
20
-6.8869
11
9.36601
21
-6.8886
0
LINE
8
BLACK
6
CONTINUOUS
10
9.36601
20
-6.8886
11
9.36601
21
-6.8886
0
LINE
8
BLACK
6
CONTINUOUS
10
9.36601
20
-6.8886
11
9.36772
21
-6.89067
0
LINE
8
BLACK
6
CONTINUOUS
10
9.34252
20
-6.94572
11
9.3428
21
-6.94839
0
LINE
8
BLACK
6
CONTINUOUS
10
9.3428
20
-6.94839
11
9.3436
21
-6.95096
0
LINE
8
BLACK
6
CONTINUOUS
10
9.3436
20
-6.95096
11
9.34488
21
-6.95333
0
LINE
8
BLACK
6
CONTINUOUS
10
9.34488
20
-6.95333
11
9.34659
21
-6.9554
0
LINE
8
BLACK
6
CONTINUOUS
10
9.34659
20
-6.9554
11
9.34867
21
-6.9571
0
LINE
8
BLACK
6
CONTINUOUS
10
9.34867
20
-6.9571
11
9.35105
21
-6.95836
0
LINE
8
BLACK
6
CONTINUOUS
10
9.35105
20
-6.95836
11
9.35362
21
-6.95914
0
LINE
8
BLACK
6
CONTINUOUS
10
9.35362
20
-6.95914
11
9.3563
21
-6.9594
0
LINE
8
BLACK
6
CONTINUOUS
10
9.3563
20
-6.9594
11
9.3564
21
-6.9594
0
LINE
8
BLACK
6
CONTINUOUS
10
9.3564
20
-6.9594
11
9.35907
21
-6.95912
0
LINE
8
BLACK
6
CONTINUOUS
10
9.35907
20
-6.95912
11
9.36164
21
-6.95832
0
LINE
8
BLACK
6
CONTINUOUS
10
9.36164
20
-6.95832
11
9.364
21
-6.95704
0
LINE
8
BLACK
6
CONTINUOUS
10
9.364
20
-6.95704
11
9.36608
21
-6.95533
0
LINE
8
BLACK
6
CONTINUOUS
10
9.36608
20
-6.95533
11
9.36777
21
-6.95325
0
LINE
8
BLACK
6
CONTINUOUS
10
9.36777
20
-6.95325
11
9.36904
21
-6.95087
0
LINE
8
BLACK
6
CONTINUOUS
10
9.36904
20
-6.95087
11
9.36981
21
-6.9483
0
LINE
8
BLACK
6
CONTINUOUS
10
9.36981
20
-6.9483
11
9.37008
21
-6.94562
0
LINE
8
BLACK
6
CONTINUOUS
10
9.37008
20
-6.94562
11
9.37008
21
-6.94562
0
LINE
8
BLACK
6
CONTINUOUS
10
9.37008
20
-6.94562
11
9.37008
21
-6.94562
0
LINE
8
BLACK
6
CONTINUOUS
10
9.37008
20
-6.94562
11
9.37008
21
-6.89838
0
LINE
8
BLACK
6
CONTINUOUS
10
9.37008
20
-6.89838
11
9.37008
21
-6.89828
0
LINE
8
BLACK
6
CONTINUOUS
10
9.37008
20
-6.89828
11
9.3698
21
-6.89561
0
LINE
8
BLACK
6
CONTINUOUS
10
9.3698
20
-6.89561
11
9.369
21
-6.89304
0
LINE
8
BLACK
6
CONTINUOUS
10
9.369
20
-6.89304
11
9.36772
21
-6.89067
0
LINE
8
BLACK
6
CONTINUOUS
10
9.36772
20
-6.89067
11
9.36601
21
-6.8886
0
LINE
8
BLACK
6
CONTINUOUS
10
9.36601
20
-6.8886
11
9.36392
21
-6.8869
0
LINE
8
BLACK
6
CONTINUOUS
10
9.36392
20
-6.8869
11
9.36155
21
-6.88564
0
LINE
8
BLACK
6
CONTINUOUS
10
9.36155
20
-6.88564
11
9.35898
21
-6.88486
0
LINE
8
BLACK
6
CONTINUOUS
10
9.35898
20
-6.88486
11
9.3563
21
-6.8846
0
LINE
8
BLACK
6
CONTINUOUS
10
9.3563
20
-6.8846
11
9.3562
21
-6.8846
0
LINE
8
BLACK
6
CONTINUOUS
10
9.3562
20
-6.8846
11
9.35353
21
-6.88488
0
LINE
8
BLACK
6
CONTINUOUS
10
9.35353
20
-6.88488
11
9.35096
21
-6.88568
0
LINE
8
BLACK
6
CONTINUOUS
10
9.35096
20
-6.88568
11
9.34859
21
-6.88696
0
LINE
8
BLACK
6
CONTINUOUS
10
9.34859
20
-6.88696
11
9.34652
21
-6.88867
0
LINE
8
BLACK
6
CONTINUOUS
10
9.34652
20
-6.88867
11
9.34482
21
-6.89075
0
LINE
8
BLACK
6
CONTINUOUS
10
9.34482
20
-6.89075
11
9.34356
21
-6.89313
0
LINE
8
BLACK
6
CONTINUOUS
10
9.34356
20
-6.89313
11
9.34278
21
-6.8957
0
LINE
8
BLACK
6
CONTINUOUS
10
9.34278
20
-6.8957
11
9.34252
21
-6.89838
0
LINE
8
BLACK
6
CONTINUOUS
10
9.34252
20
-6.89838
11
9.34252
21
-6.94562
0
LINE
8
BLACK
6
CONTINUOUS
10
9.34252
20
-6.94562
11
9.34252
21
-6.94572
0
LINE
8
BLACK
6
CONTINUOUS
10
11.4051
20
-6.89067
11
11.4051
21
-6.89067
0
LINE
8
BLACK
6
CONTINUOUS
10
11.4051
20
-6.89067
11
11.4051
21
-6.89067
0
LINE
8
BLACK
6
CONTINUOUS
10
11.4051
20
-6.89067
11
11.4064
21
-6.89304
0
LINE
8
BLACK
6
CONTINUOUS
10
11.4064
20
-6.89304
11
11.4064
21
-6.89304
0
LINE
8
BLACK
6
CONTINUOUS
10
11.4064
20
-6.89304
11
11.4064
21
-6.89304
0
LINE
8
BLACK
6
CONTINUOUS
10
11.4064
20
-6.89304
11
11.4064
21
-6.89304
0
LINE
8
BLACK
6
CONTINUOUS
10
11.4064
20
-6.89304
11
11.4072
21
-6.89561
0
LINE
8
BLACK
6
CONTINUOUS
10
11.4072
20
-6.89561
11
11.4072
21
-6.89561
0
LINE
8
BLACK
6
CONTINUOUS
10
11.4072
20
-6.89561
11
11.4075
21
-6.89828
0
LINE
8
BLACK
6
CONTINUOUS
10
11.4075
20
-6.89828
11
11.4075
21
-6.89828
0
LINE
8
BLACK
6
CONTINUOUS
10
11.4075
20
-6.89828
11
11.4075
21
-6.89838
0
LINE
8
BLACK
6
CONTINUOUS
10
11.4075
20
-6.89838
11
11.4075
21
-6.94562
0
LINE
8
BLACK
6
CONTINUOUS
10
11.4075
20
-6.94562
11
11.4072
21
-6.9483
0
LINE
8
BLACK
6
CONTINUOUS
10
11.4072
20
-6.9483
11
11.4072
21
-6.9483
0
LINE
8
BLACK
6
CONTINUOUS
10
11.4072
20
-6.9483
11
11.4064
21
-6.95087
0
LINE
8
BLACK
6
CONTINUOUS
10
11.4064
20
-6.95087
11
11.4064
21
-6.95087
0
LINE
8
BLACK
6
CONTINUOUS
10
11.4064
20
-6.95087
11
11.4064
21
-6.95087
0
LINE
8
BLACK
6
CONTINUOUS
10
11.4064
20
-6.95087
11
11.4064
21
-6.95087
0
LINE
8
BLACK
6
CONTINUOUS
10
11.4064
20
-6.95087
11
11.4052
21
-6.95325
0
LINE
8
BLACK
6
CONTINUOUS
10
11.4052
20
-6.95325
11
11.4052
21
-6.95325
0
LINE
8
BLACK
6
CONTINUOUS
10
11.4052
20
-6.95325
11
11.4052
21
-6.95325
0
LINE
8
BLACK
6
CONTINUOUS
10
11.4052
20
-6.95325
11
11.4052
21
-6.95325
0
LINE
8
BLACK
6
CONTINUOUS
10
11.4052
20
-6.95325
11
11.4052
21
-6.95325
0
LINE
8
BLACK
6
CONTINUOUS
10
11.4052
20
-6.95325
11
11.4035
21
-6.95533
0
LINE
8
BLACK
6
CONTINUOUS
10
11.4035
20
-6.95533
11
11.4035
21
-6.95533
0
LINE
8
BLACK
6
CONTINUOUS
10
11.4035
20
-6.95533
11
11.4035
21
-6.95533
0
LINE
8
BLACK
6
CONTINUOUS
10
11.4035
20
-6.95533
11
11.4035
21
-6.95533
0
LINE
8
BLACK
6
CONTINUOUS
10
11.4035
20
-6.95533
11
11.4014
21
-6.95705
0
LINE
8
BLACK
6
CONTINUOUS
10
11.4014
20
-6.95705
11
11.4014
21
-6.95705
0
LINE
8
BLACK
6
CONTINUOUS
10
11.4014
20
-6.95705
11
11.4014
21
-6.95705
0
LINE
8
BLACK
6
CONTINUOUS
10
11.4014
20
-6.95705
11
11.399
21
-6.95833
0
LINE
8
BLACK
6
CONTINUOUS
10
11.399
20
-6.95833
11
11.399
21
-6.95833
0
LINE
8
BLACK
6
CONTINUOUS
10
11.399
20
-6.95833
11
11.3965
21
-6.95912
0
LINE
8
BLACK
6
CONTINUOUS
10
11.3965
20
-6.95912
11
11.3965
21
-6.95912
0
LINE
8
BLACK
6
CONTINUOUS
10
11.3965
20
-6.95912
11
11.3938
21
-6.9594
0
LINE
8
BLACK
6
CONTINUOUS
10
11.3938
20
-6.9594
11
11.3938
21
-6.9594
0
LINE
8
BLACK
6
CONTINUOUS
10
11.3938
20
-6.9594
11
11.3937
21
-6.9594
0
LINE
8
BLACK
6
CONTINUOUS
10
11.3937
20
-6.9594
11
11.3937
21
-6.9594
0
LINE
8
BLACK
6
CONTINUOUS
10
11.3937
20
-6.9594
11
11.391
21
-6.95914
0
LINE
8
BLACK
6
CONTINUOUS
10
11.391
20
-6.95914
11
11.391
21
-6.95914
0
LINE
8
BLACK
6
CONTINUOUS
10
11.391
20
-6.95914
11
11.391
21
-6.95914
0
LINE
8
BLACK
6
CONTINUOUS
10
11.391
20
-6.95914
11
11.3884
21
-6.95836
0
LINE
8
BLACK
6
CONTINUOUS
10
11.3884
20
-6.95836
11
11.3884
21
-6.95836
0
LINE
8
BLACK
6
CONTINUOUS
10
11.3884
20
-6.95836
11
11.3884
21
-6.95836
0
LINE
8
BLACK
6
CONTINUOUS
10
11.3884
20
-6.95836
11
11.3884
21
-6.95836
0
LINE
8
BLACK
6
CONTINUOUS
10
11.3884
20
-6.95836
11
11.3861
21
-6.9571
0
LINE
8
BLACK
6
CONTINUOUS
10
11.3861
20
-6.9571
11
11.3861
21
-6.9571
0
LINE
8
BLACK
6
CONTINUOUS
10
11.3861
20
-6.9571
11
11.3861
21
-6.9571
0
LINE
8
BLACK
6
CONTINUOUS
10
11.3861
20
-6.9571
11
11.3861
21
-6.9571
0
LINE
8
BLACK
6
CONTINUOUS
10
11.3861
20
-6.9571
11
11.384
21
-6.9554
0
LINE
8
BLACK
6
CONTINUOUS
10
11.384
20
-6.9554
11
11.384
21
-6.9554
0
LINE
8
BLACK
6
CONTINUOUS
10
11.384
20
-6.9554
11
11.384
21
-6.9554
0
LINE
8
BLACK
6
CONTINUOUS
10
11.384
20
-6.9554
11
11.384
21
-6.9554
0
LINE
8
BLACK
6
CONTINUOUS
10
11.384
20
-6.9554
11
11.3823
21
-6.95333
0
LINE
8
BLACK
6
CONTINUOUS
10
11.3823
20
-6.95333
11
11.3823
21
-6.95333
0
LINE
8
BLACK
6
CONTINUOUS
10
11.3823
20
-6.95333
11
11.3823
21
-6.95333
0
LINE
8
BLACK
6
CONTINUOUS
10
11.3823
20
-6.95333
11
11.381
21
-6.95096
0
LINE
8
BLACK
6
CONTINUOUS
10
11.381
20
-6.95096
11
11.381
21
-6.95096
0
LINE
8
BLACK
6
CONTINUOUS
10
11.381
20
-6.95096
11
11.381
21
-6.95096
0
LINE
8
BLACK
6
CONTINUOUS
10
11.381
20
-6.95096
11
11.3802
21
-6.94839
0
LINE
8
BLACK
6
CONTINUOUS
10
11.3802
20
-6.94839
11
11.3802
21
-6.94839
0
LINE
8
BLACK
6
CONTINUOUS
10
11.3802
20
-6.94839
11
11.3802
21
-6.94839
0
LINE
8
BLACK
6
CONTINUOUS
10
11.3802
20
-6.94839
11
11.3799
21
-6.94572
0
LINE
8
BLACK
6
CONTINUOUS
10
11.3799
20
-6.94572
11
11.3799
21
-6.94572
0
LINE
8
BLACK
6
CONTINUOUS
10
11.3799
20
-6.94572
11
11.3799
21
-6.94562
0
LINE
8
BLACK
6
CONTINUOUS
10
11.3799
20
-6.94562
11
11.3799
21
-6.94562
0
LINE
8
BLACK
6
CONTINUOUS
10
11.3799
20
-6.94562
11
11.3799
21
-6.94562
0
LINE
8
BLACK
6
CONTINUOUS
10
11.3799
20
-6.94562
11
11.3799
21
-6.89838
0
LINE
8
BLACK
6
CONTINUOUS
10
11.3799
20
-6.89838
11
11.3799
21
-6.89838
0
LINE
8
BLACK
6
CONTINUOUS
10
11.3799
20
-6.89838
11
11.3802
21
-6.8957
0
LINE
8
BLACK
6
CONTINUOUS
10
11.3802
20
-6.8957
11
11.3802
21
-6.8957
0
LINE
8
BLACK
6
CONTINUOUS
10
11.3802
20
-6.8957
11
11.3802
21
-6.8957
0
LINE
8
BLACK
6
CONTINUOUS
10
11.3802
20
-6.8957
11
11.3802
21
-6.8957
0
LINE
8
BLACK
6
CONTINUOUS
10
11.3802
20
-6.8957
11
11.381
21
-6.89313
0
LINE
8
BLACK
6
CONTINUOUS
10
11.381
20
-6.89313
11
11.381
21
-6.89313
0
LINE
8
BLACK
6
CONTINUOUS
10
11.381
20
-6.89313
11
11.381
21
-6.89313
0
LINE
8
BLACK
6
CONTINUOUS
10
11.381
20
-6.89313
11
11.3822
21
-6.89075
0
LINE
8
BLACK
6
CONTINUOUS
10
11.3822
20
-6.89075
11
11.3822
21
-6.89075
0
LINE
8
BLACK
6
CONTINUOUS
10
11.3822
20
-6.89075
11
11.3822
21
-6.89075
0
LINE
8
BLACK
6
CONTINUOUS
10
11.3822
20
-6.89075
11
11.3822
21
-6.89075
0
LINE
8
BLACK
6
CONTINUOUS
10
11.3822
20
-6.89075
11
11.3839
21
-6.88867
0
LINE
8
BLACK
6
CONTINUOUS
10
11.3839
20
-6.88867
11
11.3839
21
-6.88867
0
LINE
8
BLACK
6
CONTINUOUS
10
11.3839
20
-6.88867
11
11.386
21
-6.88695
0
LINE
8
BLACK
6
CONTINUOUS
10
11.386
20
-6.88695
11
11.386
21
-6.88695
0
LINE
8
BLACK
6
CONTINUOUS
10
11.386
20
-6.88695
11
11.386
21
-6.88695
0
LINE
8
BLACK
6
CONTINUOUS
10
11.386
20
-6.88695
11
11.3884
21
-6.88567
0
LINE
8
BLACK
6
CONTINUOUS
10
11.3884
20
-6.88567
11
11.3884
21
-6.88567
0
LINE
8
BLACK
6
CONTINUOUS
10
11.3884
20
-6.88567
11
11.3884
21
-6.88567
0
LINE
8
BLACK
6
CONTINUOUS
10
11.3884
20
-6.88567
11
11.3884
21
-6.88567
0
LINE
8
BLACK
6
CONTINUOUS
10
11.3884
20
-6.88567
11
11.3909
21
-6.88488
0
LINE
8
BLACK
6
CONTINUOUS
10
11.3909
20
-6.88488
11
11.3909
21
-6.88488
0
LINE
8
BLACK
6
CONTINUOUS
10
11.3909
20
-6.88488
11
11.3936
21
-6.8846
0
LINE
8
BLACK
6
CONTINUOUS
10
11.3936
20
-6.8846
11
11.3936
21
-6.8846
0
LINE
8
BLACK
6
CONTINUOUS
10
11.3936
20
-6.8846
11
11.3937
21
-6.8846
0
LINE
8
BLACK
6
CONTINUOUS
10
11.3937
20
-6.8846
11
11.3937
21
-6.8846
0
LINE
8
BLACK
6
CONTINUOUS
10
11.3937
20
-6.8846
11
11.3964
21
-6.88486
0
LINE
8
BLACK
6
CONTINUOUS
10
11.3964
20
-6.88486
11
11.3964
21
-6.88486
0
LINE
8
BLACK
6
CONTINUOUS
10
11.3964
20
-6.88486
11
11.3964
21
-6.88486
0
LINE
8
BLACK
6
CONTINUOUS
10
11.3964
20
-6.88486
11
11.3964
21
-6.88486
0
LINE
8
BLACK
6
CONTINUOUS
10
11.3964
20
-6.88486
11
11.399
21
-6.88564
0
LINE
8
BLACK
6
CONTINUOUS
10
11.399
20
-6.88564
11
11.399
21
-6.88564
0
LINE
8
BLACK
6
CONTINUOUS
10
11.399
20
-6.88564
11
11.399
21
-6.88564
0
LINE
8
BLACK
6
CONTINUOUS
10
11.399
20
-6.88564
11
11.4013
21
-6.8869
0
LINE
8
BLACK
6
CONTINUOUS
10
11.4013
20
-6.8869
11
11.4013
21
-6.8869
0
LINE
8
BLACK
6
CONTINUOUS
10
11.4013
20
-6.8869
11
11.4013
21
-6.8869
0
LINE
8
BLACK
6
CONTINUOUS
10
11.4013
20
-6.8869
11
11.4013
21
-6.8869
0
LINE
8
BLACK
6
CONTINUOUS
10
11.4013
20
-6.8869
11
11.4034
21
-6.8886
0
LINE
8
BLACK
6
CONTINUOUS
10
11.4034
20
-6.8886
11
11.4034
21
-6.8886
0
LINE
8
BLACK
6
CONTINUOUS
10
11.4034
20
-6.8886
11
11.4051
21
-6.89067
0
LINE
8
BLACK
6
CONTINUOUS
10
11.3799
20
-6.94572
11
11.3802
21
-6.94839
0
LINE
8
BLACK
6
CONTINUOUS
10
11.3802
20
-6.94839
11
11.381
21
-6.95096
0
LINE
8
BLACK
6
CONTINUOUS
10
11.381
20
-6.95096
11
11.3823
21
-6.95333
0
LINE
8
BLACK
6
CONTINUOUS
10
11.3823
20
-6.95333
11
11.384
21
-6.9554
0
LINE
8
BLACK
6
CONTINUOUS
10
11.384
20
-6.9554
11
11.3861
21
-6.9571
0
LINE
8
BLACK
6
CONTINUOUS
10
11.3861
20
-6.9571
11
11.3885
21
-6.95836
0
LINE
8
BLACK
6
CONTINUOUS
10
11.3885
20
-6.95836
11
11.391
21
-6.95914
0
LINE
8
BLACK
6
CONTINUOUS
10
11.391
20
-6.95914
11
11.3937
21
-6.9594
0
LINE
8
BLACK
6
CONTINUOUS
10
11.3937
20
-6.9594
11
11.3938
21
-6.9594
0
LINE
8
BLACK
6
CONTINUOUS
10
11.3938
20
-6.9594
11
11.3965
21
-6.95912
0
LINE
8
BLACK
6
CONTINUOUS
10
11.3965
20
-6.95912
11
11.399
21
-6.95832
0
LINE
8
BLACK
6
CONTINUOUS
10
11.399
20
-6.95832
11
11.4014
21
-6.95704
0
LINE
8
BLACK
6
CONTINUOUS
10
11.4014
20
-6.95704
11
11.4035
21
-6.95533
0
LINE
8
BLACK
6
CONTINUOUS
10
11.4035
20
-6.95533
11
11.4052
21
-6.95325
0
LINE
8
BLACK
6
CONTINUOUS
10
11.4052
20
-6.95325
11
11.4064
21
-6.95087
0
LINE
8
BLACK
6
CONTINUOUS
10
11.4064
20
-6.95087
11
11.4072
21
-6.9483
0
LINE
8
BLACK
6
CONTINUOUS
10
11.4072
20
-6.9483
11
11.4075
21
-6.94562
0
LINE
8
BLACK
6
CONTINUOUS
10
11.4075
20
-6.94562
11
11.4075
21
-6.94562
0
LINE
8
BLACK
6
CONTINUOUS
10
11.4075
20
-6.94562
11
11.4075
21
-6.94562
0
LINE
8
BLACK
6
CONTINUOUS
10
11.4075
20
-6.94562
11
11.4075
21
-6.89838
0
LINE
8
BLACK
6
CONTINUOUS
10
11.4075
20
-6.89838
11
11.4075
21
-6.89828
0
LINE
8
BLACK
6
CONTINUOUS
10
11.4075
20
-6.89828
11
11.4072
21
-6.89561
0
LINE
8
BLACK
6
CONTINUOUS
10
11.4072
20
-6.89561
11
11.4064
21
-6.89304
0
LINE
8
BLACK
6
CONTINUOUS
10
11.4064
20
-6.89304
11
11.4051
21
-6.89067
0
LINE
8
BLACK
6
CONTINUOUS
10
11.4051
20
-6.89067
11
11.4034
21
-6.8886
0
LINE
8
BLACK
6
CONTINUOUS
10
11.4034
20
-6.8886
11
11.4013
21
-6.8869
0
LINE
8
BLACK
6
CONTINUOUS
10
11.4013
20
-6.8869
11
11.399
21
-6.88564
0
LINE
8
BLACK
6
CONTINUOUS
10
11.399
20
-6.88564
11
11.3964
21
-6.88486
0
LINE
8
BLACK
6
CONTINUOUS
10
11.3964
20
-6.88486
11
11.3937
21
-6.8846
0
LINE
8
BLACK
6
CONTINUOUS
10
11.3937
20
-6.8846
11
11.3936
21
-6.8846
0
LINE
8
BLACK
6
CONTINUOUS
10
11.3936
20
-6.8846
11
11.3909
21
-6.88488
0
LINE
8
BLACK
6
CONTINUOUS
10
11.3909
20
-6.88488
11
11.3884
21
-6.88568
0
LINE
8
BLACK
6
CONTINUOUS
10
11.3884
20
-6.88568
11
11.386
21
-6.88696
0
LINE
8
BLACK
6
CONTINUOUS
10
11.386
20
-6.88696
11
11.3839
21
-6.88867
0
LINE
8
BLACK
6
CONTINUOUS
10
11.3839
20
-6.88867
11
11.3822
21
-6.89075
0
LINE
8
BLACK
6
CONTINUOUS
10
11.3822
20
-6.89075
11
11.381
21
-6.89313
0
LINE
8
BLACK
6
CONTINUOUS
10
11.381
20
-6.89313
11
11.3802
21
-6.8957
0
LINE
8
BLACK
6
CONTINUOUS
10
11.3802
20
-6.8957
11
11.3799
21
-6.89838
0
LINE
8
BLACK
6
CONTINUOUS
10
11.3799
20
-6.89838
11
11.3799
21
-6.94562
0
LINE
8
BLACK
6
CONTINUOUS
10
11.3799
20
-6.94562
11
11.3799
21
-6.94572
0
LINE
8
BLACK
6
CONTINUOUS
10
8.15513
20
-6.89067
11
8.15513
21
-6.89067
0
LINE
8
BLACK
6
CONTINUOUS
10
8.15513
20
-6.89067
11
8.15513
21
-6.89067
0
LINE
8
BLACK
6
CONTINUOUS
10
8.15513
20
-6.89067
11
8.15641
21
-6.89304
0
LINE
8
BLACK
6
CONTINUOUS
10
8.15641
20
-6.89304
11
8.15641
21
-6.89304
0
LINE
8
BLACK
6
CONTINUOUS
10
8.15641
20
-6.89304
11
8.15641
21
-6.89304
0
LINE
8
BLACK
6
CONTINUOUS
10
8.15641
20
-6.89304
11
8.15641
21
-6.89304
0
LINE
8
BLACK
6
CONTINUOUS
10
8.15641
20
-6.89304
11
8.1572
21
-6.89561
0
LINE
8
BLACK
6
CONTINUOUS
10
8.1572
20
-6.89561
11
8.1572
21
-6.89561
0
LINE
8
BLACK
6
CONTINUOUS
10
8.1572
20
-6.89561
11
8.15748
21
-6.89828
0
LINE
8
BLACK
6
CONTINUOUS
10
8.15748
20
-6.89828
11
8.15748
21
-6.89828
0
LINE
8
BLACK
6
CONTINUOUS
10
8.15748
20
-6.89828
11
8.15748
21
-6.89838
0
LINE
8
BLACK
6
CONTINUOUS
10
8.15748
20
-6.89838
11
8.15748
21
-6.94562
0
LINE
8
BLACK
6
CONTINUOUS
10
8.15748
20
-6.94562
11
8.15722
21
-6.9483
0
LINE
8
BLACK
6
CONTINUOUS
10
8.15722
20
-6.9483
11
8.15722
21
-6.9483
0
LINE
8
BLACK
6
CONTINUOUS
10
8.15722
20
-6.9483
11
8.15644
21
-6.95087
0
LINE
8
BLACK
6
CONTINUOUS
10
8.15644
20
-6.95087
11
8.15644
21
-6.95087
0
LINE
8
BLACK
6
CONTINUOUS
10
8.15644
20
-6.95087
11
8.15644
21
-6.95087
0
LINE
8
BLACK
6
CONTINUOUS
10
8.15644
20
-6.95087
11
8.15644
21
-6.95087
0
LINE
8
BLACK
6
CONTINUOUS
10
8.15644
20
-6.95087
11
8.15518
21
-6.95325
0
LINE
8
BLACK
6
CONTINUOUS
10
8.15518
20
-6.95325
11
8.15518
21
-6.95325
0
LINE
8
BLACK
6
CONTINUOUS
10
8.15518
20
-6.95325
11
8.15518
21
-6.95325
0
LINE
8
BLACK
6
CONTINUOUS
10
8.15518
20
-6.95325
11
8.15518
21
-6.95325
0
LINE
8
BLACK
6
CONTINUOUS
10
8.15518
20
-6.95325
11
8.15518
21
-6.95325
0
LINE
8
BLACK
6
CONTINUOUS
10
8.15518
20
-6.95325
11
8.15348
21
-6.95533
0
LINE
8
BLACK
6
CONTINUOUS
10
8.15348
20
-6.95533
11
8.15348
21
-6.95533
0
LINE
8
BLACK
6
CONTINUOUS
10
8.15348
20
-6.95533
11
8.15348
21
-6.95533
0
LINE
8
BLACK
6
CONTINUOUS
10
8.15348
20
-6.95533
11
8.15348
21
-6.95533
0
LINE
8
BLACK
6
CONTINUOUS
10
8.15348
20
-6.95533
11
8.15141
21
-6.95705
0
LINE
8
BLACK
6
CONTINUOUS
10
8.15141
20
-6.95705
11
8.15141
21
-6.95705
0
LINE
8
BLACK
6
CONTINUOUS
10
8.15141
20
-6.95705
11
8.15141
21
-6.95705
0
LINE
8
BLACK
6
CONTINUOUS
10
8.15141
20
-6.95705
11
8.14904
21
-6.95833
0
LINE
8
BLACK
6
CONTINUOUS
10
8.14904
20
-6.95833
11
8.14904
21
-6.95833
0
LINE
8
BLACK
6
CONTINUOUS
10
8.14904
20
-6.95833
11
8.14647
21
-6.95912
0
LINE
8
BLACK
6
CONTINUOUS
10
8.14647
20
-6.95912
11
8.14647
21
-6.95912
0
LINE
8
BLACK
6
CONTINUOUS
10
8.14647
20
-6.95912
11
8.1438
21
-6.9594
0
LINE
8
BLACK
6
CONTINUOUS
10
8.1438
20
-6.9594
11
8.1438
21
-6.9594
0
LINE
8
BLACK
6
CONTINUOUS
10
8.1438
20
-6.9594
11
8.1437
21
-6.9594
0
LINE
8
BLACK
6
CONTINUOUS
10
8.1437
20
-6.9594
11
8.1437
21
-6.9594
0
LINE
8
BLACK
6
CONTINUOUS
10
8.1437
20
-6.9594
11
8.14102
21
-6.95914
0
LINE
8
BLACK
6
CONTINUOUS
10
8.14102
20
-6.95914
11
8.14102
21
-6.95914
0
LINE
8
BLACK
6
CONTINUOUS
10
8.14102
20
-6.95914
11
8.14102
21
-6.95914
0
LINE
8
BLACK
6
CONTINUOUS
10
8.14102
20
-6.95914
11
8.13845
21
-6.95836
0
LINE
8
BLACK
6
CONTINUOUS
10
8.13845
20
-6.95836
11
8.13845
21
-6.95836
0
LINE
8
BLACK
6
CONTINUOUS
10
8.13845
20
-6.95836
11
8.13845
21
-6.95836
0
LINE
8
BLACK
6
CONTINUOUS
10
8.13845
20
-6.95836
11
8.13845
21
-6.95836
0
LINE
8
BLACK
6
CONTINUOUS
10
8.13845
20
-6.95836
11
8.13607
21
-6.9571
0
LINE
8
BLACK
6
CONTINUOUS
10
8.13607
20
-6.9571
11
8.13607
21
-6.9571
0
LINE
8
BLACK
6
CONTINUOUS
10
8.13607
20
-6.9571
11
8.13607
21
-6.9571
0
LINE
8
BLACK
6
CONTINUOUS
10
8.13607
20
-6.9571
11
8.13607
21
-6.9571
0
LINE
8
BLACK
6
CONTINUOUS
10
8.13607
20
-6.9571
11
8.13399
21
-6.9554
0
LINE
8
BLACK
6
CONTINUOUS
10
8.13399
20
-6.9554
11
8.13399
21
-6.9554
0
LINE
8
BLACK
6
CONTINUOUS
10
8.13399
20
-6.9554
11
8.13399
21
-6.9554
0
LINE
8
BLACK
6
CONTINUOUS
10
8.13399
20
-6.9554
11
8.13399
21
-6.9554
0
LINE
8
BLACK
6
CONTINUOUS
10
8.13399
20
-6.9554
11
8.13228
21
-6.95333
0
LINE
8
BLACK
6
CONTINUOUS
10
8.13228
20
-6.95333
11
8.13228
21
-6.95333
0
LINE
8
BLACK
6
CONTINUOUS
10
8.13228
20
-6.95333
11
8.13228
21
-6.95333
0
LINE
8
BLACK
6
CONTINUOUS
10
8.13228
20
-6.95333
11
8.131
21
-6.95096
0
LINE
8
BLACK
6
CONTINUOUS
10
8.131
20
-6.95096
11
8.131
21
-6.95096
0
LINE
8
BLACK
6
CONTINUOUS
10
8.131
20
-6.95096
11
8.131
21
-6.95096
0
LINE
8
BLACK
6
CONTINUOUS
10
8.131
20
-6.95096
11
8.1302
21
-6.94839
0
LINE
8
BLACK
6
CONTINUOUS
10
8.1302
20
-6.94839
11
8.1302
21
-6.94839
0
LINE
8
BLACK
6
CONTINUOUS
10
8.1302
20
-6.94839
11
8.1302
21
-6.94839
0
LINE
8
BLACK
6
CONTINUOUS
10
8.1302
20
-6.94839
11
8.12992
21
-6.94572
0
LINE
8
BLACK
6
CONTINUOUS
10
8.12992
20
-6.94572
11
8.12992
21
-6.94572
0
LINE
8
BLACK
6
CONTINUOUS
10
8.12992
20
-6.94572
11
8.12992
21
-6.94562
0
LINE
8
BLACK
6
CONTINUOUS
10
8.12992
20
-6.94562
11
8.12992
21
-6.94562
0
LINE
8
BLACK
6
CONTINUOUS
10
8.12992
20
-6.94562
11
8.12992
21
-6.94562
0
LINE
8
BLACK
6
CONTINUOUS
10
8.12992
20
-6.94562
11
8.12992
21
-6.89838
0
LINE
8
BLACK
6
CONTINUOUS
10
8.12992
20
-6.89838
11
8.12992
21
-6.89838
0
LINE
8
BLACK
6
CONTINUOUS
10
8.12992
20
-6.89838
11
8.13018
21
-6.8957
0
LINE
8
BLACK
6
CONTINUOUS
10
8.13018
20
-6.8957
11
8.13018
21
-6.8957
0
LINE
8
BLACK
6
CONTINUOUS
10
8.13018
20
-6.8957
11
8.13018
21
-6.8957
0
LINE
8
BLACK
6
CONTINUOUS
10
8.13018
20
-6.8957
11
8.13018
21
-6.8957
0
LINE
8
BLACK
6
CONTINUOUS
10
8.13018
20
-6.8957
11
8.13096
21
-6.89313
0
LINE
8
BLACK
6
CONTINUOUS
10
8.13096
20
-6.89313
11
8.13096
21
-6.89313
0
LINE
8
BLACK
6
CONTINUOUS
10
8.13096
20
-6.89313
11
8.13096
21
-6.89313
0
LINE
8
BLACK
6
CONTINUOUS
10
8.13096
20
-6.89313
11
8.13222
21
-6.89075
0
LINE
8
BLACK
6
CONTINUOUS
10
8.13222
20
-6.89075
11
8.13222
21
-6.89075
0
LINE
8
BLACK
6
CONTINUOUS
10
8.13222
20
-6.89075
11
8.13222
21
-6.89075
0
LINE
8
BLACK
6
CONTINUOUS
10
8.13222
20
-6.89075
11
8.13222
21
-6.89075
0
LINE
8
BLACK
6
CONTINUOUS
10
8.13222
20
-6.89075
11
8.13392
21
-6.88867
0
LINE
8
BLACK
6
CONTINUOUS
10
8.13392
20
-6.88867
11
8.13392
21
-6.88867
0
LINE
8
BLACK
6
CONTINUOUS
10
8.13392
20
-6.88867
11
8.13599
21
-6.88695
0
LINE
8
BLACK
6
CONTINUOUS
10
8.13599
20
-6.88695
11
8.13599
21
-6.88695
0
LINE
8
BLACK
6
CONTINUOUS
10
8.13599
20
-6.88695
11
8.13599
21
-6.88695
0
LINE
8
BLACK
6
CONTINUOUS
10
8.13599
20
-6.88695
11
8.13836
21
-6.88567
0
LINE
8
BLACK
6
CONTINUOUS
10
8.13836
20
-6.88567
11
8.13836
21
-6.88567
0
LINE
8
BLACK
6
CONTINUOUS
10
8.13836
20
-6.88567
11
8.13836
21
-6.88567
0
LINE
8
BLACK
6
CONTINUOUS
10
8.13836
20
-6.88567
11
8.13836
21
-6.88567
0
LINE
8
BLACK
6
CONTINUOUS
10
8.13836
20
-6.88567
11
8.14093
21
-6.88488
0
LINE
8
BLACK
6
CONTINUOUS
10
8.14093
20
-6.88488
11
8.14093
21
-6.88488
0
LINE
8
BLACK
6
CONTINUOUS
10
8.14093
20
-6.88488
11
8.1436
21
-6.8846
0
LINE
8
BLACK
6
CONTINUOUS
10
8.1436
20
-6.8846
11
8.1436
21
-6.8846
0
LINE
8
BLACK
6
CONTINUOUS
10
8.1436
20
-6.8846
11
8.1437
21
-6.8846
0
LINE
8
BLACK
6
CONTINUOUS
10
8.1437
20
-6.8846
11
8.1437
21
-6.8846
0
LINE
8
BLACK
6
CONTINUOUS
10
8.1437
20
-6.8846
11
8.14638
21
-6.88486
0
LINE
8
BLACK
6
CONTINUOUS
10
8.14638
20
-6.88486
11
8.14638
21
-6.88486
0
LINE
8
BLACK
6
CONTINUOUS
10
8.14638
20
-6.88486
11
8.14638
21
-6.88486
0
LINE
8
BLACK
6
CONTINUOUS
10
8.14638
20
-6.88486
11
8.14638
21
-6.88486
0
LINE
8
BLACK
6
CONTINUOUS
10
8.14638
20
-6.88486
11
8.14895
21
-6.88564
0
LINE
8
BLACK
6
CONTINUOUS
10
8.14895
20
-6.88564
11
8.14895
21
-6.88564
0
LINE
8
BLACK
6
CONTINUOUS
10
8.14895
20
-6.88564
11
8.14895
21
-6.88564
0
LINE
8
BLACK
6
CONTINUOUS
10
8.14895
20
-6.88564
11
8.15133
21
-6.8869
0
LINE
8
BLACK
6
CONTINUOUS
10
8.15133
20
-6.8869
11
8.15133
21
-6.8869
0
LINE
8
BLACK
6
CONTINUOUS
10
8.15133
20
-6.8869
11
8.15133
21
-6.8869
0
LINE
8
BLACK
6
CONTINUOUS
10
8.15133
20
-6.8869
11
8.15133
21
-6.8869
0
LINE
8
BLACK
6
CONTINUOUS
10
8.15133
20
-6.8869
11
8.15341
21
-6.8886
0
LINE
8
BLACK
6
CONTINUOUS
10
8.15341
20
-6.8886
11
8.15341
21
-6.8886
0
LINE
8
BLACK
6
CONTINUOUS
10
8.15341
20
-6.8886
11
8.15513
21
-6.89067
0
LINE
8
BLACK
6
CONTINUOUS
10
8.12992
20
-6.94572
11
8.1302
21
-6.94839
0
LINE
8
BLACK
6
CONTINUOUS
10
8.1302
20
-6.94839
11
8.131
21
-6.95096
0
LINE
8
BLACK
6
CONTINUOUS
10
8.131
20
-6.95096
11
8.13228
21
-6.95333
0
LINE
8
BLACK
6
CONTINUOUS
10
8.13228
20
-6.95333
11
8.13399
21
-6.9554
0
LINE
8
BLACK
6
CONTINUOUS
10
8.13399
20
-6.9554
11
8.13608
21
-6.9571
0
LINE
8
BLACK
6
CONTINUOUS
10
8.13608
20
-6.9571
11
8.13845
21
-6.95836
0
LINE
8
BLACK
6
CONTINUOUS
10
8.13845
20
-6.95836
11
8.14102
21
-6.95914
0
LINE
8
BLACK
6
CONTINUOUS
10
8.14102
20
-6.95914
11
8.1437
21
-6.9594
0
LINE
8
BLACK
6
CONTINUOUS
10
8.1437
20
-6.9594
11
8.1438
21
-6.9594
0
LINE
8
BLACK
6
CONTINUOUS
10
8.1438
20
-6.9594
11
8.14647
21
-6.95912
0
LINE
8
BLACK
6
CONTINUOUS
10
8.14647
20
-6.95912
11
8.14904
21
-6.95832
0
LINE
8
BLACK
6
CONTINUOUS
10
8.14904
20
-6.95832
11
8.15141
21
-6.95704
0
LINE
8
BLACK
6
CONTINUOUS
10
8.15141
20
-6.95704
11
8.15348
21
-6.95533
0
LINE
8
BLACK
6
CONTINUOUS
10
8.15348
20
-6.95533
11
8.15518
21
-6.95325
0
LINE
8
BLACK
6
CONTINUOUS
10
8.15518
20
-6.95325
11
8.15644
21
-6.95087
0
LINE
8
BLACK
6
CONTINUOUS
10
8.15644
20
-6.95087
11
8.15722
21
-6.9483
0
LINE
8
BLACK
6
CONTINUOUS
10
8.15722
20
-6.9483
11
8.15748
21
-6.94562
0
LINE
8
BLACK
6
CONTINUOUS
10
8.15748
20
-6.94562
11
8.15748
21
-6.94562
0
LINE
8
BLACK
6
CONTINUOUS
10
8.15748
20
-6.94562
11
8.15748
21
-6.94562
0
LINE
8
BLACK
6
CONTINUOUS
10
8.15748
20
-6.94562
11
8.15748
21
-6.89838
0
LINE
8
BLACK
6
CONTINUOUS
10
8.15748
20
-6.89838
11
8.15748
21
-6.89828
0
LINE
8
BLACK
6
CONTINUOUS
10
8.15748
20
-6.89828
11
8.1572
21
-6.89561
0
LINE
8
BLACK
6
CONTINUOUS
10
8.1572
20
-6.89561
11
8.1564
21
-6.89304
0
LINE
8
BLACK
6
CONTINUOUS
10
8.1564
20
-6.89304
11
8.15512
21
-6.89067
0
LINE
8
BLACK
6
CONTINUOUS
10
8.15512
20
-6.89067
11
8.15341
21
-6.8886
0
LINE
8
BLACK
6
CONTINUOUS
10
8.15341
20
-6.8886
11
8.15132
21
-6.8869
0
LINE
8
BLACK
6
CONTINUOUS
10
8.15132
20
-6.8869
11
8.14895
21
-6.88564
0
LINE
8
BLACK
6
CONTINUOUS
10
8.14895
20
-6.88564
11
8.14638
21
-6.88486
0
LINE
8
BLACK
6
CONTINUOUS
10
8.14638
20
-6.88486
11
8.1437
21
-6.8846
0
LINE
8
BLACK
6
CONTINUOUS
10
8.1437
20
-6.8846
11
8.1436
21
-6.8846
0
LINE
8
BLACK
6
CONTINUOUS
10
8.1436
20
-6.8846
11
8.14093
21
-6.88488
0
LINE
8
BLACK
6
CONTINUOUS
10
8.14093
20
-6.88488
11
8.13836
21
-6.88568
0
LINE
8
BLACK
6
CONTINUOUS
10
8.13836
20
-6.88568
11
8.136
21
-6.88696
0
LINE
8
BLACK
6
CONTINUOUS
10
8.136
20
-6.88696
11
8.13392
21
-6.88867
0
LINE
8
BLACK
6
CONTINUOUS
10
8.13392
20
-6.88867
11
8.13223
21
-6.89075
0
LINE
8
BLACK
6
CONTINUOUS
10
8.13223
20
-6.89075
11
8.13096
21
-6.89313
0
LINE
8
BLACK
6
CONTINUOUS
10
8.13096
20
-6.89313
11
8.13019
21
-6.8957
0
LINE
8
BLACK
6
CONTINUOUS
10
8.13019
20
-6.8957
11
8.12992
21
-6.89838
0
LINE
8
BLACK
6
CONTINUOUS
10
8.12992
20
-6.89838
11
8.12992
21
-6.94562
0
LINE
8
BLACK
6
CONTINUOUS
10
8.12992
20
-6.94562
11
8.12992
21
-6.94572
0
LINE
8
BLACK
6
CONTINUOUS
10
12.8677
20
-6.89067
11
12.8677
21
-6.89067
0
LINE
8
BLACK
6
CONTINUOUS
10
12.8677
20
-6.89067
11
12.8677
21
-6.89067
0
LINE
8
BLACK
6
CONTINUOUS
10
12.8677
20
-6.89067
11
12.869
21
-6.89304
0
LINE
8
BLACK
6
CONTINUOUS
10
12.869
20
-6.89304
11
12.869
21
-6.89304
0
LINE
8
BLACK
6
CONTINUOUS
10
12.869
20
-6.89304
11
12.869
21
-6.89304
0
LINE
8
BLACK
6
CONTINUOUS
10
12.869
20
-6.89304
11
12.869
21
-6.89304
0
LINE
8
BLACK
6
CONTINUOUS
10
12.869
20
-6.89304
11
12.8698
21
-6.89561
0
LINE
8
BLACK
6
CONTINUOUS
10
12.8698
20
-6.89561
11
12.8698
21
-6.89561
0
LINE
8
BLACK
6
CONTINUOUS
10
12.8698
20
-6.89561
11
12.8701
21
-6.89828
0
LINE
8
BLACK
6
CONTINUOUS
10
12.8701
20
-6.89828
11
12.8701
21
-6.89828
0
LINE
8
BLACK
6
CONTINUOUS
10
12.8701
20
-6.89828
11
12.8701
21
-6.89838
0
LINE
8
BLACK
6
CONTINUOUS
10
12.8701
20
-6.89838
11
12.8701
21
-6.94562
0
LINE
8
BLACK
6
CONTINUOUS
10
12.8701
20
-6.94562
11
12.8698
21
-6.9483
0
LINE
8
BLACK
6
CONTINUOUS
10
12.8698
20
-6.9483
11
12.8698
21
-6.9483
0
LINE
8
BLACK
6
CONTINUOUS
10
12.8698
20
-6.9483
11
12.869
21
-6.95087
0
LINE
8
BLACK
6
CONTINUOUS
10
12.869
20
-6.95087
11
12.869
21
-6.95087
0
LINE
8
BLACK
6
CONTINUOUS
10
12.869
20
-6.95087
11
12.869
21
-6.95087
0
LINE
8
BLACK
6
CONTINUOUS
10
12.869
20
-6.95087
11
12.869
21
-6.95087
0
LINE
8
BLACK
6
CONTINUOUS
10
12.869
20
-6.95087
11
12.8678
21
-6.95325
0
LINE
8
BLACK
6
CONTINUOUS
10
12.8678
20
-6.95325
11
12.8678
21
-6.95325
0
LINE
8
BLACK
6
CONTINUOUS
10
12.8678
20
-6.95325
11
12.8678
21
-6.95325
0
LINE
8
BLACK
6
CONTINUOUS
10
12.8678
20
-6.95325
11
12.8678
21
-6.95325
0
LINE
8
BLACK
6
CONTINUOUS
10
12.8678
20
-6.95325
11
12.8678
21
-6.95325
0
LINE
8
BLACK
6
CONTINUOUS
10
12.8678
20
-6.95325
11
12.8661
21
-6.95533
0
LINE
8
BLACK
6
CONTINUOUS
10
12.8661
20
-6.95533
11
12.8661
21
-6.95533
0
LINE
8
BLACK
6
CONTINUOUS
10
12.8661
20
-6.95533
11
12.8661
21
-6.95533
0
LINE
8
BLACK
6
CONTINUOUS
10
12.8661
20
-6.95533
11
12.8661
21
-6.95533
0
LINE
8
BLACK
6
CONTINUOUS
10
12.8661
20
-6.95533
11
12.864
21
-6.95705
0
LINE
8
BLACK
6
CONTINUOUS
10
12.864
20
-6.95705
11
12.864
21
-6.95705
0
LINE
8
BLACK
6
CONTINUOUS
10
12.864
20
-6.95705
11
12.864
21
-6.95705
0
LINE
8
BLACK
6
CONTINUOUS
10
12.864
20
-6.95705
11
12.8616
21
-6.95833
0
LINE
8
BLACK
6
CONTINUOUS
10
12.8616
20
-6.95833
11
12.8616
21
-6.95833
0
LINE
8
BLACK
6
CONTINUOUS
10
12.8616
20
-6.95833
11
12.8591
21
-6.95912
0
LINE
8
BLACK
6
CONTINUOUS
10
12.8591
20
-6.95912
11
12.8591
21
-6.95912
0
LINE
8
BLACK
6
CONTINUOUS
10
12.8591
20
-6.95912
11
12.8564
21
-6.9594
0
LINE
8
BLACK
6
CONTINUOUS
10
12.8564
20
-6.9594
11
12.8564
21
-6.9594
0
LINE
8
BLACK
6
CONTINUOUS
10
12.8564
20
-6.9594
11
12.8563
21
-6.9594
0
LINE
8
BLACK
6
CONTINUOUS
10
12.8563
20
-6.9594
11
12.8563
21
-6.9594
0
LINE
8
BLACK
6
CONTINUOUS
10
12.8563
20
-6.9594
11
12.8536
21
-6.95914
0
LINE
8
BLACK
6
CONTINUOUS
10
12.8536
20
-6.95914
11
12.8536
21
-6.95914
0
LINE
8
BLACK
6
CONTINUOUS
10
12.8536
20
-6.95914
11
12.8536
21
-6.95914
0
LINE
8
BLACK
6
CONTINUOUS
10
12.8536
20
-6.95914
11
12.851
21
-6.95836
0
LINE
8
BLACK
6
CONTINUOUS
10
12.851
20
-6.95836
11
12.851
21
-6.95836
0
LINE
8
BLACK
6
CONTINUOUS
10
12.851
20
-6.95836
11
12.851
21
-6.95836
0
LINE
8
BLACK
6
CONTINUOUS
10
12.851
20
-6.95836
11
12.851
21
-6.95836
0
LINE
8
BLACK
6
CONTINUOUS
10
12.851
20
-6.95836
11
12.8487
21
-6.9571
0
LINE
8
BLACK
6
CONTINUOUS
10
12.8487
20
-6.9571
11
12.8487
21
-6.9571
0
LINE
8
BLACK
6
CONTINUOUS
10
12.8487
20
-6.9571
11
12.8487
21
-6.9571
0
LINE
8
BLACK
6
CONTINUOUS
10
12.8487
20
-6.9571
11
12.8487
21
-6.9571
0
LINE
8
BLACK
6
CONTINUOUS
10
12.8487
20
-6.9571
11
12.8466
21
-6.9554
0
LINE
8
BLACK
6
CONTINUOUS
10
12.8466
20
-6.9554
11
12.8466
21
-6.9554
0
LINE
8
BLACK
6
CONTINUOUS
10
12.8466
20
-6.9554
11
12.8466
21
-6.9554
0
LINE
8
BLACK
6
CONTINUOUS
10
12.8466
20
-6.9554
11
12.8466
21
-6.9554
0
LINE
8
BLACK
6
CONTINUOUS
10
12.8466
20
-6.9554
11
12.8449
21
-6.95333
0
LINE
8
BLACK
6
CONTINUOUS
10
12.8449
20
-6.95333
11
12.8449
21
-6.95333
0
LINE
8
BLACK
6
CONTINUOUS
10
12.8449
20
-6.95333
11
12.8449
21
-6.95333
0
LINE
8
BLACK
6
CONTINUOUS
10
12.8449
20
-6.95333
11
12.8436
21
-6.95096
0
LINE
8
BLACK
6
CONTINUOUS
10
12.8436
20
-6.95096
11
12.8436
21
-6.95096
0
LINE
8
BLACK
6
CONTINUOUS
10
12.8436
20
-6.95096
11
12.8436
21
-6.95096
0
LINE
8
BLACK
6
CONTINUOUS
10
12.8436
20
-6.95096
11
12.8428
21
-6.94839
0
LINE
8
BLACK
6
CONTINUOUS
10
12.8428
20
-6.94839
11
12.8428
21
-6.94839
0
LINE
8
BLACK
6
CONTINUOUS
10
12.8428
20
-6.94839
11
12.8428
21
-6.94839
0
LINE
8
BLACK
6
CONTINUOUS
10
12.8428
20
-6.94839
11
12.8425
21
-6.94572
0
LINE
8
BLACK
6
CONTINUOUS
10
12.8425
20
-6.94572
11
12.8425
21
-6.94572
0
LINE
8
BLACK
6
CONTINUOUS
10
12.8425
20
-6.94572
11
12.8425
21
-6.94562
0
LINE
8
BLACK
6
CONTINUOUS
10
12.8425
20
-6.94562
11
12.8425
21
-6.94562
0
LINE
8
BLACK
6
CONTINUOUS
10
12.8425
20
-6.94562
11
12.8425
21
-6.94562
0
LINE
8
BLACK
6
CONTINUOUS
10
12.8425
20
-6.94562
11
12.8425
21
-6.89838
0
LINE
8
BLACK
6
CONTINUOUS
10
12.8425
20
-6.89838
11
12.8425
21
-6.89838
0
LINE
8
BLACK
6
CONTINUOUS
10
12.8425
20
-6.89838
11
12.8428
21
-6.8957
0
LINE
8
BLACK
6
CONTINUOUS
10
12.8428
20
-6.8957
11
12.8428
21
-6.8957
0
LINE
8
BLACK
6
CONTINUOUS
10
12.8428
20
-6.8957
11
12.8428
21
-6.8957
0
LINE
8
BLACK
6
CONTINUOUS
10
12.8428
20
-6.8957
11
12.8428
21
-6.8957
0
LINE
8
BLACK
6
CONTINUOUS
10
12.8428
20
-6.8957
11
12.8436
21
-6.89313
0
LINE
8
BLACK
6
CONTINUOUS
10
12.8436
20
-6.89313
11
12.8436
21
-6.89313
0
LINE
8
BLACK
6
CONTINUOUS
10
12.8436
20
-6.89313
11
12.8436
21
-6.89313
0
LINE
8
BLACK
6
CONTINUOUS
10
12.8436
20
-6.89313
11
12.8448
21
-6.89075
0
LINE
8
BLACK
6
CONTINUOUS
10
12.8448
20
-6.89075
11
12.8448
21
-6.89075
0
LINE
8
BLACK
6
CONTINUOUS
10
12.8448
20
-6.89075
11
12.8448
21
-6.89075
0
LINE
8
BLACK
6
CONTINUOUS
10
12.8448
20
-6.89075
11
12.8448
21
-6.89075
0
LINE
8
BLACK
6
CONTINUOUS
10
12.8448
20
-6.89075
11
12.8465
21
-6.88867
0
LINE
8
BLACK
6
CONTINUOUS
10
12.8465
20
-6.88867
11
12.8465
21
-6.88867
0
LINE
8
BLACK
6
CONTINUOUS
10
12.8465
20
-6.88867
11
12.8486
21
-6.88695
0
LINE
8
BLACK
6
CONTINUOUS
10
12.8486
20
-6.88695
11
12.8486
21
-6.88695
0
LINE
8
BLACK
6
CONTINUOUS
10
12.8486
20
-6.88695
11
12.8486
21
-6.88695
0
LINE
8
BLACK
6
CONTINUOUS
10
12.8486
20
-6.88695
11
12.851
21
-6.88567
0
LINE
8
BLACK
6
CONTINUOUS
10
12.851
20
-6.88567
11
12.851
21
-6.88567
0
LINE
8
BLACK
6
CONTINUOUS
10
12.851
20
-6.88567
11
12.851
21
-6.88567
0
LINE
8
BLACK
6
CONTINUOUS
10
12.851
20
-6.88567
11
12.851
21
-6.88567
0
LINE
8
BLACK
6
CONTINUOUS
10
12.851
20
-6.88567
11
12.8535
21
-6.88488
0
LINE
8
BLACK
6
CONTINUOUS
10
12.8535
20
-6.88488
11
12.8535
21
-6.88488
0
LINE
8
BLACK
6
CONTINUOUS
10
12.8535
20
-6.88488
11
12.8562
21
-6.8846
0
LINE
8
BLACK
6
CONTINUOUS
10
12.8562
20
-6.8846
11
12.8562
21
-6.8846
0
LINE
8
BLACK
6
CONTINUOUS
10
12.8562
20
-6.8846
11
12.8563
21
-6.8846
0
LINE
8
BLACK
6
CONTINUOUS
10
12.8563
20
-6.8846
11
12.8563
21
-6.8846
0
LINE
8
BLACK
6
CONTINUOUS
10
12.8563
20
-6.8846
11
12.859
21
-6.88486
0
LINE
8
BLACK
6
CONTINUOUS
10
12.859
20
-6.88486
11
12.859
21
-6.88486
0
LINE
8
BLACK
6
CONTINUOUS
10
12.859
20
-6.88486
11
12.859
21
-6.88486
0
LINE
8
BLACK
6
CONTINUOUS
10
12.859
20
-6.88486
11
12.859
21
-6.88486
0
LINE
8
BLACK
6
CONTINUOUS
10
12.859
20
-6.88486
11
12.8616
21
-6.88564
0
LINE
8
BLACK
6
CONTINUOUS
10
12.8616
20
-6.88564
11
12.8616
21
-6.88564
0
LINE
8
BLACK
6
CONTINUOUS
10
12.8616
20
-6.88564
11
12.8616
21
-6.88564
0
LINE
8
BLACK
6
CONTINUOUS
10
12.8616
20
-6.88564
11
12.8639
21
-6.8869
0
LINE
8
BLACK
6
CONTINUOUS
10
12.8639
20
-6.8869
11
12.8639
21
-6.8869
0
LINE
8
BLACK
6
CONTINUOUS
10
12.8639
20
-6.8869
11
12.8639
21
-6.8869
0
LINE
8
BLACK
6
CONTINUOUS
10
12.8639
20
-6.8869
11
12.8639
21
-6.8869
0
LINE
8
BLACK
6
CONTINUOUS
10
12.8639
20
-6.8869
11
12.866
21
-6.8886
0
LINE
8
BLACK
6
CONTINUOUS
10
12.866
20
-6.8886
11
12.866
21
-6.8886
0
LINE
8
BLACK
6
CONTINUOUS
10
12.866
20
-6.8886
11
12.8677
21
-6.89067
0
LINE
8
BLACK
6
CONTINUOUS
10
12.8425
20
-6.94572
11
12.8428
21
-6.94839
0
LINE
8
BLACK
6
CONTINUOUS
10
12.8428
20
-6.94839
11
12.8436
21
-6.95096
0
LINE
8
BLACK
6
CONTINUOUS
10
12.8436
20
-6.95096
11
12.8449
21
-6.95333
0
LINE
8
BLACK
6
CONTINUOUS
10
12.8449
20
-6.95333
11
12.8466
21
-6.9554
0
LINE
8
BLACK
6
CONTINUOUS
10
12.8466
20
-6.9554
11
12.8487
21
-6.9571
0
LINE
8
BLACK
6
CONTINUOUS
10
12.8487
20
-6.9571
11
12.851
21
-6.95836
0
LINE
8
BLACK
6
CONTINUOUS
10
12.851
20
-6.95836
11
12.8536
21
-6.95914
0
LINE
8
BLACK
6
CONTINUOUS
10
12.8536
20
-6.95914
11
12.8563
21
-6.9594
0
LINE
8
BLACK
6
CONTINUOUS
10
12.8563
20
-6.9594
11
12.8564
21
-6.9594
0
LINE
8
BLACK
6
CONTINUOUS
10
12.8564
20
-6.9594
11
12.8591
21
-6.95912
0
LINE
8
BLACK
6
CONTINUOUS
10
12.8591
20
-6.95912
11
12.8616
21
-6.95832
0
LINE
8
BLACK
6
CONTINUOUS
10
12.8616
20
-6.95832
11
12.864
21
-6.95704
0
LINE
8
BLACK
6
CONTINUOUS
10
12.864
20
-6.95704
11
12.8661
21
-6.95533
0
LINE
8
BLACK
6
CONTINUOUS
10
12.8661
20
-6.95533
11
12.8678
21
-6.95325
0
LINE
8
BLACK
6
CONTINUOUS
10
12.8678
20
-6.95325
11
12.869
21
-6.95087
0
LINE
8
BLACK
6
CONTINUOUS
10
12.869
20
-6.95087
11
12.8698
21
-6.9483
0
LINE
8
BLACK
6
CONTINUOUS
10
12.8698
20
-6.9483
11
12.8701
21
-6.94562
0
LINE
8
BLACK
6
CONTINUOUS
10
12.8701
20
-6.94562
11
12.8701
21
-6.94562
0
LINE
8
BLACK
6
CONTINUOUS
10
12.8701
20
-6.94562
11
12.8701
21
-6.94562
0
LINE
8
BLACK
6
CONTINUOUS
10
12.8701
20
-6.94562
11
12.8701
21
-6.89838
0
LINE
8
BLACK
6
CONTINUOUS
10
12.8701
20
-6.89838
11
12.8701
21
-6.89828
0
LINE
8
BLACK
6
CONTINUOUS
10
12.8701
20
-6.89828
11
12.8698
21
-6.89561
0
LINE
8
BLACK
6
CONTINUOUS
10
12.8698
20
-6.89561
11
12.869
21
-6.89304
0
LINE
8
BLACK
6
CONTINUOUS
10
12.869
20
-6.89304
11
12.8677
21
-6.89067
0
LINE
8
BLACK
6
CONTINUOUS
10
12.8677
20
-6.89067
11
12.866
21
-6.8886
0
LINE
8
BLACK
6
CONTINUOUS
10
12.866
20
-6.8886
11
12.8639
21
-6.8869
0
LINE
8
BLACK
6
CONTINUOUS
10
12.8639
20
-6.8869
11
12.8615
21
-6.88564
0
LINE
8
BLACK
6
CONTINUOUS
10
12.8615
20
-6.88564
11
12.859
21
-6.88486
0
LINE
8
BLACK
6
CONTINUOUS
10
12.859
20
-6.88486
11
12.8563
21
-6.8846
0
LINE
8
BLACK
6
CONTINUOUS
10
12.8563
20
-6.8846
11
12.8562
21
-6.8846
0
LINE
8
BLACK
6
CONTINUOUS
10
12.8562
20
-6.8846
11
12.8535
21
-6.88488
0
LINE
8
BLACK
6
CONTINUOUS
10
12.8535
20
-6.88488
11
12.851
21
-6.88568
0
LINE
8
BLACK
6
CONTINUOUS
10
12.851
20
-6.88568
11
12.8486
21
-6.88696
0
LINE
8
BLACK
6
CONTINUOUS
10
12.8486
20
-6.88696
11
12.8465
21
-6.88867
0
LINE
8
BLACK
6
CONTINUOUS
10
12.8465
20
-6.88867
11
12.8448
21
-6.89075
0
LINE
8
BLACK
6
CONTINUOUS
10
12.8448
20
-6.89075
11
12.8436
21
-6.89313
0
LINE
8
BLACK
6
CONTINUOUS
10
12.8436
20
-6.89313
11
12.8428
21
-6.8957
0
LINE
8
BLACK
6
CONTINUOUS
10
12.8428
20
-6.8957
11
12.8425
21
-6.89838
0
LINE
8
BLACK
6
CONTINUOUS
10
12.8425
20
-6.89838
11
12.8425
21
-6.94562
0
LINE
8
BLACK
6
CONTINUOUS
10
12.8425
20
-6.94562
11
12.8425
21
-6.94572
0
LINE
8
BLACK
6
CONTINUOUS
10
11.1177
20
-6.89067
11
11.1177
21
-6.89067
0
LINE
8
BLACK
6
CONTINUOUS
10
11.1177
20
-6.89067
11
11.1177
21
-6.89067
0
LINE
8
BLACK
6
CONTINUOUS
10
11.1177
20
-6.89067
11
11.119
21
-6.89304
0
LINE
8
BLACK
6
CONTINUOUS
10
11.119
20
-6.89304
11
11.119
21
-6.89304
0
LINE
8
BLACK
6
CONTINUOUS
10
11.119
20
-6.89304
11
11.119
21
-6.89304
0
LINE
8
BLACK
6
CONTINUOUS
10
11.119
20
-6.89304
11
11.119
21
-6.89304
0
LINE
8
BLACK
6
CONTINUOUS
10
11.119
20
-6.89304
11
11.1198
21
-6.89561
0
LINE
8
BLACK
6
CONTINUOUS
10
11.1198
20
-6.89561
11
11.1198
21
-6.89561
0
LINE
8
BLACK
6
CONTINUOUS
10
11.1198
20
-6.89561
11
11.1201
21
-6.89828
0
LINE
8
BLACK
6
CONTINUOUS
10
11.1201
20
-6.89828
11
11.1201
21
-6.89828
0
LINE
8
BLACK
6
CONTINUOUS
10
11.1201
20
-6.89828
11
11.1201
21
-6.89838
0
LINE
8
BLACK
6
CONTINUOUS
10
11.1201
20
-6.89838
11
11.1201
21
-6.94562
0
LINE
8
BLACK
6
CONTINUOUS
10
11.1201
20
-6.94562
11
11.1198
21
-6.9483
0
LINE
8
BLACK
6
CONTINUOUS
10
11.1198
20
-6.9483
11
11.1198
21
-6.9483
0
LINE
8
BLACK
6
CONTINUOUS
10
11.1198
20
-6.9483
11
11.119
21
-6.95087
0
LINE
8
BLACK
6
CONTINUOUS
10
11.119
20
-6.95087
11
11.119
21
-6.95087
0
LINE
8
BLACK
6
CONTINUOUS
10
11.119
20
-6.95087
11
11.119
21
-6.95087
0
LINE
8
BLACK
6
CONTINUOUS
10
11.119
20
-6.95087
11
11.119
21
-6.95087
0
LINE
8
BLACK
6
CONTINUOUS
10
11.119
20
-6.95087
11
11.1178
21
-6.95325
0
LINE
8
BLACK
6
CONTINUOUS
10
11.1178
20
-6.95325
11
11.1178
21
-6.95325
0
LINE
8
BLACK
6
CONTINUOUS
10
11.1178
20
-6.95325
11
11.1178
21
-6.95325
0
LINE
8
BLACK
6
CONTINUOUS
10
11.1178
20
-6.95325
11
11.1178
21
-6.95325
0
LINE
8
BLACK
6
CONTINUOUS
10
11.1178
20
-6.95325
11
11.1178
21
-6.95325
0
LINE
8
BLACK
6
CONTINUOUS
10
11.1178
20
-6.95325
11
11.1161
21
-6.95533
0
LINE
8
BLACK
6
CONTINUOUS
10
11.1161
20
-6.95533
11
11.1161
21
-6.95533
0
LINE
8
BLACK
6
CONTINUOUS
10
11.1161
20
-6.95533
11
11.1161
21
-6.95533
0
LINE
8
BLACK
6
CONTINUOUS
10
11.1161
20
-6.95533
11
11.1161
21
-6.95533
0
LINE
8
BLACK
6
CONTINUOUS
10
11.1161
20
-6.95533
11
11.114
21
-6.95705
0
LINE
8
BLACK
6
CONTINUOUS
10
11.114
20
-6.95705
11
11.114
21
-6.95705
0
LINE
8
BLACK
6
CONTINUOUS
10
11.114
20
-6.95705
11
11.114
21
-6.95705
0
LINE
8
BLACK
6
CONTINUOUS
10
11.114
20
-6.95705
11
11.1116
21
-6.95833
0
LINE
8
BLACK
6
CONTINUOUS
10
11.1116
20
-6.95833
11
11.1116
21
-6.95833
0
LINE
8
BLACK
6
CONTINUOUS
10
11.1116
20
-6.95833
11
11.1091
21
-6.95912
0
LINE
8
BLACK
6
CONTINUOUS
10
11.1091
20
-6.95912
11
11.1091
21
-6.95912
0
LINE
8
BLACK
6
CONTINUOUS
10
11.1091
20
-6.95912
11
11.1064
21
-6.9594
0
LINE
8
BLACK
6
CONTINUOUS
10
11.1064
20
-6.9594
11
11.1064
21
-6.9594
0
LINE
8
BLACK
6
CONTINUOUS
10
11.1064
20
-6.9594
11
11.1063
21
-6.9594
0
LINE
8
BLACK
6
CONTINUOUS
10
11.1063
20
-6.9594
11
11.1063
21
-6.9594
0
LINE
8
BLACK
6
CONTINUOUS
10
11.1063
20
-6.9594
11
11.1036
21
-6.95914
0
LINE
8
BLACK
6
CONTINUOUS
10
11.1036
20
-6.95914
11
11.1036
21
-6.95914
0
LINE
8
BLACK
6
CONTINUOUS
10
11.1036
20
-6.95914
11
11.1036
21
-6.95914
0
LINE
8
BLACK
6
CONTINUOUS
10
11.1036
20
-6.95914
11
11.101
21
-6.95836
0
LINE
8
BLACK
6
CONTINUOUS
10
11.101
20
-6.95836
11
11.101
21
-6.95836
0
LINE
8
BLACK
6
CONTINUOUS
10
11.101
20
-6.95836
11
11.101
21
-6.95836
0
LINE
8
BLACK
6
CONTINUOUS
10
11.101
20
-6.95836
11
11.101
21
-6.95836
0
LINE
8
BLACK
6
CONTINUOUS
10
11.101
20
-6.95836
11
11.0987
21
-6.9571
0
LINE
8
BLACK
6
CONTINUOUS
10
11.0987
20
-6.9571
11
11.0987
21
-6.9571
0
LINE
8
BLACK
6
CONTINUOUS
10
11.0987
20
-6.9571
11
11.0987
21
-6.9571
0
LINE
8
BLACK
6
CONTINUOUS
10
11.0987
20
-6.9571
11
11.0987
21
-6.9571
0
LINE
8
BLACK
6
CONTINUOUS
10
11.0987
20
-6.9571
11
11.0966
21
-6.9554
0
LINE
8
BLACK
6
CONTINUOUS
10
11.0966
20
-6.9554
11
11.0966
21
-6.9554
0
LINE
8
BLACK
6
CONTINUOUS
10
11.0966
20
-6.9554
11
11.0966
21
-6.9554
0
LINE
8
BLACK
6
CONTINUOUS
10
11.0966
20
-6.9554
11
11.0966
21
-6.9554
0
LINE
8
BLACK
6
CONTINUOUS
10
11.0966
20
-6.9554
11
11.0949
21
-6.95333
0
LINE
8
BLACK
6
CONTINUOUS
10
11.0949
20
-6.95333
11
11.0949
21
-6.95333
0
LINE
8
BLACK
6
CONTINUOUS
10
11.0949
20
-6.95333
11
11.0949
21
-6.95333
0
LINE
8
BLACK
6
CONTINUOUS
10
11.0949
20
-6.95333
11
11.0936
21
-6.95096
0
LINE
8
BLACK
6
CONTINUOUS
10
11.0936
20
-6.95096
11
11.0936
21
-6.95096
0
LINE
8
BLACK
6
CONTINUOUS
10
11.0936
20
-6.95096
11
11.0936
21
-6.95096
0
LINE
8
BLACK
6
CONTINUOUS
10
11.0936
20
-6.95096
11
11.0928
21
-6.94839
0
LINE
8
BLACK
6
CONTINUOUS
10
11.0928
20
-6.94839
11
11.0928
21
-6.94839
0
LINE
8
BLACK
6
CONTINUOUS
10
11.0928
20
-6.94839
11
11.0928
21
-6.94839
0
LINE
8
BLACK
6
CONTINUOUS
10
11.0928
20
-6.94839
11
11.0925
21
-6.94572
0
LINE
8
BLACK
6
CONTINUOUS
10
11.0925
20
-6.94572
11
11.0925
21
-6.94572
0
LINE
8
BLACK
6
CONTINUOUS
10
11.0925
20
-6.94572
11
11.0925
21
-6.94562
0
LINE
8
BLACK
6
CONTINUOUS
10
11.0925
20
-6.94562
11
11.0925
21
-6.94562
0
LINE
8
BLACK
6
CONTINUOUS
10
11.0925
20
-6.94562
11
11.0925
21
-6.94562
0
LINE
8
BLACK
6
CONTINUOUS
10
11.0925
20
-6.94562
11
11.0925
21
-6.89838
0
LINE
8
BLACK
6
CONTINUOUS
10
11.0925
20
-6.89838
11
11.0925
21
-6.89838
0
LINE
8
BLACK
6
CONTINUOUS
10
11.0925
20
-6.89838
11
11.0928
21
-6.8957
0
LINE
8
BLACK
6
CONTINUOUS
10
11.0928
20
-6.8957
11
11.0928
21
-6.8957
0
LINE
8
BLACK
6
CONTINUOUS
10
11.0928
20
-6.8957
11
11.0928
21
-6.8957
0
LINE
8
BLACK
6
CONTINUOUS
10
11.0928
20
-6.8957
11
11.0928
21
-6.8957
0
LINE
8
BLACK
6
CONTINUOUS
10
11.0928
20
-6.8957
11
11.0936
21
-6.89313
0
LINE
8
BLACK
6
CONTINUOUS
10
11.0936
20
-6.89313
11
11.0936
21
-6.89313
0
LINE
8
BLACK
6
CONTINUOUS
10
11.0936
20
-6.89313
11
11.0936
21
-6.89313
0
LINE
8
BLACK
6
CONTINUOUS
10
11.0936
20
-6.89313
11
11.0948
21
-6.89075
0
LINE
8
BLACK
6
CONTINUOUS
10
11.0948
20
-6.89075
11
11.0948
21
-6.89075
0
LINE
8
BLACK
6
CONTINUOUS
10
11.0948
20
-6.89075
11
11.0948
21
-6.89075
0
LINE
8
BLACK
6
CONTINUOUS
10
11.0948
20
-6.89075
11
11.0948
21
-6.89075
0
LINE
8
BLACK
6
CONTINUOUS
10
11.0948
20
-6.89075
11
11.0965
21
-6.88867
0
LINE
8
BLACK
6
CONTINUOUS
10
11.0965
20
-6.88867
11
11.0965
21
-6.88867
0
LINE
8
BLACK
6
CONTINUOUS
10
11.0965
20
-6.88867
11
11.0986
21
-6.88695
0
LINE
8
BLACK
6
CONTINUOUS
10
11.0986
20
-6.88695
11
11.0986
21
-6.88695
0
LINE
8
BLACK
6
CONTINUOUS
10
11.0986
20
-6.88695
11
11.0986
21
-6.88695
0
LINE
8
BLACK
6
CONTINUOUS
10
11.0986
20
-6.88695
11
11.101
21
-6.88567
0
LINE
8
BLACK
6
CONTINUOUS
10
11.101
20
-6.88567
11
11.101
21
-6.88567
0
LINE
8
BLACK
6
CONTINUOUS
10
11.101
20
-6.88567
11
11.101
21
-6.88567
0
LINE
8
BLACK
6
CONTINUOUS
10
11.101
20
-6.88567
11
11.101
21
-6.88567
0
LINE
8
BLACK
6
CONTINUOUS
10
11.101
20
-6.88567
11
11.1035
21
-6.88488
0
LINE
8
BLACK
6
CONTINUOUS
10
11.1035
20
-6.88488
11
11.1035
21
-6.88488
0
LINE
8
BLACK
6
CONTINUOUS
10
11.1035
20
-6.88488
11
11.1062
21
-6.8846
0
LINE
8
BLACK
6
CONTINUOUS
10
11.1062
20
-6.8846
11
11.1062
21
-6.8846
0
LINE
8
BLACK
6
CONTINUOUS
10
11.1062
20
-6.8846
11
11.1063
21
-6.8846
0
LINE
8
BLACK
6
CONTINUOUS
10
11.1063
20
-6.8846
11
11.1063
21
-6.8846
0
LINE
8
BLACK
6
CONTINUOUS
10
11.1063
20
-6.8846
11
11.109
21
-6.88486
0
LINE
8
BLACK
6
CONTINUOUS
10
11.109
20
-6.88486
11
11.109
21
-6.88486
0
LINE
8
BLACK
6
CONTINUOUS
10
11.109
20
-6.88486
11
11.109
21
-6.88486
0
LINE
8
BLACK
6
CONTINUOUS
10
11.109
20
-6.88486
11
11.109
21
-6.88486
0
LINE
8
BLACK
6
CONTINUOUS
10
11.109
20
-6.88486
11
11.1116
21
-6.88564
0
LINE
8
BLACK
6
CONTINUOUS
10
11.1116
20
-6.88564
11
11.1116
21
-6.88564
0
LINE
8
BLACK
6
CONTINUOUS
10
11.1116
20
-6.88564
11
11.1116
21
-6.88564
0
LINE
8
BLACK
6
CONTINUOUS
10
11.1116
20
-6.88564
11
11.1139
21
-6.8869
0
LINE
8
BLACK
6
CONTINUOUS
10
11.1139
20
-6.8869
11
11.1139
21
-6.8869
0
LINE
8
BLACK
6
CONTINUOUS
10
11.1139
20
-6.8869
11
11.1139
21
-6.8869
0
LINE
8
BLACK
6
CONTINUOUS
10
11.1139
20
-6.8869
11
11.1139
21
-6.8869
0
LINE
8
BLACK
6
CONTINUOUS
10
11.1139
20
-6.8869
11
11.116
21
-6.8886
0
LINE
8
BLACK
6
CONTINUOUS
10
11.116
20
-6.8886
11
11.116
21
-6.8886
0
LINE
8
BLACK
6
CONTINUOUS
10
11.116
20
-6.8886
11
11.1177
21
-6.89067
0
LINE
8
BLACK
6
CONTINUOUS
10
11.0925
20
-6.94572
11
11.0928
21
-6.94839
0
LINE
8
BLACK
6
CONTINUOUS
10
11.0928
20
-6.94839
11
11.0936
21
-6.95096
0
LINE
8
BLACK
6
CONTINUOUS
10
11.0936
20
-6.95096
11
11.0949
21
-6.95333
0
LINE
8
BLACK
6
CONTINUOUS
10
11.0949
20
-6.95333
11
11.0966
21
-6.9554
0
LINE
8
BLACK
6
CONTINUOUS
10
11.0966
20
-6.9554
11
11.0987
21
-6.9571
0
LINE
8
BLACK
6
CONTINUOUS
10
11.0987
20
-6.9571
11
11.101
21
-6.95836
0
LINE
8
BLACK
6
CONTINUOUS
10
11.101
20
-6.95836
11
11.1036
21
-6.95914
0
LINE
8
BLACK
6
CONTINUOUS
10
11.1036
20
-6.95914
11
11.1063
21
-6.9594
0
LINE
8
BLACK
6
CONTINUOUS
10
11.1063
20
-6.9594
11
11.1064
21
-6.9594
0
LINE
8
BLACK
6
CONTINUOUS
10
11.1064
20
-6.9594
11
11.1091
21
-6.95912
0
LINE
8
BLACK
6
CONTINUOUS
10
11.1091
20
-6.95912
11
11.1116
21
-6.95832
0
LINE
8
BLACK
6
CONTINUOUS
10
11.1116
20
-6.95832
11
11.114
21
-6.95704
0
LINE
8
BLACK
6
CONTINUOUS
10
11.114
20
-6.95704
11
11.1161
21
-6.95533
0
LINE
8
BLACK
6
CONTINUOUS
10
11.1161
20
-6.95533
11
11.1178
21
-6.95325
0
LINE
8
BLACK
6
CONTINUOUS
10
11.1178
20
-6.95325
11
11.119
21
-6.95087
0
LINE
8
BLACK
6
CONTINUOUS
10
11.119
20
-6.95087
11
11.1198
21
-6.9483
0
LINE
8
BLACK
6
CONTINUOUS
10
11.1198
20
-6.9483
11
11.1201
21
-6.94562
0
LINE
8
BLACK
6
CONTINUOUS
10
11.1201
20
-6.94562
11
11.1201
21
-6.94562
0
LINE
8
BLACK
6
CONTINUOUS
10
11.1201
20
-6.94562
11
11.1201
21
-6.94562
0
LINE
8
BLACK
6
CONTINUOUS
10
11.1201
20
-6.94562
11
11.1201
21
-6.89838
0
LINE
8
BLACK
6
CONTINUOUS
10
11.1201
20
-6.89838
11
11.1201
21
-6.89828
0
LINE
8
BLACK
6
CONTINUOUS
10
11.1201
20
-6.89828
11
11.1198
21
-6.89561
0
LINE
8
BLACK
6
CONTINUOUS
10
11.1198
20
-6.89561
11
11.119
21
-6.89304
0
LINE
8
BLACK
6
CONTINUOUS
10
11.119
20
-6.89304
11
11.1177
21
-6.89067
0
LINE
8
BLACK
6
CONTINUOUS
10
11.1177
20
-6.89067
11
11.116
21
-6.8886
0
LINE
8
BLACK
6
CONTINUOUS
10
11.116
20
-6.8886
11
11.1139
21
-6.8869
0
LINE
8
BLACK
6
CONTINUOUS
10
11.1139
20
-6.8869
11
11.1115
21
-6.88564
0
LINE
8
BLACK
6
CONTINUOUS
10
11.1115
20
-6.88564
11
11.109
21
-6.88486
0
LINE
8
BLACK
6
CONTINUOUS
10
11.109
20
-6.88486
11
11.1063
21
-6.8846
0
LINE
8
BLACK
6
CONTINUOUS
10
11.1063
20
-6.8846
11
11.1062
21
-6.8846
0
LINE
8
BLACK
6
CONTINUOUS
10
11.1062
20
-6.8846
11
11.1035
21
-6.88488
0
LINE
8
BLACK
6
CONTINUOUS
10
11.1035
20
-6.88488
11
11.101
21
-6.88568
0
LINE
8
BLACK
6
CONTINUOUS
10
11.101
20
-6.88568
11
11.0986
21
-6.88696
0
LINE
8
BLACK
6
CONTINUOUS
10
11.0986
20
-6.88696
11
11.0965
21
-6.88867
0
LINE
8
BLACK
6
CONTINUOUS
10
11.0965
20
-6.88867
11
11.0948
21
-6.89075
0
LINE
8
BLACK
6
CONTINUOUS
10
11.0948
20
-6.89075
11
11.0936
21
-6.89313
0
LINE
8
BLACK
6
CONTINUOUS
10
11.0936
20
-6.89313
11
11.0928
21
-6.8957
0
LINE
8
BLACK
6
CONTINUOUS
10
11.0928
20
-6.8957
11
11.0925
21
-6.89838
0
LINE
8
BLACK
6
CONTINUOUS
10
11.0925
20
-6.89838
11
11.0925
21
-6.94562
0
LINE
8
BLACK
6
CONTINUOUS
10
11.0925
20
-6.94562
11
11.0925
21
-6.94572
0
LINE
8
BLACK
6
CONTINUOUS
10
10.3677
20
-6.89067
11
10.3677
21
-6.89067
0
LINE
8
BLACK
6
CONTINUOUS
10
10.3677
20
-6.89067
11
10.3677
21
-6.89067
0
LINE
8
BLACK
6
CONTINUOUS
10
10.3677
20
-6.89067
11
10.369
21
-6.89304
0
LINE
8
BLACK
6
CONTINUOUS
10
10.369
20
-6.89304
11
10.369
21
-6.89304
0
LINE
8
BLACK
6
CONTINUOUS
10
10.369
20
-6.89304
11
10.369
21
-6.89304
0
LINE
8
BLACK
6
CONTINUOUS
10
10.369
20
-6.89304
11
10.369
21
-6.89304
0
LINE
8
BLACK
6
CONTINUOUS
10
10.369
20
-6.89304
11
10.3698
21
-6.89561
0
LINE
8
BLACK
6
CONTINUOUS
10
10.3698
20
-6.89561
11
10.3698
21
-6.89561
0
LINE
8
BLACK
6
CONTINUOUS
10
10.3698
20
-6.89561
11
10.3701
21
-6.89828
0
LINE
8
BLACK
6
CONTINUOUS
10
10.3701
20
-6.89828
11
10.3701
21
-6.89828
0
LINE
8
BLACK
6
CONTINUOUS
10
10.3701
20
-6.89828
11
10.3701
21
-6.89838
0
LINE
8
BLACK
6
CONTINUOUS
10
10.3701
20
-6.89838
11
10.3701
21
-6.94562
0
LINE
8
BLACK
6
CONTINUOUS
10
10.3701
20
-6.94562
11
10.3698
21
-6.9483
0
LINE
8
BLACK
6
CONTINUOUS
10
10.3698
20
-6.9483
11
10.3698
21
-6.9483
0
LINE
8
BLACK
6
CONTINUOUS
10
10.3698
20
-6.9483
11
10.369
21
-6.95087
0
LINE
8
BLACK
6
CONTINUOUS
10
10.369
20
-6.95087
11
10.369
21
-6.95087
0
LINE
8
BLACK
6
CONTINUOUS
10
10.369
20
-6.95087
11
10.369
21
-6.95087
0
LINE
8
BLACK
6
CONTINUOUS
10
10.369
20
-6.95087
11
10.369
21
-6.95087
0
LINE
8
BLACK
6
CONTINUOUS
10
10.369
20
-6.95087
11
10.3678
21
-6.95325
0
LINE
8
BLACK
6
CONTINUOUS
10
10.3678
20
-6.95325
11
10.3678
21
-6.95325
0
LINE
8
BLACK
6
CONTINUOUS
10
10.3678
20
-6.95325
11
10.3678
21
-6.95325
0
LINE
8
BLACK
6
CONTINUOUS
10
10.3678
20
-6.95325
11
10.3678
21
-6.95325
0
LINE
8
BLACK
6
CONTINUOUS
10
10.3678
20
-6.95325
11
10.3678
21
-6.95325
0
LINE
8
BLACK
6
CONTINUOUS
10
10.3678
20
-6.95325
11
10.3661
21
-6.95533
0
LINE
8
BLACK
6
CONTINUOUS
10
10.3661
20
-6.95533
11
10.3661
21
-6.95533
0
LINE
8
BLACK
6
CONTINUOUS
10
10.3661
20
-6.95533
11
10.3661
21
-6.95533
0
LINE
8
BLACK
6
CONTINUOUS
10
10.3661
20
-6.95533
11
10.3661
21
-6.95533
0
LINE
8
BLACK
6
CONTINUOUS
10
10.3661
20
-6.95533
11
10.364
21
-6.95705
0
LINE
8
BLACK
6
CONTINUOUS
10
10.364
20
-6.95705
11
10.364
21
-6.95705
0
LINE
8
BLACK
6
CONTINUOUS
10
10.364
20
-6.95705
11
10.364
21
-6.95705
0
LINE
8
BLACK
6
CONTINUOUS
10
10.364
20
-6.95705
11
10.3616
21
-6.95833
0
LINE
8
BLACK
6
CONTINUOUS
10
10.3616
20
-6.95833
11
10.3616
21
-6.95833
0
LINE
8
BLACK
6
CONTINUOUS
10
10.3616
20
-6.95833
11
10.3591
21
-6.95912
0
LINE
8
BLACK
6
CONTINUOUS
10
10.3591
20
-6.95912
11
10.3591
21
-6.95912
0
LINE
8
BLACK
6
CONTINUOUS
10
10.3591
20
-6.95912
11
10.3564
21
-6.9594
0
LINE
8
BLACK
6
CONTINUOUS
10
10.3564
20
-6.9594
11
10.3564
21
-6.9594
0
LINE
8
BLACK
6
CONTINUOUS
10
10.3564
20
-6.9594
11
10.3563
21
-6.9594
0
LINE
8
BLACK
6
CONTINUOUS
10
10.3563
20
-6.9594
11
10.3563
21
-6.9594
0
LINE
8
BLACK
6
CONTINUOUS
10
10.3563
20
-6.9594
11
10.3536
21
-6.95914
0
LINE
8
BLACK
6
CONTINUOUS
10
10.3536
20
-6.95914
11
10.3536
21
-6.95914
0
LINE
8
BLACK
6
CONTINUOUS
10
10.3536
20
-6.95914
11
10.3536
21
-6.95914
0
LINE
8
BLACK
6
CONTINUOUS
10
10.3536
20
-6.95914
11
10.351
21
-6.95836
0
LINE
8
BLACK
6
CONTINUOUS
10
10.351
20
-6.95836
11
10.351
21
-6.95836
0
LINE
8
BLACK
6
CONTINUOUS
10
10.351
20
-6.95836
11
10.351
21
-6.95836
0
LINE
8
BLACK
6
CONTINUOUS
10
10.351
20
-6.95836
11
10.351
21
-6.95836
0
LINE
8
BLACK
6
CONTINUOUS
10
10.351
20
-6.95836
11
10.3487
21
-6.9571
0
LINE
8
BLACK
6
CONTINUOUS
10
10.3487
20
-6.9571
11
10.3487
21
-6.9571
0
LINE
8
BLACK
6
CONTINUOUS
10
10.3487
20
-6.9571
11
10.3487
21
-6.9571
0
LINE
8
BLACK
6
CONTINUOUS
10
10.3487
20
-6.9571
11
10.3487
21
-6.9571
0
LINE
8
BLACK
6
CONTINUOUS
10
10.3487
20
-6.9571
11
10.3466
21
-6.9554
0
LINE
8
BLACK
6
CONTINUOUS
10
10.3466
20
-6.9554
11
10.3466
21
-6.9554
0
LINE
8
BLACK
6
CONTINUOUS
10
10.3466
20
-6.9554
11
10.3466
21
-6.9554
0
LINE
8
BLACK
6
CONTINUOUS
10
10.3466
20
-6.9554
11
10.3466
21
-6.9554
0
LINE
8
BLACK
6
CONTINUOUS
10
10.3466
20
-6.9554
11
10.3449
21
-6.95333
0
LINE
8
BLACK
6
CONTINUOUS
10
10.3449
20
-6.95333
11
10.3449
21
-6.95333
0
LINE
8
BLACK
6
CONTINUOUS
10
10.3449
20
-6.95333
11
10.3449
21
-6.95333
0
LINE
8
BLACK
6
CONTINUOUS
10
10.3449
20
-6.95333
11
10.3436
21
-6.95096
0
LINE
8
BLACK
6
CONTINUOUS
10
10.3436
20
-6.95096
11
10.3436
21
-6.95096
0
LINE
8
BLACK
6
CONTINUOUS
10
10.3436
20
-6.95096
11
10.3436
21
-6.95096
0
LINE
8
BLACK
6
CONTINUOUS
10
10.3436
20
-6.95096
11
10.3428
21
-6.94839
0
LINE
8
BLACK
6
CONTINUOUS
10
10.3428
20
-6.94839
11
10.3428
21
-6.94839
0
LINE
8
BLACK
6
CONTINUOUS
10
10.3428
20
-6.94839
11
10.3428
21
-6.94839
0
LINE
8
BLACK
6
CONTINUOUS
10
10.3428
20
-6.94839
11
10.3425
21
-6.94572
0
LINE
8
BLACK
6
CONTINUOUS
10
10.3425
20
-6.94572
11
10.3425
21
-6.94572
0
LINE
8
BLACK
6
CONTINUOUS
10
10.3425
20
-6.94572
11
10.3425
21
-6.94562
0
LINE
8
BLACK
6
CONTINUOUS
10
10.3425
20
-6.94562
11
10.3425
21
-6.94562
0
LINE
8
BLACK
6
CONTINUOUS
10
10.3425
20
-6.94562
11
10.3425
21
-6.94562
0
LINE
8
BLACK
6
CONTINUOUS
10
10.3425
20
-6.94562
11
10.3425
21
-6.89838
0
LINE
8
BLACK
6
CONTINUOUS
10
10.3425
20
-6.89838
11
10.3425
21
-6.89838
0
LINE
8
BLACK
6
CONTINUOUS
10
10.3425
20
-6.89838
11
10.3428
21
-6.8957
0
LINE
8
BLACK
6
CONTINUOUS
10
10.3428
20
-6.8957
11
10.3428
21
-6.8957
0
LINE
8
BLACK
6
CONTINUOUS
10
10.3428
20
-6.8957
11
10.3428
21
-6.8957
0
LINE
8
BLACK
6
CONTINUOUS
10
10.3428
20
-6.8957
11
10.3428
21
-6.8957
0
LINE
8
BLACK
6
CONTINUOUS
10
10.3428
20
-6.8957
11
10.3436
21
-6.89313
0
LINE
8
BLACK
6
CONTINUOUS
10
10.3436
20
-6.89313
11
10.3436
21
-6.89313
0
LINE
8
BLACK
6
CONTINUOUS
10
10.3436
20
-6.89313
11
10.3436
21
-6.89313
0
LINE
8
BLACK
6
CONTINUOUS
10
10.3436
20
-6.89313
11
10.3448
21
-6.89075
0
LINE
8
BLACK
6
CONTINUOUS
10
10.3448
20
-6.89075
11
10.3448
21
-6.89075
0
LINE
8
BLACK
6
CONTINUOUS
10
10.3448
20
-6.89075
11
10.3448
21
-6.89075
0
LINE
8
BLACK
6
CONTINUOUS
10
10.3448
20
-6.89075
11
10.3448
21
-6.89075
0
LINE
8
BLACK
6
CONTINUOUS
10
10.3448
20
-6.89075
11
10.3465
21
-6.88867
0
LINE
8
BLACK
6
CONTINUOUS
10
10.3465
20
-6.88867
11
10.3465
21
-6.88867
0
LINE
8
BLACK
6
CONTINUOUS
10
10.3465
20
-6.88867
11
10.3486
21
-6.88695
0
LINE
8
BLACK
6
CONTINUOUS
10
10.3486
20
-6.88695
11
10.3486
21
-6.88695
0
LINE
8
BLACK
6
CONTINUOUS
10
10.3486
20
-6.88695
11
10.3486
21
-6.88695
0
LINE
8
BLACK
6
CONTINUOUS
10
10.3486
20
-6.88695
11
10.351
21
-6.88567
0
LINE
8
BLACK
6
CONTINUOUS
10
10.351
20
-6.88567
11
10.351
21
-6.88567
0
LINE
8
BLACK
6
CONTINUOUS
10
10.351
20
-6.88567
11
10.351
21
-6.88567
0
LINE
8
BLACK
6
CONTINUOUS
10
10.351
20
-6.88567
11
10.351
21
-6.88567
0
LINE
8
BLACK
6
CONTINUOUS
10
10.351
20
-6.88567
11
10.3535
21
-6.88488
0
LINE
8
BLACK
6
CONTINUOUS
10
10.3535
20
-6.88488
11
10.3535
21
-6.88488
0
LINE
8
BLACK
6
CONTINUOUS
10
10.3535
20
-6.88488
11
10.3562
21
-6.8846
0
LINE
8
BLACK
6
CONTINUOUS
10
10.3562
20
-6.8846
11
10.3562
21
-6.8846
0
LINE
8
BLACK
6
CONTINUOUS
10
10.3562
20
-6.8846
11
10.3563
21
-6.8846
0
LINE
8
BLACK
6
CONTINUOUS
10
10.3563
20
-6.8846
11
10.3563
21
-6.8846
0
LINE
8
BLACK
6
CONTINUOUS
10
10.3563
20
-6.8846
11
10.359
21
-6.88486
0
LINE
8
BLACK
6
CONTINUOUS
10
10.359
20
-6.88486
11
10.359
21
-6.88486
0
LINE
8
BLACK
6
CONTINUOUS
10
10.359
20
-6.88486
11
10.359
21
-6.88486
0
LINE
8
BLACK
6
CONTINUOUS
10
10.359
20
-6.88486
11
10.359
21
-6.88486
0
LINE
8
BLACK
6
CONTINUOUS
10
10.359
20
-6.88486
11
10.3616
21
-6.88564
0
LINE
8
BLACK
6
CONTINUOUS
10
10.3616
20
-6.88564
11
10.3616
21
-6.88564
0
LINE
8
BLACK
6
CONTINUOUS
10
10.3616
20
-6.88564
11
10.3616
21
-6.88564
0
LINE
8
BLACK
6
CONTINUOUS
10
10.3616
20
-6.88564
11
10.3639
21
-6.8869
0
LINE
8
BLACK
6
CONTINUOUS
10
10.3639
20
-6.8869
11
10.3639
21
-6.8869
0
LINE
8
BLACK
6
CONTINUOUS
10
10.3639
20
-6.8869
11
10.3639
21
-6.8869
0
LINE
8
BLACK
6
CONTINUOUS
10
10.3639
20
-6.8869
11
10.3639
21
-6.8869
0
LINE
8
BLACK
6
CONTINUOUS
10
10.3639
20
-6.8869
11
10.366
21
-6.8886
0
LINE
8
BLACK
6
CONTINUOUS
10
10.366
20
-6.8886
11
10.366
21
-6.8886
0
LINE
8
BLACK
6
CONTINUOUS
10
10.366
20
-6.8886
11
10.3677
21
-6.89067
0
LINE
8
BLACK
6
CONTINUOUS
10
10.3425
20
-6.94572
11
10.3428
21
-6.94839
0
LINE
8
BLACK
6
CONTINUOUS
10
10.3428
20
-6.94839
11
10.3436
21
-6.95096
0
LINE
8
BLACK
6
CONTINUOUS
10
10.3436
20
-6.95096
11
10.3449
21
-6.95333
0
LINE
8
BLACK
6
CONTINUOUS
10
10.3449
20
-6.95333
11
10.3466
21
-6.9554
0
LINE
8
BLACK
6
CONTINUOUS
10
10.3466
20
-6.9554
11
10.3487
21
-6.9571
0
LINE
8
BLACK
6
CONTINUOUS
10
10.3487
20
-6.9571
11
10.351
21
-6.95836
0
LINE
8
BLACK
6
CONTINUOUS
10
10.351
20
-6.95836
11
10.3536
21
-6.95914
0
LINE
8
BLACK
6
CONTINUOUS
10
10.3536
20
-6.95914
11
10.3563
21
-6.9594
0
LINE
8
BLACK
6
CONTINUOUS
10
10.3563
20
-6.9594
11
10.3564
21
-6.9594
0
LINE
8
BLACK
6
CONTINUOUS
10
10.3564
20
-6.9594
11
10.3591
21
-6.95912
0
LINE
8
BLACK
6
CONTINUOUS
10
10.3591
20
-6.95912
11
10.3616
21
-6.95832
0
LINE
8
BLACK
6
CONTINUOUS
10
10.3616
20
-6.95832
11
10.364
21
-6.95704
0
LINE
8
BLACK
6
CONTINUOUS
10
10.364
20
-6.95704
11
10.3661
21
-6.95533
0
LINE
8
BLACK
6
CONTINUOUS
10
10.3661
20
-6.95533
11
10.3678
21
-6.95325
0
LINE
8
BLACK
6
CONTINUOUS
10
10.3678
20
-6.95325
11
10.369
21
-6.95087
0
LINE
8
BLACK
6
CONTINUOUS
10
10.369
20
-6.95087
11
10.3698
21
-6.9483
0
LINE
8
BLACK
6
CONTINUOUS
10
10.3698
20
-6.9483
11
10.3701
21
-6.94562
0
LINE
8
BLACK
6
CONTINUOUS
10
10.3701
20
-6.94562
11
10.3701
21
-6.94562
0
LINE
8
BLACK
6
CONTINUOUS
10
10.3701
20
-6.94562
11
10.3701
21
-6.94562
0
LINE
8
BLACK
6
CONTINUOUS
10
10.3701
20
-6.94562
11
10.3701
21
-6.89838
0
LINE
8
BLACK
6
CONTINUOUS
10
10.3701
20
-6.89838
11
10.3701
21
-6.89828
0
LINE
8
BLACK
6
CONTINUOUS
10
10.3701
20
-6.89828
11
10.3698
21
-6.89561
0
LINE
8
BLACK
6
CONTINUOUS
10
10.3698
20
-6.89561
11
10.369
21
-6.89304
0
LINE
8
BLACK
6
CONTINUOUS
10
10.369
20
-6.89304
11
10.3677
21
-6.89067
0
LINE
8
BLACK
6
CONTINUOUS
10
10.3677
20
-6.89067
11
10.366
21
-6.8886
0
LINE
8
BLACK
6
CONTINUOUS
10
10.366
20
-6.8886
11
10.3639
21
-6.8869
0
LINE
8
BLACK
6
CONTINUOUS
10
10.3639
20
-6.8869
11
10.3615
21
-6.88564
0
LINE
8
BLACK
6
CONTINUOUS
10
10.3615
20
-6.88564
11
10.359
21
-6.88486
0
LINE
8
BLACK
6
CONTINUOUS
10
10.359
20
-6.88486
11
10.3563
21
-6.8846
0
LINE
8
BLACK
6
CONTINUOUS
10
10.3563
20
-6.8846
11
10.3562
21
-6.8846
0
LINE
8
BLACK
6
CONTINUOUS
10
10.3562
20
-6.8846
11
10.3535
21
-6.88488
0
LINE
8
BLACK
6
CONTINUOUS
10
10.3535
20
-6.88488
11
10.351
21
-6.88568
0
LINE
8
BLACK
6
CONTINUOUS
10
10.351
20
-6.88568
11
10.3486
21
-6.88696
0
LINE
8
BLACK
6
CONTINUOUS
10
10.3486
20
-6.88696
11
10.3465
21
-6.88867
0
LINE
8
BLACK
6
CONTINUOUS
10
10.3465
20
-6.88867
11
10.3448
21
-6.89075
0
LINE
8
BLACK
6
CONTINUOUS
10
10.3448
20
-6.89075
11
10.3436
21
-6.89313
0
LINE
8
BLACK
6
CONTINUOUS
10
10.3436
20
-6.89313
11
10.3428
21
-6.8957
0
LINE
8
BLACK
6
CONTINUOUS
10
10.3428
20
-6.8957
11
10.3425
21
-6.89838
0
LINE
8
BLACK
6
CONTINUOUS
10
10.3425
20
-6.89838
11
10.3425
21
-6.94562
0
LINE
8
BLACK
6
CONTINUOUS
10
10.3425
20
-6.94562
11
10.3425
21
-6.94572
0
LINE
8
BLACK
6
CONTINUOUS
10
8.90513
20
-6.89067
11
8.90513
21
-6.89067
0
LINE
8
BLACK
6
CONTINUOUS
10
8.90513
20
-6.89067
11
8.90513
21
-6.89067
0
LINE
8
BLACK
6
CONTINUOUS
10
8.90513
20
-6.89067
11
8.90641
21
-6.89304
0
LINE
8
BLACK
6
CONTINUOUS
10
8.90641
20
-6.89304
11
8.90641
21
-6.89304
0
LINE
8
BLACK
6
CONTINUOUS
10
8.90641
20
-6.89304
11
8.90641
21
-6.89304
0
LINE
8
BLACK
6
CONTINUOUS
10
8.90641
20
-6.89304
11
8.90641
21
-6.89304
0
LINE
8
BLACK
6
CONTINUOUS
10
8.90641
20
-6.89304
11
8.9072
21
-6.89561
0
LINE
8
BLACK
6
CONTINUOUS
10
8.9072
20
-6.89561
11
8.9072
21
-6.89561
0
LINE
8
BLACK
6
CONTINUOUS
10
8.9072
20
-6.89561
11
8.90748
21
-6.89828
0
LINE
8
BLACK
6
CONTINUOUS
10
8.90748
20
-6.89828
11
8.90748
21
-6.89828
0
LINE
8
BLACK
6
CONTINUOUS
10
8.90748
20
-6.89828
11
8.90748
21
-6.89838
0
LINE
8
BLACK
6
CONTINUOUS
10
8.90748
20
-6.89838
11
8.90748
21
-6.94562
0
LINE
8
BLACK
6
CONTINUOUS
10
8.90748
20
-6.94562
11
8.90722
21
-6.9483
0
LINE
8
BLACK
6
CONTINUOUS
10
8.90722
20
-6.9483
11
8.90722
21
-6.9483
0
LINE
8
BLACK
6
CONTINUOUS
10
8.90722
20
-6.9483
11
8.90644
21
-6.95087
0
LINE
8
BLACK
6
CONTINUOUS
10
8.90644
20
-6.95087
11
8.90644
21
-6.95087
0
LINE
8
BLACK
6
CONTINUOUS
10
8.90644
20
-6.95087
11
8.90644
21
-6.95087
0
LINE
8
BLACK
6
CONTINUOUS
10
8.90644
20
-6.95087
11
8.90644
21
-6.95087
0
LINE
8
BLACK
6
CONTINUOUS
10
8.90644
20
-6.95087
11
8.90518
21
-6.95325
0
LINE
8
BLACK
6
CONTINUOUS
10
8.90518
20
-6.95325
11
8.90518
21
-6.95325
0
LINE
8
BLACK
6
CONTINUOUS
10
8.90518
20
-6.95325
11
8.90518
21
-6.95325
0
LINE
8
BLACK
6
CONTINUOUS
10
8.90518
20
-6.95325
11
8.90518
21
-6.95325
0
LINE
8
BLACK
6
CONTINUOUS
10
8.90518
20
-6.95325
11
8.90518
21
-6.95325
0
LINE
8
BLACK
6
CONTINUOUS
10
8.90518
20
-6.95325
11
8.90348
21
-6.95533
0
LINE
8
BLACK
6
CONTINUOUS
10
8.90348
20
-6.95533
11
8.90348
21
-6.95533
0
LINE
8
BLACK
6
CONTINUOUS
10
8.90348
20
-6.95533
11
8.90348
21
-6.95533
0
LINE
8
BLACK
6
CONTINUOUS
10
8.90348
20
-6.95533
11
8.90348
21
-6.95533
0
LINE
8
BLACK
6
CONTINUOUS
10
8.90348
20
-6.95533
11
8.90141
21
-6.95705
0
LINE
8
BLACK
6
CONTINUOUS
10
8.90141
20
-6.95705
11
8.90141
21
-6.95705
0
LINE
8
BLACK
6
CONTINUOUS
10
8.90141
20
-6.95705
11
8.90141
21
-6.95705
0
LINE
8
BLACK
6
CONTINUOUS
10
8.90141
20
-6.95705
11
8.89904
21
-6.95833
0
LINE
8
BLACK
6
CONTINUOUS
10
8.89904
20
-6.95833
11
8.89904
21
-6.95833
0
LINE
8
BLACK
6
CONTINUOUS
10
8.89904
20
-6.95833
11
8.89647
21
-6.95912
0
LINE
8
BLACK
6
CONTINUOUS
10
8.89647
20
-6.95912
11
8.89647
21
-6.95912
0
LINE
8
BLACK
6
CONTINUOUS
10
8.89647
20
-6.95912
11
8.8938
21
-6.9594
0
LINE
8
BLACK
6
CONTINUOUS
10
8.8938
20
-6.9594
11
8.8938
21
-6.9594
0
LINE
8
BLACK
6
CONTINUOUS
10
8.8938
20
-6.9594
11
8.8937
21
-6.9594
0
LINE
8
BLACK
6
CONTINUOUS
10
8.8937
20
-6.9594
11
8.8937
21
-6.9594
0
LINE
8
BLACK
6
CONTINUOUS
10
8.8937
20
-6.9594
11
8.89102
21
-6.95914
0
LINE
8
BLACK
6
CONTINUOUS
10
8.89102
20
-6.95914
11
8.89102
21
-6.95914
0
LINE
8
BLACK
6
CONTINUOUS
10
8.89102
20
-6.95914
11
8.89102
21
-6.95914
0
LINE
8
BLACK
6
CONTINUOUS
10
8.89102
20
-6.95914
11
8.88845
21
-6.95836
0
LINE
8
BLACK
6
CONTINUOUS
10
8.88845
20
-6.95836
11
8.88845
21
-6.95836
0
LINE
8
BLACK
6
CONTINUOUS
10
8.88845
20
-6.95836
11
8.88845
21
-6.95836
0
LINE
8
BLACK
6
CONTINUOUS
10
8.88845
20
-6.95836
11
8.88845
21
-6.95836
0
LINE
8
BLACK
6
CONTINUOUS
10
8.88845
20
-6.95836
11
8.88607
21
-6.9571
0
LINE
8
BLACK
6
CONTINUOUS
10
8.88607
20
-6.9571
11
8.88607
21
-6.9571
0
LINE
8
BLACK
6
CONTINUOUS
10
8.88607
20
-6.9571
11
8.88607
21
-6.9571
0
LINE
8
BLACK
6
CONTINUOUS
10
8.88607
20
-6.9571
11
8.88607
21
-6.9571
0
LINE
8
BLACK
6
CONTINUOUS
10
8.88607
20
-6.9571
11
8.88399
21
-6.9554
0
LINE
8
BLACK
6
CONTINUOUS
10
8.88399
20
-6.9554
11
8.88399
21
-6.9554
0
LINE
8
BLACK
6
CONTINUOUS
10
8.88399
20
-6.9554
11
8.88399
21
-6.9554
0
LINE
8
BLACK
6
CONTINUOUS
10
8.88399
20
-6.9554
11
8.88399
21
-6.9554
0
LINE
8
BLACK
6
CONTINUOUS
10
8.88399
20
-6.9554
11
8.88228
21
-6.95333
0
LINE
8
BLACK
6
CONTINUOUS
10
8.88228
20
-6.95333
11
8.88228
21
-6.95333
0
LINE
8
BLACK
6
CONTINUOUS
10
8.88228
20
-6.95333
11
8.88228
21
-6.95333
0
LINE
8
BLACK
6
CONTINUOUS
10
8.88228
20
-6.95333
11
8.881
21
-6.95096
0
LINE
8
BLACK
6
CONTINUOUS
10
8.881
20
-6.95096
11
8.881
21
-6.95096
0
LINE
8
BLACK
6
CONTINUOUS
10
8.881
20
-6.95096
11
8.881
21
-6.95096
0
LINE
8
BLACK
6
CONTINUOUS
10
8.881
20
-6.95096
11
8.8802
21
-6.94839
0
LINE
8
BLACK
6
CONTINUOUS
10
8.8802
20
-6.94839
11
8.8802
21
-6.94839
0
LINE
8
BLACK
6
CONTINUOUS
10
8.8802
20
-6.94839
11
8.8802
21
-6.94839
0
LINE
8
BLACK
6
CONTINUOUS
10
8.8802
20
-6.94839
11
8.87992
21
-6.94572
0
LINE
8
BLACK
6
CONTINUOUS
10
8.87992
20
-6.94572
11
8.87992
21
-6.94572
0
LINE
8
BLACK
6
CONTINUOUS
10
8.87992
20
-6.94572
11
8.87992
21
-6.94562
0
LINE
8
BLACK
6
CONTINUOUS
10
8.87992
20
-6.94562
11
8.87992
21
-6.94562
0
LINE
8
BLACK
6
CONTINUOUS
10
8.87992
20
-6.94562
11
8.87992
21
-6.94562
0
LINE
8
BLACK
6
CONTINUOUS
10
8.87992
20
-6.94562
11
8.87992
21
-6.89838
0
LINE
8
BLACK
6
CONTINUOUS
10
8.87992
20
-6.89838
11
8.87992
21
-6.89838
0
LINE
8
BLACK
6
CONTINUOUS
10
8.87992
20
-6.89838
11
8.88018
21
-6.8957
0
LINE
8
BLACK
6
CONTINUOUS
10
8.88018
20
-6.8957
11
8.88018
21
-6.8957
0
LINE
8
BLACK
6
CONTINUOUS
10
8.88018
20
-6.8957
11
8.88018
21
-6.8957
0
LINE
8
BLACK
6
CONTINUOUS
10
8.88018
20
-6.8957
11
8.88018
21
-6.8957
0
LINE
8
BLACK
6
CONTINUOUS
10
8.88018
20
-6.8957
11
8.88096
21
-6.89313
0
LINE
8
BLACK
6
CONTINUOUS
10
8.88096
20
-6.89313
11
8.88096
21
-6.89313
0
LINE
8
BLACK
6
CONTINUOUS
10
8.88096
20
-6.89313
11
8.88096
21
-6.89313
0
LINE
8
BLACK
6
CONTINUOUS
10
8.88096
20
-6.89313
11
8.88222
21
-6.89075
0
LINE
8
BLACK
6
CONTINUOUS
10
8.88222
20
-6.89075
11
8.88222
21
-6.89075
0
LINE
8
BLACK
6
CONTINUOUS
10
8.88222
20
-6.89075
11
8.88222
21
-6.89075
0
LINE
8
BLACK
6
CONTINUOUS
10
8.88222
20
-6.89075
11
8.88222
21
-6.89075
0
LINE
8
BLACK
6
CONTINUOUS
10
8.88222
20
-6.89075
11
8.88392
21
-6.88867
0
LINE
8
BLACK
6
CONTINUOUS
10
8.88392
20
-6.88867
11
8.88392
21
-6.88867
0
LINE
8
BLACK
6
CONTINUOUS
10
8.88392
20
-6.88867
11
8.88599
21
-6.88695
0
LINE
8
BLACK
6
CONTINUOUS
10
8.88599
20
-6.88695
11
8.88599
21
-6.88695
0
LINE
8
BLACK
6
CONTINUOUS
10
8.88599
20
-6.88695
11
8.88599
21
-6.88695
0
LINE
8
BLACK
6
CONTINUOUS
10
8.88599
20
-6.88695
11
8.88836
21
-6.88567
0
LINE
8
BLACK
6
CONTINUOUS
10
8.88836
20
-6.88567
11
8.88836
21
-6.88567
0
LINE
8
BLACK
6
CONTINUOUS
10
8.88836
20
-6.88567
11
8.88836
21
-6.88567
0
LINE
8
BLACK
6
CONTINUOUS
10
8.88836
20
-6.88567
11
8.88836
21
-6.88567
0
LINE
8
BLACK
6
CONTINUOUS
10
8.88836
20
-6.88567
11
8.89093
21
-6.88488
0
LINE
8
BLACK
6
CONTINUOUS
10
8.89093
20
-6.88488
11
8.89093
21
-6.88488
0
LINE
8
BLACK
6
CONTINUOUS
10
8.89093
20
-6.88488
11
8.8936
21
-6.8846
0
LINE
8
BLACK
6
CONTINUOUS
10
8.8936
20
-6.8846
11
8.8936
21
-6.8846
0
LINE
8
BLACK
6
CONTINUOUS
10
8.8936
20
-6.8846
11
8.8937
21
-6.8846
0
LINE
8
BLACK
6
CONTINUOUS
10
8.8937
20
-6.8846
11
8.8937
21
-6.8846
0
LINE
8
BLACK
6
CONTINUOUS
10
8.8937
20
-6.8846
11
8.89638
21
-6.88486
0
LINE
8
BLACK
6
CONTINUOUS
10
8.89638
20
-6.88486
11
8.89638
21
-6.88486
0
LINE
8
BLACK
6
CONTINUOUS
10
8.89638
20
-6.88486
11
8.89638
21
-6.88486
0
LINE
8
BLACK
6
CONTINUOUS
10
8.89638
20
-6.88486
11
8.89638
21
-6.88486
0
LINE
8
BLACK
6
CONTINUOUS
10
8.89638
20
-6.88486
11
8.89895
21
-6.88564
0
LINE
8
BLACK
6
CONTINUOUS
10
8.89895
20
-6.88564
11
8.89895
21
-6.88564
0
LINE
8
BLACK
6
CONTINUOUS
10
8.89895
20
-6.88564
11
8.89895
21
-6.88564
0
LINE
8
BLACK
6
CONTINUOUS
10
8.89895
20
-6.88564
11
8.90133
21
-6.8869
0
LINE
8
BLACK
6
CONTINUOUS
10
8.90133
20
-6.8869
11
8.90133
21
-6.8869
0
LINE
8
BLACK
6
CONTINUOUS
10
8.90133
20
-6.8869
11
8.90133
21
-6.8869
0
LINE
8
BLACK
6
CONTINUOUS
10
8.90133
20
-6.8869
11
8.90133
21
-6.8869
0
LINE
8
BLACK
6
CONTINUOUS
10
8.90133
20
-6.8869
11
8.90341
21
-6.8886
0
LINE
8
BLACK
6
CONTINUOUS
10
8.90341
20
-6.8886
11
8.90341
21
-6.8886
0
LINE
8
BLACK
6
CONTINUOUS
10
8.90341
20
-6.8886
11
8.90513
21
-6.89067
0
LINE
8
BLACK
6
CONTINUOUS
10
8.87992
20
-6.94572
11
8.8802
21
-6.94839
0
LINE
8
BLACK
6
CONTINUOUS
10
8.8802
20
-6.94839
11
8.881
21
-6.95096
0
LINE
8
BLACK
6
CONTINUOUS
10
8.881
20
-6.95096
11
8.88228
21
-6.95333
0
LINE
8
BLACK
6
CONTINUOUS
10
8.88228
20
-6.95333
11
8.88399
21
-6.9554
0
LINE
8
BLACK
6
CONTINUOUS
10
8.88399
20
-6.9554
11
8.88608
21
-6.9571
0
LINE
8
BLACK
6
CONTINUOUS
10
8.88608
20
-6.9571
11
8.88845
21
-6.95836
0
LINE
8
BLACK
6
CONTINUOUS
10
8.88845
20
-6.95836
11
8.89102
21
-6.95914
0
LINE
8
BLACK
6
CONTINUOUS
10
8.89102
20
-6.95914
11
8.8937
21
-6.9594
0
LINE
8
BLACK
6
CONTINUOUS
10
8.8937
20
-6.9594
11
8.8938
21
-6.9594
0
LINE
8
BLACK
6
CONTINUOUS
10
8.8938
20
-6.9594
11
8.89647
21
-6.95912
0
LINE
8
BLACK
6
CONTINUOUS
10
8.89647
20
-6.95912
11
8.89904
21
-6.95832
0
LINE
8
BLACK
6
CONTINUOUS
10
8.89904
20
-6.95832
11
8.90141
21
-6.95704
0
LINE
8
BLACK
6
CONTINUOUS
10
8.90141
20
-6.95704
11
8.90348
21
-6.95533
0
LINE
8
BLACK
6
CONTINUOUS
10
8.90348
20
-6.95533
11
8.90518
21
-6.95325
0
LINE
8
BLACK
6
CONTINUOUS
10
8.90518
20
-6.95325
11
8.90644
21
-6.95087
0
LINE
8
BLACK
6
CONTINUOUS
10
8.90644
20
-6.95087
11
8.90722
21
-6.9483
0
LINE
8
BLACK
6
CONTINUOUS
10
8.90722
20
-6.9483
11
8.90748
21
-6.94562
0
LINE
8
BLACK
6
CONTINUOUS
10
8.90748
20
-6.94562
11
8.90748
21
-6.94562
0
LINE
8
BLACK
6
CONTINUOUS
10
8.90748
20
-6.94562
11
8.90748
21
-6.94562
0
LINE
8
BLACK
6
CONTINUOUS
10
8.90748
20
-6.94562
11
8.90748
21
-6.89838
0
LINE
8
BLACK
6
CONTINUOUS
10
8.90748
20
-6.89838
11
8.90748
21
-6.89828
0
LINE
8
BLACK
6
CONTINUOUS
10
8.90748
20
-6.89828
11
8.9072
21
-6.89561
0
LINE
8
BLACK
6
CONTINUOUS
10
8.9072
20
-6.89561
11
8.9064
21
-6.89304
0
LINE
8
BLACK
6
CONTINUOUS
10
8.9064
20
-6.89304
11
8.90512
21
-6.89067
0
LINE
8
BLACK
6
CONTINUOUS
10
8.90512
20
-6.89067
11
8.90341
21
-6.8886
0
LINE
8
BLACK
6
CONTINUOUS
10
8.90341
20
-6.8886
11
8.90132
21
-6.8869
0
LINE
8
BLACK
6
CONTINUOUS
10
8.90132
20
-6.8869
11
8.89895
21
-6.88564
0
LINE
8
BLACK
6
CONTINUOUS
10
8.89895
20
-6.88564
11
8.89638
21
-6.88486
0
LINE
8
BLACK
6
CONTINUOUS
10
8.89638
20
-6.88486
11
8.8937
21
-6.8846
0
LINE
8
BLACK
6
CONTINUOUS
10
8.8937
20
-6.8846
11
8.8936
21
-6.8846
0
LINE
8
BLACK
6
CONTINUOUS
10
8.8936
20
-6.8846
11
8.89093
21
-6.88488
0
LINE
8
BLACK
6
CONTINUOUS
10
8.89093
20
-6.88488
11
8.88836
21
-6.88568
0
LINE
8
BLACK
6
CONTINUOUS
10
8.88836
20
-6.88568
11
8.886
21
-6.88696
0
LINE
8
BLACK
6
CONTINUOUS
10
8.886
20
-6.88696
11
8.88392
21
-6.88867
0
LINE
8
BLACK
6
CONTINUOUS
10
8.88392
20
-6.88867
11
8.88223
21
-6.89075
0
LINE
8
BLACK
6
CONTINUOUS
10
8.88223
20
-6.89075
11
8.88096
21
-6.89313
0
LINE
8
BLACK
6
CONTINUOUS
10
8.88096
20
-6.89313
11
8.88019
21
-6.8957
0
LINE
8
BLACK
6
CONTINUOUS
10
8.88019
20
-6.8957
11
8.87992
21
-6.89838
0
LINE
8
BLACK
6
CONTINUOUS
10
8.87992
20
-6.89838
11
8.87992
21
-6.94562
0
LINE
8
BLACK
6
CONTINUOUS
10
8.87992
20
-6.94562
11
8.87992
21
-6.94572
0
LINE
8
BLACK
6
CONTINUOUS
10
8.61772
20
-6.89067
11
8.61772
21
-6.89067
0
LINE
8
BLACK
6
CONTINUOUS
10
8.61772
20
-6.89067
11
8.61772
21
-6.89067
0
LINE
8
BLACK
6
CONTINUOUS
10
8.61772
20
-6.89067
11
8.619
21
-6.89304
0
LINE
8
BLACK
6
CONTINUOUS
10
8.619
20
-6.89304
11
8.619
21
-6.89304
0
LINE
8
BLACK
6
CONTINUOUS
10
8.619
20
-6.89304
11
8.619
21
-6.89304
0
LINE
8
BLACK
6
CONTINUOUS
10
8.619
20
-6.89304
11
8.619
21
-6.89304
0
LINE
8
BLACK
6
CONTINUOUS
10
8.619
20
-6.89304
11
8.6198
21
-6.89561
0
LINE
8
BLACK
6
CONTINUOUS
10
8.6198
20
-6.89561
11
8.6198
21
-6.89561
0
LINE
8
BLACK
6
CONTINUOUS
10
8.6198
20
-6.89561
11
8.62008
21
-6.89828
0
LINE
8
BLACK
6
CONTINUOUS
10
8.62008
20
-6.89828
11
8.62008
21
-6.89828
0
LINE
8
BLACK
6
CONTINUOUS
10
8.62008
20
-6.89828
11
8.62008
21
-6.89838
0
LINE
8
BLACK
6
CONTINUOUS
10
8.62008
20
-6.89838
11
8.62008
21
-6.94562
0
LINE
8
BLACK
6
CONTINUOUS
10
8.62008
20
-6.94562
11
8.61982
21
-6.9483
0
LINE
8
BLACK
6
CONTINUOUS
10
8.61982
20
-6.9483
11
8.61982
21
-6.9483
0
LINE
8
BLACK
6
CONTINUOUS
10
8.61982
20
-6.9483
11
8.61904
21
-6.95087
0
LINE
8
BLACK
6
CONTINUOUS
10
8.61904
20
-6.95087
11
8.61904
21
-6.95087
0
LINE
8
BLACK
6
CONTINUOUS
10
8.61904
20
-6.95087
11
8.61904
21
-6.95087
0
LINE
8
BLACK
6
CONTINUOUS
10
8.61904
20
-6.95087
11
8.61904
21
-6.95087
0
LINE
8
BLACK
6
CONTINUOUS
10
8.61904
20
-6.95087
11
8.61778
21
-6.95325
0
LINE
8
BLACK
6
CONTINUOUS
10
8.61778
20
-6.95325
11
8.61778
21
-6.95325
0
LINE
8
BLACK
6
CONTINUOUS
10
8.61778
20
-6.95325
11
8.61778
21
-6.95325
0
LINE
8
BLACK
6
CONTINUOUS
10
8.61778
20
-6.95325
11
8.61778
21
-6.95325
0
LINE
8
BLACK
6
CONTINUOUS
10
8.61778
20
-6.95325
11
8.61778
21
-6.95325
0
LINE
8
BLACK
6
CONTINUOUS
10
8.61778
20
-6.95325
11
8.61608
21
-6.95533
0
LINE
8
BLACK
6
CONTINUOUS
10
8.61608
20
-6.95533
11
8.61608
21
-6.95533
0
LINE
8
BLACK
6
CONTINUOUS
10
8.61608
20
-6.95533
11
8.61608
21
-6.95533
0
LINE
8
BLACK
6
CONTINUOUS
10
8.61608
20
-6.95533
11
8.61608
21
-6.95533
0
LINE
8
BLACK
6
CONTINUOUS
10
8.61608
20
-6.95533
11
8.61401
21
-6.95705
0
LINE
8
BLACK
6
CONTINUOUS
10
8.61401
20
-6.95705
11
8.61401
21
-6.95705
0
LINE
8
BLACK
6
CONTINUOUS
10
8.61401
20
-6.95705
11
8.61401
21
-6.95705
0
LINE
8
BLACK
6
CONTINUOUS
10
8.61401
20
-6.95705
11
8.61164
21
-6.95833
0
LINE
8
BLACK
6
CONTINUOUS
10
8.61164
20
-6.95833
11
8.61164
21
-6.95833
0
LINE
8
BLACK
6
CONTINUOUS
10
8.61164
20
-6.95833
11
8.60907
21
-6.95912
0
LINE
8
BLACK
6
CONTINUOUS
10
8.60907
20
-6.95912
11
8.60907
21
-6.95912
0
LINE
8
BLACK
6
CONTINUOUS
10
8.60907
20
-6.95912
11
8.6064
21
-6.9594
0
LINE
8
BLACK
6
CONTINUOUS
10
8.6064
20
-6.9594
11
8.6064
21
-6.9594
0
LINE
8
BLACK
6
CONTINUOUS
10
8.6064
20
-6.9594
11
8.6063
21
-6.9594
0
LINE
8
BLACK
6
CONTINUOUS
10
8.6063
20
-6.9594
11
8.6063
21
-6.9594
0
LINE
8
BLACK
6
CONTINUOUS
10
8.6063
20
-6.9594
11
8.60362
21
-6.95914
0
LINE
8
BLACK
6
CONTINUOUS
10
8.60362
20
-6.95914
11
8.60362
21
-6.95914
0
LINE
8
BLACK
6
CONTINUOUS
10
8.60362
20
-6.95914
11
8.60362
21
-6.95914
0
LINE
8
BLACK
6
CONTINUOUS
10
8.60362
20
-6.95914
11
8.60105
21
-6.95836
0
LINE
8
BLACK
6
CONTINUOUS
10
8.60105
20
-6.95836
11
8.60105
21
-6.95836
0
LINE
8
BLACK
6
CONTINUOUS
10
8.60105
20
-6.95836
11
8.60105
21
-6.95836
0
LINE
8
BLACK
6
CONTINUOUS
10
8.60105
20
-6.95836
11
8.60105
21
-6.95836
0
LINE
8
BLACK
6
CONTINUOUS
10
8.60105
20
-6.95836
11
8.59867
21
-6.9571
0
LINE
8
BLACK
6
CONTINUOUS
10
8.59867
20
-6.9571
11
8.59867
21
-6.9571
0
LINE
8
BLACK
6
CONTINUOUS
10
8.59867
20
-6.9571
11
8.59867
21
-6.9571
0
LINE
8
BLACK
6
CONTINUOUS
10
8.59867
20
-6.9571
11
8.59867
21
-6.9571
0
LINE
8
BLACK
6
CONTINUOUS
10
8.59867
20
-6.9571
11
8.59659
21
-6.9554
0
LINE
8
BLACK
6
CONTINUOUS
10
8.59659
20
-6.9554
11
8.59659
21
-6.9554
0
LINE
8
BLACK
6
CONTINUOUS
10
8.59659
20
-6.9554
11
8.59659
21
-6.9554
0
LINE
8
BLACK
6
CONTINUOUS
10
8.59659
20
-6.9554
11
8.59659
21
-6.9554
0
LINE
8
BLACK
6
CONTINUOUS
10
8.59659
20
-6.9554
11
8.59487
21
-6.95333
0
LINE
8
BLACK
6
CONTINUOUS
10
8.59487
20
-6.95333
11
8.59487
21
-6.95333
0
LINE
8
BLACK
6
CONTINUOUS
10
8.59487
20
-6.95333
11
8.59487
21
-6.95333
0
LINE
8
BLACK
6
CONTINUOUS
10
8.59487
20
-6.95333
11
8.59359
21
-6.95096
0
LINE
8
BLACK
6
CONTINUOUS
10
8.59359
20
-6.95096
11
8.59359
21
-6.95096
0
LINE
8
BLACK
6
CONTINUOUS
10
8.59359
20
-6.95096
11
8.59359
21
-6.95096
0
LINE
8
BLACK
6
CONTINUOUS
10
8.59359
20
-6.95096
11
8.5928
21
-6.94839
0
LINE
8
BLACK
6
CONTINUOUS
10
8.5928
20
-6.94839
11
8.5928
21
-6.94839
0
LINE
8
BLACK
6
CONTINUOUS
10
8.5928
20
-6.94839
11
8.5928
21
-6.94839
0
LINE
8
BLACK
6
CONTINUOUS
10
8.5928
20
-6.94839
11
8.59252
21
-6.94572
0
LINE
8
BLACK
6
CONTINUOUS
10
8.59252
20
-6.94572
11
8.59252
21
-6.94572
0
LINE
8
BLACK
6
CONTINUOUS
10
8.59252
20
-6.94572
11
8.59252
21
-6.94562
0
LINE
8
BLACK
6
CONTINUOUS
10
8.59252
20
-6.94562
11
8.59252
21
-6.94562
0
LINE
8
BLACK
6
CONTINUOUS
10
8.59252
20
-6.94562
11
8.59252
21
-6.94562
0
LINE
8
BLACK
6
CONTINUOUS
10
8.59252
20
-6.94562
11
8.59252
21
-6.89838
0
LINE
8
BLACK
6
CONTINUOUS
10
8.59252
20
-6.89838
11
8.59252
21
-6.89838
0
LINE
8
BLACK
6
CONTINUOUS
10
8.59252
20
-6.89838
11
8.59278
21
-6.8957
0
LINE
8
BLACK
6
CONTINUOUS
10
8.59278
20
-6.8957
11
8.59278
21
-6.8957
0
LINE
8
BLACK
6
CONTINUOUS
10
8.59278
20
-6.8957
11
8.59278
21
-6.8957
0
LINE
8
BLACK
6
CONTINUOUS
10
8.59278
20
-6.8957
11
8.59278
21
-6.8957
0
LINE
8
BLACK
6
CONTINUOUS
10
8.59278
20
-6.8957
11
8.59356
21
-6.89313
0
LINE
8
BLACK
6
CONTINUOUS
10
8.59356
20
-6.89313
11
8.59356
21
-6.89313
0
LINE
8
BLACK
6
CONTINUOUS
10
8.59356
20
-6.89313
11
8.59356
21
-6.89313
0
LINE
8
BLACK
6
CONTINUOUS
10
8.59356
20
-6.89313
11
8.59482
21
-6.89075
0
LINE
8
BLACK
6
CONTINUOUS
10
8.59482
20
-6.89075
11
8.59482
21
-6.89075
0
LINE
8
BLACK
6
CONTINUOUS
10
8.59482
20
-6.89075
11
8.59482
21
-6.89075
0
LINE
8
BLACK
6
CONTINUOUS
10
8.59482
20
-6.89075
11
8.59482
21
-6.89075
0
LINE
8
BLACK
6
CONTINUOUS
10
8.59482
20
-6.89075
11
8.59652
21
-6.88867
0
LINE
8
BLACK
6
CONTINUOUS
10
8.59652
20
-6.88867
11
8.59652
21
-6.88867
0
LINE
8
BLACK
6
CONTINUOUS
10
8.59652
20
-6.88867
11
8.59859
21
-6.88695
0
LINE
8
BLACK
6
CONTINUOUS
10
8.59859
20
-6.88695
11
8.59859
21
-6.88695
0
LINE
8
BLACK
6
CONTINUOUS
10
8.59859
20
-6.88695
11
8.59859
21
-6.88695
0
LINE
8
BLACK
6
CONTINUOUS
10
8.59859
20
-6.88695
11
8.60096
21
-6.88567
0
LINE
8
BLACK
6
CONTINUOUS
10
8.60096
20
-6.88567
11
8.60096
21
-6.88567
0
LINE
8
BLACK
6
CONTINUOUS
10
8.60096
20
-6.88567
11
8.60096
21
-6.88567
0
LINE
8
BLACK
6
CONTINUOUS
10
8.60096
20
-6.88567
11
8.60096
21
-6.88567
0
LINE
8
BLACK
6
CONTINUOUS
10
8.60096
20
-6.88567
11
8.60353
21
-6.88488
0
LINE
8
BLACK
6
CONTINUOUS
10
8.60353
20
-6.88488
11
8.60353
21
-6.88488
0
LINE
8
BLACK
6
CONTINUOUS
10
8.60353
20
-6.88488
11
8.6062
21
-6.8846
0
LINE
8
BLACK
6
CONTINUOUS
10
8.6062
20
-6.8846
11
8.6062
21
-6.8846
0
LINE
8
BLACK
6
CONTINUOUS
10
8.6062
20
-6.8846
11
8.6063
21
-6.8846
0
LINE
8
BLACK
6
CONTINUOUS
10
8.6063
20
-6.8846
11
8.6063
21
-6.8846
0
LINE
8
BLACK
6
CONTINUOUS
10
8.6063
20
-6.8846
11
8.60898
21
-6.88486
0
LINE
8
BLACK
6
CONTINUOUS
10
8.60898
20
-6.88486
11
8.60898
21
-6.88486
0
LINE
8
BLACK
6
CONTINUOUS
10
8.60898
20
-6.88486
11
8.60898
21
-6.88486
0
LINE
8
BLACK
6
CONTINUOUS
10
8.60898
20
-6.88486
11
8.60898
21
-6.88486
0
LINE
8
BLACK
6
CONTINUOUS
10
8.60898
20
-6.88486
11
8.61155
21
-6.88564
0
LINE
8
BLACK
6
CONTINUOUS
10
8.61155
20
-6.88564
11
8.61155
21
-6.88564
0
LINE
8
BLACK
6
CONTINUOUS
10
8.61155
20
-6.88564
11
8.61155
21
-6.88564
0
LINE
8
BLACK
6
CONTINUOUS
10
8.61155
20
-6.88564
11
8.61393
21
-6.8869
0
LINE
8
BLACK
6
CONTINUOUS
10
8.61393
20
-6.8869
11
8.61393
21
-6.8869
0
LINE
8
BLACK
6
CONTINUOUS
10
8.61393
20
-6.8869
11
8.61393
21
-6.8869
0
LINE
8
BLACK
6
CONTINUOUS
10
8.61393
20
-6.8869
11
8.61393
21
-6.8869
0
LINE
8
BLACK
6
CONTINUOUS
10
8.61393
20
-6.8869
11
8.61601
21
-6.8886
0
LINE
8
BLACK
6
CONTINUOUS
10
8.61601
20
-6.8886
11
8.61601
21
-6.8886
0
LINE
8
BLACK
6
CONTINUOUS
10
8.61601
20
-6.8886
11
8.61772
21
-6.89067
0
LINE
8
BLACK
6
CONTINUOUS
10
8.59252
20
-6.94572
11
8.5928
21
-6.94839
0
LINE
8
BLACK
6
CONTINUOUS
10
8.5928
20
-6.94839
11
8.5936
21
-6.95096
0
LINE
8
BLACK
6
CONTINUOUS
10
8.5936
20
-6.95096
11
8.59488
21
-6.95333
0
LINE
8
BLACK
6
CONTINUOUS
10
8.59488
20
-6.95333
11
8.59659
21
-6.9554
0
LINE
8
BLACK
6
CONTINUOUS
10
8.59659
20
-6.9554
11
8.59867
21
-6.9571
0
LINE
8
BLACK
6
CONTINUOUS
10
8.59867
20
-6.9571
11
8.60105
21
-6.95836
0
LINE
8
BLACK
6
CONTINUOUS
10
8.60105
20
-6.95836
11
8.60362
21
-6.95914
0
LINE
8
BLACK
6
CONTINUOUS
10
8.60362
20
-6.95914
11
8.6063
21
-6.9594
0
LINE
8
BLACK
6
CONTINUOUS
10
8.6063
20
-6.9594
11
8.6064
21
-6.9594
0
LINE
8
BLACK
6
CONTINUOUS
10
8.6064
20
-6.9594
11
8.60907
21
-6.95912
0
LINE
8
BLACK
6
CONTINUOUS
10
8.60907
20
-6.95912
11
8.61164
21
-6.95832
0
LINE
8
BLACK
6
CONTINUOUS
10
8.61164
20
-6.95832
11
8.614
21
-6.95704
0
LINE
8
BLACK
6
CONTINUOUS
10
8.614
20
-6.95704
11
8.61608
21
-6.95533
0
LINE
8
BLACK
6
CONTINUOUS
10
8.61608
20
-6.95533
11
8.61777
21
-6.95325
0
LINE
8
BLACK
6
CONTINUOUS
10
8.61777
20
-6.95325
11
8.61904
21
-6.95087
0
LINE
8
BLACK
6
CONTINUOUS
10
8.61904
20
-6.95087
11
8.61981
21
-6.9483
0
LINE
8
BLACK
6
CONTINUOUS
10
8.61981
20
-6.9483
11
8.62008
21
-6.94562
0
LINE
8
BLACK
6
CONTINUOUS
10
8.62008
20
-6.94562
11
8.62008
21
-6.94562
0
LINE
8
BLACK
6
CONTINUOUS
10
8.62008
20
-6.94562
11
8.62008
21
-6.94562
0
LINE
8
BLACK
6
CONTINUOUS
10
8.62008
20
-6.94562
11
8.62008
21
-6.89838
0
LINE
8
BLACK
6
CONTINUOUS
10
8.62008
20
-6.89838
11
8.62008
21
-6.89828
0
LINE
8
BLACK
6
CONTINUOUS
10
8.62008
20
-6.89828
11
8.6198
21
-6.89561
0
LINE
8
BLACK
6
CONTINUOUS
10
8.6198
20
-6.89561
11
8.619
21
-6.89304
0
LINE
8
BLACK
6
CONTINUOUS
10
8.619
20
-6.89304
11
8.61772
21
-6.89067
0
LINE
8
BLACK
6
CONTINUOUS
10
8.61772
20
-6.89067
11
8.61601
21
-6.8886
0
LINE
8
BLACK
6
CONTINUOUS
10
8.61601
20
-6.8886
11
8.61392
21
-6.8869
0
LINE
8
BLACK
6
CONTINUOUS
10
8.61392
20
-6.8869
11
8.61155
21
-6.88564
0
LINE
8
BLACK
6
CONTINUOUS
10
8.61155
20
-6.88564
11
8.60898
21
-6.88486
0
LINE
8
BLACK
6
CONTINUOUS
10
8.60898
20
-6.88486
11
8.6063
21
-6.8846
0
LINE
8
BLACK
6
CONTINUOUS
10
8.6063
20
-6.8846
11
8.6062
21
-6.8846
0
LINE
8
BLACK
6
CONTINUOUS
10
8.6062
20
-6.8846
11
8.60353
21
-6.88488
0
LINE
8
BLACK
6
CONTINUOUS
10
8.60353
20
-6.88488
11
8.60096
21
-6.88568
0
LINE
8
BLACK
6
CONTINUOUS
10
8.60096
20
-6.88568
11
8.59859
21
-6.88696
0
LINE
8
BLACK
6
CONTINUOUS
10
8.59859
20
-6.88696
11
8.59652
21
-6.88867
0
LINE
8
BLACK
6
CONTINUOUS
10
8.59652
20
-6.88867
11
8.59482
21
-6.89075
0
LINE
8
BLACK
6
CONTINUOUS
10
8.59482
20
-6.89075
11
8.59356
21
-6.89313
0
LINE
8
BLACK
6
CONTINUOUS
10
8.59356
20
-6.89313
11
8.59278
21
-6.8957
0
LINE
8
BLACK
6
CONTINUOUS
10
8.59278
20
-6.8957
11
8.59252
21
-6.89838
0
LINE
8
BLACK
6
CONTINUOUS
10
8.59252
20
-6.89838
11
8.59252
21
-6.94562
0
LINE
8
BLACK
6
CONTINUOUS
10
8.59252
20
-6.94562
11
8.59252
21
-6.94572
0
LINE
8
BLACK
6
CONTINUOUS
10
10.6551
20
-6.89067
11
10.6551
21
-6.89067
0
LINE
8
BLACK
6
CONTINUOUS
10
10.6551
20
-6.89067
11
10.6551
21
-6.89067
0
LINE
8
BLACK
6
CONTINUOUS
10
10.6551
20
-6.89067
11
10.6564
21
-6.89304
0
LINE
8
BLACK
6
CONTINUOUS
10
10.6564
20
-6.89304
11
10.6564
21
-6.89304
0
LINE
8
BLACK
6
CONTINUOUS
10
10.6564
20
-6.89304
11
10.6564
21
-6.89304
0
LINE
8
BLACK
6
CONTINUOUS
10
10.6564
20
-6.89304
11
10.6564
21
-6.89304
0
LINE
8
BLACK
6
CONTINUOUS
10
10.6564
20
-6.89304
11
10.6572
21
-6.89561
0
LINE
8
BLACK
6
CONTINUOUS
10
10.6572
20
-6.89561
11
10.6572
21
-6.89561
0
LINE
8
BLACK
6
CONTINUOUS
10
10.6572
20
-6.89561
11
10.6575
21
-6.89828
0
LINE
8
BLACK
6
CONTINUOUS
10
10.6575
20
-6.89828
11
10.6575
21
-6.89828
0
LINE
8
BLACK
6
CONTINUOUS
10
10.6575
20
-6.89828
11
10.6575
21
-6.89838
0
LINE
8
BLACK
6
CONTINUOUS
10
10.6575
20
-6.89838
11
10.6575
21
-6.94562
0
LINE
8
BLACK
6
CONTINUOUS
10
10.6575
20
-6.94562
11
10.6572
21
-6.9483
0
LINE
8
BLACK
6
CONTINUOUS
10
10.6572
20
-6.9483
11
10.6572
21
-6.9483
0
LINE
8
BLACK
6
CONTINUOUS
10
10.6572
20
-6.9483
11
10.6564
21
-6.95087
0
LINE
8
BLACK
6
CONTINUOUS
10
10.6564
20
-6.95087
11
10.6564
21
-6.95087
0
LINE
8
BLACK
6
CONTINUOUS
10
10.6564
20
-6.95087
11
10.6564
21
-6.95087
0
LINE
8
BLACK
6
CONTINUOUS
10
10.6564
20
-6.95087
11
10.6564
21
-6.95087
0
LINE
8
BLACK
6
CONTINUOUS
10
10.6564
20
-6.95087
11
10.6552
21
-6.95325
0
LINE
8
BLACK
6
CONTINUOUS
10
10.6552
20
-6.95325
11
10.6552
21
-6.95325
0
LINE
8
BLACK
6
CONTINUOUS
10
10.6552
20
-6.95325
11
10.6552
21
-6.95325
0
LINE
8
BLACK
6
CONTINUOUS
10
10.6552
20
-6.95325
11
10.6552
21
-6.95325
0
LINE
8
BLACK
6
CONTINUOUS
10
10.6552
20
-6.95325
11
10.6552
21
-6.95325
0
LINE
8
BLACK
6
CONTINUOUS
10
10.6552
20
-6.95325
11
10.6535
21
-6.95533
0
LINE
8
BLACK
6
CONTINUOUS
10
10.6535
20
-6.95533
11
10.6535
21
-6.95533
0
LINE
8
BLACK
6
CONTINUOUS
10
10.6535
20
-6.95533
11
10.6535
21
-6.95533
0
LINE
8
BLACK
6
CONTINUOUS
10
10.6535
20
-6.95533
11
10.6535
21
-6.95533
0
LINE
8
BLACK
6
CONTINUOUS
10
10.6535
20
-6.95533
11
10.6514
21
-6.95705
0
LINE
8
BLACK
6
CONTINUOUS
10
10.6514
20
-6.95705
11
10.6514
21
-6.95705
0
LINE
8
BLACK
6
CONTINUOUS
10
10.6514
20
-6.95705
11
10.6514
21
-6.95705
0
LINE
8
BLACK
6
CONTINUOUS
10
10.6514
20
-6.95705
11
10.649
21
-6.95833
0
LINE
8
BLACK
6
CONTINUOUS
10
10.649
20
-6.95833
11
10.649
21
-6.95833
0
LINE
8
BLACK
6
CONTINUOUS
10
10.649
20
-6.95833
11
10.6465
21
-6.95912
0
LINE
8
BLACK
6
CONTINUOUS
10
10.6465
20
-6.95912
11
10.6465
21
-6.95912
0
LINE
8
BLACK
6
CONTINUOUS
10
10.6465
20
-6.95912
11
10.6438
21
-6.9594
0
LINE
8
BLACK
6
CONTINUOUS
10
10.6438
20
-6.9594
11
10.6438
21
-6.9594
0
LINE
8
BLACK
6
CONTINUOUS
10
10.6438
20
-6.9594
11
10.6437
21
-6.9594
0
LINE
8
BLACK
6
CONTINUOUS
10
10.6437
20
-6.9594
11
10.6437
21
-6.9594
0
LINE
8
BLACK
6
CONTINUOUS
10
10.6437
20
-6.9594
11
10.641
21
-6.95914
0
LINE
8
BLACK
6
CONTINUOUS
10
10.641
20
-6.95914
11
10.641
21
-6.95914
0
LINE
8
BLACK
6
CONTINUOUS
10
10.641
20
-6.95914
11
10.641
21
-6.95914
0
LINE
8
BLACK
6
CONTINUOUS
10
10.641
20
-6.95914
11
10.6384
21
-6.95836
0
LINE
8
BLACK
6
CONTINUOUS
10
10.6384
20
-6.95836
11
10.6384
21
-6.95836
0
LINE
8
BLACK
6
CONTINUOUS
10
10.6384
20
-6.95836
11
10.6384
21
-6.95836
0
LINE
8
BLACK
6
CONTINUOUS
10
10.6384
20
-6.95836
11
10.6384
21
-6.95836
0
LINE
8
BLACK
6
CONTINUOUS
10
10.6384
20
-6.95836
11
10.6361
21
-6.9571
0
LINE
8
BLACK
6
CONTINUOUS
10
10.6361
20
-6.9571
11
10.6361
21
-6.9571
0
LINE
8
BLACK
6
CONTINUOUS
10
10.6361
20
-6.9571
11
10.6361
21
-6.9571
0
LINE
8
BLACK
6
CONTINUOUS
10
10.6361
20
-6.9571
11
10.6361
21
-6.9571
0
LINE
8
BLACK
6
CONTINUOUS
10
10.6361
20
-6.9571
11
10.634
21
-6.9554
0
LINE
8
BLACK
6
CONTINUOUS
10
10.634
20
-6.9554
11
10.634
21
-6.9554
0
LINE
8
BLACK
6
CONTINUOUS
10
10.634
20
-6.9554
11
10.634
21
-6.9554
0
LINE
8
BLACK
6
CONTINUOUS
10
10.634
20
-6.9554
11
10.634
21
-6.9554
0
LINE
8
BLACK
6
CONTINUOUS
10
10.634
20
-6.9554
11
10.6323
21
-6.95333
0
LINE
8
BLACK
6
CONTINUOUS
10
10.6323
20
-6.95333
11
10.6323
21
-6.95333
0
LINE
8
BLACK
6
CONTINUOUS
10
10.6323
20
-6.95333
11
10.6323
21
-6.95333
0
LINE
8
BLACK
6
CONTINUOUS
10
10.6323
20
-6.95333
11
10.631
21
-6.95096
0
LINE
8
BLACK
6
CONTINUOUS
10
10.631
20
-6.95096
11
10.631
21
-6.95096
0
LINE
8
BLACK
6
CONTINUOUS
10
10.631
20
-6.95096
11
10.631
21
-6.95096
0
LINE
8
BLACK
6
CONTINUOUS
10
10.631
20
-6.95096
11
10.6302
21
-6.94839
0
LINE
8
BLACK
6
CONTINUOUS
10
10.6302
20
-6.94839
11
10.6302
21
-6.94839
0
LINE
8
BLACK
6
CONTINUOUS
10
10.6302
20
-6.94839
11
10.6302
21
-6.94839
0
LINE
8
BLACK
6
CONTINUOUS
10
10.6302
20
-6.94839
11
10.6299
21
-6.94572
0
LINE
8
BLACK
6
CONTINUOUS
10
10.6299
20
-6.94572
11
10.6299
21
-6.94572
0
LINE
8
BLACK
6
CONTINUOUS
10
10.6299
20
-6.94572
11
10.6299
21
-6.94562
0
LINE
8
BLACK
6
CONTINUOUS
10
10.6299
20
-6.94562
11
10.6299
21
-6.94562
0
LINE
8
BLACK
6
CONTINUOUS
10
10.6299
20
-6.94562
11
10.6299
21
-6.94562
0
LINE
8
BLACK
6
CONTINUOUS
10
10.6299
20
-6.94562
11
10.6299
21
-6.89838
0
LINE
8
BLACK
6
CONTINUOUS
10
10.6299
20
-6.89838
11
10.6299
21
-6.89838
0
LINE
8
BLACK
6
CONTINUOUS
10
10.6299
20
-6.89838
11
10.6302
21
-6.8957
0
LINE
8
BLACK
6
CONTINUOUS
10
10.6302
20
-6.8957
11
10.6302
21
-6.8957
0
LINE
8
BLACK
6
CONTINUOUS
10
10.6302
20
-6.8957
11
10.6302
21
-6.8957
0
LINE
8
BLACK
6
CONTINUOUS
10
10.6302
20
-6.8957
11
10.6302
21
-6.8957
0
LINE
8
BLACK
6
CONTINUOUS
10
10.6302
20
-6.8957
11
10.631
21
-6.89313
0
LINE
8
BLACK
6
CONTINUOUS
10
10.631
20
-6.89313
11
10.631
21
-6.89313
0
LINE
8
BLACK
6
CONTINUOUS
10
10.631
20
-6.89313
11
10.631
21
-6.89313
0
LINE
8
BLACK
6
CONTINUOUS
10
10.631
20
-6.89313
11
10.6322
21
-6.89075
0
LINE
8
BLACK
6
CONTINUOUS
10
10.6322
20
-6.89075
11
10.6322
21
-6.89075
0
LINE
8
BLACK
6
CONTINUOUS
10
10.6322
20
-6.89075
11
10.6322
21
-6.89075
0
LINE
8
BLACK
6
CONTINUOUS
10
10.6322
20
-6.89075
11
10.6322
21
-6.89075
0
LINE
8
BLACK
6
CONTINUOUS
10
10.6322
20
-6.89075
11
10.6339
21
-6.88867
0
LINE
8
BLACK
6
CONTINUOUS
10
10.6339
20
-6.88867
11
10.6339
21
-6.88867
0
LINE
8
BLACK
6
CONTINUOUS
10
10.6339
20
-6.88867
11
10.636
21
-6.88695
0
LINE
8
BLACK
6
CONTINUOUS
10
10.636
20
-6.88695
11
10.636
21
-6.88695
0
LINE
8
BLACK
6
CONTINUOUS
10
10.636
20
-6.88695
11
10.636
21
-6.88695
0
LINE
8
BLACK
6
CONTINUOUS
10
10.636
20
-6.88695
11
10.6384
21
-6.88567
0
LINE
8
BLACK
6
CONTINUOUS
10
10.6384
20
-6.88567
11
10.6384
21
-6.88567
0
LINE
8
BLACK
6
CONTINUOUS
10
10.6384
20
-6.88567
11
10.6384
21
-6.88567
0
LINE
8
BLACK
6
CONTINUOUS
10
10.6384
20
-6.88567
11
10.6384
21
-6.88567
0
LINE
8
BLACK
6
CONTINUOUS
10
10.6384
20
-6.88567
11
10.6409
21
-6.88488
0
LINE
8
BLACK
6
CONTINUOUS
10
10.6409
20
-6.88488
11
10.6409
21
-6.88488
0
LINE
8
BLACK
6
CONTINUOUS
10
10.6409
20
-6.88488
11
10.6436
21
-6.8846
0
LINE
8
BLACK
6
CONTINUOUS
10
10.6436
20
-6.8846
11
10.6436
21
-6.8846
0
LINE
8
BLACK
6
CONTINUOUS
10
10.6436
20
-6.8846
11
10.6437
21
-6.8846
0
LINE
8
BLACK
6
CONTINUOUS
10
10.6437
20
-6.8846
11
10.6437
21
-6.8846
0
LINE
8
BLACK
6
CONTINUOUS
10
10.6437
20
-6.8846
11
10.6464
21
-6.88486
0
LINE
8
BLACK
6
CONTINUOUS
10
10.6464
20
-6.88486
11
10.6464
21
-6.88486
0
LINE
8
BLACK
6
CONTINUOUS
10
10.6464
20
-6.88486
11
10.6464
21
-6.88486
0
LINE
8
BLACK
6
CONTINUOUS
10
10.6464
20
-6.88486
11
10.6464
21
-6.88486
0
LINE
8
BLACK
6
CONTINUOUS
10
10.6464
20
-6.88486
11
10.649
21
-6.88564
0
LINE
8
BLACK
6
CONTINUOUS
10
10.649
20
-6.88564
11
10.649
21
-6.88564
0
LINE
8
BLACK
6
CONTINUOUS
10
10.649
20
-6.88564
11
10.649
21
-6.88564
0
LINE
8
BLACK
6
CONTINUOUS
10
10.649
20
-6.88564
11
10.6513
21
-6.8869
0
LINE
8
BLACK
6
CONTINUOUS
10
10.6513
20
-6.8869
11
10.6513
21
-6.8869
0
LINE
8
BLACK
6
CONTINUOUS
10
10.6513
20
-6.8869
11
10.6513
21
-6.8869
0
LINE
8
BLACK
6
CONTINUOUS
10
10.6513
20
-6.8869
11
10.6513
21
-6.8869
0
LINE
8
BLACK
6
CONTINUOUS
10
10.6513
20
-6.8869
11
10.6534
21
-6.8886
0
LINE
8
BLACK
6
CONTINUOUS
10
10.6534
20
-6.8886
11
10.6534
21
-6.8886
0
LINE
8
BLACK
6
CONTINUOUS
10
10.6534
20
-6.8886
11
10.6551
21
-6.89067
0
LINE
8
BLACK
6
CONTINUOUS
10
10.6299
20
-6.94572
11
10.6302
21
-6.94839
0
LINE
8
BLACK
6
CONTINUOUS
10
10.6302
20
-6.94839
11
10.631
21
-6.95096
0
LINE
8
BLACK
6
CONTINUOUS
10
10.631
20
-6.95096
11
10.6323
21
-6.95333
0
LINE
8
BLACK
6
CONTINUOUS
10
10.6323
20
-6.95333
11
10.634
21
-6.9554
0
LINE
8
BLACK
6
CONTINUOUS
10
10.634
20
-6.9554
11
10.6361
21
-6.9571
0
LINE
8
BLACK
6
CONTINUOUS
10
10.6361
20
-6.9571
11
10.6385
21
-6.95836
0
LINE
8
BLACK
6
CONTINUOUS
10
10.6385
20
-6.95836
11
10.641
21
-6.95914
0
LINE
8
BLACK
6
CONTINUOUS
10
10.641
20
-6.95914
11
10.6437
21
-6.9594
0
LINE
8
BLACK
6
CONTINUOUS
10
10.6437
20
-6.9594
11
10.6438
21
-6.9594
0
LINE
8
BLACK
6
CONTINUOUS
10
10.6438
20
-6.9594
11
10.6465
21
-6.95912
0
LINE
8
BLACK
6
CONTINUOUS
10
10.6465
20
-6.95912
11
10.649
21
-6.95832
0
LINE
8
BLACK
6
CONTINUOUS
10
10.649
20
-6.95832
11
10.6514
21
-6.95704
0
LINE
8
BLACK
6
CONTINUOUS
10
10.6514
20
-6.95704
11
10.6535
21
-6.95533
0
LINE
8
BLACK
6
CONTINUOUS
10
10.6535
20
-6.95533
11
10.6552
21
-6.95325
0
LINE
8
BLACK
6
CONTINUOUS
10
10.6552
20
-6.95325
11
10.6564
21
-6.95087
0
LINE
8
BLACK
6
CONTINUOUS
10
10.6564
20
-6.95087
11
10.6572
21
-6.9483
0
LINE
8
BLACK
6
CONTINUOUS
10
10.6572
20
-6.9483
11
10.6575
21
-6.94562
0
LINE
8
BLACK
6
CONTINUOUS
10
10.6575
20
-6.94562
11
10.6575
21
-6.94562
0
LINE
8
BLACK
6
CONTINUOUS
10
10.6575
20
-6.94562
11
10.6575
21
-6.94562
0
LINE
8
BLACK
6
CONTINUOUS
10
10.6575
20
-6.94562
11
10.6575
21
-6.89838
0
LINE
8
BLACK
6
CONTINUOUS
10
10.6575
20
-6.89838
11
10.6575
21
-6.89828
0
LINE
8
BLACK
6
CONTINUOUS
10
10.6575
20
-6.89828
11
10.6572
21
-6.89561
0
LINE
8
BLACK
6
CONTINUOUS
10
10.6572
20
-6.89561
11
10.6564
21
-6.89304
0
LINE
8
BLACK
6
CONTINUOUS
10
10.6564
20
-6.89304
11
10.6551
21
-6.89067
0
LINE
8
BLACK
6
CONTINUOUS
10
10.6551
20
-6.89067
11
10.6534
21
-6.8886
0
LINE
8
BLACK
6
CONTINUOUS
10
10.6534
20
-6.8886
11
10.6513
21
-6.8869
0
LINE
8
BLACK
6
CONTINUOUS
10
10.6513
20
-6.8869
11
10.649
21
-6.88564
0
LINE
8
BLACK
6
CONTINUOUS
10
10.649
20
-6.88564
11
10.6464
21
-6.88486
0
LINE
8
BLACK
6
CONTINUOUS
10
10.6464
20
-6.88486
11
10.6437
21
-6.8846
0
LINE
8
BLACK
6
CONTINUOUS
10
10.6437
20
-6.8846
11
10.6436
21
-6.8846
0
LINE
8
BLACK
6
CONTINUOUS
10
10.6436
20
-6.8846
11
10.6409
21
-6.88488
0
LINE
8
BLACK
6
CONTINUOUS
10
10.6409
20
-6.88488
11
10.6384
21
-6.88568
0
LINE
8
BLACK
6
CONTINUOUS
10
10.6384
20
-6.88568
11
10.636
21
-6.88696
0
LINE
8
BLACK
6
CONTINUOUS
10
10.636
20
-6.88696
11
10.6339
21
-6.88867
0
LINE
8
BLACK
6
CONTINUOUS
10
10.6339
20
-6.88867
11
10.6322
21
-6.89075
0
LINE
8
BLACK
6
CONTINUOUS
10
10.6322
20
-6.89075
11
10.631
21
-6.89313
0
LINE
8
BLACK
6
CONTINUOUS
10
10.631
20
-6.89313
11
10.6302
21
-6.8957
0
LINE
8
BLACK
6
CONTINUOUS
10
10.6302
20
-6.8957
11
10.6299
21
-6.89838
0
LINE
8
BLACK
6
CONTINUOUS
10
10.6299
20
-6.89838
11
10.6299
21
-6.94562
0
LINE
8
BLACK
6
CONTINUOUS
10
10.6299
20
-6.94562
11
10.6299
21
-6.94572
0
LINE
8
BLACK
6
CONTINUOUS
10
13.1551
20
-6.89067
11
13.1551
21
-6.89067
0
LINE
8
BLACK
6
CONTINUOUS
10
13.1551
20
-6.89067
11
13.1551
21
-6.89067
0
LINE
8
BLACK
6
CONTINUOUS
10
13.1551
20
-6.89067
11
13.1564
21
-6.89304
0
LINE
8
BLACK
6
CONTINUOUS
10
13.1564
20
-6.89304
11
13.1564
21
-6.89304
0
LINE
8
BLACK
6
CONTINUOUS
10
13.1564
20
-6.89304
11
13.1564
21
-6.89304
0
LINE
8
BLACK
6
CONTINUOUS
10
13.1564
20
-6.89304
11
13.1564
21
-6.89304
0
LINE
8
BLACK
6
CONTINUOUS
10
13.1564
20
-6.89304
11
13.1572
21
-6.89561
0
LINE
8
BLACK
6
CONTINUOUS
10
13.1572
20
-6.89561
11
13.1572
21
-6.89561
0
LINE
8
BLACK
6
CONTINUOUS
10
13.1572
20
-6.89561
11
13.1575
21
-6.89828
0
LINE
8
BLACK
6
CONTINUOUS
10
13.1575
20
-6.89828
11
13.1575
21
-6.89828
0
LINE
8
BLACK
6
CONTINUOUS
10
13.1575
20
-6.89828
11
13.1575
21
-6.89838
0
LINE
8
BLACK
6
CONTINUOUS
10
13.1575
20
-6.89838
11
13.1575
21
-6.94562
0
LINE
8
BLACK
6
CONTINUOUS
10
13.1575
20
-6.94562
11
13.1572
21
-6.9483
0
LINE
8
BLACK
6
CONTINUOUS
10
13.1572
20
-6.9483
11
13.1572
21
-6.9483
0
LINE
8
BLACK
6
CONTINUOUS
10
13.1572
20
-6.9483
11
13.1564
21
-6.95087
0
LINE
8
BLACK
6
CONTINUOUS
10
13.1564
20
-6.95087
11
13.1564
21
-6.95087
0
LINE
8
BLACK
6
CONTINUOUS
10
13.1564
20
-6.95087
11
13.1564
21
-6.95087
0
LINE
8
BLACK
6
CONTINUOUS
10
13.1564
20
-6.95087
11
13.1564
21
-6.95087
0
LINE
8
BLACK
6
CONTINUOUS
10
13.1564
20
-6.95087
11
13.1552
21
-6.95325
0
LINE
8
BLACK
6
CONTINUOUS
10
13.1552
20
-6.95325
11
13.1552
21
-6.95325
0
LINE
8
BLACK
6
CONTINUOUS
10
13.1552
20
-6.95325
11
13.1552
21
-6.95325
0
LINE
8
BLACK
6
CONTINUOUS
10
13.1552
20
-6.95325
11
13.1552
21
-6.95325
0
LINE
8
BLACK
6
CONTINUOUS
10
13.1552
20
-6.95325
11
13.1552
21
-6.95325
0
LINE
8
BLACK
6
CONTINUOUS
10
13.1552
20
-6.95325
11
13.1535
21
-6.95533
0
LINE
8
BLACK
6
CONTINUOUS
10
13.1535
20
-6.95533
11
13.1535
21
-6.95533
0
LINE
8
BLACK
6
CONTINUOUS
10
13.1535
20
-6.95533
11
13.1535
21
-6.95533
0
LINE
8
BLACK
6
CONTINUOUS
10
13.1535
20
-6.95533
11
13.1535
21
-6.95533
0
LINE
8
BLACK
6
CONTINUOUS
10
13.1535
20
-6.95533
11
13.1514
21
-6.95705
0
LINE
8
BLACK
6
CONTINUOUS
10
13.1514
20
-6.95705
11
13.1514
21
-6.95705
0
LINE
8
BLACK
6
CONTINUOUS
10
13.1514
20
-6.95705
11
13.1514
21
-6.95705
0
LINE
8
BLACK
6
CONTINUOUS
10
13.1514
20
-6.95705
11
13.149
21
-6.95833
0
LINE
8
BLACK
6
CONTINUOUS
10
13.149
20
-6.95833
11
13.149
21
-6.95833
0
LINE
8
BLACK
6
CONTINUOUS
10
13.149
20
-6.95833
11
13.1465
21
-6.95912
0
LINE
8
BLACK
6
CONTINUOUS
10
13.1465
20
-6.95912
11
13.1465
21
-6.95912
0
LINE
8
BLACK
6
CONTINUOUS
10
13.1465
20
-6.95912
11
13.1438
21
-6.9594
0
LINE
8
BLACK
6
CONTINUOUS
10
13.1438
20
-6.9594
11
13.1438
21
-6.9594
0
LINE
8
BLACK
6
CONTINUOUS
10
13.1438
20
-6.9594
11
13.1437
21
-6.9594
0
LINE
8
BLACK
6
CONTINUOUS
10
13.1437
20
-6.9594
11
13.1437
21
-6.9594
0
LINE
8
BLACK
6
CONTINUOUS
10
13.1437
20
-6.9594
11
13.141
21
-6.95914
0
LINE
8
BLACK
6
CONTINUOUS
10
13.141
20
-6.95914
11
13.141
21
-6.95914
0
LINE
8
BLACK
6
CONTINUOUS
10
13.141
20
-6.95914
11
13.141
21
-6.95914
0
LINE
8
BLACK
6
CONTINUOUS
10
13.141
20
-6.95914
11
13.1384
21
-6.95836
0
LINE
8
BLACK
6
CONTINUOUS
10
13.1384
20
-6.95836
11
13.1384
21
-6.95836
0
LINE
8
BLACK
6
CONTINUOUS
10
13.1384
20
-6.95836
11
13.1384
21
-6.95836
0
LINE
8
BLACK
6
CONTINUOUS
10
13.1384
20
-6.95836
11
13.1384
21
-6.95836
0
LINE
8
BLACK
6
CONTINUOUS
10
13.1384
20
-6.95836
11
13.1361
21
-6.9571
0
LINE
8
BLACK
6
CONTINUOUS
10
13.1361
20
-6.9571
11
13.1361
21
-6.9571
0
LINE
8
BLACK
6
CONTINUOUS
10
13.1361
20
-6.9571
11
13.1361
21
-6.9571
0
LINE
8
BLACK
6
CONTINUOUS
10
13.1361
20
-6.9571
11
13.1361
21
-6.9571
0
LINE
8
BLACK
6
CONTINUOUS
10
13.1361
20
-6.9571
11
13.134
21
-6.9554
0
LINE
8
BLACK
6
CONTINUOUS
10
13.134
20
-6.9554
11
13.134
21
-6.9554
0
LINE
8
BLACK
6
CONTINUOUS
10
13.134
20
-6.9554
11
13.134
21
-6.9554
0
LINE
8
BLACK
6
CONTINUOUS
10
13.134
20
-6.9554
11
13.134
21
-6.9554
0
LINE
8
BLACK
6
CONTINUOUS
10
13.134
20
-6.9554
11
13.1323
21
-6.95333
0
LINE
8
BLACK
6
CONTINUOUS
10
13.1323
20
-6.95333
11
13.1323
21
-6.95333
0
LINE
8
BLACK
6
CONTINUOUS
10
13.1323
20
-6.95333
11
13.1323
21
-6.95333
0
LINE
8
BLACK
6
CONTINUOUS
10
13.1323
20
-6.95333
11
13.131
21
-6.95096
0
LINE
8
BLACK
6
CONTINUOUS
10
13.131
20
-6.95096
11
13.131
21
-6.95096
0
LINE
8
BLACK
6
CONTINUOUS
10
13.131
20
-6.95096
11
13.131
21
-6.95096
0
LINE
8
BLACK
6
CONTINUOUS
10
13.131
20
-6.95096
11
13.1302
21
-6.94839
0
LINE
8
BLACK
6
CONTINUOUS
10
13.1302
20
-6.94839
11
13.1302
21
-6.94839
0
LINE
8
BLACK
6
CONTINUOUS
10
13.1302
20
-6.94839
11
13.1302
21
-6.94839
0
LINE
8
BLACK
6
CONTINUOUS
10
13.1302
20
-6.94839
11
13.1299
21
-6.94572
0
LINE
8
BLACK
6
CONTINUOUS
10
13.1299
20
-6.94572
11
13.1299
21
-6.94572
0
LINE
8
BLACK
6
CONTINUOUS
10
13.1299
20
-6.94572
11
13.1299
21
-6.94562
0
LINE
8
BLACK
6
CONTINUOUS
10
13.1299
20
-6.94562
11
13.1299
21
-6.94562
0
LINE
8
BLACK
6
CONTINUOUS
10
13.1299
20
-6.94562
11
13.1299
21
-6.94562
0
LINE
8
BLACK
6
CONTINUOUS
10
13.1299
20
-6.94562
11
13.1299
21
-6.89838
0
LINE
8
BLACK
6
CONTINUOUS
10
13.1299
20
-6.89838
11
13.1299
21
-6.89838
0
LINE
8
BLACK
6
CONTINUOUS
10
13.1299
20
-6.89838
11
13.1302
21
-6.8957
0
LINE
8
BLACK
6
CONTINUOUS
10
13.1302
20
-6.8957
11
13.1302
21
-6.8957
0
LINE
8
BLACK
6
CONTINUOUS
10
13.1302
20
-6.8957
11
13.1302
21
-6.8957
0
LINE
8
BLACK
6
CONTINUOUS
10
13.1302
20
-6.8957
11
13.1302
21
-6.8957
0
LINE
8
BLACK
6
CONTINUOUS
10
13.1302
20
-6.8957
11
13.131
21
-6.89313
0
LINE
8
BLACK
6
CONTINUOUS
10
13.131
20
-6.89313
11
13.131
21
-6.89313
0
LINE
8
BLACK
6
CONTINUOUS
10
13.131
20
-6.89313
11
13.131
21
-6.89313
0
LINE
8
BLACK
6
CONTINUOUS
10
13.131
20
-6.89313
11
13.1322
21
-6.89075
0
LINE
8
BLACK
6
CONTINUOUS
10
13.1322
20
-6.89075
11
13.1322
21
-6.89075
0
LINE
8
BLACK
6
CONTINUOUS
10
13.1322
20
-6.89075
11
13.1322
21
-6.89075
0
LINE
8
BLACK
6
CONTINUOUS
10
13.1322
20
-6.89075
11
13.1322
21
-6.89075
0
LINE
8
BLACK
6
CONTINUOUS
10
13.1322
20
-6.89075
11
13.1339
21
-6.88867
0
LINE
8
BLACK
6
CONTINUOUS
10
13.1339
20
-6.88867
11
13.1339
21
-6.88867
0
LINE
8
BLACK
6
CONTINUOUS
10
13.1339
20
-6.88867
11
13.136
21
-6.88695
0
LINE
8
BLACK
6
CONTINUOUS
10
13.136
20
-6.88695
11
13.136
21
-6.88695
0
LINE
8
BLACK
6
CONTINUOUS
10
13.136
20
-6.88695
11
13.136
21
-6.88695
0
LINE
8
BLACK
6
CONTINUOUS
10
13.136
20
-6.88695
11
13.1384
21
-6.88567
0
LINE
8
BLACK
6
CONTINUOUS
10
13.1384
20
-6.88567
11
13.1384
21
-6.88567
0
LINE
8
BLACK
6
CONTINUOUS
10
13.1384
20
-6.88567
11
13.1384
21
-6.88567
0
LINE
8
BLACK
6
CONTINUOUS
10
13.1384
20
-6.88567
11
13.1384
21
-6.88567
0
LINE
8
BLACK
6
CONTINUOUS
10
13.1384
20
-6.88567
11
13.1409
21
-6.88488
0
LINE
8
BLACK
6
CONTINUOUS
10
13.1409
20
-6.88488
11
13.1409
21
-6.88488
0
LINE
8
BLACK
6
CONTINUOUS
10
13.1409
20
-6.88488
11
13.1436
21
-6.8846
0
LINE
8
BLACK
6
CONTINUOUS
10
13.1436
20
-6.8846
11
13.1436
21
-6.8846
0
LINE
8
BLACK
6
CONTINUOUS
10
13.1436
20
-6.8846
11
13.1437
21
-6.8846
0
LINE
8
BLACK
6
CONTINUOUS
10
13.1437
20
-6.8846
11
13.1437
21
-6.8846
0
LINE
8
BLACK
6
CONTINUOUS
10
13.1437
20
-6.8846
11
13.1464
21
-6.88486
0
LINE
8
BLACK
6
CONTINUOUS
10
13.1464
20
-6.88486
11
13.1464
21
-6.88486
0
LINE
8
BLACK
6
CONTINUOUS
10
13.1464
20
-6.88486
11
13.1464
21
-6.88486
0
LINE
8
BLACK
6
CONTINUOUS
10
13.1464
20
-6.88486
11
13.1464
21
-6.88486
0
LINE
8
BLACK
6
CONTINUOUS
10
13.1464
20
-6.88486
11
13.149
21
-6.88564
0
LINE
8
BLACK
6
CONTINUOUS
10
13.149
20
-6.88564
11
13.149
21
-6.88564
0
LINE
8
BLACK
6
CONTINUOUS
10
13.149
20
-6.88564
11
13.149
21
-6.88564
0
LINE
8
BLACK
6
CONTINUOUS
10
13.149
20
-6.88564
11
13.1513
21
-6.8869
0
LINE
8
BLACK
6
CONTINUOUS
10
13.1513
20
-6.8869
11
13.1513
21
-6.8869
0
LINE
8
BLACK
6
CONTINUOUS
10
13.1513
20
-6.8869
11
13.1513
21
-6.8869
0
LINE
8
BLACK
6
CONTINUOUS
10
13.1513
20
-6.8869
11
13.1513
21
-6.8869
0
LINE
8
BLACK
6
CONTINUOUS
10
13.1513
20
-6.8869
11
13.1534
21
-6.8886
0
LINE
8
BLACK
6
CONTINUOUS
10
13.1534
20
-6.8886
11
13.1534
21
-6.8886
0
LINE
8
BLACK
6
CONTINUOUS
10
13.1534
20
-6.8886
11
13.1551
21
-6.89067
0
LINE
8
BLACK
6
CONTINUOUS
10
13.1299
20
-6.94572
11
13.1302
21
-6.94839
0
LINE
8
BLACK
6
CONTINUOUS
10
13.1302
20
-6.94839
11
13.131
21
-6.95096
0
LINE
8
BLACK
6
CONTINUOUS
10
13.131
20
-6.95096
11
13.1323
21
-6.95333
0
LINE
8
BLACK
6
CONTINUOUS
10
13.1323
20
-6.95333
11
13.134
21
-6.9554
0
LINE
8
BLACK
6
CONTINUOUS
10
13.134
20
-6.9554
11
13.1361
21
-6.9571
0
LINE
8
BLACK
6
CONTINUOUS
10
13.1361
20
-6.9571
11
13.1385
21
-6.95836
0
LINE
8
BLACK
6
CONTINUOUS
10
13.1385
20
-6.95836
11
13.141
21
-6.95914
0
LINE
8
BLACK
6
CONTINUOUS
10
13.141
20
-6.95914
11
13.1437
21
-6.9594
0
LINE
8
BLACK
6
CONTINUOUS
10
13.1437
20
-6.9594
11
13.1438
21
-6.9594
0
LINE
8
BLACK
6
CONTINUOUS
10
13.1438
20
-6.9594
11
13.1465
21
-6.95912
0
LINE
8
BLACK
6
CONTINUOUS
10
13.1465
20
-6.95912
11
13.149
21
-6.95832
0
LINE
8
BLACK
6
CONTINUOUS
10
13.149
20
-6.95832
11
13.1514
21
-6.95704
0
LINE
8
BLACK
6
CONTINUOUS
10
13.1514
20
-6.95704
11
13.1535
21
-6.95533
0
LINE
8
BLACK
6
CONTINUOUS
10
13.1535
20
-6.95533
11
13.1552
21
-6.95325
0
LINE
8
BLACK
6
CONTINUOUS
10
13.1552
20
-6.95325
11
13.1564
21
-6.95087
0
LINE
8
BLACK
6
CONTINUOUS
10
13.1564
20
-6.95087
11
13.1572
21
-6.9483
0
LINE
8
BLACK
6
CONTINUOUS
10
13.1572
20
-6.9483
11
13.1575
21
-6.94562
0
LINE
8
BLACK
6
CONTINUOUS
10
13.1575
20
-6.94562
11
13.1575
21
-6.94562
0
LINE
8
BLACK
6
CONTINUOUS
10
13.1575
20
-6.94562
11
13.1575
21
-6.94562
0
LINE
8
BLACK
6
CONTINUOUS
10
13.1575
20
-6.94562
11
13.1575
21
-6.89838
0
LINE
8
BLACK
6
CONTINUOUS
10
13.1575
20
-6.89838
11
13.1575
21
-6.89828
0
LINE
8
BLACK
6
CONTINUOUS
10
13.1575
20
-6.89828
11
13.1572
21
-6.89561
0
LINE
8
BLACK
6
CONTINUOUS
10
13.1572
20
-6.89561
11
13.1564
21
-6.89304
0
LINE
8
BLACK
6
CONTINUOUS
10
13.1564
20
-6.89304
11
13.1551
21
-6.89067
0
LINE
8
BLACK
6
CONTINUOUS
10
13.1551
20
-6.89067
11
13.1534
21
-6.8886
0
LINE
8
BLACK
6
CONTINUOUS
10
13.1534
20
-6.8886
11
13.1513
21
-6.8869
0
LINE
8
BLACK
6
CONTINUOUS
10
13.1513
20
-6.8869
11
13.149
21
-6.88564
0
LINE
8
BLACK
6
CONTINUOUS
10
13.149
20
-6.88564
11
13.1464
21
-6.88486
0
LINE
8
BLACK
6
CONTINUOUS
10
13.1464
20
-6.88486
11
13.1437
21
-6.8846
0
LINE
8
BLACK
6
CONTINUOUS
10
13.1437
20
-6.8846
11
13.1436
21
-6.8846
0
LINE
8
BLACK
6
CONTINUOUS
10
13.1436
20
-6.8846
11
13.1409
21
-6.88488
0
LINE
8
BLACK
6
CONTINUOUS
10
13.1409
20
-6.88488
11
13.1384
21
-6.88568
0
LINE
8
BLACK
6
CONTINUOUS
10
13.1384
20
-6.88568
11
13.136
21
-6.88696
0
LINE
8
BLACK
6
CONTINUOUS
10
13.136
20
-6.88696
11
13.1339
21
-6.88867
0
LINE
8
BLACK
6
CONTINUOUS
10
13.1339
20
-6.88867
11
13.1322
21
-6.89075
0
LINE
8
BLACK
6
CONTINUOUS
10
13.1322
20
-6.89075
11
13.131
21
-6.89313
0
LINE
8
BLACK
6
CONTINUOUS
10
13.131
20
-6.89313
11
13.1302
21
-6.8957
0
LINE
8
BLACK
6
CONTINUOUS
10
13.1302
20
-6.8957
11
13.1299
21
-6.89838
0
LINE
8
BLACK
6
CONTINUOUS
10
13.1299
20
-6.89838
11
13.1299
21
-6.94562
0
LINE
8
BLACK
6
CONTINUOUS
10
13.1299
20
-6.94562
11
13.1299
21
-6.94572
0
LINE
8
BLACK
6
CONTINUOUS
10
6.86772
20
-6.89067
11
6.86772
21
-6.89067
0
LINE
8
BLACK
6
CONTINUOUS
10
6.86772
20
-6.89067
11
6.86772
21
-6.89067
0
LINE
8
BLACK
6
CONTINUOUS
10
6.86772
20
-6.89067
11
6.869
21
-6.89304
0
LINE
8
BLACK
6
CONTINUOUS
10
6.869
20
-6.89304
11
6.869
21
-6.89304
0
LINE
8
BLACK
6
CONTINUOUS
10
6.869
20
-6.89304
11
6.869
21
-6.89304
0
LINE
8
BLACK
6
CONTINUOUS
10
6.869
20
-6.89304
11
6.869
21
-6.89304
0
LINE
8
BLACK
6
CONTINUOUS
10
6.869
20
-6.89304
11
6.8698
21
-6.89561
0
LINE
8
BLACK
6
CONTINUOUS
10
6.8698
20
-6.89561
11
6.8698
21
-6.89561
0
LINE
8
BLACK
6
CONTINUOUS
10
6.8698
20
-6.89561
11
6.87008
21
-6.89828
0
LINE
8
BLACK
6
CONTINUOUS
10
6.87008
20
-6.89828
11
6.87008
21
-6.89828
0
LINE
8
BLACK
6
CONTINUOUS
10
6.87008
20
-6.89828
11
6.87008
21
-6.89838
0
LINE
8
BLACK
6
CONTINUOUS
10
6.87008
20
-6.89838
11
6.87008
21
-6.94562
0
LINE
8
BLACK
6
CONTINUOUS
10
6.87008
20
-6.94562
11
6.86982
21
-6.9483
0
LINE
8
BLACK
6
CONTINUOUS
10
6.86982
20
-6.9483
11
6.86982
21
-6.9483
0
LINE
8
BLACK
6
CONTINUOUS
10
6.86982
20
-6.9483
11
6.86904
21
-6.95087
0
LINE
8
BLACK
6
CONTINUOUS
10
6.86904
20
-6.95087
11
6.86904
21
-6.95087
0
LINE
8
BLACK
6
CONTINUOUS
10
6.86904
20
-6.95087
11
6.86904
21
-6.95087
0
LINE
8
BLACK
6
CONTINUOUS
10
6.86904
20
-6.95087
11
6.86904
21
-6.95087
0
LINE
8
BLACK
6
CONTINUOUS
10
6.86904
20
-6.95087
11
6.86778
21
-6.95325
0
LINE
8
BLACK
6
CONTINUOUS
10
6.86778
20
-6.95325
11
6.86778
21
-6.95325
0
LINE
8
BLACK
6
CONTINUOUS
10
6.86778
20
-6.95325
11
6.86778
21
-6.95325
0
LINE
8
BLACK
6
CONTINUOUS
10
6.86778
20
-6.95325
11
6.86778
21
-6.95325
0
LINE
8
BLACK
6
CONTINUOUS
10
6.86778
20
-6.95325
11
6.86778
21
-6.95325
0
LINE
8
BLACK
6
CONTINUOUS
10
6.86778
20
-6.95325
11
6.86608
21
-6.95533
0
LINE
8
BLACK
6
CONTINUOUS
10
6.86608
20
-6.95533
11
6.86608
21
-6.95533
0
LINE
8
BLACK
6
CONTINUOUS
10
6.86608
20
-6.95533
11
6.86608
21
-6.95533
0
LINE
8
BLACK
6
CONTINUOUS
10
6.86608
20
-6.95533
11
6.86608
21
-6.95533
0
LINE
8
BLACK
6
CONTINUOUS
10
6.86608
20
-6.95533
11
6.86401
21
-6.95705
0
LINE
8
BLACK
6
CONTINUOUS
10
6.86401
20
-6.95705
11
6.86401
21
-6.95705
0
LINE
8
BLACK
6
CONTINUOUS
10
6.86401
20
-6.95705
11
6.86401
21
-6.95705
0
LINE
8
BLACK
6
CONTINUOUS
10
6.86401
20
-6.95705
11
6.86164
21
-6.95833
0
LINE
8
BLACK
6
CONTINUOUS
10
6.86164
20
-6.95833
11
6.86164
21
-6.95833
0
LINE
8
BLACK
6
CONTINUOUS
10
6.86164
20
-6.95833
11
6.85907
21
-6.95912
0
LINE
8
BLACK
6
CONTINUOUS
10
6.85907
20
-6.95912
11
6.85907
21
-6.95912
0
LINE
8
BLACK
6
CONTINUOUS
10
6.85907
20
-6.95912
11
6.8564
21
-6.9594
0
LINE
8
BLACK
6
CONTINUOUS
10
6.8564
20
-6.9594
11
6.8564
21
-6.9594
0
LINE
8
BLACK
6
CONTINUOUS
10
6.8564
20
-6.9594
11
6.8563
21
-6.9594
0
LINE
8
BLACK
6
CONTINUOUS
10
6.8563
20
-6.9594
11
6.8563
21
-6.9594
0
LINE
8
BLACK
6
CONTINUOUS
10
6.8563
20
-6.9594
11
6.85362
21
-6.95914
0
LINE
8
BLACK
6
CONTINUOUS
10
6.85362
20
-6.95914
11
6.85362
21
-6.95914
0
LINE
8
BLACK
6
CONTINUOUS
10
6.85362
20
-6.95914
11
6.85362
21
-6.95914
0
LINE
8
BLACK
6
CONTINUOUS
10
6.85362
20
-6.95914
11
6.85105
21
-6.95836
0
LINE
8
BLACK
6
CONTINUOUS
10
6.85105
20
-6.95836
11
6.85105
21
-6.95836
0
LINE
8
BLACK
6
CONTINUOUS
10
6.85105
20
-6.95836
11
6.85105
21
-6.95836
0
LINE
8
BLACK
6
CONTINUOUS
10
6.85105
20
-6.95836
11
6.85105
21
-6.95836
0
LINE
8
BLACK
6
CONTINUOUS
10
6.85105
20
-6.95836
11
6.84867
21
-6.9571
0
LINE
8
BLACK
6
CONTINUOUS
10
6.84867
20
-6.9571
11
6.84867
21
-6.9571
0
LINE
8
BLACK
6
CONTINUOUS
10
6.84867
20
-6.9571
11
6.84867
21
-6.9571
0
LINE
8
BLACK
6
CONTINUOUS
10
6.84867
20
-6.9571
11
6.84867
21
-6.9571
0
LINE
8
BLACK
6
CONTINUOUS
10
6.84867
20
-6.9571
11
6.84659
21
-6.9554
0
LINE
8
BLACK
6
CONTINUOUS
10
6.84659
20
-6.9554
11
6.84659
21
-6.9554
0
LINE
8
BLACK
6
CONTINUOUS
10
6.84659
20
-6.9554
11
6.84659
21
-6.9554
0
LINE
8
BLACK
6
CONTINUOUS
10
6.84659
20
-6.9554
11
6.84659
21
-6.9554
0
LINE
8
BLACK
6
CONTINUOUS
10
6.84659
20
-6.9554
11
6.84487
21
-6.95333
0
LINE
8
BLACK
6
CONTINUOUS
10
6.84487
20
-6.95333
11
6.84487
21
-6.95333
0
LINE
8
BLACK
6
CONTINUOUS
10
6.84487
20
-6.95333
11
6.84487
21
-6.95333
0
LINE
8
BLACK
6
CONTINUOUS
10
6.84487
20
-6.95333
11
6.84359
21
-6.95096
0
LINE
8
BLACK
6
CONTINUOUS
10
6.84359
20
-6.95096
11
6.84359
21
-6.95096
0
LINE
8
BLACK
6
CONTINUOUS
10
6.84359
20
-6.95096
11
6.84359
21
-6.95096
0
LINE
8
BLACK
6
CONTINUOUS
10
6.84359
20
-6.95096
11
6.8428
21
-6.94839
0
LINE
8
BLACK
6
CONTINUOUS
10
6.8428
20
-6.94839
11
6.8428
21
-6.94839
0
LINE
8
BLACK
6
CONTINUOUS
10
6.8428
20
-6.94839
11
6.8428
21
-6.94839
0
LINE
8
BLACK
6
CONTINUOUS
10
6.8428
20
-6.94839
11
6.84252
21
-6.94572
0
LINE
8
BLACK
6
CONTINUOUS
10
6.84252
20
-6.94572
11
6.84252
21
-6.94572
0
LINE
8
BLACK
6
CONTINUOUS
10
6.84252
20
-6.94572
11
6.84252
21
-6.94562
0
LINE
8
BLACK
6
CONTINUOUS
10
6.84252
20
-6.94562
11
6.84252
21
-6.94562
0
LINE
8
BLACK
6
CONTINUOUS
10
6.84252
20
-6.94562
11
6.84252
21
-6.94562
0
LINE
8
BLACK
6
CONTINUOUS
10
6.84252
20
-6.94562
11
6.84252
21
-6.89838
0
LINE
8
BLACK
6
CONTINUOUS
10
6.84252
20
-6.89838
11
6.84252
21
-6.89838
0
LINE
8
BLACK
6
CONTINUOUS
10
6.84252
20
-6.89838
11
6.84278
21
-6.8957
0
LINE
8
BLACK
6
CONTINUOUS
10
6.84278
20
-6.8957
11
6.84278
21
-6.8957
0
LINE
8
BLACK
6
CONTINUOUS
10
6.84278
20
-6.8957
11
6.84278
21
-6.8957
0
LINE
8
BLACK
6
CONTINUOUS
10
6.84278
20
-6.8957
11
6.84278
21
-6.8957
0
LINE
8
BLACK
6
CONTINUOUS
10
6.84278
20
-6.8957
11
6.84356
21
-6.89313
0
LINE
8
BLACK
6
CONTINUOUS
10
6.84356
20
-6.89313
11
6.84356
21
-6.89313
0
LINE
8
BLACK
6
CONTINUOUS
10
6.84356
20
-6.89313
11
6.84356
21
-6.89313
0
LINE
8
BLACK
6
CONTINUOUS
10
6.84356
20
-6.89313
11
6.84482
21
-6.89075
0
LINE
8
BLACK
6
CONTINUOUS
10
6.84482
20
-6.89075
11
6.84482
21
-6.89075
0
LINE
8
BLACK
6
CONTINUOUS
10
6.84482
20
-6.89075
11
6.84482
21
-6.89075
0
LINE
8
BLACK
6
CONTINUOUS
10
6.84482
20
-6.89075
11
6.84482
21
-6.89075
0
LINE
8
BLACK
6
CONTINUOUS
10
6.84482
20
-6.89075
11
6.84652
21
-6.88867
0
LINE
8
BLACK
6
CONTINUOUS
10
6.84652
20
-6.88867
11
6.84652
21
-6.88867
0
LINE
8
BLACK
6
CONTINUOUS
10
6.84652
20
-6.88867
11
6.84859
21
-6.88695
0
LINE
8
BLACK
6
CONTINUOUS
10
6.84859
20
-6.88695
11
6.84859
21
-6.88695
0
LINE
8
BLACK
6
CONTINUOUS
10
6.84859
20
-6.88695
11
6.84859
21
-6.88695
0
LINE
8
BLACK
6
CONTINUOUS
10
6.84859
20
-6.88695
11
6.85096
21
-6.88567
0
LINE
8
BLACK
6
CONTINUOUS
10
6.85096
20
-6.88567
11
6.85096
21
-6.88567
0
LINE
8
BLACK
6
CONTINUOUS
10
6.85096
20
-6.88567
11
6.85096
21
-6.88567
0
LINE
8
BLACK
6
CONTINUOUS
10
6.85096
20
-6.88567
11
6.85096
21
-6.88567
0
LINE
8
BLACK
6
CONTINUOUS
10
6.85096
20
-6.88567
11
6.85353
21
-6.88488
0
LINE
8
BLACK
6
CONTINUOUS
10
6.85353
20
-6.88488
11
6.85353
21
-6.88488
0
LINE
8
BLACK
6
CONTINUOUS
10
6.85353
20
-6.88488
11
6.8562
21
-6.8846
0
LINE
8
BLACK
6
CONTINUOUS
10
6.8562
20
-6.8846
11
6.8562
21
-6.8846
0
LINE
8
BLACK
6
CONTINUOUS
10
6.8562
20
-6.8846
11
6.8563
21
-6.8846
0
LINE
8
BLACK
6
CONTINUOUS
10
6.8563
20
-6.8846
11
6.8563
21
-6.8846
0
LINE
8
BLACK
6
CONTINUOUS
10
6.8563
20
-6.8846
11
6.85898
21
-6.88486
0
LINE
8
BLACK
6
CONTINUOUS
10
6.85898
20
-6.88486
11
6.85898
21
-6.88486
0
LINE
8
BLACK
6
CONTINUOUS
10
6.85898
20
-6.88486
11
6.85898
21
-6.88486
0
LINE
8
BLACK
6
CONTINUOUS
10
6.85898
20
-6.88486
11
6.85898
21
-6.88486
0
LINE
8
BLACK
6
CONTINUOUS
10
6.85898
20
-6.88486
11
6.86155
21
-6.88564
0
LINE
8
BLACK
6
CONTINUOUS
10
6.86155
20
-6.88564
11
6.86155
21
-6.88564
0
LINE
8
BLACK
6
CONTINUOUS
10
6.86155
20
-6.88564
11
6.86155
21
-6.88564
0
LINE
8
BLACK
6
CONTINUOUS
10
6.86155
20
-6.88564
11
6.86393
21
-6.8869
0
LINE
8
BLACK
6
CONTINUOUS
10
6.86393
20
-6.8869
11
6.86393
21
-6.8869
0
LINE
8
BLACK
6
CONTINUOUS
10
6.86393
20
-6.8869
11
6.86393
21
-6.8869
0
LINE
8
BLACK
6
CONTINUOUS
10
6.86393
20
-6.8869
11
6.86393
21
-6.8869
0
LINE
8
BLACK
6
CONTINUOUS
10
6.86393
20
-6.8869
11
6.86601
21
-6.8886
0
LINE
8
BLACK
6
CONTINUOUS
10
6.86601
20
-6.8886
11
6.86601
21
-6.8886
0
LINE
8
BLACK
6
CONTINUOUS
10
6.86601
20
-6.8886
11
6.86772
21
-6.89067
0
LINE
8
BLACK
6
CONTINUOUS
10
6.84252
20
-6.94572
11
6.8428
21
-6.94839
0
LINE
8
BLACK
6
CONTINUOUS
10
6.8428
20
-6.94839
11
6.8436
21
-6.95096
0
LINE
8
BLACK
6
CONTINUOUS
10
6.8436
20
-6.95096
11
6.84488
21
-6.95333
0
LINE
8
BLACK
6
CONTINUOUS
10
6.84488
20
-6.95333
11
6.84659
21
-6.9554
0
LINE
8
BLACK
6
CONTINUOUS
10
6.84659
20
-6.9554
11
6.84867
21
-6.9571
0
LINE
8
BLACK
6
CONTINUOUS
10
6.84867
20
-6.9571
11
6.85105
21
-6.95836
0
LINE
8
BLACK
6
CONTINUOUS
10
6.85105
20
-6.95836
11
6.85362
21
-6.95914
0
LINE
8
BLACK
6
CONTINUOUS
10
6.85362
20
-6.95914
11
6.8563
21
-6.9594
0
LINE
8
BLACK
6
CONTINUOUS
10
6.8563
20
-6.9594
11
6.8564
21
-6.9594
0
LINE
8
BLACK
6
CONTINUOUS
10
6.8564
20
-6.9594
11
6.85907
21
-6.95912
0
LINE
8
BLACK
6
CONTINUOUS
10
6.85907
20
-6.95912
11
6.86164
21
-6.95832
0
LINE
8
BLACK
6
CONTINUOUS
10
6.86164
20
-6.95832
11
6.864
21
-6.95704
0
LINE
8
BLACK
6
CONTINUOUS
10
6.864
20
-6.95704
11
6.86608
21
-6.95533
0
LINE
8
BLACK
6
CONTINUOUS
10
6.86608
20
-6.95533
11
6.86777
21
-6.95325
0
LINE
8
BLACK
6
CONTINUOUS
10
6.86777
20
-6.95325
11
6.86904
21
-6.95087
0
LINE
8
BLACK
6
CONTINUOUS
10
6.86904
20
-6.95087
11
6.86981
21
-6.9483
0
LINE
8
BLACK
6
CONTINUOUS
10
6.86981
20
-6.9483
11
6.87008
21
-6.94562
0
LINE
8
BLACK
6
CONTINUOUS
10
6.87008
20
-6.94562
11
6.87008
21
-6.94562
0
LINE
8
BLACK
6
CONTINUOUS
10
6.87008
20
-6.94562
11
6.87008
21
-6.94562
0
LINE
8
BLACK
6
CONTINUOUS
10
6.87008
20
-6.94562
11
6.87008
21
-6.89838
0
LINE
8
BLACK
6
CONTINUOUS
10
6.87008
20
-6.89838
11
6.87008
21
-6.89828
0
LINE
8
BLACK
6
CONTINUOUS
10
6.87008
20
-6.89828
11
6.8698
21
-6.89561
0
LINE
8
BLACK
6
CONTINUOUS
10
6.8698
20
-6.89561
11
6.869
21
-6.89304
0
LINE
8
BLACK
6
CONTINUOUS
10
6.869
20
-6.89304
11
6.86772
21
-6.89067
0
LINE
8
BLACK
6
CONTINUOUS
10
6.86772
20
-6.89067
11
6.86601
21
-6.8886
0
LINE
8
BLACK
6
CONTINUOUS
10
6.86601
20
-6.8886
11
6.86392
21
-6.8869
0
LINE
8
BLACK
6
CONTINUOUS
10
6.86392
20
-6.8869
11
6.86155
21
-6.88564
0
LINE
8
BLACK
6
CONTINUOUS
10
6.86155
20
-6.88564
11
6.85898
21
-6.88486
0
LINE
8
BLACK
6
CONTINUOUS
10
6.85898
20
-6.88486
11
6.8563
21
-6.8846
0
LINE
8
BLACK
6
CONTINUOUS
10
6.8563
20
-6.8846
11
6.8562
21
-6.8846
0
LINE
8
BLACK
6
CONTINUOUS
10
6.8562
20
-6.8846
11
6.85353
21
-6.88488
0
LINE
8
BLACK
6
CONTINUOUS
10
6.85353
20
-6.88488
11
6.85096
21
-6.88568
0
LINE
8
BLACK
6
CONTINUOUS
10
6.85096
20
-6.88568
11
6.84859
21
-6.88696
0
LINE
8
BLACK
6
CONTINUOUS
10
6.84859
20
-6.88696
11
6.84652
21
-6.88867
0
LINE
8
BLACK
6
CONTINUOUS
10
6.84652
20
-6.88867
11
6.84482
21
-6.89075
0
LINE
8
BLACK
6
CONTINUOUS
10
6.84482
20
-6.89075
11
6.84356
21
-6.89313
0
LINE
8
BLACK
6
CONTINUOUS
10
6.84356
20
-6.89313
11
6.84278
21
-6.8957
0
LINE
8
BLACK
6
CONTINUOUS
10
6.84278
20
-6.8957
11
6.84252
21
-6.89838
0
LINE
8
BLACK
6
CONTINUOUS
10
6.84252
20
-6.89838
11
6.84252
21
-6.94562
0
LINE
8
BLACK
6
CONTINUOUS
10
6.84252
20
-6.94562
11
6.84252
21
-6.94572
0
LINE
8
BLACK
6
CONTINUOUS
10
12.4051
20
-6.89067
11
12.4051
21
-6.89067
0
LINE
8
BLACK
6
CONTINUOUS
10
12.4051
20
-6.89067
11
12.4051
21
-6.89067
0
LINE
8
BLACK
6
CONTINUOUS
10
12.4051
20
-6.89067
11
12.4064
21
-6.89304
0
LINE
8
BLACK
6
CONTINUOUS
10
12.4064
20
-6.89304
11
12.4064
21
-6.89304
0
LINE
8
BLACK
6
CONTINUOUS
10
12.4064
20
-6.89304
11
12.4064
21
-6.89304
0
LINE
8
BLACK
6
CONTINUOUS
10
12.4064
20
-6.89304
11
12.4064
21
-6.89304
0
LINE
8
BLACK
6
CONTINUOUS
10
12.4064
20
-6.89304
11
12.4072
21
-6.89561
0
LINE
8
BLACK
6
CONTINUOUS
10
12.4072
20
-6.89561
11
12.4072
21
-6.89561
0
LINE
8
BLACK
6
CONTINUOUS
10
12.4072
20
-6.89561
11
12.4075
21
-6.89828
0
LINE
8
BLACK
6
CONTINUOUS
10
12.4075
20
-6.89828
11
12.4075
21
-6.89828
0
LINE
8
BLACK
6
CONTINUOUS
10
12.4075
20
-6.89828
11
12.4075
21
-6.89838
0
LINE
8
BLACK
6
CONTINUOUS
10
12.4075
20
-6.89838
11
12.4075
21
-6.94562
0
LINE
8
BLACK
6
CONTINUOUS
10
12.4075
20
-6.94562
11
12.4072
21
-6.9483
0
LINE
8
BLACK
6
CONTINUOUS
10
12.4072
20
-6.9483
11
12.4072
21
-6.9483
0
LINE
8
BLACK
6
CONTINUOUS
10
12.4072
20
-6.9483
11
12.4064
21
-6.95087
0
LINE
8
BLACK
6
CONTINUOUS
10
12.4064
20
-6.95087
11
12.4064
21
-6.95087
0
LINE
8
BLACK
6
CONTINUOUS
10
12.4064
20
-6.95087
11
12.4064
21
-6.95087
0
LINE
8
BLACK
6
CONTINUOUS
10
12.4064
20
-6.95087
11
12.4064
21
-6.95087
0
LINE
8
BLACK
6
CONTINUOUS
10
12.4064
20
-6.95087
11
12.4052
21
-6.95325
0
LINE
8
BLACK
6
CONTINUOUS
10
12.4052
20
-6.95325
11
12.4052
21
-6.95325
0
LINE
8
BLACK
6
CONTINUOUS
10
12.4052
20
-6.95325
11
12.4052
21
-6.95325
0
LINE
8
BLACK
6
CONTINUOUS
10
12.4052
20
-6.95325
11
12.4052
21
-6.95325
0
LINE
8
BLACK
6
CONTINUOUS
10
12.4052
20
-6.95325
11
12.4052
21
-6.95325
0
LINE
8
BLACK
6
CONTINUOUS
10
12.4052
20
-6.95325
11
12.4035
21
-6.95533
0
LINE
8
BLACK
6
CONTINUOUS
10
12.4035
20
-6.95533
11
12.4035
21
-6.95533
0
LINE
8
BLACK
6
CONTINUOUS
10
12.4035
20
-6.95533
11
12.4035
21
-6.95533
0
LINE
8
BLACK
6
CONTINUOUS
10
12.4035
20
-6.95533
11
12.4035
21
-6.95533
0
LINE
8
BLACK
6
CONTINUOUS
10
12.4035
20
-6.95533
11
12.4014
21
-6.95705
0
LINE
8
BLACK
6
CONTINUOUS
10
12.4014
20
-6.95705
11
12.4014
21
-6.95705
0
LINE
8
BLACK
6
CONTINUOUS
10
12.4014
20
-6.95705
11
12.4014
21
-6.95705
0
LINE
8
BLACK
6
CONTINUOUS
10
12.4014
20
-6.95705
11
12.399
21
-6.95833
0
LINE
8
BLACK
6
CONTINUOUS
10
12.399
20
-6.95833
11
12.399
21
-6.95833
0
LINE
8
BLACK
6
CONTINUOUS
10
12.399
20
-6.95833
11
12.3965
21
-6.95912
0
LINE
8
BLACK
6
CONTINUOUS
10
12.3965
20
-6.95912
11
12.3965
21
-6.95912
0
LINE
8
BLACK
6
CONTINUOUS
10
12.3965
20
-6.95912
11
12.3938
21
-6.9594
0
LINE
8
BLACK
6
CONTINUOUS
10
12.3938
20
-6.9594
11
12.3938
21
-6.9594
0
LINE
8
BLACK
6
CONTINUOUS
10
12.3938
20
-6.9594
11
12.3937
21
-6.9594
0
LINE
8
BLACK
6
CONTINUOUS
10
12.3937
20
-6.9594
11
12.3937
21
-6.9594
0
LINE
8
BLACK
6
CONTINUOUS
10
12.3937
20
-6.9594
11
12.391
21
-6.95914
0
LINE
8
BLACK
6
CONTINUOUS
10
12.391
20
-6.95914
11
12.391
21
-6.95914
0
LINE
8
BLACK
6
CONTINUOUS
10
12.391
20
-6.95914
11
12.391
21
-6.95914
0
LINE
8
BLACK
6
CONTINUOUS
10
12.391
20
-6.95914
11
12.3884
21
-6.95836
0
LINE
8
BLACK
6
CONTINUOUS
10
12.3884
20
-6.95836
11
12.3884
21
-6.95836
0
LINE
8
BLACK
6
CONTINUOUS
10
12.3884
20
-6.95836
11
12.3884
21
-6.95836
0
LINE
8
BLACK
6
CONTINUOUS
10
12.3884
20
-6.95836
11
12.3884
21
-6.95836
0
LINE
8
BLACK
6
CONTINUOUS
10
12.3884
20
-6.95836
11
12.3861
21
-6.9571
0
LINE
8
BLACK
6
CONTINUOUS
10
12.3861
20
-6.9571
11
12.3861
21
-6.9571
0
LINE
8
BLACK
6
CONTINUOUS
10
12.3861
20
-6.9571
11
12.3861
21
-6.9571
0
LINE
8
BLACK
6
CONTINUOUS
10
12.3861
20
-6.9571
11
12.3861
21
-6.9571
0
LINE
8
BLACK
6
CONTINUOUS
10
12.3861
20
-6.9571
11
12.384
21
-6.9554
0
LINE
8
BLACK
6
CONTINUOUS
10
12.384
20
-6.9554
11
12.384
21
-6.9554
0
LINE
8
BLACK
6
CONTINUOUS
10
12.384
20
-6.9554
11
12.384
21
-6.9554
0
LINE
8
BLACK
6
CONTINUOUS
10
12.384
20
-6.9554
11
12.384
21
-6.9554
0
LINE
8
BLACK
6
CONTINUOUS
10
12.384
20
-6.9554
11
12.3823
21
-6.95333
0
LINE
8
BLACK
6
CONTINUOUS
10
12.3823
20
-6.95333
11
12.3823
21
-6.95333
0
LINE
8
BLACK
6
CONTINUOUS
10
12.3823
20
-6.95333
11
12.3823
21
-6.95333
0
LINE
8
BLACK
6
CONTINUOUS
10
12.3823
20
-6.95333
11
12.381
21
-6.95096
0
LINE
8
BLACK
6
CONTINUOUS
10
12.381
20
-6.95096
11
12.381
21
-6.95096
0
LINE
8
BLACK
6
CONTINUOUS
10
12.381
20
-6.95096
11
12.381
21
-6.95096
0
LINE
8
BLACK
6
CONTINUOUS
10
12.381
20
-6.95096
11
12.3802
21
-6.94839
0
LINE
8
BLACK
6
CONTINUOUS
10
12.3802
20
-6.94839
11
12.3802
21
-6.94839
0
LINE
8
BLACK
6
CONTINUOUS
10
12.3802
20
-6.94839
11
12.3802
21
-6.94839
0
LINE
8
BLACK
6
CONTINUOUS
10
12.3802
20
-6.94839
11
12.3799
21
-6.94572
0
LINE
8
BLACK
6
CONTINUOUS
10
12.3799
20
-6.94572
11
12.3799
21
-6.94572
0
LINE
8
BLACK
6
CONTINUOUS
10
12.3799
20
-6.94572
11
12.3799
21
-6.94562
0
LINE
8
BLACK
6
CONTINUOUS
10
12.3799
20
-6.94562
11
12.3799
21
-6.94562
0
LINE
8
BLACK
6
CONTINUOUS
10
12.3799
20
-6.94562
11
12.3799
21
-6.94562
0
LINE
8
BLACK
6
CONTINUOUS
10
12.3799
20
-6.94562
11
12.3799
21
-6.89838
0
LINE
8
BLACK
6
CONTINUOUS
10
12.3799
20
-6.89838
11
12.3799
21
-6.89838
0
LINE
8
BLACK
6
CONTINUOUS
10
12.3799
20
-6.89838
11
12.3802
21
-6.8957
0
LINE
8
BLACK
6
CONTINUOUS
10
12.3802
20
-6.8957
11
12.3802
21
-6.8957
0
LINE
8
BLACK
6
CONTINUOUS
10
12.3802
20
-6.8957
11
12.3802
21
-6.8957
0
LINE
8
BLACK
6
CONTINUOUS
10
12.3802
20
-6.8957
11
12.3802
21
-6.8957
0
LINE
8
BLACK
6
CONTINUOUS
10
12.3802
20
-6.8957
11
12.381
21
-6.89313
0
LINE
8
BLACK
6
CONTINUOUS
10
12.381
20
-6.89313
11
12.381
21
-6.89313
0
LINE
8
BLACK
6
CONTINUOUS
10
12.381
20
-6.89313
11
12.381
21
-6.89313
0
LINE
8
BLACK
6
CONTINUOUS
10
12.381
20
-6.89313
11
12.3822
21
-6.89075
0
LINE
8
BLACK
6
CONTINUOUS
10
12.3822
20
-6.89075
11
12.3822
21
-6.89075
0
LINE
8
BLACK
6
CONTINUOUS
10
12.3822
20
-6.89075
11
12.3822
21
-6.89075
0
LINE
8
BLACK
6
CONTINUOUS
10
12.3822
20
-6.89075
11
12.3822
21
-6.89075
0
LINE
8
BLACK
6
CONTINUOUS
10
12.3822
20
-6.89075
11
12.3839
21
-6.88867
0
LINE
8
BLACK
6
CONTINUOUS
10
12.3839
20
-6.88867
11
12.3839
21
-6.88867
0
LINE
8
BLACK
6
CONTINUOUS
10
12.3839
20
-6.88867
11
12.386
21
-6.88695
0
LINE
8
BLACK
6
CONTINUOUS
10
12.386
20
-6.88695
11
12.386
21
-6.88695
0
LINE
8
BLACK
6
CONTINUOUS
10
12.386
20
-6.88695
11
12.386
21
-6.88695
0
LINE
8
BLACK
6
CONTINUOUS
10
12.386
20
-6.88695
11
12.3884
21
-6.88567
0
LINE
8
BLACK
6
CONTINUOUS
10
12.3884
20
-6.88567
11
12.3884
21
-6.88567
0
LINE
8
BLACK
6
CONTINUOUS
10
12.3884
20
-6.88567
11
12.3884
21
-6.88567
0
LINE
8
BLACK
6
CONTINUOUS
10
12.3884
20
-6.88567
11
12.3884
21
-6.88567
0
LINE
8
BLACK
6
CONTINUOUS
10
12.3884
20
-6.88567
11
12.3909
21
-6.88488
0
LINE
8
BLACK
6
CONTINUOUS
10
12.3909
20
-6.88488
11
12.3909
21
-6.88488
0
LINE
8
BLACK
6
CONTINUOUS
10
12.3909
20
-6.88488
11
12.3936
21
-6.8846
0
LINE
8
BLACK
6
CONTINUOUS
10
12.3936
20
-6.8846
11
12.3936
21
-6.8846
0
LINE
8
BLACK
6
CONTINUOUS
10
12.3936
20
-6.8846
11
12.3937
21
-6.8846
0
LINE
8
BLACK
6
CONTINUOUS
10
12.3937
20
-6.8846
11
12.3937
21
-6.8846
0
LINE
8
BLACK
6
CONTINUOUS
10
12.3937
20
-6.8846
11
12.3964
21
-6.88486
0
LINE
8
BLACK
6
CONTINUOUS
10
12.3964
20
-6.88486
11
12.3964
21
-6.88486
0
LINE
8
BLACK
6
CONTINUOUS
10
12.3964
20
-6.88486
11
12.3964
21
-6.88486
0
LINE
8
BLACK
6
CONTINUOUS
10
12.3964
20
-6.88486
11
12.3964
21
-6.88486
0
LINE
8
BLACK
6
CONTINUOUS
10
12.3964
20
-6.88486
11
12.399
21
-6.88564
0
LINE
8
BLACK
6
CONTINUOUS
10
12.399
20
-6.88564
11
12.399
21
-6.88564
0
LINE
8
BLACK
6
CONTINUOUS
10
12.399
20
-6.88564
11
12.399
21
-6.88564
0
LINE
8
BLACK
6
CONTINUOUS
10
12.399
20
-6.88564
11
12.4013
21
-6.8869
0
LINE
8
BLACK
6
CONTINUOUS
10
12.4013
20
-6.8869
11
12.4013
21
-6.8869
0
LINE
8
BLACK
6
CONTINUOUS
10
12.4013
20
-6.8869
11
12.4013
21
-6.8869
0
LINE
8
BLACK
6
CONTINUOUS
10
12.4013
20
-6.8869
11
12.4013
21
-6.8869
0
LINE
8
BLACK
6
CONTINUOUS
10
12.4013
20
-6.8869
11
12.4034
21
-6.8886
0
LINE
8
BLACK
6
CONTINUOUS
10
12.4034
20
-6.8886
11
12.4034
21
-6.8886
0
LINE
8
BLACK
6
CONTINUOUS
10
12.4034
20
-6.8886
11
12.4051
21
-6.89067
0
LINE
8
BLACK
6
CONTINUOUS
10
12.3799
20
-6.94572
11
12.3802
21
-6.94839
0
LINE
8
BLACK
6
CONTINUOUS
10
12.3802
20
-6.94839
11
12.381
21
-6.95096
0
LINE
8
BLACK
6
CONTINUOUS
10
12.381
20
-6.95096
11
12.3823
21
-6.95333
0
LINE
8
BLACK
6
CONTINUOUS
10
12.3823
20
-6.95333
11
12.384
21
-6.9554
0
LINE
8
BLACK
6
CONTINUOUS
10
12.384
20
-6.9554
11
12.3861
21
-6.9571
0
LINE
8
BLACK
6
CONTINUOUS
10
12.3861
20
-6.9571
11
12.3885
21
-6.95836
0
LINE
8
BLACK
6
CONTINUOUS
10
12.3885
20
-6.95836
11
12.391
21
-6.95914
0
LINE
8
BLACK
6
CONTINUOUS
10
12.391
20
-6.95914
11
12.3937
21
-6.9594
0
LINE
8
BLACK
6
CONTINUOUS
10
12.3937
20
-6.9594
11
12.3938
21
-6.9594
0
LINE
8
BLACK
6
CONTINUOUS
10
12.3938
20
-6.9594
11
12.3965
21
-6.95912
0
LINE
8
BLACK
6
CONTINUOUS
10
12.3965
20
-6.95912
11
12.399
21
-6.95832
0
LINE
8
BLACK
6
CONTINUOUS
10
12.399
20
-6.95832
11
12.4014
21
-6.95704
0
LINE
8
BLACK
6
CONTINUOUS
10
12.4014
20
-6.95704
11
12.4035
21
-6.95533
0
LINE
8
BLACK
6
CONTINUOUS
10
12.4035
20
-6.95533
11
12.4052
21
-6.95325
0
LINE
8
BLACK
6
CONTINUOUS
10
12.4052
20
-6.95325
11
12.4064
21
-6.95087
0
LINE
8
BLACK
6
CONTINUOUS
10
12.4064
20
-6.95087
11
12.4072
21
-6.9483
0
LINE
8
BLACK
6
CONTINUOUS
10
12.4072
20
-6.9483
11
12.4075
21
-6.94562
0
LINE
8
BLACK
6
CONTINUOUS
10
12.4075
20
-6.94562
11
12.4075
21
-6.94562
0
LINE
8
BLACK
6
CONTINUOUS
10
12.4075
20
-6.94562
11
12.4075
21
-6.94562
0
LINE
8
BLACK
6
CONTINUOUS
10
12.4075
20
-6.94562
11
12.4075
21
-6.89838
0
LINE
8
BLACK
6
CONTINUOUS
10
12.4075
20
-6.89838
11
12.4075
21
-6.89828
0
LINE
8
BLACK
6
CONTINUOUS
10
12.4075
20
-6.89828
11
12.4072
21
-6.89561
0
LINE
8
BLACK
6
CONTINUOUS
10
12.4072
20
-6.89561
11
12.4064
21
-6.89304
0
LINE
8
BLACK
6
CONTINUOUS
10
12.4064
20
-6.89304
11
12.4051
21
-6.89067
0
LINE
8
BLACK
6
CONTINUOUS
10
12.4051
20
-6.89067
11
12.4034
21
-6.8886
0
LINE
8
BLACK
6
CONTINUOUS
10
12.4034
20
-6.8886
11
12.4013
21
-6.8869
0
LINE
8
BLACK
6
CONTINUOUS
10
12.4013
20
-6.8869
11
12.399
21
-6.88564
0
LINE
8
BLACK
6
CONTINUOUS
10
12.399
20
-6.88564
11
12.3964
21
-6.88486
0
LINE
8
BLACK
6
CONTINUOUS
10
12.3964
20
-6.88486
11
12.3937
21
-6.8846
0
LINE
8
BLACK
6
CONTINUOUS
10
12.3937
20
-6.8846
11
12.3936
21
-6.8846
0
LINE
8
BLACK
6
CONTINUOUS
10
12.3936
20
-6.8846
11
12.3909
21
-6.88488
0
LINE
8
BLACK
6
CONTINUOUS
10
12.3909
20
-6.88488
11
12.3884
21
-6.88568
0
LINE
8
BLACK
6
CONTINUOUS
10
12.3884
20
-6.88568
11
12.386
21
-6.88696
0
LINE
8
BLACK
6
CONTINUOUS
10
12.386
20
-6.88696
11
12.3839
21
-6.88867
0
LINE
8
BLACK
6
CONTINUOUS
10
12.3839
20
-6.88867
11
12.3822
21
-6.89075
0
LINE
8
BLACK
6
CONTINUOUS
10
12.3822
20
-6.89075
11
12.381
21
-6.89313
0
LINE
8
BLACK
6
CONTINUOUS
10
12.381
20
-6.89313
11
12.3802
21
-6.8957
0
LINE
8
BLACK
6
CONTINUOUS
10
12.3802
20
-6.8957
11
12.3799
21
-6.89838
0
LINE
8
BLACK
6
CONTINUOUS
10
12.3799
20
-6.89838
11
12.3799
21
-6.94562
0
LINE
8
BLACK
6
CONTINUOUS
10
12.3799
20
-6.94562
11
12.3799
21
-6.94572
  0
ENDSEC
  0
EOF
