M48
; DRILL file {KiCad 5.1.5-52549c5~84~ubuntu18.04.1} date Wed 05 Feb 2020 02:02:30 AM EST
; FORMAT={-:-/ absolute / inch / decimal}
; #@! TF.CreationDate,2020-02-05T02:02:30-05:00
; #@! TF.GenerationSoftware,Kicad,Pcbnew,5.1.5-52549c5~84~ubuntu18.04.1
FMAT,2
INCH
T1C0.0256
T2C0.0315
T3C0.0323
T4C0.0394
T5C0.0402
T6C0.0433
T7C0.0461
T8C0.0512
T9C0.0811
T10C0.0862
T11C0.0472
%
G90
G05
T1
X4.8631Y-3.47
X4.9969Y-3.47
T2
X6.64Y-2.81
X7.04Y-2.81
X6.36Y-3.74
X6.76Y-3.74
X4.12Y-3.47
X4.52Y-3.47
X6.75Y-4.31
X6.75Y-4.71
X9.24Y-2.81
X9.64Y-2.81
X7.94Y-2.81
X8.34Y-2.81
X10.54Y-2.79
X10.94Y-2.79
X9.01Y-3.74
X9.41Y-3.74
X7.71Y-3.74
X8.11Y-3.74
X5.34Y-2.81
X5.74Y-2.81
T3
X7.5911Y-2.8
X7.7289Y-2.8
X6.4489Y-2.8
X8.9011Y-2.8
X9.0389Y-2.8
X5.0111Y-2.81
X5.1489Y-2.81
X10.1911Y-2.79
X10.3289Y-2.79
X6.3111Y-2.8
T4
X2.2Y-2.32
X2.2Y-2.42
X2.2Y-2.52
X2.2Y-2.62
X2.2Y-2.72
X2.2Y-2.82
X2.2Y-2.92
X2.2Y-3.02
X2.5Y-2.32
X2.5Y-2.42
X2.5Y-2.52
X2.5Y-2.62
X2.5Y-2.72
X2.5Y-2.82
X2.5Y-2.92
X2.5Y-3.02
T5
X2.8Y-1.0
X2.9Y-1.0
X3.0Y-1.0
X3.1Y-1.0
X3.2Y-1.0
X3.3Y-1.0
X3.4Y-1.0
X3.5Y-1.0
X3.6Y-1.0
X3.7Y-1.0
X3.8Y-1.0
X3.9Y-1.0
X4.0Y-1.0
X4.1Y-1.0
X4.2Y-1.0
X2.8Y-1.6
X2.9Y-1.6
X3.0Y-1.6
X3.1Y-1.6
X3.2Y-1.6
X3.3Y-1.6
X3.4Y-1.6
X3.5Y-1.6
X3.6Y-1.6
X3.7Y-1.6
X3.8Y-1.6
X3.9Y-1.6
X4.0Y-1.6
X4.1Y-1.6
X4.2Y-1.6
T6
X6.46Y-3.45
X6.56Y-3.45
X6.66Y-3.45
X6.04Y-2.11
X6.04Y-2.51
X9.94Y-2.11
X9.94Y-2.51
X7.34Y-2.11
X7.34Y-2.51
X4.74Y-2.11
X4.74Y-2.51
X9.11Y-3.47
X9.21Y-3.47
X9.31Y-3.47
X8.63Y-2.11
X8.63Y-2.51
X7.8Y-3.45
X7.9Y-3.45
X8.0Y-3.45
T7
X5.13Y-2.11
X5.53Y-2.11
X7.73Y-2.11
X8.13Y-2.11
X6.43Y-2.11
X6.83Y-2.11
X9.03Y-2.11
X9.43Y-2.11
X10.33Y-2.11
X10.73Y-2.11
T8
X6.6031Y-0.76
X6.8Y-0.76
X7.8431Y-0.76
X8.04Y-0.76
X9.1431Y-0.77
X9.34Y-0.77
X10.4131Y-0.78
X10.61Y-0.78
X5.2531Y-0.76
X5.45Y-0.76
T9
X4.98Y-1.61
X7.58Y-1.61
X6.28Y-1.61
X8.88Y-1.61
X10.18Y-1.61
T10
X5.68Y-1.51
X8.28Y-1.51
X6.98Y-1.51
X9.58Y-1.51
X10.88Y-1.51
T11
X10.5631Y-4.5369
X10.5631Y-4.6353
X10.76Y-4.34
X10.9569Y-4.5369
X10.9569Y-4.6353
X6.9431Y-4.5369
X6.9431Y-4.6353
X7.14Y-4.34
X7.3369Y-4.5369
X7.3369Y-4.6353
X8.4531Y-4.5369
X8.4531Y-4.6353
X8.65Y-4.34
X8.8469Y-4.5369
X8.8469Y-4.6353
X9.9531Y-4.5369
X9.9531Y-4.6353
X10.15Y-4.34
X10.3469Y-4.5369
X10.3469Y-4.6353
T2
G00X10.5631Y-4.3538
M15
G01X10.5631Y-4.3262
M16
G05
G00X10.7462Y-4.5369
M15
G01X10.7738Y-4.5369
M16
G05
G00X10.9569Y-4.3538
M15
G01X10.9569Y-4.3262
M16
G05
G00X6.9431Y-4.3538
M15
G01X6.9431Y-4.3262
M16
G05
G00X7.1262Y-4.5369
M15
G01X7.1538Y-4.5369
M16
G05
G00X7.3369Y-4.3538
M15
G01X7.3369Y-4.3262
M16
G05
G00X8.4531Y-4.3538
M15
G01X8.4531Y-4.3262
M16
G05
G00X8.6362Y-4.5369
M15
G01X8.6638Y-4.5369
M16
G05
G00X8.8469Y-4.3538
M15
G01X8.8469Y-4.3262
M16
G05
G00X9.9531Y-4.3538
M15
G01X9.9531Y-4.3262
M16
G05
G00X10.1362Y-4.5369
M15
G01X10.1638Y-4.5369
M16
G05
G00X10.3469Y-4.3538
M15
G01X10.3469Y-4.3262
M16
G05
T4
G00X0.8019Y-2.6018
M15
G01X0.8019Y-2.5782
M16
G05
G00X0.9082Y-2.775
M15
G01X0.9318Y-2.775
M16
G05
G00X1.0381Y-2.6018
M15
G01X1.0381Y-2.5782
M16
G05
T0
M30
