G04 #@! TF.GenerationSoftware,KiCad,Pcbnew,5.1.5-52549c5~84~ubuntu18.04.1*
G04 #@! TF.CreationDate,2020-03-01T20:40:58-05:00*
G04 #@! TF.ProjectId,cropdroid-room,63726f70-6472-46f6-9964-2d726f6f6d2e,v0.4a*
G04 #@! TF.SameCoordinates,Original*
G04 #@! TF.FileFunction,Profile,NP*
%FSLAX46Y46*%
G04 Gerber Fmt 4.6, Leading zero omitted, Abs format (unit mm)*
G04 Created by KiCad (PCBNEW 5.1.5-52549c5~84~ubuntu18.04.1) date 2020-03-01 20:40:58*
%MOMM*%
%LPD*%
G04 APERTURE LIST*
%ADD10C,0.050000*%
%ADD11C,0.000100*%
G04 APERTURE END LIST*
D10*
X20828000Y-177546000D02*
X20828000Y-46482000D01*
X398018000Y-177546000D02*
X20828000Y-177546000D01*
X398018000Y-46482000D02*
X398018000Y-177546000D01*
X20828000Y-46482000D02*
X398018000Y-46482000D01*
D11*
X174150000Y-176768800D02*
G75*
G03X174500000Y-176418800I0J350000D01*
G01*
X173800000Y-176418800D02*
G75*
G03X174150000Y-176768800I350000J0D01*
G01*
X174150000Y-174868800D02*
G75*
G03X173800000Y-175218800I0J-350000D01*
G01*
X174500000Y-175218800D02*
G75*
G03X174150000Y-174868800I-350000J0D01*
G01*
X173800000Y-175218800D02*
X173800000Y-176418800D01*
X174500000Y-175218800D02*
X174500000Y-176418800D01*
X181450000Y-176768800D02*
G75*
G03X181800000Y-176418800I0J350000D01*
G01*
X181100000Y-176418800D02*
G75*
G03X181450000Y-176768800I350000J0D01*
G01*
X181450000Y-174868800D02*
G75*
G03X181100000Y-175218800I0J-350000D01*
G01*
X181800000Y-175218800D02*
G75*
G03X181450000Y-174868800I-350000J0D01*
G01*
X181100000Y-175218800D02*
X181100000Y-176418800D01*
X181800000Y-175218800D02*
X181800000Y-176418800D01*
X199550000Y-176768800D02*
G75*
G03X199900000Y-176418800I0J350000D01*
G01*
X199200000Y-176418800D02*
G75*
G03X199550000Y-176768800I350000J0D01*
G01*
X199550000Y-174868800D02*
G75*
G03X199200000Y-175218800I0J-350000D01*
G01*
X199900000Y-175218800D02*
G75*
G03X199550000Y-174868800I-350000J0D01*
G01*
X199200000Y-175218800D02*
X199200000Y-176418800D01*
X199900000Y-175218800D02*
X199900000Y-176418800D01*
X206850000Y-176768800D02*
G75*
G03X207200000Y-176418800I0J350000D01*
G01*
X206500000Y-176418800D02*
G75*
G03X206850000Y-176768800I350000J0D01*
G01*
X206850000Y-174868800D02*
G75*
G03X206500000Y-175218800I0J-350000D01*
G01*
X207200000Y-175218800D02*
G75*
G03X206850000Y-174868800I-350000J0D01*
G01*
X206500000Y-175218800D02*
X206500000Y-176418800D01*
X207200000Y-175218800D02*
X207200000Y-176418800D01*
X263050000Y-176768800D02*
G75*
G03X263400000Y-176418800I0J350000D01*
G01*
X262700000Y-176418800D02*
G75*
G03X263050000Y-176768800I350000J0D01*
G01*
X263050000Y-174868800D02*
G75*
G03X262700000Y-175218800I0J-350000D01*
G01*
X263400000Y-175218800D02*
G75*
G03X263050000Y-174868800I-350000J0D01*
G01*
X262700000Y-175218800D02*
X262700000Y-176418800D01*
X263400000Y-175218800D02*
X263400000Y-176418800D01*
X270350000Y-176768800D02*
G75*
G03X270700000Y-176418800I0J350000D01*
G01*
X270000000Y-176418800D02*
G75*
G03X270350000Y-176768800I350000J0D01*
G01*
X270350000Y-174868800D02*
G75*
G03X270000000Y-175218800I0J-350000D01*
G01*
X270700000Y-175218800D02*
G75*
G03X270350000Y-174868800I-350000J0D01*
G01*
X270000000Y-175218800D02*
X270000000Y-176418800D01*
X270700000Y-175218800D02*
X270700000Y-176418800D01*
X326550000Y-176768800D02*
G75*
G03X326900000Y-176418800I0J350000D01*
G01*
X326200000Y-176418800D02*
G75*
G03X326550000Y-176768800I350000J0D01*
G01*
X326550000Y-174868800D02*
G75*
G03X326200000Y-175218800I0J-350000D01*
G01*
X326900000Y-175218800D02*
G75*
G03X326550000Y-174868800I-350000J0D01*
G01*
X326200000Y-175218800D02*
X326200000Y-176418800D01*
X326900000Y-175218800D02*
X326900000Y-176418800D01*
X333850000Y-176768800D02*
G75*
G03X334200000Y-176418800I0J350000D01*
G01*
X333500000Y-176418800D02*
G75*
G03X333850000Y-176768800I350000J0D01*
G01*
X333850000Y-174868800D02*
G75*
G03X333500000Y-175218800I0J-350000D01*
G01*
X334200000Y-175218800D02*
G75*
G03X333850000Y-174868800I-350000J0D01*
G01*
X333500000Y-175218800D02*
X333500000Y-176418800D01*
X334200000Y-175218800D02*
X334200000Y-176418800D01*
X218600000Y-176768800D02*
G75*
G03X218950000Y-176418800I0J350000D01*
G01*
X218250000Y-176418800D02*
G75*
G03X218600000Y-176768800I350000J0D01*
G01*
X218600000Y-174868800D02*
G75*
G03X218250000Y-175218800I0J-350000D01*
G01*
X218950000Y-175218800D02*
G75*
G03X218600000Y-174868800I-350000J0D01*
G01*
X218250000Y-175218800D02*
X218250000Y-176418800D01*
X218950000Y-175218800D02*
X218950000Y-176418800D01*
X225900000Y-176768800D02*
G75*
G03X226250000Y-176418800I0J350000D01*
G01*
X225550000Y-176418800D02*
G75*
G03X225900000Y-176768800I350000J0D01*
G01*
X225900000Y-174868800D02*
G75*
G03X225550000Y-175218800I0J-350000D01*
G01*
X226250000Y-175218800D02*
G75*
G03X225900000Y-174868800I-350000J0D01*
G01*
X225550000Y-175218800D02*
X225550000Y-176418800D01*
X226250000Y-175218800D02*
X226250000Y-176418800D01*
X282100000Y-176768800D02*
G75*
G03X282450000Y-176418800I0J350000D01*
G01*
X281750000Y-176418800D02*
G75*
G03X282100000Y-176768800I350000J0D01*
G01*
X282100000Y-174868800D02*
G75*
G03X281750000Y-175218800I0J-350000D01*
G01*
X282450000Y-175218800D02*
G75*
G03X282100000Y-174868800I-350000J0D01*
G01*
X281750000Y-175218800D02*
X281750000Y-176418800D01*
X282450000Y-175218800D02*
X282450000Y-176418800D01*
X289400000Y-176768800D02*
G75*
G03X289750000Y-176418800I0J350000D01*
G01*
X289050000Y-176418800D02*
G75*
G03X289400000Y-176768800I350000J0D01*
G01*
X289400000Y-174868800D02*
G75*
G03X289050000Y-175218800I0J-350000D01*
G01*
X289750000Y-175218800D02*
G75*
G03X289400000Y-174868800I-350000J0D01*
G01*
X289050000Y-175218800D02*
X289050000Y-176418800D01*
X289750000Y-175218800D02*
X289750000Y-176418800D01*
X237650000Y-176768800D02*
G75*
G03X238000000Y-176418800I0J350000D01*
G01*
X237300000Y-176418800D02*
G75*
G03X237650000Y-176768800I350000J0D01*
G01*
X237650000Y-174868800D02*
G75*
G03X237300000Y-175218800I0J-350000D01*
G01*
X238000000Y-175218800D02*
G75*
G03X237650000Y-174868800I-350000J0D01*
G01*
X237300000Y-175218800D02*
X237300000Y-176418800D01*
X238000000Y-175218800D02*
X238000000Y-176418800D01*
X244950000Y-176768800D02*
G75*
G03X245300000Y-176418800I0J350000D01*
G01*
X244600000Y-176418800D02*
G75*
G03X244950000Y-176768800I350000J0D01*
G01*
X244950000Y-174868800D02*
G75*
G03X244600000Y-175218800I0J-350000D01*
G01*
X245300000Y-175218800D02*
G75*
G03X244950000Y-174868800I-350000J0D01*
G01*
X244600000Y-175218800D02*
X244600000Y-176418800D01*
X245300000Y-175218800D02*
X245300000Y-176418800D01*
X307500000Y-176768800D02*
G75*
G03X307850000Y-176418800I0J350000D01*
G01*
X307150000Y-176418800D02*
G75*
G03X307500000Y-176768800I350000J0D01*
G01*
X307500000Y-174868800D02*
G75*
G03X307150000Y-175218800I0J-350000D01*
G01*
X307850000Y-175218800D02*
G75*
G03X307500000Y-174868800I-350000J0D01*
G01*
X307150000Y-175218800D02*
X307150000Y-176418800D01*
X307850000Y-175218800D02*
X307850000Y-176418800D01*
X314800000Y-176768800D02*
G75*
G03X315150000Y-176418800I0J350000D01*
G01*
X314450000Y-176418800D02*
G75*
G03X314800000Y-176768800I350000J0D01*
G01*
X314800000Y-174868800D02*
G75*
G03X314450000Y-175218800I0J-350000D01*
G01*
X315150000Y-175218800D02*
G75*
G03X314800000Y-174868800I-350000J0D01*
G01*
X314450000Y-175218800D02*
X314450000Y-176418800D01*
X315150000Y-175218800D02*
X315150000Y-176418800D01*
M02*
