G04 #@! TF.GenerationSoftware,KiCad,Pcbnew,5.1.5-52549c5~84~ubuntu18.04.1*
G04 #@! TF.CreationDate,2020-03-01T20:40:58-05:00*
G04 #@! TF.ProjectId,cropdroid-room,63726f70-6472-46f6-9964-2d726f6f6d2e,v0.4a*
G04 #@! TF.SameCoordinates,Original*
G04 #@! TF.FileFunction,Legend,Top*
G04 #@! TF.FilePolarity,Positive*
%FSLAX46Y46*%
G04 Gerber Fmt 4.6, Leading zero omitted, Abs format (unit mm)*
G04 Created by KiCad (PCBNEW 5.1.5-52549c5~84~ubuntu18.04.1) date 2020-03-01 20:40:58*
%MOMM*%
%LPD*%
G04 APERTURE LIST*
%ADD10C,0.150000*%
%ADD11C,0.010000*%
%ADD12C,0.200000*%
%ADD13C,0.127000*%
%ADD14C,0.100000*%
%ADD15C,0.120000*%
%ADD16C,0.400000*%
%ADD17C,0.152400*%
%ADD18C,0.300000*%
%ADD19C,0.015000*%
G04 APERTURE END LIST*
D10*
X283545209Y-166330761D02*
X283688066Y-166378380D01*
X283926161Y-166378380D01*
X284021400Y-166330761D01*
X284069019Y-166283142D01*
X284116638Y-166187904D01*
X284116638Y-166092666D01*
X284069019Y-165997428D01*
X284021400Y-165949809D01*
X283926161Y-165902190D01*
X283735685Y-165854571D01*
X283640447Y-165806952D01*
X283592828Y-165759333D01*
X283545209Y-165664095D01*
X283545209Y-165568857D01*
X283592828Y-165473619D01*
X283640447Y-165426000D01*
X283735685Y-165378380D01*
X283973780Y-165378380D01*
X284116638Y-165426000D01*
X284926161Y-166330761D02*
X284830923Y-166378380D01*
X284640447Y-166378380D01*
X284545209Y-166330761D01*
X284497590Y-166235523D01*
X284497590Y-165854571D01*
X284545209Y-165759333D01*
X284640447Y-165711714D01*
X284830923Y-165711714D01*
X284926161Y-165759333D01*
X284973780Y-165854571D01*
X284973780Y-165949809D01*
X284497590Y-166045047D01*
X285402352Y-166378380D02*
X285402352Y-165711714D01*
X285402352Y-165902190D02*
X285449971Y-165806952D01*
X285497590Y-165759333D01*
X285592828Y-165711714D01*
X285688066Y-165711714D01*
X286021400Y-166378380D02*
X286021400Y-165711714D01*
X286021400Y-165378380D02*
X285973780Y-165426000D01*
X286021400Y-165473619D01*
X286069019Y-165426000D01*
X286021400Y-165378380D01*
X286021400Y-165473619D01*
X286926161Y-166378380D02*
X286926161Y-165854571D01*
X286878542Y-165759333D01*
X286783304Y-165711714D01*
X286592828Y-165711714D01*
X286497590Y-165759333D01*
X286926161Y-166330761D02*
X286830923Y-166378380D01*
X286592828Y-166378380D01*
X286497590Y-166330761D01*
X286449971Y-166235523D01*
X286449971Y-166140285D01*
X286497590Y-166045047D01*
X286592828Y-165997428D01*
X286830923Y-165997428D01*
X286926161Y-165949809D01*
X287545209Y-166378380D02*
X287449971Y-166330761D01*
X287402352Y-166235523D01*
X287402352Y-165378380D01*
X284902352Y-167933142D02*
X284854733Y-167980761D01*
X284711876Y-168028380D01*
X284616638Y-168028380D01*
X284473780Y-167980761D01*
X284378542Y-167885523D01*
X284330923Y-167790285D01*
X284283304Y-167599809D01*
X284283304Y-167456952D01*
X284330923Y-167266476D01*
X284378542Y-167171238D01*
X284473780Y-167076000D01*
X284616638Y-167028380D01*
X284711876Y-167028380D01*
X284854733Y-167076000D01*
X284902352Y-167123619D01*
X285473780Y-168028380D02*
X285378542Y-167980761D01*
X285330923Y-167933142D01*
X285283304Y-167837904D01*
X285283304Y-167552190D01*
X285330923Y-167456952D01*
X285378542Y-167409333D01*
X285473780Y-167361714D01*
X285616638Y-167361714D01*
X285711876Y-167409333D01*
X285759495Y-167456952D01*
X285807114Y-167552190D01*
X285807114Y-167837904D01*
X285759495Y-167933142D01*
X285711876Y-167980761D01*
X285616638Y-168028380D01*
X285473780Y-168028380D01*
X286188066Y-167123619D02*
X286235685Y-167076000D01*
X286330923Y-167028380D01*
X286569019Y-167028380D01*
X286664257Y-167076000D01*
X286711876Y-167123619D01*
X286759495Y-167218857D01*
X286759495Y-167314095D01*
X286711876Y-167456952D01*
X286140447Y-168028380D01*
X286759495Y-168028380D01*
X318008380Y-122277142D02*
X317960761Y-122324761D01*
X317817904Y-122372380D01*
X317722666Y-122372380D01*
X317579809Y-122324761D01*
X317484571Y-122229523D01*
X317436952Y-122134285D01*
X317389333Y-121943809D01*
X317389333Y-121800952D01*
X317436952Y-121610476D01*
X317484571Y-121515238D01*
X317579809Y-121420000D01*
X317722666Y-121372380D01*
X317817904Y-121372380D01*
X317960761Y-121420000D01*
X318008380Y-121467619D01*
X318436952Y-122372380D02*
X318436952Y-121372380D01*
X318865523Y-122372380D02*
X318865523Y-121848571D01*
X318817904Y-121753333D01*
X318722666Y-121705714D01*
X318579809Y-121705714D01*
X318484571Y-121753333D01*
X318436952Y-121800952D01*
X319770285Y-122372380D02*
X319770285Y-121848571D01*
X319722666Y-121753333D01*
X319627428Y-121705714D01*
X319436952Y-121705714D01*
X319341714Y-121753333D01*
X319770285Y-122324761D02*
X319675047Y-122372380D01*
X319436952Y-122372380D01*
X319341714Y-122324761D01*
X319294095Y-122229523D01*
X319294095Y-122134285D01*
X319341714Y-122039047D01*
X319436952Y-121991428D01*
X319675047Y-121991428D01*
X319770285Y-121943809D01*
X320246476Y-121705714D02*
X320246476Y-122372380D01*
X320246476Y-121800952D02*
X320294095Y-121753333D01*
X320389333Y-121705714D01*
X320532190Y-121705714D01*
X320627428Y-121753333D01*
X320675047Y-121848571D01*
X320675047Y-122372380D01*
X321151238Y-121705714D02*
X321151238Y-122372380D01*
X321151238Y-121800952D02*
X321198857Y-121753333D01*
X321294095Y-121705714D01*
X321436952Y-121705714D01*
X321532190Y-121753333D01*
X321579809Y-121848571D01*
X321579809Y-122372380D01*
X322436952Y-122324761D02*
X322341714Y-122372380D01*
X322151238Y-122372380D01*
X322056000Y-122324761D01*
X322008380Y-122229523D01*
X322008380Y-121848571D01*
X322056000Y-121753333D01*
X322151238Y-121705714D01*
X322341714Y-121705714D01*
X322436952Y-121753333D01*
X322484571Y-121848571D01*
X322484571Y-121943809D01*
X322008380Y-122039047D01*
X323056000Y-122372380D02*
X322960761Y-122324761D01*
X322913142Y-122229523D01*
X322913142Y-121372380D01*
X324675047Y-121372380D02*
X324198857Y-121372380D01*
X324151238Y-121848571D01*
X324198857Y-121800952D01*
X324294095Y-121753333D01*
X324532190Y-121753333D01*
X324627428Y-121800952D01*
X324675047Y-121848571D01*
X324722666Y-121943809D01*
X324722666Y-122181904D01*
X324675047Y-122277142D01*
X324627428Y-122324761D01*
X324532190Y-122372380D01*
X324294095Y-122372380D01*
X324198857Y-122324761D01*
X324151238Y-122277142D01*
X238901552Y-158605980D02*
X238901552Y-157605980D01*
X239139647Y-157605980D01*
X239282504Y-157653600D01*
X239377742Y-157748838D01*
X239425361Y-157844076D01*
X239472980Y-158034552D01*
X239472980Y-158177409D01*
X239425361Y-158367885D01*
X239377742Y-158463123D01*
X239282504Y-158558361D01*
X239139647Y-158605980D01*
X238901552Y-158605980D01*
X239901552Y-158605980D02*
X239901552Y-157605980D01*
X239901552Y-158082171D02*
X240472980Y-158082171D01*
X240472980Y-158605980D02*
X240472980Y-157605980D01*
X240806314Y-157605980D02*
X241377742Y-157605980D01*
X241092028Y-158605980D02*
X241092028Y-157605980D01*
X241663457Y-157701219D02*
X241711076Y-157653600D01*
X241806314Y-157605980D01*
X242044409Y-157605980D01*
X242139647Y-157653600D01*
X242187266Y-157701219D01*
X242234885Y-157796457D01*
X242234885Y-157891695D01*
X242187266Y-158034552D01*
X241615838Y-158605980D01*
X242234885Y-158605980D01*
X242615838Y-157701219D02*
X242663457Y-157653600D01*
X242758695Y-157605980D01*
X242996790Y-157605980D01*
X243092028Y-157653600D01*
X243139647Y-157701219D01*
X243187266Y-157796457D01*
X243187266Y-157891695D01*
X243139647Y-158034552D01*
X242568219Y-158605980D01*
X243187266Y-158605980D01*
X238972980Y-160636933D02*
X238925361Y-160589314D01*
X238830123Y-160446457D01*
X238782504Y-160351219D01*
X238734885Y-160208361D01*
X238687266Y-159970266D01*
X238687266Y-159779790D01*
X238734885Y-159541695D01*
X238782504Y-159398838D01*
X238830123Y-159303600D01*
X238925361Y-159160742D01*
X238972980Y-159113123D01*
X239687266Y-159732171D02*
X239353933Y-159732171D01*
X239353933Y-160255980D02*
X239353933Y-159255980D01*
X239830123Y-159255980D01*
X240353933Y-160255980D02*
X240258695Y-160208361D01*
X240211076Y-160113123D01*
X240211076Y-159255980D01*
X240877742Y-160255980D02*
X240782504Y-160208361D01*
X240734885Y-160160742D01*
X240687266Y-160065504D01*
X240687266Y-159779790D01*
X240734885Y-159684552D01*
X240782504Y-159636933D01*
X240877742Y-159589314D01*
X241020600Y-159589314D01*
X241115838Y-159636933D01*
X241163457Y-159684552D01*
X241211076Y-159779790D01*
X241211076Y-160065504D01*
X241163457Y-160160742D01*
X241115838Y-160208361D01*
X241020600Y-160255980D01*
X240877742Y-160255980D01*
X241782504Y-160255980D02*
X241687266Y-160208361D01*
X241639647Y-160160742D01*
X241592028Y-160065504D01*
X241592028Y-159779790D01*
X241639647Y-159684552D01*
X241687266Y-159636933D01*
X241782504Y-159589314D01*
X241925361Y-159589314D01*
X242020600Y-159636933D01*
X242068219Y-159684552D01*
X242115838Y-159779790D01*
X242115838Y-160065504D01*
X242068219Y-160160742D01*
X242020600Y-160208361D01*
X241925361Y-160255980D01*
X241782504Y-160255980D01*
X242544409Y-160255980D02*
X242544409Y-159589314D01*
X242544409Y-159779790D02*
X242592028Y-159684552D01*
X242639647Y-159636933D01*
X242734885Y-159589314D01*
X242830123Y-159589314D01*
X243068219Y-160636933D02*
X243115838Y-160589314D01*
X243211076Y-160446457D01*
X243258695Y-160351219D01*
X243306314Y-160208361D01*
X243353933Y-159970266D01*
X243353933Y-159779790D01*
X243306314Y-159541695D01*
X243258695Y-159398838D01*
X243211076Y-159303600D01*
X243115838Y-159160742D01*
X243068219Y-159113123D01*
X219546752Y-158605980D02*
X219546752Y-157605980D01*
X219784847Y-157605980D01*
X219927704Y-157653600D01*
X220022942Y-157748838D01*
X220070561Y-157844076D01*
X220118180Y-158034552D01*
X220118180Y-158177409D01*
X220070561Y-158367885D01*
X220022942Y-158463123D01*
X219927704Y-158558361D01*
X219784847Y-158605980D01*
X219546752Y-158605980D01*
X220546752Y-158605980D02*
X220546752Y-157605980D01*
X220546752Y-158082171D02*
X221118180Y-158082171D01*
X221118180Y-158605980D02*
X221118180Y-157605980D01*
X221451514Y-157605980D02*
X222022942Y-157605980D01*
X221737228Y-158605980D02*
X221737228Y-157605980D01*
X222308657Y-157701219D02*
X222356276Y-157653600D01*
X222451514Y-157605980D01*
X222689609Y-157605980D01*
X222784847Y-157653600D01*
X222832466Y-157701219D01*
X222880085Y-157796457D01*
X222880085Y-157891695D01*
X222832466Y-158034552D01*
X222261038Y-158605980D01*
X222880085Y-158605980D01*
X223261038Y-157701219D02*
X223308657Y-157653600D01*
X223403895Y-157605980D01*
X223641990Y-157605980D01*
X223737228Y-157653600D01*
X223784847Y-157701219D01*
X223832466Y-157796457D01*
X223832466Y-157891695D01*
X223784847Y-158034552D01*
X223213419Y-158605980D01*
X223832466Y-158605980D01*
X218832466Y-160636933D02*
X218784847Y-160589314D01*
X218689609Y-160446457D01*
X218641990Y-160351219D01*
X218594371Y-160208361D01*
X218546752Y-159970266D01*
X218546752Y-159779790D01*
X218594371Y-159541695D01*
X218641990Y-159398838D01*
X218689609Y-159303600D01*
X218784847Y-159160742D01*
X218832466Y-159113123D01*
X219784847Y-160160742D02*
X219737228Y-160208361D01*
X219594371Y-160255980D01*
X219499133Y-160255980D01*
X219356276Y-160208361D01*
X219261038Y-160113123D01*
X219213419Y-160017885D01*
X219165800Y-159827409D01*
X219165800Y-159684552D01*
X219213419Y-159494076D01*
X219261038Y-159398838D01*
X219356276Y-159303600D01*
X219499133Y-159255980D01*
X219594371Y-159255980D01*
X219737228Y-159303600D01*
X219784847Y-159351219D01*
X220641990Y-160255980D02*
X220641990Y-159732171D01*
X220594371Y-159636933D01*
X220499133Y-159589314D01*
X220308657Y-159589314D01*
X220213419Y-159636933D01*
X220641990Y-160208361D02*
X220546752Y-160255980D01*
X220308657Y-160255980D01*
X220213419Y-160208361D01*
X220165800Y-160113123D01*
X220165800Y-160017885D01*
X220213419Y-159922647D01*
X220308657Y-159875028D01*
X220546752Y-159875028D01*
X220641990Y-159827409D01*
X221118180Y-159589314D02*
X221118180Y-160255980D01*
X221118180Y-159684552D02*
X221165800Y-159636933D01*
X221261038Y-159589314D01*
X221403895Y-159589314D01*
X221499133Y-159636933D01*
X221546752Y-159732171D01*
X221546752Y-160255980D01*
X222165800Y-160255980D02*
X222070561Y-160208361D01*
X222022942Y-160160742D01*
X221975323Y-160065504D01*
X221975323Y-159779790D01*
X222022942Y-159684552D01*
X222070561Y-159636933D01*
X222165800Y-159589314D01*
X222308657Y-159589314D01*
X222403895Y-159636933D01*
X222451514Y-159684552D01*
X222499133Y-159779790D01*
X222499133Y-160065504D01*
X222451514Y-160160742D01*
X222403895Y-160208361D01*
X222308657Y-160255980D01*
X222165800Y-160255980D01*
X222927704Y-159589314D02*
X222927704Y-160589314D01*
X222927704Y-159636933D02*
X223022942Y-159589314D01*
X223213419Y-159589314D01*
X223308657Y-159636933D01*
X223356276Y-159684552D01*
X223403895Y-159779790D01*
X223403895Y-160065504D01*
X223356276Y-160160742D01*
X223308657Y-160208361D01*
X223213419Y-160255980D01*
X223022942Y-160255980D01*
X222927704Y-160208361D01*
X223737228Y-159589314D02*
X223975323Y-160255980D01*
X224213419Y-159589314D02*
X223975323Y-160255980D01*
X223880085Y-160494076D01*
X223832466Y-160541695D01*
X223737228Y-160589314D01*
X224499133Y-160636933D02*
X224546752Y-160589314D01*
X224641990Y-160446457D01*
X224689609Y-160351219D01*
X224737228Y-160208361D01*
X224784847Y-159970266D01*
X224784847Y-159779790D01*
X224737228Y-159541695D01*
X224689609Y-159398838D01*
X224641990Y-159303600D01*
X224546752Y-159160742D01*
X224499133Y-159113123D01*
X200623752Y-158605980D02*
X200623752Y-157605980D01*
X200861847Y-157605980D01*
X201004704Y-157653600D01*
X201099942Y-157748838D01*
X201147561Y-157844076D01*
X201195180Y-158034552D01*
X201195180Y-158177409D01*
X201147561Y-158367885D01*
X201099942Y-158463123D01*
X201004704Y-158558361D01*
X200861847Y-158605980D01*
X200623752Y-158605980D01*
X201623752Y-158605980D02*
X201623752Y-157605980D01*
X201623752Y-158082171D02*
X202195180Y-158082171D01*
X202195180Y-158605980D02*
X202195180Y-157605980D01*
X202528514Y-157605980D02*
X203099942Y-157605980D01*
X202814228Y-158605980D02*
X202814228Y-157605980D01*
X203385657Y-157701219D02*
X203433276Y-157653600D01*
X203528514Y-157605980D01*
X203766609Y-157605980D01*
X203861847Y-157653600D01*
X203909466Y-157701219D01*
X203957085Y-157796457D01*
X203957085Y-157891695D01*
X203909466Y-158034552D01*
X203338038Y-158605980D01*
X203957085Y-158605980D01*
X204338038Y-157701219D02*
X204385657Y-157653600D01*
X204480895Y-157605980D01*
X204718990Y-157605980D01*
X204814228Y-157653600D01*
X204861847Y-157701219D01*
X204909466Y-157796457D01*
X204909466Y-157891695D01*
X204861847Y-158034552D01*
X204290419Y-158605980D01*
X204909466Y-158605980D01*
X200028514Y-160636933D02*
X199980895Y-160589314D01*
X199885657Y-160446457D01*
X199838038Y-160351219D01*
X199790419Y-160208361D01*
X199742800Y-159970266D01*
X199742800Y-159779790D01*
X199790419Y-159541695D01*
X199838038Y-159398838D01*
X199885657Y-159303600D01*
X199980895Y-159160742D01*
X200028514Y-159113123D01*
X200980895Y-160160742D02*
X200933276Y-160208361D01*
X200790419Y-160255980D01*
X200695180Y-160255980D01*
X200552323Y-160208361D01*
X200457085Y-160113123D01*
X200409466Y-160017885D01*
X200361847Y-159827409D01*
X200361847Y-159684552D01*
X200409466Y-159494076D01*
X200457085Y-159398838D01*
X200552323Y-159303600D01*
X200695180Y-159255980D01*
X200790419Y-159255980D01*
X200933276Y-159303600D01*
X200980895Y-159351219D01*
X201790419Y-160208361D02*
X201695180Y-160255980D01*
X201504704Y-160255980D01*
X201409466Y-160208361D01*
X201361847Y-160113123D01*
X201361847Y-159732171D01*
X201409466Y-159636933D01*
X201504704Y-159589314D01*
X201695180Y-159589314D01*
X201790419Y-159636933D01*
X201838038Y-159732171D01*
X201838038Y-159827409D01*
X201361847Y-159922647D01*
X202266609Y-160255980D02*
X202266609Y-159589314D01*
X202266609Y-159255980D02*
X202218990Y-159303600D01*
X202266609Y-159351219D01*
X202314228Y-159303600D01*
X202266609Y-159255980D01*
X202266609Y-159351219D01*
X202885657Y-160255980D02*
X202790419Y-160208361D01*
X202742800Y-160113123D01*
X202742800Y-159255980D01*
X203266609Y-160255980D02*
X203266609Y-159589314D01*
X203266609Y-159255980D02*
X203218990Y-159303600D01*
X203266609Y-159351219D01*
X203314228Y-159303600D01*
X203266609Y-159255980D01*
X203266609Y-159351219D01*
X203742800Y-159589314D02*
X203742800Y-160255980D01*
X203742800Y-159684552D02*
X203790419Y-159636933D01*
X203885657Y-159589314D01*
X204028514Y-159589314D01*
X204123752Y-159636933D01*
X204171371Y-159732171D01*
X204171371Y-160255980D01*
X205076133Y-159589314D02*
X205076133Y-160398838D01*
X205028514Y-160494076D01*
X204980895Y-160541695D01*
X204885657Y-160589314D01*
X204742800Y-160589314D01*
X204647561Y-160541695D01*
X205076133Y-160208361D02*
X204980895Y-160255980D01*
X204790419Y-160255980D01*
X204695180Y-160208361D01*
X204647561Y-160160742D01*
X204599942Y-160065504D01*
X204599942Y-159779790D01*
X204647561Y-159684552D01*
X204695180Y-159636933D01*
X204790419Y-159589314D01*
X204980895Y-159589314D01*
X205076133Y-159636933D01*
X205457085Y-160636933D02*
X205504704Y-160589314D01*
X205599942Y-160446457D01*
X205647561Y-160351219D01*
X205695180Y-160208361D01*
X205742800Y-159970266D01*
X205742800Y-159779790D01*
X205695180Y-159541695D01*
X205647561Y-159398838D01*
X205599942Y-159303600D01*
X205504704Y-159160742D01*
X205457085Y-159113123D01*
X285115380Y-122277142D02*
X285067761Y-122324761D01*
X284924904Y-122372380D01*
X284829666Y-122372380D01*
X284686809Y-122324761D01*
X284591571Y-122229523D01*
X284543952Y-122134285D01*
X284496333Y-121943809D01*
X284496333Y-121800952D01*
X284543952Y-121610476D01*
X284591571Y-121515238D01*
X284686809Y-121420000D01*
X284829666Y-121372380D01*
X284924904Y-121372380D01*
X285067761Y-121420000D01*
X285115380Y-121467619D01*
X285543952Y-122372380D02*
X285543952Y-121372380D01*
X285972523Y-122372380D02*
X285972523Y-121848571D01*
X285924904Y-121753333D01*
X285829666Y-121705714D01*
X285686809Y-121705714D01*
X285591571Y-121753333D01*
X285543952Y-121800952D01*
X286877285Y-122372380D02*
X286877285Y-121848571D01*
X286829666Y-121753333D01*
X286734428Y-121705714D01*
X286543952Y-121705714D01*
X286448714Y-121753333D01*
X286877285Y-122324761D02*
X286782047Y-122372380D01*
X286543952Y-122372380D01*
X286448714Y-122324761D01*
X286401095Y-122229523D01*
X286401095Y-122134285D01*
X286448714Y-122039047D01*
X286543952Y-121991428D01*
X286782047Y-121991428D01*
X286877285Y-121943809D01*
X287353476Y-121705714D02*
X287353476Y-122372380D01*
X287353476Y-121800952D02*
X287401095Y-121753333D01*
X287496333Y-121705714D01*
X287639190Y-121705714D01*
X287734428Y-121753333D01*
X287782047Y-121848571D01*
X287782047Y-122372380D01*
X288258238Y-121705714D02*
X288258238Y-122372380D01*
X288258238Y-121800952D02*
X288305857Y-121753333D01*
X288401095Y-121705714D01*
X288543952Y-121705714D01*
X288639190Y-121753333D01*
X288686809Y-121848571D01*
X288686809Y-122372380D01*
X289543952Y-122324761D02*
X289448714Y-122372380D01*
X289258238Y-122372380D01*
X289163000Y-122324761D01*
X289115380Y-122229523D01*
X289115380Y-121848571D01*
X289163000Y-121753333D01*
X289258238Y-121705714D01*
X289448714Y-121705714D01*
X289543952Y-121753333D01*
X289591571Y-121848571D01*
X289591571Y-121943809D01*
X289115380Y-122039047D01*
X290163000Y-122372380D02*
X290067761Y-122324761D01*
X290020142Y-122229523D01*
X290020142Y-121372380D01*
X291734428Y-121705714D02*
X291734428Y-122372380D01*
X291496333Y-121324761D02*
X291258238Y-122039047D01*
X291877285Y-122039047D01*
X252349380Y-122023142D02*
X252301761Y-122070761D01*
X252158904Y-122118380D01*
X252063666Y-122118380D01*
X251920809Y-122070761D01*
X251825571Y-121975523D01*
X251777952Y-121880285D01*
X251730333Y-121689809D01*
X251730333Y-121546952D01*
X251777952Y-121356476D01*
X251825571Y-121261238D01*
X251920809Y-121166000D01*
X252063666Y-121118380D01*
X252158904Y-121118380D01*
X252301761Y-121166000D01*
X252349380Y-121213619D01*
X252777952Y-122118380D02*
X252777952Y-121118380D01*
X253206523Y-122118380D02*
X253206523Y-121594571D01*
X253158904Y-121499333D01*
X253063666Y-121451714D01*
X252920809Y-121451714D01*
X252825571Y-121499333D01*
X252777952Y-121546952D01*
X254111285Y-122118380D02*
X254111285Y-121594571D01*
X254063666Y-121499333D01*
X253968428Y-121451714D01*
X253777952Y-121451714D01*
X253682714Y-121499333D01*
X254111285Y-122070761D02*
X254016047Y-122118380D01*
X253777952Y-122118380D01*
X253682714Y-122070761D01*
X253635095Y-121975523D01*
X253635095Y-121880285D01*
X253682714Y-121785047D01*
X253777952Y-121737428D01*
X254016047Y-121737428D01*
X254111285Y-121689809D01*
X254587476Y-121451714D02*
X254587476Y-122118380D01*
X254587476Y-121546952D02*
X254635095Y-121499333D01*
X254730333Y-121451714D01*
X254873190Y-121451714D01*
X254968428Y-121499333D01*
X255016047Y-121594571D01*
X255016047Y-122118380D01*
X255492238Y-121451714D02*
X255492238Y-122118380D01*
X255492238Y-121546952D02*
X255539857Y-121499333D01*
X255635095Y-121451714D01*
X255777952Y-121451714D01*
X255873190Y-121499333D01*
X255920809Y-121594571D01*
X255920809Y-122118380D01*
X256777952Y-122070761D02*
X256682714Y-122118380D01*
X256492238Y-122118380D01*
X256397000Y-122070761D01*
X256349380Y-121975523D01*
X256349380Y-121594571D01*
X256397000Y-121499333D01*
X256492238Y-121451714D01*
X256682714Y-121451714D01*
X256777952Y-121499333D01*
X256825571Y-121594571D01*
X256825571Y-121689809D01*
X256349380Y-121785047D01*
X257397000Y-122118380D02*
X257301761Y-122070761D01*
X257254142Y-121975523D01*
X257254142Y-121118380D01*
X258444619Y-121118380D02*
X259063666Y-121118380D01*
X258730333Y-121499333D01*
X258873190Y-121499333D01*
X258968428Y-121546952D01*
X259016047Y-121594571D01*
X259063666Y-121689809D01*
X259063666Y-121927904D01*
X259016047Y-122023142D01*
X258968428Y-122070761D01*
X258873190Y-122118380D01*
X258587476Y-122118380D01*
X258492238Y-122070761D01*
X258444619Y-122023142D01*
X219075380Y-122277142D02*
X219027761Y-122324761D01*
X218884904Y-122372380D01*
X218789666Y-122372380D01*
X218646809Y-122324761D01*
X218551571Y-122229523D01*
X218503952Y-122134285D01*
X218456333Y-121943809D01*
X218456333Y-121800952D01*
X218503952Y-121610476D01*
X218551571Y-121515238D01*
X218646809Y-121420000D01*
X218789666Y-121372380D01*
X218884904Y-121372380D01*
X219027761Y-121420000D01*
X219075380Y-121467619D01*
X219503952Y-122372380D02*
X219503952Y-121372380D01*
X219932523Y-122372380D02*
X219932523Y-121848571D01*
X219884904Y-121753333D01*
X219789666Y-121705714D01*
X219646809Y-121705714D01*
X219551571Y-121753333D01*
X219503952Y-121800952D01*
X220837285Y-122372380D02*
X220837285Y-121848571D01*
X220789666Y-121753333D01*
X220694428Y-121705714D01*
X220503952Y-121705714D01*
X220408714Y-121753333D01*
X220837285Y-122324761D02*
X220742047Y-122372380D01*
X220503952Y-122372380D01*
X220408714Y-122324761D01*
X220361095Y-122229523D01*
X220361095Y-122134285D01*
X220408714Y-122039047D01*
X220503952Y-121991428D01*
X220742047Y-121991428D01*
X220837285Y-121943809D01*
X221313476Y-121705714D02*
X221313476Y-122372380D01*
X221313476Y-121800952D02*
X221361095Y-121753333D01*
X221456333Y-121705714D01*
X221599190Y-121705714D01*
X221694428Y-121753333D01*
X221742047Y-121848571D01*
X221742047Y-122372380D01*
X222218238Y-121705714D02*
X222218238Y-122372380D01*
X222218238Y-121800952D02*
X222265857Y-121753333D01*
X222361095Y-121705714D01*
X222503952Y-121705714D01*
X222599190Y-121753333D01*
X222646809Y-121848571D01*
X222646809Y-122372380D01*
X223503952Y-122324761D02*
X223408714Y-122372380D01*
X223218238Y-122372380D01*
X223123000Y-122324761D01*
X223075380Y-122229523D01*
X223075380Y-121848571D01*
X223123000Y-121753333D01*
X223218238Y-121705714D01*
X223408714Y-121705714D01*
X223503952Y-121753333D01*
X223551571Y-121848571D01*
X223551571Y-121943809D01*
X223075380Y-122039047D01*
X224123000Y-122372380D02*
X224027761Y-122324761D01*
X223980142Y-122229523D01*
X223980142Y-121372380D01*
X225218238Y-121467619D02*
X225265857Y-121420000D01*
X225361095Y-121372380D01*
X225599190Y-121372380D01*
X225694428Y-121420000D01*
X225742047Y-121467619D01*
X225789666Y-121562857D01*
X225789666Y-121658095D01*
X225742047Y-121800952D01*
X225170619Y-122372380D01*
X225789666Y-122372380D01*
X186563380Y-122277142D02*
X186515761Y-122324761D01*
X186372904Y-122372380D01*
X186277666Y-122372380D01*
X186134809Y-122324761D01*
X186039571Y-122229523D01*
X185991952Y-122134285D01*
X185944333Y-121943809D01*
X185944333Y-121800952D01*
X185991952Y-121610476D01*
X186039571Y-121515238D01*
X186134809Y-121420000D01*
X186277666Y-121372380D01*
X186372904Y-121372380D01*
X186515761Y-121420000D01*
X186563380Y-121467619D01*
X186991952Y-122372380D02*
X186991952Y-121372380D01*
X187420523Y-122372380D02*
X187420523Y-121848571D01*
X187372904Y-121753333D01*
X187277666Y-121705714D01*
X187134809Y-121705714D01*
X187039571Y-121753333D01*
X186991952Y-121800952D01*
X188325285Y-122372380D02*
X188325285Y-121848571D01*
X188277666Y-121753333D01*
X188182428Y-121705714D01*
X187991952Y-121705714D01*
X187896714Y-121753333D01*
X188325285Y-122324761D02*
X188230047Y-122372380D01*
X187991952Y-122372380D01*
X187896714Y-122324761D01*
X187849095Y-122229523D01*
X187849095Y-122134285D01*
X187896714Y-122039047D01*
X187991952Y-121991428D01*
X188230047Y-121991428D01*
X188325285Y-121943809D01*
X188801476Y-121705714D02*
X188801476Y-122372380D01*
X188801476Y-121800952D02*
X188849095Y-121753333D01*
X188944333Y-121705714D01*
X189087190Y-121705714D01*
X189182428Y-121753333D01*
X189230047Y-121848571D01*
X189230047Y-122372380D01*
X189706238Y-121705714D02*
X189706238Y-122372380D01*
X189706238Y-121800952D02*
X189753857Y-121753333D01*
X189849095Y-121705714D01*
X189991952Y-121705714D01*
X190087190Y-121753333D01*
X190134809Y-121848571D01*
X190134809Y-122372380D01*
X190991952Y-122324761D02*
X190896714Y-122372380D01*
X190706238Y-122372380D01*
X190611000Y-122324761D01*
X190563380Y-122229523D01*
X190563380Y-121848571D01*
X190611000Y-121753333D01*
X190706238Y-121705714D01*
X190896714Y-121705714D01*
X190991952Y-121753333D01*
X191039571Y-121848571D01*
X191039571Y-121943809D01*
X190563380Y-122039047D01*
X191611000Y-122372380D02*
X191515761Y-122324761D01*
X191468142Y-122229523D01*
X191468142Y-121372380D01*
X193277666Y-122372380D02*
X192706238Y-122372380D01*
X192991952Y-122372380D02*
X192991952Y-121372380D01*
X192896714Y-121515238D01*
X192801476Y-121610476D01*
X192706238Y-121658095D01*
X153289380Y-122277142D02*
X153241761Y-122324761D01*
X153098904Y-122372380D01*
X153003666Y-122372380D01*
X152860809Y-122324761D01*
X152765571Y-122229523D01*
X152717952Y-122134285D01*
X152670333Y-121943809D01*
X152670333Y-121800952D01*
X152717952Y-121610476D01*
X152765571Y-121515238D01*
X152860809Y-121420000D01*
X153003666Y-121372380D01*
X153098904Y-121372380D01*
X153241761Y-121420000D01*
X153289380Y-121467619D01*
X153717952Y-122372380D02*
X153717952Y-121372380D01*
X154146523Y-122372380D02*
X154146523Y-121848571D01*
X154098904Y-121753333D01*
X154003666Y-121705714D01*
X153860809Y-121705714D01*
X153765571Y-121753333D01*
X153717952Y-121800952D01*
X155051285Y-122372380D02*
X155051285Y-121848571D01*
X155003666Y-121753333D01*
X154908428Y-121705714D01*
X154717952Y-121705714D01*
X154622714Y-121753333D01*
X155051285Y-122324761D02*
X154956047Y-122372380D01*
X154717952Y-122372380D01*
X154622714Y-122324761D01*
X154575095Y-122229523D01*
X154575095Y-122134285D01*
X154622714Y-122039047D01*
X154717952Y-121991428D01*
X154956047Y-121991428D01*
X155051285Y-121943809D01*
X155527476Y-121705714D02*
X155527476Y-122372380D01*
X155527476Y-121800952D02*
X155575095Y-121753333D01*
X155670333Y-121705714D01*
X155813190Y-121705714D01*
X155908428Y-121753333D01*
X155956047Y-121848571D01*
X155956047Y-122372380D01*
X156432238Y-121705714D02*
X156432238Y-122372380D01*
X156432238Y-121800952D02*
X156479857Y-121753333D01*
X156575095Y-121705714D01*
X156717952Y-121705714D01*
X156813190Y-121753333D01*
X156860809Y-121848571D01*
X156860809Y-122372380D01*
X157717952Y-122324761D02*
X157622714Y-122372380D01*
X157432238Y-122372380D01*
X157337000Y-122324761D01*
X157289380Y-122229523D01*
X157289380Y-121848571D01*
X157337000Y-121753333D01*
X157432238Y-121705714D01*
X157622714Y-121705714D01*
X157717952Y-121753333D01*
X157765571Y-121848571D01*
X157765571Y-121943809D01*
X157289380Y-122039047D01*
X158337000Y-122372380D02*
X158241761Y-122324761D01*
X158194142Y-122229523D01*
X158194142Y-121372380D01*
X159670333Y-121372380D02*
X159765571Y-121372380D01*
X159860809Y-121420000D01*
X159908428Y-121467619D01*
X159956047Y-121562857D01*
X160003666Y-121753333D01*
X160003666Y-121991428D01*
X159956047Y-122181904D01*
X159908428Y-122277142D01*
X159860809Y-122324761D01*
X159765571Y-122372380D01*
X159670333Y-122372380D01*
X159575095Y-122324761D01*
X159527476Y-122277142D01*
X159479857Y-122181904D01*
X159432238Y-121991428D01*
X159432238Y-121753333D01*
X159479857Y-121562857D01*
X159527476Y-121467619D01*
X159575095Y-121420000D01*
X159670333Y-121372380D01*
X327865076Y-166092666D02*
X328341266Y-166092666D01*
X327769838Y-166378380D02*
X328103171Y-165378380D01*
X328436504Y-166378380D01*
X328769838Y-165711714D02*
X328769838Y-166378380D01*
X328769838Y-165806952D02*
X328817457Y-165759333D01*
X328912695Y-165711714D01*
X329055552Y-165711714D01*
X329150790Y-165759333D01*
X329198409Y-165854571D01*
X329198409Y-166378380D01*
X330103171Y-166378380D02*
X330103171Y-165854571D01*
X330055552Y-165759333D01*
X329960314Y-165711714D01*
X329769838Y-165711714D01*
X329674600Y-165759333D01*
X330103171Y-166330761D02*
X330007933Y-166378380D01*
X329769838Y-166378380D01*
X329674600Y-166330761D01*
X329626980Y-166235523D01*
X329626980Y-166140285D01*
X329674600Y-166045047D01*
X329769838Y-165997428D01*
X330007933Y-165997428D01*
X330103171Y-165949809D01*
X330722219Y-166378380D02*
X330626980Y-166330761D01*
X330579361Y-166235523D01*
X330579361Y-165378380D01*
X331246028Y-166378380D02*
X331150790Y-166330761D01*
X331103171Y-166283142D01*
X331055552Y-166187904D01*
X331055552Y-165902190D01*
X331103171Y-165806952D01*
X331150790Y-165759333D01*
X331246028Y-165711714D01*
X331388885Y-165711714D01*
X331484123Y-165759333D01*
X331531742Y-165806952D01*
X331579361Y-165902190D01*
X331579361Y-166187904D01*
X331531742Y-166283142D01*
X331484123Y-166330761D01*
X331388885Y-166378380D01*
X331246028Y-166378380D01*
X332436504Y-165711714D02*
X332436504Y-166521238D01*
X332388885Y-166616476D01*
X332341266Y-166664095D01*
X332246028Y-166711714D01*
X332103171Y-166711714D01*
X332007933Y-166664095D01*
X332436504Y-166330761D02*
X332341266Y-166378380D01*
X332150790Y-166378380D01*
X332055552Y-166330761D01*
X332007933Y-166283142D01*
X331960314Y-166187904D01*
X331960314Y-165902190D01*
X332007933Y-165806952D01*
X332055552Y-165759333D01*
X332150790Y-165711714D01*
X332341266Y-165711714D01*
X332436504Y-165759333D01*
X327793647Y-167028380D02*
X328031742Y-168028380D01*
X328222219Y-167314095D01*
X328412695Y-168028380D01*
X328650790Y-167028380D01*
X329460314Y-168028380D02*
X329460314Y-167504571D01*
X329412695Y-167409333D01*
X329317457Y-167361714D01*
X329126980Y-167361714D01*
X329031742Y-167409333D01*
X329460314Y-167980761D02*
X329365076Y-168028380D01*
X329126980Y-168028380D01*
X329031742Y-167980761D01*
X328984123Y-167885523D01*
X328984123Y-167790285D01*
X329031742Y-167695047D01*
X329126980Y-167647428D01*
X329365076Y-167647428D01*
X329460314Y-167599809D01*
X329793647Y-167361714D02*
X330174600Y-167361714D01*
X329936504Y-167028380D02*
X329936504Y-167885523D01*
X329984123Y-167980761D01*
X330079361Y-168028380D01*
X330174600Y-168028380D01*
X330888885Y-167980761D02*
X330793647Y-168028380D01*
X330603171Y-168028380D01*
X330507933Y-167980761D01*
X330460314Y-167885523D01*
X330460314Y-167504571D01*
X330507933Y-167409333D01*
X330603171Y-167361714D01*
X330793647Y-167361714D01*
X330888885Y-167409333D01*
X330936504Y-167504571D01*
X330936504Y-167599809D01*
X330460314Y-167695047D01*
X331365076Y-168028380D02*
X331365076Y-167361714D01*
X331365076Y-167552190D02*
X331412695Y-167456952D01*
X331460314Y-167409333D01*
X331555552Y-167361714D01*
X331650790Y-167361714D01*
X332507933Y-168028380D02*
X331936504Y-168028380D01*
X332222219Y-168028380D02*
X332222219Y-167028380D01*
X332126980Y-167171238D01*
X332031742Y-167266476D01*
X331936504Y-167314095D01*
X308611876Y-166092666D02*
X309088066Y-166092666D01*
X308516638Y-166378380D02*
X308849971Y-165378380D01*
X309183304Y-166378380D01*
X309516638Y-165711714D02*
X309516638Y-166378380D01*
X309516638Y-165806952D02*
X309564257Y-165759333D01*
X309659495Y-165711714D01*
X309802352Y-165711714D01*
X309897590Y-165759333D01*
X309945209Y-165854571D01*
X309945209Y-166378380D01*
X310849971Y-166378380D02*
X310849971Y-165854571D01*
X310802352Y-165759333D01*
X310707114Y-165711714D01*
X310516638Y-165711714D01*
X310421400Y-165759333D01*
X310849971Y-166330761D02*
X310754733Y-166378380D01*
X310516638Y-166378380D01*
X310421400Y-166330761D01*
X310373780Y-166235523D01*
X310373780Y-166140285D01*
X310421400Y-166045047D01*
X310516638Y-165997428D01*
X310754733Y-165997428D01*
X310849971Y-165949809D01*
X311469019Y-166378380D02*
X311373780Y-166330761D01*
X311326161Y-166235523D01*
X311326161Y-165378380D01*
X311992828Y-166378380D02*
X311897590Y-166330761D01*
X311849971Y-166283142D01*
X311802352Y-166187904D01*
X311802352Y-165902190D01*
X311849971Y-165806952D01*
X311897590Y-165759333D01*
X311992828Y-165711714D01*
X312135685Y-165711714D01*
X312230923Y-165759333D01*
X312278542Y-165806952D01*
X312326161Y-165902190D01*
X312326161Y-166187904D01*
X312278542Y-166283142D01*
X312230923Y-166330761D01*
X312135685Y-166378380D01*
X311992828Y-166378380D01*
X313183304Y-165711714D02*
X313183304Y-166521238D01*
X313135685Y-166616476D01*
X313088066Y-166664095D01*
X312992828Y-166711714D01*
X312849971Y-166711714D01*
X312754733Y-166664095D01*
X313183304Y-166330761D02*
X313088066Y-166378380D01*
X312897590Y-166378380D01*
X312802352Y-166330761D01*
X312754733Y-166283142D01*
X312707114Y-166187904D01*
X312707114Y-165902190D01*
X312754733Y-165806952D01*
X312802352Y-165759333D01*
X312897590Y-165711714D01*
X313088066Y-165711714D01*
X313183304Y-165759333D01*
X308540447Y-167028380D02*
X308778542Y-168028380D01*
X308969019Y-167314095D01*
X309159495Y-168028380D01*
X309397590Y-167028380D01*
X310207114Y-168028380D02*
X310207114Y-167504571D01*
X310159495Y-167409333D01*
X310064257Y-167361714D01*
X309873780Y-167361714D01*
X309778542Y-167409333D01*
X310207114Y-167980761D02*
X310111876Y-168028380D01*
X309873780Y-168028380D01*
X309778542Y-167980761D01*
X309730923Y-167885523D01*
X309730923Y-167790285D01*
X309778542Y-167695047D01*
X309873780Y-167647428D01*
X310111876Y-167647428D01*
X310207114Y-167599809D01*
X310540447Y-167361714D02*
X310921400Y-167361714D01*
X310683304Y-167028380D02*
X310683304Y-167885523D01*
X310730923Y-167980761D01*
X310826161Y-168028380D01*
X310921400Y-168028380D01*
X311635685Y-167980761D02*
X311540447Y-168028380D01*
X311349971Y-168028380D01*
X311254733Y-167980761D01*
X311207114Y-167885523D01*
X311207114Y-167504571D01*
X311254733Y-167409333D01*
X311349971Y-167361714D01*
X311540447Y-167361714D01*
X311635685Y-167409333D01*
X311683304Y-167504571D01*
X311683304Y-167599809D01*
X311207114Y-167695047D01*
X312111876Y-168028380D02*
X312111876Y-167361714D01*
X312111876Y-167552190D02*
X312159495Y-167456952D01*
X312207114Y-167409333D01*
X312302352Y-167361714D01*
X312397590Y-167361714D01*
X312921400Y-167028380D02*
X313016638Y-167028380D01*
X313111876Y-167076000D01*
X313159495Y-167123619D01*
X313207114Y-167218857D01*
X313254733Y-167409333D01*
X313254733Y-167647428D01*
X313207114Y-167837904D01*
X313159495Y-167933142D01*
X313111876Y-167980761D01*
X313016638Y-168028380D01*
X312921400Y-168028380D01*
X312826161Y-167980761D01*
X312778542Y-167933142D01*
X312730923Y-167837904D01*
X312683304Y-167647428D01*
X312683304Y-167409333D01*
X312730923Y-167218857D01*
X312778542Y-167123619D01*
X312826161Y-167076000D01*
X312921400Y-167028380D01*
X264390476Y-166092666D02*
X264866666Y-166092666D01*
X264295238Y-166378380D02*
X264628571Y-165378380D01*
X264961904Y-166378380D01*
X265295238Y-165711714D02*
X265295238Y-166378380D01*
X265295238Y-165806952D02*
X265342857Y-165759333D01*
X265438095Y-165711714D01*
X265580952Y-165711714D01*
X265676190Y-165759333D01*
X265723809Y-165854571D01*
X265723809Y-166378380D01*
X266628571Y-166378380D02*
X266628571Y-165854571D01*
X266580952Y-165759333D01*
X266485714Y-165711714D01*
X266295238Y-165711714D01*
X266200000Y-165759333D01*
X266628571Y-166330761D02*
X266533333Y-166378380D01*
X266295238Y-166378380D01*
X266200000Y-166330761D01*
X266152380Y-166235523D01*
X266152380Y-166140285D01*
X266200000Y-166045047D01*
X266295238Y-165997428D01*
X266533333Y-165997428D01*
X266628571Y-165949809D01*
X267247619Y-166378380D02*
X267152380Y-166330761D01*
X267104761Y-166235523D01*
X267104761Y-165378380D01*
X267771428Y-166378380D02*
X267676190Y-166330761D01*
X267628571Y-166283142D01*
X267580952Y-166187904D01*
X267580952Y-165902190D01*
X267628571Y-165806952D01*
X267676190Y-165759333D01*
X267771428Y-165711714D01*
X267914285Y-165711714D01*
X268009523Y-165759333D01*
X268057142Y-165806952D01*
X268104761Y-165902190D01*
X268104761Y-166187904D01*
X268057142Y-166283142D01*
X268009523Y-166330761D01*
X267914285Y-166378380D01*
X267771428Y-166378380D01*
X268961904Y-165711714D02*
X268961904Y-166521238D01*
X268914285Y-166616476D01*
X268866666Y-166664095D01*
X268771428Y-166711714D01*
X268628571Y-166711714D01*
X268533333Y-166664095D01*
X268961904Y-166330761D02*
X268866666Y-166378380D01*
X268676190Y-166378380D01*
X268580952Y-166330761D01*
X268533333Y-166283142D01*
X268485714Y-166187904D01*
X268485714Y-165902190D01*
X268533333Y-165806952D01*
X268580952Y-165759333D01*
X268676190Y-165711714D01*
X268866666Y-165711714D01*
X268961904Y-165759333D01*
X266080952Y-167933142D02*
X266033333Y-167980761D01*
X265890476Y-168028380D01*
X265795238Y-168028380D01*
X265652380Y-167980761D01*
X265557142Y-167885523D01*
X265509523Y-167790285D01*
X265461904Y-167599809D01*
X265461904Y-167456952D01*
X265509523Y-167266476D01*
X265557142Y-167171238D01*
X265652380Y-167076000D01*
X265795238Y-167028380D01*
X265890476Y-167028380D01*
X266033333Y-167076000D01*
X266080952Y-167123619D01*
X266652380Y-168028380D02*
X266557142Y-167980761D01*
X266509523Y-167933142D01*
X266461904Y-167837904D01*
X266461904Y-167552190D01*
X266509523Y-167456952D01*
X266557142Y-167409333D01*
X266652380Y-167361714D01*
X266795238Y-167361714D01*
X266890476Y-167409333D01*
X266938095Y-167456952D01*
X266985714Y-167552190D01*
X266985714Y-167837904D01*
X266938095Y-167933142D01*
X266890476Y-167980761D01*
X266795238Y-168028380D01*
X266652380Y-168028380D01*
X267366666Y-167123619D02*
X267414285Y-167076000D01*
X267509523Y-167028380D01*
X267747619Y-167028380D01*
X267842857Y-167076000D01*
X267890476Y-167123619D01*
X267938095Y-167218857D01*
X267938095Y-167314095D01*
X267890476Y-167456952D01*
X267319047Y-168028380D01*
X267938095Y-168028380D01*
X175504790Y-158430980D02*
X175695266Y-158430980D01*
X175790504Y-158478600D01*
X175885742Y-158573838D01*
X175933361Y-158764314D01*
X175933361Y-159097647D01*
X175885742Y-159288123D01*
X175790504Y-159383361D01*
X175695266Y-159430980D01*
X175504790Y-159430980D01*
X175409552Y-159383361D01*
X175314314Y-159288123D01*
X175266695Y-159097647D01*
X175266695Y-158764314D01*
X175314314Y-158573838D01*
X175409552Y-158478600D01*
X175504790Y-158430980D01*
X176361933Y-158764314D02*
X176361933Y-159430980D01*
X176361933Y-158859552D02*
X176409552Y-158811933D01*
X176504790Y-158764314D01*
X176647647Y-158764314D01*
X176742885Y-158811933D01*
X176790504Y-158907171D01*
X176790504Y-159430980D01*
X177647647Y-159383361D02*
X177552409Y-159430980D01*
X177361933Y-159430980D01*
X177266695Y-159383361D01*
X177219076Y-159288123D01*
X177219076Y-158907171D01*
X177266695Y-158811933D01*
X177361933Y-158764314D01*
X177552409Y-158764314D01*
X177647647Y-158811933D01*
X177695266Y-158907171D01*
X177695266Y-159002409D01*
X177219076Y-159097647D01*
X178028600Y-158430980D02*
X178266695Y-159430980D01*
X178457171Y-158716695D01*
X178647647Y-159430980D01*
X178885742Y-158430980D01*
X179266695Y-159430980D02*
X179266695Y-158764314D01*
X179266695Y-158430980D02*
X179219076Y-158478600D01*
X179266695Y-158526219D01*
X179314314Y-158478600D01*
X179266695Y-158430980D01*
X179266695Y-158526219D01*
X179742885Y-159430980D02*
X179742885Y-158764314D01*
X179742885Y-158954790D02*
X179790504Y-158859552D01*
X179838123Y-158811933D01*
X179933361Y-158764314D01*
X180028600Y-158764314D01*
X180742885Y-159383361D02*
X180647647Y-159430980D01*
X180457171Y-159430980D01*
X180361933Y-159383361D01*
X180314314Y-159288123D01*
X180314314Y-158907171D01*
X180361933Y-158811933D01*
X180457171Y-158764314D01*
X180647647Y-158764314D01*
X180742885Y-158811933D01*
X180790504Y-158907171D01*
X180790504Y-159002409D01*
X180314314Y-159097647D01*
X23513023Y-49253142D02*
X23465404Y-49300761D01*
X23322547Y-49348380D01*
X23227309Y-49348380D01*
X23084452Y-49300761D01*
X22989214Y-49205523D01*
X22941595Y-49110285D01*
X22893976Y-48919809D01*
X22893976Y-48776952D01*
X22941595Y-48586476D01*
X22989214Y-48491238D01*
X23084452Y-48396000D01*
X23227309Y-48348380D01*
X23322547Y-48348380D01*
X23465404Y-48396000D01*
X23513023Y-48443619D01*
X23941595Y-49348380D02*
X23941595Y-48681714D01*
X23941595Y-48872190D02*
X23989214Y-48776952D01*
X24036833Y-48729333D01*
X24132071Y-48681714D01*
X24227309Y-48681714D01*
X24703500Y-49348380D02*
X24608261Y-49300761D01*
X24560642Y-49253142D01*
X24513023Y-49157904D01*
X24513023Y-48872190D01*
X24560642Y-48776952D01*
X24608261Y-48729333D01*
X24703500Y-48681714D01*
X24846357Y-48681714D01*
X24941595Y-48729333D01*
X24989214Y-48776952D01*
X25036833Y-48872190D01*
X25036833Y-49157904D01*
X24989214Y-49253142D01*
X24941595Y-49300761D01*
X24846357Y-49348380D01*
X24703500Y-49348380D01*
X25465404Y-48681714D02*
X25465404Y-49681714D01*
X25465404Y-48729333D02*
X25560642Y-48681714D01*
X25751119Y-48681714D01*
X25846357Y-48729333D01*
X25893976Y-48776952D01*
X25941595Y-48872190D01*
X25941595Y-49157904D01*
X25893976Y-49253142D01*
X25846357Y-49300761D01*
X25751119Y-49348380D01*
X25560642Y-49348380D01*
X25465404Y-49300761D01*
X26370166Y-49348380D02*
X26370166Y-48348380D01*
X26608261Y-48348380D01*
X26751119Y-48396000D01*
X26846357Y-48491238D01*
X26893976Y-48586476D01*
X26941595Y-48776952D01*
X26941595Y-48919809D01*
X26893976Y-49110285D01*
X26846357Y-49205523D01*
X26751119Y-49300761D01*
X26608261Y-49348380D01*
X26370166Y-49348380D01*
X27370166Y-49348380D02*
X27370166Y-48681714D01*
X27370166Y-48872190D02*
X27417785Y-48776952D01*
X27465404Y-48729333D01*
X27560642Y-48681714D01*
X27655880Y-48681714D01*
X28132071Y-49348380D02*
X28036833Y-49300761D01*
X27989214Y-49253142D01*
X27941595Y-49157904D01*
X27941595Y-48872190D01*
X27989214Y-48776952D01*
X28036833Y-48729333D01*
X28132071Y-48681714D01*
X28274928Y-48681714D01*
X28370166Y-48729333D01*
X28417785Y-48776952D01*
X28465404Y-48872190D01*
X28465404Y-49157904D01*
X28417785Y-49253142D01*
X28370166Y-49300761D01*
X28274928Y-49348380D01*
X28132071Y-49348380D01*
X28893976Y-49348380D02*
X28893976Y-48681714D01*
X28893976Y-48348380D02*
X28846357Y-48396000D01*
X28893976Y-48443619D01*
X28941595Y-48396000D01*
X28893976Y-48348380D01*
X28893976Y-48443619D01*
X29798738Y-49348380D02*
X29798738Y-48348380D01*
X29798738Y-49300761D02*
X29703500Y-49348380D01*
X29513023Y-49348380D01*
X29417785Y-49300761D01*
X29370166Y-49253142D01*
X29322547Y-49157904D01*
X29322547Y-48872190D01*
X29370166Y-48776952D01*
X29417785Y-48729333D01*
X29513023Y-48681714D01*
X29703500Y-48681714D01*
X29798738Y-48729333D01*
X31608261Y-49348380D02*
X31274928Y-48872190D01*
X31036833Y-49348380D02*
X31036833Y-48348380D01*
X31417785Y-48348380D01*
X31513023Y-48396000D01*
X31560642Y-48443619D01*
X31608261Y-48538857D01*
X31608261Y-48681714D01*
X31560642Y-48776952D01*
X31513023Y-48824571D01*
X31417785Y-48872190D01*
X31036833Y-48872190D01*
X32179690Y-49348380D02*
X32084452Y-49300761D01*
X32036833Y-49253142D01*
X31989214Y-49157904D01*
X31989214Y-48872190D01*
X32036833Y-48776952D01*
X32084452Y-48729333D01*
X32179690Y-48681714D01*
X32322547Y-48681714D01*
X32417785Y-48729333D01*
X32465404Y-48776952D01*
X32513023Y-48872190D01*
X32513023Y-49157904D01*
X32465404Y-49253142D01*
X32417785Y-49300761D01*
X32322547Y-49348380D01*
X32179690Y-49348380D01*
X33084452Y-49348380D02*
X32989214Y-49300761D01*
X32941595Y-49253142D01*
X32893976Y-49157904D01*
X32893976Y-48872190D01*
X32941595Y-48776952D01*
X32989214Y-48729333D01*
X33084452Y-48681714D01*
X33227309Y-48681714D01*
X33322547Y-48729333D01*
X33370166Y-48776952D01*
X33417785Y-48872190D01*
X33417785Y-49157904D01*
X33370166Y-49253142D01*
X33322547Y-49300761D01*
X33227309Y-49348380D01*
X33084452Y-49348380D01*
X33846357Y-49348380D02*
X33846357Y-48681714D01*
X33846357Y-48776952D02*
X33893976Y-48729333D01*
X33989214Y-48681714D01*
X34132071Y-48681714D01*
X34227309Y-48729333D01*
X34274928Y-48824571D01*
X34274928Y-49348380D01*
X34274928Y-48824571D02*
X34322547Y-48729333D01*
X34417785Y-48681714D01*
X34560642Y-48681714D01*
X34655880Y-48729333D01*
X34703500Y-48824571D01*
X34703500Y-49348380D01*
X36513023Y-49253142D02*
X36465404Y-49300761D01*
X36322547Y-49348380D01*
X36227309Y-49348380D01*
X36084452Y-49300761D01*
X35989214Y-49205523D01*
X35941595Y-49110285D01*
X35893976Y-48919809D01*
X35893976Y-48776952D01*
X35941595Y-48586476D01*
X35989214Y-48491238D01*
X36084452Y-48396000D01*
X36227309Y-48348380D01*
X36322547Y-48348380D01*
X36465404Y-48396000D01*
X36513023Y-48443619D01*
X37084452Y-49348380D02*
X36989214Y-49300761D01*
X36941595Y-49253142D01*
X36893976Y-49157904D01*
X36893976Y-48872190D01*
X36941595Y-48776952D01*
X36989214Y-48729333D01*
X37084452Y-48681714D01*
X37227309Y-48681714D01*
X37322547Y-48729333D01*
X37370166Y-48776952D01*
X37417785Y-48872190D01*
X37417785Y-49157904D01*
X37370166Y-49253142D01*
X37322547Y-49300761D01*
X37227309Y-49348380D01*
X37084452Y-49348380D01*
X37846357Y-48681714D02*
X37846357Y-49348380D01*
X37846357Y-48776952D02*
X37893976Y-48729333D01*
X37989214Y-48681714D01*
X38132071Y-48681714D01*
X38227309Y-48729333D01*
X38274928Y-48824571D01*
X38274928Y-49348380D01*
X38608261Y-48681714D02*
X38989214Y-48681714D01*
X38751119Y-48348380D02*
X38751119Y-49205523D01*
X38798738Y-49300761D01*
X38893976Y-49348380D01*
X38989214Y-49348380D01*
X39322547Y-49348380D02*
X39322547Y-48681714D01*
X39322547Y-48872190D02*
X39370166Y-48776952D01*
X39417785Y-48729333D01*
X39513023Y-48681714D01*
X39608261Y-48681714D01*
X40084452Y-49348380D02*
X39989214Y-49300761D01*
X39941595Y-49253142D01*
X39893976Y-49157904D01*
X39893976Y-48872190D01*
X39941595Y-48776952D01*
X39989214Y-48729333D01*
X40084452Y-48681714D01*
X40227309Y-48681714D01*
X40322547Y-48729333D01*
X40370166Y-48776952D01*
X40417785Y-48872190D01*
X40417785Y-49157904D01*
X40370166Y-49253142D01*
X40322547Y-49300761D01*
X40227309Y-49348380D01*
X40084452Y-49348380D01*
X40989214Y-49348380D02*
X40893976Y-49300761D01*
X40846357Y-49205523D01*
X40846357Y-48348380D01*
X41513023Y-49348380D02*
X41417785Y-49300761D01*
X41370166Y-49205523D01*
X41370166Y-48348380D01*
X42274928Y-49300761D02*
X42179690Y-49348380D01*
X41989214Y-49348380D01*
X41893976Y-49300761D01*
X41846357Y-49205523D01*
X41846357Y-48824571D01*
X41893976Y-48729333D01*
X41989214Y-48681714D01*
X42179690Y-48681714D01*
X42274928Y-48729333D01*
X42322547Y-48824571D01*
X42322547Y-48919809D01*
X41846357Y-49015047D01*
X42751119Y-49348380D02*
X42751119Y-48681714D01*
X42751119Y-48872190D02*
X42798738Y-48776952D01*
X42846357Y-48729333D01*
X42941595Y-48681714D01*
X43036833Y-48681714D01*
X23513023Y-50903142D02*
X23465404Y-50950761D01*
X23322547Y-50998380D01*
X23227309Y-50998380D01*
X23084452Y-50950761D01*
X22989214Y-50855523D01*
X22941595Y-50760285D01*
X22893976Y-50569809D01*
X22893976Y-50426952D01*
X22941595Y-50236476D01*
X22989214Y-50141238D01*
X23084452Y-50046000D01*
X23227309Y-49998380D01*
X23322547Y-49998380D01*
X23465404Y-50046000D01*
X23513023Y-50093619D01*
X24084452Y-50998380D02*
X23989214Y-50950761D01*
X23941595Y-50903142D01*
X23893976Y-50807904D01*
X23893976Y-50522190D01*
X23941595Y-50426952D01*
X23989214Y-50379333D01*
X24084452Y-50331714D01*
X24227309Y-50331714D01*
X24322547Y-50379333D01*
X24370166Y-50426952D01*
X24417785Y-50522190D01*
X24417785Y-50807904D01*
X24370166Y-50903142D01*
X24322547Y-50950761D01*
X24227309Y-50998380D01*
X24084452Y-50998380D01*
X24846357Y-50331714D02*
X24846357Y-51331714D01*
X24846357Y-50379333D02*
X24941595Y-50331714D01*
X25132071Y-50331714D01*
X25227309Y-50379333D01*
X25274928Y-50426952D01*
X25322547Y-50522190D01*
X25322547Y-50807904D01*
X25274928Y-50903142D01*
X25227309Y-50950761D01*
X25132071Y-50998380D01*
X24941595Y-50998380D01*
X24846357Y-50950761D01*
X25655880Y-50331714D02*
X25893976Y-50998380D01*
X26132071Y-50331714D02*
X25893976Y-50998380D01*
X25798738Y-51236476D01*
X25751119Y-51284095D01*
X25655880Y-51331714D01*
X27084452Y-50998380D02*
X26751119Y-50522190D01*
X26513023Y-50998380D02*
X26513023Y-49998380D01*
X26893976Y-49998380D01*
X26989214Y-50046000D01*
X27036833Y-50093619D01*
X27084452Y-50188857D01*
X27084452Y-50331714D01*
X27036833Y-50426952D01*
X26989214Y-50474571D01*
X26893976Y-50522190D01*
X26513023Y-50522190D01*
X27513023Y-50998380D02*
X27513023Y-50331714D01*
X27513023Y-49998380D02*
X27465404Y-50046000D01*
X27513023Y-50093619D01*
X27560642Y-50046000D01*
X27513023Y-49998380D01*
X27513023Y-50093619D01*
X28417785Y-50331714D02*
X28417785Y-51141238D01*
X28370166Y-51236476D01*
X28322547Y-51284095D01*
X28227309Y-51331714D01*
X28084452Y-51331714D01*
X27989214Y-51284095D01*
X28417785Y-50950761D02*
X28322547Y-50998380D01*
X28132071Y-50998380D01*
X28036833Y-50950761D01*
X27989214Y-50903142D01*
X27941595Y-50807904D01*
X27941595Y-50522190D01*
X27989214Y-50426952D01*
X28036833Y-50379333D01*
X28132071Y-50331714D01*
X28322547Y-50331714D01*
X28417785Y-50379333D01*
X28893976Y-50998380D02*
X28893976Y-49998380D01*
X29322547Y-50998380D02*
X29322547Y-50474571D01*
X29274928Y-50379333D01*
X29179690Y-50331714D01*
X29036833Y-50331714D01*
X28941595Y-50379333D01*
X28893976Y-50426952D01*
X29655880Y-50331714D02*
X30036833Y-50331714D01*
X29798738Y-49998380D02*
X29798738Y-50855523D01*
X29846357Y-50950761D01*
X29941595Y-50998380D01*
X30036833Y-50998380D01*
X31417785Y-51379333D02*
X31370166Y-51331714D01*
X31274928Y-51188857D01*
X31227309Y-51093619D01*
X31179690Y-50950761D01*
X31132071Y-50712666D01*
X31132071Y-50522190D01*
X31179690Y-50284095D01*
X31227309Y-50141238D01*
X31274928Y-50046000D01*
X31370166Y-49903142D01*
X31417785Y-49855523D01*
X32227309Y-50950761D02*
X32132071Y-50998380D01*
X31941595Y-50998380D01*
X31846357Y-50950761D01*
X31798738Y-50903142D01*
X31751119Y-50807904D01*
X31751119Y-50522190D01*
X31798738Y-50426952D01*
X31846357Y-50379333D01*
X31941595Y-50331714D01*
X32132071Y-50331714D01*
X32227309Y-50379333D01*
X32560642Y-51379333D02*
X32608261Y-51331714D01*
X32703500Y-51188857D01*
X32751119Y-51093619D01*
X32798738Y-50950761D01*
X32846357Y-50712666D01*
X32846357Y-50522190D01*
X32798738Y-50284095D01*
X32751119Y-50141238D01*
X32703500Y-50046000D01*
X32608261Y-49903142D01*
X32560642Y-49855523D01*
X34036833Y-50712666D02*
X34513023Y-50712666D01*
X33941595Y-50998380D02*
X34274928Y-49998380D01*
X34608261Y-50998380D01*
X35370166Y-50331714D02*
X35370166Y-50998380D01*
X34941595Y-50331714D02*
X34941595Y-50855523D01*
X34989214Y-50950761D01*
X35084452Y-50998380D01*
X35227309Y-50998380D01*
X35322547Y-50950761D01*
X35370166Y-50903142D01*
X35703500Y-50331714D02*
X36084452Y-50331714D01*
X35846357Y-49998380D02*
X35846357Y-50855523D01*
X35893976Y-50950761D01*
X35989214Y-50998380D01*
X36084452Y-50998380D01*
X36560642Y-50998380D02*
X36465404Y-50950761D01*
X36417785Y-50903142D01*
X36370166Y-50807904D01*
X36370166Y-50522190D01*
X36417785Y-50426952D01*
X36465404Y-50379333D01*
X36560642Y-50331714D01*
X36703500Y-50331714D01*
X36798738Y-50379333D01*
X36846357Y-50426952D01*
X36893976Y-50522190D01*
X36893976Y-50807904D01*
X36846357Y-50903142D01*
X36798738Y-50950761D01*
X36703500Y-50998380D01*
X36560642Y-50998380D01*
X37322547Y-50998380D02*
X37322547Y-50331714D01*
X37322547Y-50426952D02*
X37370166Y-50379333D01*
X37465404Y-50331714D01*
X37608261Y-50331714D01*
X37703500Y-50379333D01*
X37751119Y-50474571D01*
X37751119Y-50998380D01*
X37751119Y-50474571D02*
X37798738Y-50379333D01*
X37893976Y-50331714D01*
X38036833Y-50331714D01*
X38132071Y-50379333D01*
X38179690Y-50474571D01*
X38179690Y-50998380D01*
X39084452Y-50998380D02*
X39084452Y-50474571D01*
X39036833Y-50379333D01*
X38941595Y-50331714D01*
X38751119Y-50331714D01*
X38655880Y-50379333D01*
X39084452Y-50950761D02*
X38989214Y-50998380D01*
X38751119Y-50998380D01*
X38655880Y-50950761D01*
X38608261Y-50855523D01*
X38608261Y-50760285D01*
X38655880Y-50665047D01*
X38751119Y-50617428D01*
X38989214Y-50617428D01*
X39084452Y-50569809D01*
X39417785Y-50331714D02*
X39798738Y-50331714D01*
X39560642Y-49998380D02*
X39560642Y-50855523D01*
X39608261Y-50950761D01*
X39703500Y-50998380D01*
X39798738Y-50998380D01*
X40513023Y-50950761D02*
X40417785Y-50998380D01*
X40227309Y-50998380D01*
X40132071Y-50950761D01*
X40084452Y-50855523D01*
X40084452Y-50474571D01*
X40132071Y-50379333D01*
X40227309Y-50331714D01*
X40417785Y-50331714D01*
X40513023Y-50379333D01*
X40560642Y-50474571D01*
X40560642Y-50569809D01*
X40084452Y-50665047D01*
X41608261Y-49998380D02*
X42179690Y-49998380D01*
X41893976Y-50998380D02*
X41893976Y-49998380D01*
X42513023Y-50998380D02*
X42513023Y-49998380D01*
X42941595Y-50998380D02*
X42941595Y-50474571D01*
X42893976Y-50379333D01*
X42798738Y-50331714D01*
X42655880Y-50331714D01*
X42560642Y-50379333D01*
X42513023Y-50426952D01*
X43798738Y-50950761D02*
X43703499Y-50998380D01*
X43513023Y-50998380D01*
X43417785Y-50950761D01*
X43370166Y-50855523D01*
X43370166Y-50474571D01*
X43417785Y-50379333D01*
X43513023Y-50331714D01*
X43703499Y-50331714D01*
X43798738Y-50379333D01*
X43846357Y-50474571D01*
X43846357Y-50569809D01*
X43370166Y-50665047D01*
X44893976Y-49998380D02*
X45465404Y-49998380D01*
X45179690Y-50998380D02*
X45179690Y-49998380D01*
X45798738Y-50998380D02*
X45798738Y-49998380D01*
X46227309Y-50998380D02*
X46227309Y-50474571D01*
X46179690Y-50379333D01*
X46084452Y-50331714D01*
X45941595Y-50331714D01*
X45846357Y-50379333D01*
X45798738Y-50426952D01*
X46703499Y-50998380D02*
X46703499Y-50331714D01*
X46703499Y-49998380D02*
X46655880Y-50046000D01*
X46703499Y-50093619D01*
X46751119Y-50046000D01*
X46703499Y-49998380D01*
X46703499Y-50093619D01*
X47179690Y-50331714D02*
X47179690Y-50998380D01*
X47179690Y-50426952D02*
X47227309Y-50379333D01*
X47322547Y-50331714D01*
X47465404Y-50331714D01*
X47560642Y-50379333D01*
X47608261Y-50474571D01*
X47608261Y-50998380D01*
X48513023Y-50331714D02*
X48513023Y-51141238D01*
X48465404Y-51236476D01*
X48417785Y-51284095D01*
X48322547Y-51331714D01*
X48179690Y-51331714D01*
X48084452Y-51284095D01*
X48513023Y-50950761D02*
X48417785Y-50998380D01*
X48227309Y-50998380D01*
X48132071Y-50950761D01*
X48084452Y-50903142D01*
X48036833Y-50807904D01*
X48036833Y-50522190D01*
X48084452Y-50426952D01*
X48132071Y-50379333D01*
X48227309Y-50331714D01*
X48417785Y-50331714D01*
X48513023Y-50379333D01*
X48941595Y-50950761D02*
X49036833Y-50998380D01*
X49227309Y-50998380D01*
X49322547Y-50950761D01*
X49370166Y-50855523D01*
X49370166Y-50807904D01*
X49322547Y-50712666D01*
X49227309Y-50665047D01*
X49084452Y-50665047D01*
X48989214Y-50617428D01*
X48941595Y-50522190D01*
X48941595Y-50474571D01*
X48989214Y-50379333D01*
X49084452Y-50331714D01*
X49227309Y-50331714D01*
X49322547Y-50379333D01*
X49846357Y-50950761D02*
X49846357Y-50998380D01*
X49798738Y-51093619D01*
X49751119Y-51141238D01*
X51513023Y-50998380D02*
X51036833Y-50998380D01*
X51036833Y-49998380D01*
X52322547Y-50998380D02*
X51846357Y-50998380D01*
X51846357Y-49998380D01*
X53227309Y-50903142D02*
X53179690Y-50950761D01*
X53036833Y-50998380D01*
X52941595Y-50998380D01*
X52798738Y-50950761D01*
X52703499Y-50855523D01*
X52655880Y-50760285D01*
X52608261Y-50569809D01*
X52608261Y-50426952D01*
X52655880Y-50236476D01*
X52703499Y-50141238D01*
X52798738Y-50046000D01*
X52941595Y-49998380D01*
X53036833Y-49998380D01*
X53179690Y-50046000D01*
X53227309Y-50093619D01*
X22941595Y-52648380D02*
X22941595Y-51648380D01*
X23322547Y-51648380D01*
X23417785Y-51696000D01*
X23465404Y-51743619D01*
X23513023Y-51838857D01*
X23513023Y-51981714D01*
X23465404Y-52076952D01*
X23417785Y-52124571D01*
X23322547Y-52172190D01*
X22941595Y-52172190D01*
X23941595Y-52648380D02*
X23941595Y-51981714D01*
X23941595Y-52172190D02*
X23989214Y-52076952D01*
X24036833Y-52029333D01*
X24132071Y-51981714D01*
X24227309Y-51981714D01*
X24703500Y-52648380D02*
X24608261Y-52600761D01*
X24560642Y-52553142D01*
X24513023Y-52457904D01*
X24513023Y-52172190D01*
X24560642Y-52076952D01*
X24608261Y-52029333D01*
X24703500Y-51981714D01*
X24846357Y-51981714D01*
X24941595Y-52029333D01*
X24989214Y-52076952D01*
X25036833Y-52172190D01*
X25036833Y-52457904D01*
X24989214Y-52553142D01*
X24941595Y-52600761D01*
X24846357Y-52648380D01*
X24703500Y-52648380D01*
X25322547Y-51981714D02*
X25703500Y-51981714D01*
X25465404Y-51648380D02*
X25465404Y-52505523D01*
X25513023Y-52600761D01*
X25608261Y-52648380D01*
X25703500Y-52648380D01*
X26179690Y-52648380D02*
X26084452Y-52600761D01*
X26036833Y-52553142D01*
X25989214Y-52457904D01*
X25989214Y-52172190D01*
X26036833Y-52076952D01*
X26084452Y-52029333D01*
X26179690Y-51981714D01*
X26322547Y-51981714D01*
X26417785Y-52029333D01*
X26465404Y-52076952D01*
X26513023Y-52172190D01*
X26513023Y-52457904D01*
X26465404Y-52553142D01*
X26417785Y-52600761D01*
X26322547Y-52648380D01*
X26179690Y-52648380D01*
X26798738Y-51981714D02*
X27179690Y-51981714D01*
X26941595Y-51648380D02*
X26941595Y-52505523D01*
X26989214Y-52600761D01*
X27084452Y-52648380D01*
X27179690Y-52648380D01*
X27417785Y-51981714D02*
X27655880Y-52648380D01*
X27893976Y-51981714D02*
X27655880Y-52648380D01*
X27560642Y-52886476D01*
X27513023Y-52934095D01*
X27417785Y-52981714D01*
X28274928Y-51981714D02*
X28274928Y-52981714D01*
X28274928Y-52029333D02*
X28370166Y-51981714D01*
X28560642Y-51981714D01*
X28655880Y-52029333D01*
X28703500Y-52076952D01*
X28751119Y-52172190D01*
X28751119Y-52457904D01*
X28703500Y-52553142D01*
X28655880Y-52600761D01*
X28560642Y-52648380D01*
X28370166Y-52648380D01*
X28274928Y-52600761D01*
X29560642Y-52600761D02*
X29465404Y-52648380D01*
X29274928Y-52648380D01*
X29179690Y-52600761D01*
X29132071Y-52505523D01*
X29132071Y-52124571D01*
X29179690Y-52029333D01*
X29274928Y-51981714D01*
X29465404Y-51981714D01*
X29560642Y-52029333D01*
X29608261Y-52124571D01*
X29608261Y-52219809D01*
X29132071Y-52315047D01*
X30703500Y-51981714D02*
X30941595Y-52648380D01*
X31179690Y-51981714D01*
X31751119Y-51648380D02*
X31846357Y-51648380D01*
X31941595Y-51696000D01*
X31989214Y-51743619D01*
X32036833Y-51838857D01*
X32084452Y-52029333D01*
X32084452Y-52267428D01*
X32036833Y-52457904D01*
X31989214Y-52553142D01*
X31941595Y-52600761D01*
X31846357Y-52648380D01*
X31751119Y-52648380D01*
X31655880Y-52600761D01*
X31608261Y-52553142D01*
X31560642Y-52457904D01*
X31513023Y-52267428D01*
X31513023Y-52029333D01*
X31560642Y-51838857D01*
X31608261Y-51743619D01*
X31655880Y-51696000D01*
X31751119Y-51648380D01*
X32513023Y-52553142D02*
X32560642Y-52600761D01*
X32513023Y-52648380D01*
X32465404Y-52600761D01*
X32513023Y-52553142D01*
X32513023Y-52648380D01*
X33465404Y-51648380D02*
X32989214Y-51648380D01*
X32941595Y-52124571D01*
X32989214Y-52076952D01*
X33084452Y-52029333D01*
X33322547Y-52029333D01*
X33417785Y-52076952D01*
X33465404Y-52124571D01*
X33513023Y-52219809D01*
X33513023Y-52457904D01*
X33465404Y-52553142D01*
X33417785Y-52600761D01*
X33322547Y-52648380D01*
X33084452Y-52648380D01*
X32989214Y-52600761D01*
X32941595Y-52553142D01*
X34370166Y-52648380D02*
X34370166Y-52124571D01*
X34322547Y-52029333D01*
X34227309Y-51981714D01*
X34036833Y-51981714D01*
X33941595Y-52029333D01*
X34370166Y-52600761D02*
X34274928Y-52648380D01*
X34036833Y-52648380D01*
X33941595Y-52600761D01*
X33893976Y-52505523D01*
X33893976Y-52410285D01*
X33941595Y-52315047D01*
X34036833Y-52267428D01*
X34274928Y-52267428D01*
X34370166Y-52219809D01*
D11*
G36*
X38800883Y-64239833D02*
G01*
X38813269Y-64245992D01*
X38946284Y-64343603D01*
X39014821Y-64475474D01*
X39031334Y-64630300D01*
X39007693Y-64809302D01*
X38929594Y-64935215D01*
X38820514Y-65010862D01*
X38639520Y-65068298D01*
X38464585Y-65044269D01*
X38386814Y-65008811D01*
X38264312Y-64912628D01*
X38200532Y-64779195D01*
X38191353Y-64685750D01*
X38275951Y-64685750D01*
X38326772Y-64818584D01*
X38430904Y-64917414D01*
X38548562Y-64976317D01*
X38648589Y-64979761D01*
X38772655Y-64929052D01*
X38774306Y-64928199D01*
X38867355Y-64863667D01*
X38920370Y-64797737D01*
X38943470Y-64639743D01*
X38902209Y-64490884D01*
X38809686Y-64372522D01*
X38679001Y-64306020D01*
X38614355Y-64298689D01*
X38460582Y-64333067D01*
X38348896Y-64422618D01*
X38285339Y-64546970D01*
X38275951Y-64685750D01*
X38191353Y-64685750D01*
X38184667Y-64617689D01*
X38221987Y-64447712D01*
X38321276Y-64313699D01*
X38463527Y-64226888D01*
X38629732Y-64198520D01*
X38800883Y-64239833D01*
G37*
X38800883Y-64239833D02*
X38813269Y-64245992D01*
X38946284Y-64343603D01*
X39014821Y-64475474D01*
X39031334Y-64630300D01*
X39007693Y-64809302D01*
X38929594Y-64935215D01*
X38820514Y-65010862D01*
X38639520Y-65068298D01*
X38464585Y-65044269D01*
X38386814Y-65008811D01*
X38264312Y-64912628D01*
X38200532Y-64779195D01*
X38191353Y-64685750D01*
X38275951Y-64685750D01*
X38326772Y-64818584D01*
X38430904Y-64917414D01*
X38548562Y-64976317D01*
X38648589Y-64979761D01*
X38772655Y-64929052D01*
X38774306Y-64928199D01*
X38867355Y-64863667D01*
X38920370Y-64797737D01*
X38943470Y-64639743D01*
X38902209Y-64490884D01*
X38809686Y-64372522D01*
X38679001Y-64306020D01*
X38614355Y-64298689D01*
X38460582Y-64333067D01*
X38348896Y-64422618D01*
X38285339Y-64546970D01*
X38275951Y-64685750D01*
X38191353Y-64685750D01*
X38184667Y-64617689D01*
X38221987Y-64447712D01*
X38321276Y-64313699D01*
X38463527Y-64226888D01*
X38629732Y-64198520D01*
X38800883Y-64239833D01*
G36*
X40876939Y-65112394D02*
G01*
X41000546Y-65209294D01*
X41097348Y-65341680D01*
X41145906Y-65485731D01*
X41148000Y-65519300D01*
X41130243Y-65643458D01*
X41065427Y-65753186D01*
X41004067Y-65819867D01*
X40848500Y-65932333D01*
X40684658Y-65962415D01*
X40555334Y-65933903D01*
X40422142Y-65847346D01*
X40317833Y-65712346D01*
X40277068Y-65602339D01*
X40279296Y-65547973D01*
X40378972Y-65547973D01*
X40425134Y-65696841D01*
X40537699Y-65809269D01*
X40549240Y-65815935D01*
X40702796Y-65858368D01*
X40850929Y-65818903D01*
X40967873Y-65718618D01*
X41049412Y-65576723D01*
X41048727Y-65440121D01*
X40995561Y-65335548D01*
X40875924Y-65226002D01*
X40733045Y-65183067D01*
X40589449Y-65204813D01*
X40467664Y-65289309D01*
X40406933Y-65385990D01*
X40378972Y-65547973D01*
X40279296Y-65547973D01*
X40284108Y-65430582D01*
X40359961Y-65275192D01*
X40488784Y-65153919D01*
X40654736Y-65084511D01*
X40747965Y-65074800D01*
X40876939Y-65112394D01*
G37*
X40876939Y-65112394D02*
X41000546Y-65209294D01*
X41097348Y-65341680D01*
X41145906Y-65485731D01*
X41148000Y-65519300D01*
X41130243Y-65643458D01*
X41065427Y-65753186D01*
X41004067Y-65819867D01*
X40848500Y-65932333D01*
X40684658Y-65962415D01*
X40555334Y-65933903D01*
X40422142Y-65847346D01*
X40317833Y-65712346D01*
X40277068Y-65602339D01*
X40279296Y-65547973D01*
X40378972Y-65547973D01*
X40425134Y-65696841D01*
X40537699Y-65809269D01*
X40549240Y-65815935D01*
X40702796Y-65858368D01*
X40850929Y-65818903D01*
X40967873Y-65718618D01*
X41049412Y-65576723D01*
X41048727Y-65440121D01*
X40995561Y-65335548D01*
X40875924Y-65226002D01*
X40733045Y-65183067D01*
X40589449Y-65204813D01*
X40467664Y-65289309D01*
X40406933Y-65385990D01*
X40378972Y-65547973D01*
X40279296Y-65547973D01*
X40284108Y-65430582D01*
X40359961Y-65275192D01*
X40488784Y-65153919D01*
X40654736Y-65084511D01*
X40747965Y-65074800D01*
X40876939Y-65112394D01*
G36*
X44676754Y-53775734D02*
G01*
X44662638Y-53891792D01*
X44632733Y-54052876D01*
X44600171Y-54198236D01*
X44458437Y-54863142D01*
X44365006Y-55479339D01*
X44317345Y-56065823D01*
X44309755Y-56375300D01*
X44313460Y-56714085D01*
X44330120Y-57024147D01*
X44362903Y-57319463D01*
X44414979Y-57614009D01*
X44489519Y-57921761D01*
X44589690Y-58256696D01*
X44718663Y-58632789D01*
X44879607Y-59064018D01*
X44975429Y-59310721D01*
X45154753Y-59774210D01*
X45302168Y-60172204D01*
X45420411Y-60516461D01*
X45512220Y-60818737D01*
X45580332Y-61090792D01*
X45627487Y-61344382D01*
X45656420Y-61591265D01*
X45669871Y-61843199D01*
X45670576Y-62111942D01*
X45666304Y-62277769D01*
X45636778Y-62768438D01*
X45579156Y-63212889D01*
X45487025Y-63646750D01*
X45353970Y-64105645D01*
X45316963Y-64218301D01*
X45068039Y-64834942D01*
X44752046Y-65402537D01*
X44372763Y-65917347D01*
X43933970Y-66375633D01*
X43439446Y-66773656D01*
X42892972Y-67107677D01*
X42298327Y-67373957D01*
X42035351Y-67464622D01*
X41804833Y-67532239D01*
X41647676Y-67565737D01*
X41559948Y-67565554D01*
X41537717Y-67532127D01*
X41541549Y-67519550D01*
X41563131Y-67468238D01*
X41613453Y-67349349D01*
X41688129Y-67173224D01*
X41782773Y-66950204D01*
X41892997Y-66690629D01*
X42014415Y-66404839D01*
X42039929Y-66344800D01*
X42196234Y-65973655D01*
X42319873Y-65670293D01*
X42413288Y-65425452D01*
X42478921Y-65229870D01*
X42519212Y-65074284D01*
X42536602Y-64949433D01*
X42533533Y-64846053D01*
X42512445Y-64754884D01*
X42479929Y-64675302D01*
X42426753Y-64580413D01*
X42357101Y-64495327D01*
X42260623Y-64413504D01*
X42126969Y-64328403D01*
X41945789Y-64233482D01*
X41706734Y-64122202D01*
X41399452Y-63988021D01*
X41377558Y-63978645D01*
X41116766Y-63866537D01*
X40923979Y-63781426D01*
X40789179Y-63717438D01*
X40702348Y-63668696D01*
X40653467Y-63629326D01*
X40632518Y-63593451D01*
X40629481Y-63555196D01*
X40630744Y-63540658D01*
X40642506Y-63457048D01*
X40666099Y-63309932D01*
X40698246Y-63119113D01*
X40735670Y-62904392D01*
X40740846Y-62875224D01*
X40776107Y-62671711D01*
X40803728Y-62502016D01*
X40821351Y-62381448D01*
X40826620Y-62325319D01*
X40825833Y-62323134D01*
X40797818Y-62355564D01*
X40729442Y-62444896D01*
X40629632Y-62579185D01*
X40507314Y-62746490D01*
X40442744Y-62835687D01*
X40309658Y-63016955D01*
X40191031Y-63172668D01*
X40096811Y-63290203D01*
X40036951Y-63356941D01*
X40023785Y-63367072D01*
X39971189Y-63357200D01*
X39853605Y-63318581D01*
X39683811Y-63255946D01*
X39474586Y-63174031D01*
X39238708Y-63077567D01*
X39211478Y-63066185D01*
X38896460Y-62937280D01*
X38645255Y-62843191D01*
X38445533Y-62781718D01*
X38284962Y-62750657D01*
X38151211Y-62747806D01*
X38031950Y-62770962D01*
X37914847Y-62817922D01*
X37890212Y-62830175D01*
X37764253Y-62912366D01*
X37659631Y-63010122D01*
X37643169Y-63031258D01*
X37605837Y-63099385D01*
X37540774Y-63234722D01*
X37452892Y-63426356D01*
X37347105Y-63663376D01*
X37228325Y-63934870D01*
X37101464Y-64229927D01*
X37066385Y-64312403D01*
X36940731Y-64606931D01*
X36824439Y-64876475D01*
X36721916Y-65111066D01*
X36637564Y-65300733D01*
X36575788Y-65435506D01*
X36540992Y-65505415D01*
X36536248Y-65512486D01*
X36499642Y-65496647D01*
X36435757Y-65418698D01*
X36353335Y-65293153D01*
X36261116Y-65134525D01*
X36167838Y-64957327D01*
X36082244Y-64776074D01*
X36055971Y-64714967D01*
X35840453Y-64094788D01*
X35704801Y-63462420D01*
X35658575Y-62931071D01*
X35758385Y-62931071D01*
X35826391Y-63558880D01*
X35975943Y-64176804D01*
X36032027Y-64345604D01*
X36100038Y-64526406D01*
X36181526Y-64724841D01*
X36268111Y-64922498D01*
X36351413Y-65100970D01*
X36423050Y-65241850D01*
X36474642Y-65326727D01*
X36483372Y-65336984D01*
X36507929Y-65309437D01*
X36558471Y-65215046D01*
X36629422Y-65065534D01*
X36715208Y-64872621D01*
X36805446Y-64659651D01*
X36931915Y-64355623D01*
X37037564Y-64104614D01*
X37133367Y-63881175D01*
X37230296Y-63659853D01*
X37339325Y-63415198D01*
X37404928Y-63269236D01*
X37445728Y-63168483D01*
X37464809Y-63101366D01*
X37465000Y-63097910D01*
X37493051Y-63049298D01*
X37565080Y-62965199D01*
X37627748Y-62901064D01*
X37793101Y-62777679D01*
X37995185Y-62681247D01*
X38197712Y-62627199D01*
X38286645Y-62620871D01*
X38379670Y-62639920D01*
X38547834Y-62695005D01*
X38789881Y-62785655D01*
X39104560Y-62911398D01*
X39490617Y-63071761D01*
X39543396Y-63094034D01*
X39991958Y-63283621D01*
X40340724Y-62796319D01*
X40479061Y-62600895D01*
X40573197Y-62460588D01*
X40629656Y-62362726D01*
X40654964Y-62294638D01*
X40655648Y-62243652D01*
X40643579Y-62208250D01*
X40598157Y-62028309D01*
X40601720Y-62005634D01*
X40682334Y-62005634D01*
X40711777Y-62115136D01*
X40767000Y-62196134D01*
X40867852Y-62260181D01*
X40957500Y-62280800D01*
X41067002Y-62251357D01*
X41148000Y-62196134D01*
X41218665Y-62072928D01*
X41223843Y-61932011D01*
X41162606Y-61807884D01*
X41053542Y-61741229D01*
X40926632Y-61737948D01*
X40806227Y-61788013D01*
X40716681Y-61881399D01*
X40682334Y-62005634D01*
X40601720Y-62005634D01*
X40623527Y-61866892D01*
X40710641Y-61739620D01*
X40850452Y-61662112D01*
X40969363Y-61645800D01*
X41128315Y-61680420D01*
X41247636Y-61771122D01*
X41319413Y-61898173D01*
X41335733Y-62041839D01*
X41288683Y-62182386D01*
X41217683Y-62265053D01*
X41117352Y-62332850D01*
X41027378Y-62365048D01*
X41019446Y-62365467D01*
X40944116Y-62402524D01*
X40918950Y-62460717D01*
X40859963Y-62766234D01*
X40811031Y-63039239D01*
X40773791Y-63269094D01*
X40749884Y-63445159D01*
X40740948Y-63556795D01*
X40744756Y-63591390D01*
X40798978Y-63633438D01*
X40812293Y-63635467D01*
X40872376Y-63651791D01*
X40977656Y-63693052D01*
X41032045Y-63716936D01*
X41140829Y-63765123D01*
X41305558Y-63836639D01*
X41504147Y-63921952D01*
X41714509Y-64011530D01*
X41721043Y-64014299D01*
X42018519Y-64149159D01*
X42244153Y-64274335D01*
X42408635Y-64399036D01*
X42522653Y-64532467D01*
X42596899Y-64683837D01*
X42628900Y-64796235D01*
X42644329Y-64914736D01*
X42636478Y-65048189D01*
X42602064Y-65209007D01*
X42537804Y-65409603D01*
X42440412Y-65662387D01*
X42330267Y-65924905D01*
X42222407Y-66176902D01*
X42110071Y-66441043D01*
X42004956Y-66689718D01*
X41918762Y-66895317D01*
X41901244Y-66937467D01*
X41829088Y-67111360D01*
X41767862Y-67258631D01*
X41725603Y-67359959D01*
X41711895Y-67392550D01*
X41705542Y-67428325D01*
X41734355Y-67440986D01*
X41810101Y-67428997D01*
X41944548Y-67390820D01*
X42096380Y-67342316D01*
X42638664Y-67125133D01*
X43159263Y-66838453D01*
X43641630Y-66493304D01*
X44069219Y-66100715D01*
X44234556Y-65917189D01*
X44388547Y-65734771D01*
X44495614Y-65606160D01*
X44563962Y-65520902D01*
X44601795Y-65468543D01*
X44617316Y-65438630D01*
X44619334Y-65426900D01*
X44644423Y-65376250D01*
X44679301Y-65332134D01*
X44751345Y-65228531D01*
X44842629Y-65062804D01*
X44945000Y-64852940D01*
X45050307Y-64616929D01*
X45150398Y-64372759D01*
X45237121Y-64138418D01*
X45281278Y-64003751D01*
X45407840Y-63546100D01*
X45494292Y-63116490D01*
X45545724Y-62681014D01*
X45567224Y-62205765D01*
X45568454Y-62090300D01*
X45564804Y-61805408D01*
X45548482Y-61542284D01*
X45516228Y-61287352D01*
X45464780Y-61027038D01*
X45390877Y-60747767D01*
X45291258Y-60435966D01*
X45162662Y-60078058D01*
X45001827Y-59660470D01*
X44958242Y-59550300D01*
X44756448Y-59029679D01*
X44590924Y-58571954D01*
X44458792Y-58164950D01*
X44357176Y-57796491D01*
X44283198Y-57454399D01*
X44233981Y-57126501D01*
X44206648Y-56800618D01*
X44198321Y-56464575D01*
X44199417Y-56339072D01*
X44219497Y-55932806D01*
X44264569Y-55478412D01*
X44330233Y-55007163D01*
X44412087Y-54550333D01*
X44505732Y-54139194D01*
X44512746Y-54112435D01*
X44544156Y-53985119D01*
X44561651Y-53896564D01*
X44562614Y-53870303D01*
X44525247Y-53888147D01*
X44432313Y-53945682D01*
X44297396Y-54033748D01*
X44134081Y-54143185D01*
X43955952Y-54264833D01*
X43776594Y-54389532D01*
X43609592Y-54508121D01*
X43518667Y-54574228D01*
X43367790Y-54683473D01*
X43215795Y-54790738D01*
X43119819Y-54856450D01*
X43010673Y-54930604D01*
X42928150Y-54988848D01*
X42908153Y-55003945D01*
X42769944Y-55112902D01*
X42639918Y-55210494D01*
X42496495Y-55312147D01*
X42318092Y-55433289D01*
X42164000Y-55535851D01*
X41993998Y-55647999D01*
X41845618Y-55744169D01*
X41707219Y-55831005D01*
X41567163Y-55915153D01*
X41413811Y-56003257D01*
X41235524Y-56101963D01*
X41020662Y-56217915D01*
X40757585Y-56357758D01*
X40434656Y-56528138D01*
X40322500Y-56587181D01*
X40125940Y-56691977D01*
X39941413Y-56792749D01*
X39790457Y-56877594D01*
X39698925Y-56931865D01*
X39597487Y-56992459D01*
X39527976Y-57027773D01*
X39515154Y-57031467D01*
X39472840Y-57053491D01*
X39382388Y-57110141D01*
X39264878Y-57187284D01*
X39141387Y-57270786D01*
X39032995Y-57346513D01*
X38960781Y-57400332D01*
X38946667Y-57412640D01*
X38906262Y-57446642D01*
X38815105Y-57520458D01*
X38688891Y-57621432D01*
X38608000Y-57685716D01*
X38123207Y-58105561D01*
X37651115Y-58582167D01*
X37206579Y-59097609D01*
X36804454Y-59633960D01*
X36459597Y-60173295D01*
X36291050Y-60481634D01*
X36038257Y-61068657D01*
X35864856Y-61677927D01*
X35771386Y-62301409D01*
X35758385Y-62931071D01*
X35658575Y-62931071D01*
X35649385Y-62825439D01*
X35674577Y-62191422D01*
X35780749Y-61567946D01*
X35883727Y-61201300D01*
X36000000Y-60894182D01*
X36159644Y-60546045D01*
X36350438Y-60179732D01*
X36560160Y-59818083D01*
X36776590Y-59483941D01*
X36880305Y-59338634D01*
X37072126Y-59096490D01*
X37309448Y-58823294D01*
X37578157Y-58533170D01*
X37864141Y-58240246D01*
X38153287Y-57958647D01*
X38431484Y-57702500D01*
X38684617Y-57485931D01*
X38883167Y-57333833D01*
X39098421Y-57186141D01*
X39323620Y-57040544D01*
X39570915Y-56889922D01*
X39852459Y-56727160D01*
X40180401Y-56545140D01*
X40566894Y-56336745D01*
X40767000Y-56230431D01*
X41296435Y-55939697D01*
X41792850Y-55643614D01*
X42284035Y-55324692D01*
X42797784Y-54965436D01*
X42934645Y-54866070D01*
X43215126Y-54663585D01*
X43494118Y-54466763D01*
X43762900Y-54281344D01*
X44012748Y-54113063D01*
X44234940Y-53967659D01*
X44420753Y-53850869D01*
X44561464Y-53768429D01*
X44648351Y-53726078D01*
X44672282Y-53723149D01*
X44676754Y-53775734D01*
G37*
X44676754Y-53775734D02*
X44662638Y-53891792D01*
X44632733Y-54052876D01*
X44600171Y-54198236D01*
X44458437Y-54863142D01*
X44365006Y-55479339D01*
X44317345Y-56065823D01*
X44309755Y-56375300D01*
X44313460Y-56714085D01*
X44330120Y-57024147D01*
X44362903Y-57319463D01*
X44414979Y-57614009D01*
X44489519Y-57921761D01*
X44589690Y-58256696D01*
X44718663Y-58632789D01*
X44879607Y-59064018D01*
X44975429Y-59310721D01*
X45154753Y-59774210D01*
X45302168Y-60172204D01*
X45420411Y-60516461D01*
X45512220Y-60818737D01*
X45580332Y-61090792D01*
X45627487Y-61344382D01*
X45656420Y-61591265D01*
X45669871Y-61843199D01*
X45670576Y-62111942D01*
X45666304Y-62277769D01*
X45636778Y-62768438D01*
X45579156Y-63212889D01*
X45487025Y-63646750D01*
X45353970Y-64105645D01*
X45316963Y-64218301D01*
X45068039Y-64834942D01*
X44752046Y-65402537D01*
X44372763Y-65917347D01*
X43933970Y-66375633D01*
X43439446Y-66773656D01*
X42892972Y-67107677D01*
X42298327Y-67373957D01*
X42035351Y-67464622D01*
X41804833Y-67532239D01*
X41647676Y-67565737D01*
X41559948Y-67565554D01*
X41537717Y-67532127D01*
X41541549Y-67519550D01*
X41563131Y-67468238D01*
X41613453Y-67349349D01*
X41688129Y-67173224D01*
X41782773Y-66950204D01*
X41892997Y-66690629D01*
X42014415Y-66404839D01*
X42039929Y-66344800D01*
X42196234Y-65973655D01*
X42319873Y-65670293D01*
X42413288Y-65425452D01*
X42478921Y-65229870D01*
X42519212Y-65074284D01*
X42536602Y-64949433D01*
X42533533Y-64846053D01*
X42512445Y-64754884D01*
X42479929Y-64675302D01*
X42426753Y-64580413D01*
X42357101Y-64495327D01*
X42260623Y-64413504D01*
X42126969Y-64328403D01*
X41945789Y-64233482D01*
X41706734Y-64122202D01*
X41399452Y-63988021D01*
X41377558Y-63978645D01*
X41116766Y-63866537D01*
X40923979Y-63781426D01*
X40789179Y-63717438D01*
X40702348Y-63668696D01*
X40653467Y-63629326D01*
X40632518Y-63593451D01*
X40629481Y-63555196D01*
X40630744Y-63540658D01*
X40642506Y-63457048D01*
X40666099Y-63309932D01*
X40698246Y-63119113D01*
X40735670Y-62904392D01*
X40740846Y-62875224D01*
X40776107Y-62671711D01*
X40803728Y-62502016D01*
X40821351Y-62381448D01*
X40826620Y-62325319D01*
X40825833Y-62323134D01*
X40797818Y-62355564D01*
X40729442Y-62444896D01*
X40629632Y-62579185D01*
X40507314Y-62746490D01*
X40442744Y-62835687D01*
X40309658Y-63016955D01*
X40191031Y-63172668D01*
X40096811Y-63290203D01*
X40036951Y-63356941D01*
X40023785Y-63367072D01*
X39971189Y-63357200D01*
X39853605Y-63318581D01*
X39683811Y-63255946D01*
X39474586Y-63174031D01*
X39238708Y-63077567D01*
X39211478Y-63066185D01*
X38896460Y-62937280D01*
X38645255Y-62843191D01*
X38445533Y-62781718D01*
X38284962Y-62750657D01*
X38151211Y-62747806D01*
X38031950Y-62770962D01*
X37914847Y-62817922D01*
X37890212Y-62830175D01*
X37764253Y-62912366D01*
X37659631Y-63010122D01*
X37643169Y-63031258D01*
X37605837Y-63099385D01*
X37540774Y-63234722D01*
X37452892Y-63426356D01*
X37347105Y-63663376D01*
X37228325Y-63934870D01*
X37101464Y-64229927D01*
X37066385Y-64312403D01*
X36940731Y-64606931D01*
X36824439Y-64876475D01*
X36721916Y-65111066D01*
X36637564Y-65300733D01*
X36575788Y-65435506D01*
X36540992Y-65505415D01*
X36536248Y-65512486D01*
X36499642Y-65496647D01*
X36435757Y-65418698D01*
X36353335Y-65293153D01*
X36261116Y-65134525D01*
X36167838Y-64957327D01*
X36082244Y-64776074D01*
X36055971Y-64714967D01*
X35840453Y-64094788D01*
X35704801Y-63462420D01*
X35658575Y-62931071D01*
X35758385Y-62931071D01*
X35826391Y-63558880D01*
X35975943Y-64176804D01*
X36032027Y-64345604D01*
X36100038Y-64526406D01*
X36181526Y-64724841D01*
X36268111Y-64922498D01*
X36351413Y-65100970D01*
X36423050Y-65241850D01*
X36474642Y-65326727D01*
X36483372Y-65336984D01*
X36507929Y-65309437D01*
X36558471Y-65215046D01*
X36629422Y-65065534D01*
X36715208Y-64872621D01*
X36805446Y-64659651D01*
X36931915Y-64355623D01*
X37037564Y-64104614D01*
X37133367Y-63881175D01*
X37230296Y-63659853D01*
X37339325Y-63415198D01*
X37404928Y-63269236D01*
X37445728Y-63168483D01*
X37464809Y-63101366D01*
X37465000Y-63097910D01*
X37493051Y-63049298D01*
X37565080Y-62965199D01*
X37627748Y-62901064D01*
X37793101Y-62777679D01*
X37995185Y-62681247D01*
X38197712Y-62627199D01*
X38286645Y-62620871D01*
X38379670Y-62639920D01*
X38547834Y-62695005D01*
X38789881Y-62785655D01*
X39104560Y-62911398D01*
X39490617Y-63071761D01*
X39543396Y-63094034D01*
X39991958Y-63283621D01*
X40340724Y-62796319D01*
X40479061Y-62600895D01*
X40573197Y-62460588D01*
X40629656Y-62362726D01*
X40654964Y-62294638D01*
X40655648Y-62243652D01*
X40643579Y-62208250D01*
X40598157Y-62028309D01*
X40601720Y-62005634D01*
X40682334Y-62005634D01*
X40711777Y-62115136D01*
X40767000Y-62196134D01*
X40867852Y-62260181D01*
X40957500Y-62280800D01*
X41067002Y-62251357D01*
X41148000Y-62196134D01*
X41218665Y-62072928D01*
X41223843Y-61932011D01*
X41162606Y-61807884D01*
X41053542Y-61741229D01*
X40926632Y-61737948D01*
X40806227Y-61788013D01*
X40716681Y-61881399D01*
X40682334Y-62005634D01*
X40601720Y-62005634D01*
X40623527Y-61866892D01*
X40710641Y-61739620D01*
X40850452Y-61662112D01*
X40969363Y-61645800D01*
X41128315Y-61680420D01*
X41247636Y-61771122D01*
X41319413Y-61898173D01*
X41335733Y-62041839D01*
X41288683Y-62182386D01*
X41217683Y-62265053D01*
X41117352Y-62332850D01*
X41027378Y-62365048D01*
X41019446Y-62365467D01*
X40944116Y-62402524D01*
X40918950Y-62460717D01*
X40859963Y-62766234D01*
X40811031Y-63039239D01*
X40773791Y-63269094D01*
X40749884Y-63445159D01*
X40740948Y-63556795D01*
X40744756Y-63591390D01*
X40798978Y-63633438D01*
X40812293Y-63635467D01*
X40872376Y-63651791D01*
X40977656Y-63693052D01*
X41032045Y-63716936D01*
X41140829Y-63765123D01*
X41305558Y-63836639D01*
X41504147Y-63921952D01*
X41714509Y-64011530D01*
X41721043Y-64014299D01*
X42018519Y-64149159D01*
X42244153Y-64274335D01*
X42408635Y-64399036D01*
X42522653Y-64532467D01*
X42596899Y-64683837D01*
X42628900Y-64796235D01*
X42644329Y-64914736D01*
X42636478Y-65048189D01*
X42602064Y-65209007D01*
X42537804Y-65409603D01*
X42440412Y-65662387D01*
X42330267Y-65924905D01*
X42222407Y-66176902D01*
X42110071Y-66441043D01*
X42004956Y-66689718D01*
X41918762Y-66895317D01*
X41901244Y-66937467D01*
X41829088Y-67111360D01*
X41767862Y-67258631D01*
X41725603Y-67359959D01*
X41711895Y-67392550D01*
X41705542Y-67428325D01*
X41734355Y-67440986D01*
X41810101Y-67428997D01*
X41944548Y-67390820D01*
X42096380Y-67342316D01*
X42638664Y-67125133D01*
X43159263Y-66838453D01*
X43641630Y-66493304D01*
X44069219Y-66100715D01*
X44234556Y-65917189D01*
X44388547Y-65734771D01*
X44495614Y-65606160D01*
X44563962Y-65520902D01*
X44601795Y-65468543D01*
X44617316Y-65438630D01*
X44619334Y-65426900D01*
X44644423Y-65376250D01*
X44679301Y-65332134D01*
X44751345Y-65228531D01*
X44842629Y-65062804D01*
X44945000Y-64852940D01*
X45050307Y-64616929D01*
X45150398Y-64372759D01*
X45237121Y-64138418D01*
X45281278Y-64003751D01*
X45407840Y-63546100D01*
X45494292Y-63116490D01*
X45545724Y-62681014D01*
X45567224Y-62205765D01*
X45568454Y-62090300D01*
X45564804Y-61805408D01*
X45548482Y-61542284D01*
X45516228Y-61287352D01*
X45464780Y-61027038D01*
X45390877Y-60747767D01*
X45291258Y-60435966D01*
X45162662Y-60078058D01*
X45001827Y-59660470D01*
X44958242Y-59550300D01*
X44756448Y-59029679D01*
X44590924Y-58571954D01*
X44458792Y-58164950D01*
X44357176Y-57796491D01*
X44283198Y-57454399D01*
X44233981Y-57126501D01*
X44206648Y-56800618D01*
X44198321Y-56464575D01*
X44199417Y-56339072D01*
X44219497Y-55932806D01*
X44264569Y-55478412D01*
X44330233Y-55007163D01*
X44412087Y-54550333D01*
X44505732Y-54139194D01*
X44512746Y-54112435D01*
X44544156Y-53985119D01*
X44561651Y-53896564D01*
X44562614Y-53870303D01*
X44525247Y-53888147D01*
X44432313Y-53945682D01*
X44297396Y-54033748D01*
X44134081Y-54143185D01*
X43955952Y-54264833D01*
X43776594Y-54389532D01*
X43609592Y-54508121D01*
X43518667Y-54574228D01*
X43367790Y-54683473D01*
X43215795Y-54790738D01*
X43119819Y-54856450D01*
X43010673Y-54930604D01*
X42928150Y-54988848D01*
X42908153Y-55003945D01*
X42769944Y-55112902D01*
X42639918Y-55210494D01*
X42496495Y-55312147D01*
X42318092Y-55433289D01*
X42164000Y-55535851D01*
X41993998Y-55647999D01*
X41845618Y-55744169D01*
X41707219Y-55831005D01*
X41567163Y-55915153D01*
X41413811Y-56003257D01*
X41235524Y-56101963D01*
X41020662Y-56217915D01*
X40757585Y-56357758D01*
X40434656Y-56528138D01*
X40322500Y-56587181D01*
X40125940Y-56691977D01*
X39941413Y-56792749D01*
X39790457Y-56877594D01*
X39698925Y-56931865D01*
X39597487Y-56992459D01*
X39527976Y-57027773D01*
X39515154Y-57031467D01*
X39472840Y-57053491D01*
X39382388Y-57110141D01*
X39264878Y-57187284D01*
X39141387Y-57270786D01*
X39032995Y-57346513D01*
X38960781Y-57400332D01*
X38946667Y-57412640D01*
X38906262Y-57446642D01*
X38815105Y-57520458D01*
X38688891Y-57621432D01*
X38608000Y-57685716D01*
X38123207Y-58105561D01*
X37651115Y-58582167D01*
X37206579Y-59097609D01*
X36804454Y-59633960D01*
X36459597Y-60173295D01*
X36291050Y-60481634D01*
X36038257Y-61068657D01*
X35864856Y-61677927D01*
X35771386Y-62301409D01*
X35758385Y-62931071D01*
X35658575Y-62931071D01*
X35649385Y-62825439D01*
X35674577Y-62191422D01*
X35780749Y-61567946D01*
X35883727Y-61201300D01*
X36000000Y-60894182D01*
X36159644Y-60546045D01*
X36350438Y-60179732D01*
X36560160Y-59818083D01*
X36776590Y-59483941D01*
X36880305Y-59338634D01*
X37072126Y-59096490D01*
X37309448Y-58823294D01*
X37578157Y-58533170D01*
X37864141Y-58240246D01*
X38153287Y-57958647D01*
X38431484Y-57702500D01*
X38684617Y-57485931D01*
X38883167Y-57333833D01*
X39098421Y-57186141D01*
X39323620Y-57040544D01*
X39570915Y-56889922D01*
X39852459Y-56727160D01*
X40180401Y-56545140D01*
X40566894Y-56336745D01*
X40767000Y-56230431D01*
X41296435Y-55939697D01*
X41792850Y-55643614D01*
X42284035Y-55324692D01*
X42797784Y-54965436D01*
X42934645Y-54866070D01*
X43215126Y-54663585D01*
X43494118Y-54466763D01*
X43762900Y-54281344D01*
X44012748Y-54113063D01*
X44234940Y-53967659D01*
X44420753Y-53850869D01*
X44561464Y-53768429D01*
X44648351Y-53726078D01*
X44672282Y-53723149D01*
X44676754Y-53775734D01*
D12*
X176385000Y-168918800D02*
G75*
G03X176385000Y-168918800I-200000J0D01*
G01*
D13*
X173450000Y-169968800D02*
X182150000Y-169968800D01*
X173450000Y-174118800D02*
X173450000Y-169968800D01*
X173450000Y-179568800D02*
X173450000Y-177518800D01*
X182150000Y-179568800D02*
X173450000Y-179568800D01*
X182150000Y-177518800D02*
X182150000Y-179568800D01*
X182150000Y-169968800D02*
X182150000Y-174118800D01*
D12*
X201785000Y-168918800D02*
G75*
G03X201785000Y-168918800I-200000J0D01*
G01*
D13*
X198850000Y-169968800D02*
X207550000Y-169968800D01*
X198850000Y-174118800D02*
X198850000Y-169968800D01*
X198850000Y-179568800D02*
X198850000Y-177518800D01*
X207550000Y-179568800D02*
X198850000Y-179568800D01*
X207550000Y-177518800D02*
X207550000Y-179568800D01*
X207550000Y-169968800D02*
X207550000Y-174118800D01*
D12*
X265285000Y-168918800D02*
G75*
G03X265285000Y-168918800I-200000J0D01*
G01*
D13*
X262350000Y-169968800D02*
X271050000Y-169968800D01*
X262350000Y-174118800D02*
X262350000Y-169968800D01*
X262350000Y-179568800D02*
X262350000Y-177518800D01*
X271050000Y-179568800D02*
X262350000Y-179568800D01*
X271050000Y-177518800D02*
X271050000Y-179568800D01*
X271050000Y-169968800D02*
X271050000Y-174118800D01*
D12*
X328785000Y-168918800D02*
G75*
G03X328785000Y-168918800I-200000J0D01*
G01*
D13*
X325850000Y-169968800D02*
X334550000Y-169968800D01*
X325850000Y-174118800D02*
X325850000Y-169968800D01*
X325850000Y-179568800D02*
X325850000Y-177518800D01*
X334550000Y-179568800D02*
X325850000Y-179568800D01*
X334550000Y-177518800D02*
X334550000Y-179568800D01*
X334550000Y-169968800D02*
X334550000Y-174118800D01*
D12*
X220835000Y-168918800D02*
G75*
G03X220835000Y-168918800I-200000J0D01*
G01*
D13*
X217900000Y-169968800D02*
X226600000Y-169968800D01*
X217900000Y-174118800D02*
X217900000Y-169968800D01*
X217900000Y-179568800D02*
X217900000Y-177518800D01*
X226600000Y-179568800D02*
X217900000Y-179568800D01*
X226600000Y-177518800D02*
X226600000Y-179568800D01*
X226600000Y-169968800D02*
X226600000Y-174118800D01*
D12*
X284335000Y-168918800D02*
G75*
G03X284335000Y-168918800I-200000J0D01*
G01*
D13*
X281400000Y-169968800D02*
X290100000Y-169968800D01*
X281400000Y-174118800D02*
X281400000Y-169968800D01*
X281400000Y-179568800D02*
X281400000Y-177518800D01*
X290100000Y-179568800D02*
X281400000Y-179568800D01*
X290100000Y-177518800D02*
X290100000Y-179568800D01*
X290100000Y-169968800D02*
X290100000Y-174118800D01*
D12*
X239885000Y-168918800D02*
G75*
G03X239885000Y-168918800I-200000J0D01*
G01*
D13*
X236950000Y-169968800D02*
X245650000Y-169968800D01*
X236950000Y-174118800D02*
X236950000Y-169968800D01*
X236950000Y-179568800D02*
X236950000Y-177518800D01*
X245650000Y-179568800D02*
X236950000Y-179568800D01*
X245650000Y-177518800D02*
X245650000Y-179568800D01*
X245650000Y-169968800D02*
X245650000Y-174118800D01*
D12*
X309735000Y-168918800D02*
G75*
G03X309735000Y-168918800I-200000J0D01*
G01*
D13*
X306800000Y-169968800D02*
X315500000Y-169968800D01*
X306800000Y-174118800D02*
X306800000Y-169968800D01*
X306800000Y-179568800D02*
X306800000Y-177518800D01*
X315500000Y-179568800D02*
X306800000Y-179568800D01*
X315500000Y-177518800D02*
X315500000Y-179568800D01*
X315500000Y-169968800D02*
X315500000Y-174118800D01*
D14*
X141398400Y-145221600D02*
X141398400Y-145621600D01*
X141798400Y-145221600D02*
X141398400Y-145221600D01*
X141208400Y-151201600D02*
X142208400Y-152201600D01*
X141208400Y-150901600D02*
X141208400Y-151201600D01*
X142208400Y-152201600D02*
X142208400Y-152571600D01*
X142208400Y-152581600D02*
X142208400Y-152831600D01*
X162308400Y-145301600D02*
X162108400Y-145301600D01*
X162308400Y-145601600D02*
X162308400Y-145301600D01*
X162308400Y-152201600D02*
X162308400Y-151901600D01*
X162108400Y-152201600D02*
X162308400Y-152201600D01*
D15*
X245136800Y-164515800D02*
X244366800Y-164515800D01*
X237056800Y-164515800D02*
X237826800Y-164515800D01*
X244366800Y-163145800D02*
X237826800Y-163145800D01*
X244366800Y-165885800D02*
X244366800Y-163145800D01*
X237826800Y-165885800D02*
X244366800Y-165885800D01*
X237826800Y-163145800D02*
X237826800Y-165885800D01*
X181840000Y-165404800D02*
X181070000Y-165404800D01*
X173760000Y-165404800D02*
X174530000Y-165404800D01*
X181070000Y-164034800D02*
X174530000Y-164034800D01*
X181070000Y-166774800D02*
X181070000Y-164034800D01*
X174530000Y-166774800D02*
X181070000Y-166774800D01*
X174530000Y-164034800D02*
X174530000Y-166774800D01*
D16*
X141923000Y-58152000D02*
G75*
G03X141923000Y-58152000I-200000J0D01*
G01*
D13*
X174183000Y-43472000D02*
X143063000Y-43472000D01*
X174183000Y-74592000D02*
X174183000Y-43472000D01*
X143063000Y-74592000D02*
X174183000Y-74592000D01*
X143063000Y-43472000D02*
X143063000Y-74592000D01*
D15*
X172901000Y-117256000D02*
X175841000Y-117256000D01*
X172901000Y-117016000D02*
X175841000Y-117016000D01*
X172901000Y-117136000D02*
X175841000Y-117136000D01*
X174371000Y-111576000D02*
X174371000Y-112596000D01*
X174371000Y-119056000D02*
X174371000Y-118036000D01*
X172901000Y-112596000D02*
X172901000Y-118036000D01*
X175841000Y-112596000D02*
X172901000Y-112596000D01*
X175841000Y-118036000D02*
X175841000Y-112596000D01*
X172901000Y-118036000D02*
X175841000Y-118036000D01*
D12*
X276310000Y-110236000D02*
G75*
G03X276310000Y-110236000I-100000J0D01*
G01*
D17*
X302560000Y-84836000D02*
X275130000Y-84836000D01*
X302560000Y-97636000D02*
X302560000Y-84836000D01*
X297780000Y-97636000D02*
X302560000Y-97636000D01*
X297780000Y-117346000D02*
X297780000Y-97636000D01*
X277490000Y-117346000D02*
X297780000Y-117346000D01*
X277490000Y-102436000D02*
X277490000Y-117346000D01*
X275130000Y-102436000D02*
X277490000Y-102436000D01*
X275130000Y-84836000D02*
X275130000Y-102436000D01*
D16*
X174943000Y-58152000D02*
G75*
G03X174943000Y-58152000I-200000J0D01*
G01*
D13*
X207203000Y-43472000D02*
X176083000Y-43472000D01*
X207203000Y-74592000D02*
X207203000Y-43472000D01*
X176083000Y-74592000D02*
X207203000Y-74592000D01*
X176083000Y-43472000D02*
X176083000Y-74592000D01*
D12*
X378593000Y-79448000D02*
G75*
G03X378593000Y-79448000I-150000J0D01*
G01*
D13*
X379143000Y-63048000D02*
X379143000Y-81448000D01*
X379143000Y-89348000D02*
X379143000Y-81448000D01*
X389743000Y-97248000D02*
G75*
G02X379143000Y-89348000I341185J11519184D01*
G01*
X398143000Y-97248000D02*
X389743000Y-97248000D01*
X379143000Y-55048000D02*
X379143000Y-63048000D01*
X389742999Y-47248000D02*
G75*
G03X379143000Y-55048000I269778J-11469184D01*
G01*
X398143000Y-47248000D02*
X389743000Y-47248000D01*
X401143000Y-87148000D02*
X398143000Y-87148000D01*
X401143000Y-57348000D02*
X398143000Y-57348000D01*
X401143000Y-57348000D02*
X401143000Y-87148000D01*
X398143000Y-87148000D02*
X398143000Y-97248000D01*
X398143000Y-57348000D02*
X398143000Y-87148000D01*
X398143000Y-47248000D02*
X398143000Y-57348000D01*
D15*
X393076000Y-104063800D02*
X354076000Y-104063800D01*
X393076000Y-173563800D02*
X393076000Y-104063800D01*
X354076000Y-173563800D02*
X393076000Y-173563800D01*
X354076000Y-104063800D02*
X354076000Y-173563800D01*
D16*
X274003000Y-58152000D02*
G75*
G03X274003000Y-58152000I-200000J0D01*
G01*
D13*
X306263000Y-43472000D02*
X275143000Y-43472000D01*
X306263000Y-74592000D02*
X306263000Y-43472000D01*
X275143000Y-74592000D02*
X306263000Y-74592000D01*
X275143000Y-43472000D02*
X275143000Y-74592000D01*
D16*
X240983000Y-58152000D02*
G75*
G03X240983000Y-58152000I-200000J0D01*
G01*
D13*
X273243000Y-43472000D02*
X242123000Y-43472000D01*
X273243000Y-74592000D02*
X273243000Y-43472000D01*
X242123000Y-74592000D02*
X273243000Y-74592000D01*
X242123000Y-43472000D02*
X242123000Y-74592000D01*
D16*
X208090000Y-58152000D02*
G75*
G03X208090000Y-58152000I-200000J0D01*
G01*
D13*
X240350000Y-43472000D02*
X209230000Y-43472000D01*
X240350000Y-74592000D02*
X240350000Y-43472000D01*
X209230000Y-74592000D02*
X240350000Y-74592000D01*
X209230000Y-43472000D02*
X209230000Y-74592000D01*
D12*
X243417000Y-110236000D02*
G75*
G03X243417000Y-110236000I-100000J0D01*
G01*
D17*
X269667000Y-84836000D02*
X242237000Y-84836000D01*
X269667000Y-97636000D02*
X269667000Y-84836000D01*
X264887000Y-97636000D02*
X269667000Y-97636000D01*
X264887000Y-117346000D02*
X264887000Y-97636000D01*
X244597000Y-117346000D02*
X264887000Y-117346000D01*
X244597000Y-102436000D02*
X244597000Y-117346000D01*
X242237000Y-102436000D02*
X244597000Y-102436000D01*
X242237000Y-84836000D02*
X242237000Y-102436000D01*
D13*
X106910000Y-163092000D02*
X106910000Y-164592000D01*
X68350000Y-163092000D02*
X106910000Y-163092000D01*
X68350000Y-166092000D02*
X68350000Y-163092000D01*
X71910000Y-166092000D02*
X68350000Y-166092000D01*
X106910000Y-166092000D02*
X71920000Y-166092000D01*
X106910000Y-164602000D02*
X106910000Y-166092000D01*
X106910000Y-164592000D02*
X106910000Y-164602000D01*
X68350000Y-150852000D02*
X68350000Y-149352000D01*
X106910000Y-150852000D02*
X68350000Y-150852000D01*
X106910000Y-147852000D02*
X106910000Y-150852000D01*
X103350000Y-147852000D02*
X106910000Y-147852000D01*
X68350000Y-147852000D02*
X103340000Y-147852000D01*
X68350000Y-149342000D02*
X68350000Y-147852000D01*
X68350000Y-149352000D02*
X68350000Y-149342000D01*
D15*
X225756600Y-164414200D02*
X224986600Y-164414200D01*
X217676600Y-164414200D02*
X218446600Y-164414200D01*
X224986600Y-163044200D02*
X218446600Y-163044200D01*
X224986600Y-165784200D02*
X224986600Y-163044200D01*
X218446600Y-165784200D02*
X224986600Y-165784200D01*
X218446600Y-163044200D02*
X218446600Y-165784200D01*
X206960600Y-164566600D02*
X206190600Y-164566600D01*
X198880600Y-164566600D02*
X199650600Y-164566600D01*
X206190600Y-163196600D02*
X199650600Y-163196600D01*
X206190600Y-165936600D02*
X206190600Y-163196600D01*
X199650600Y-165936600D02*
X206190600Y-165936600D01*
X199650600Y-163196600D02*
X199650600Y-165936600D01*
X297791000Y-127508000D02*
X297021000Y-127508000D01*
X289711000Y-127508000D02*
X290481000Y-127508000D01*
X297021000Y-126138000D02*
X290481000Y-126138000D01*
X297021000Y-128878000D02*
X297021000Y-126138000D01*
X290481000Y-128878000D02*
X297021000Y-128878000D01*
X290481000Y-126138000D02*
X290481000Y-128878000D01*
X264771000Y-128016000D02*
X264001000Y-128016000D01*
X256691000Y-128016000D02*
X257461000Y-128016000D01*
X264001000Y-126646000D02*
X257461000Y-126646000D01*
X264001000Y-129386000D02*
X264001000Y-126646000D01*
X257461000Y-129386000D02*
X264001000Y-129386000D01*
X257461000Y-126646000D02*
X257461000Y-129386000D01*
X231751000Y-128016000D02*
X230981000Y-128016000D01*
X223671000Y-128016000D02*
X224441000Y-128016000D01*
X230981000Y-126646000D02*
X224441000Y-126646000D01*
X230981000Y-129386000D02*
X230981000Y-126646000D01*
X224441000Y-129386000D02*
X230981000Y-129386000D01*
X224441000Y-126646000D02*
X224441000Y-129386000D01*
X198731000Y-128016000D02*
X197961000Y-128016000D01*
X190651000Y-128016000D02*
X191421000Y-128016000D01*
X197961000Y-126646000D02*
X191421000Y-126646000D01*
X197961000Y-129386000D02*
X197961000Y-126646000D01*
X191421000Y-129386000D02*
X197961000Y-129386000D01*
X191421000Y-126646000D02*
X191421000Y-129386000D01*
X165711000Y-128016000D02*
X164941000Y-128016000D01*
X157631000Y-128016000D02*
X158401000Y-128016000D01*
X164941000Y-126646000D02*
X158401000Y-126646000D01*
X164941000Y-129386000D02*
X164941000Y-126646000D01*
X158401000Y-129386000D02*
X164941000Y-129386000D01*
X158401000Y-126646000D02*
X158401000Y-129386000D01*
D12*
X210397000Y-110236000D02*
G75*
G03X210397000Y-110236000I-100000J0D01*
G01*
D17*
X236647000Y-84836000D02*
X209217000Y-84836000D01*
X236647000Y-97636000D02*
X236647000Y-84836000D01*
X231867000Y-97636000D02*
X236647000Y-97636000D01*
X231867000Y-117346000D02*
X231867000Y-97636000D01*
X211577000Y-117346000D02*
X231867000Y-117346000D01*
X211577000Y-102436000D02*
X211577000Y-117346000D01*
X209217000Y-102436000D02*
X211577000Y-102436000D01*
X209217000Y-84836000D02*
X209217000Y-102436000D01*
D12*
X177377000Y-110236000D02*
G75*
G03X177377000Y-110236000I-100000J0D01*
G01*
D17*
X203627000Y-84836000D02*
X176197000Y-84836000D01*
X203627000Y-97636000D02*
X203627000Y-84836000D01*
X198847000Y-97636000D02*
X203627000Y-97636000D01*
X198847000Y-117346000D02*
X198847000Y-97636000D01*
X178557000Y-117346000D02*
X198847000Y-117346000D01*
X178557000Y-102436000D02*
X178557000Y-117346000D01*
X176197000Y-102436000D02*
X178557000Y-102436000D01*
X176197000Y-84836000D02*
X176197000Y-102436000D01*
D12*
X144357000Y-110236000D02*
G75*
G03X144357000Y-110236000I-100000J0D01*
G01*
D17*
X170607000Y-84836000D02*
X143177000Y-84836000D01*
X170607000Y-97636000D02*
X170607000Y-84836000D01*
X165827000Y-97636000D02*
X170607000Y-97636000D01*
X165827000Y-117346000D02*
X165827000Y-97636000D01*
X145537000Y-117346000D02*
X165827000Y-117346000D01*
X145537000Y-102436000D02*
X145537000Y-117346000D01*
X143177000Y-102436000D02*
X145537000Y-102436000D01*
X143177000Y-84836000D02*
X143177000Y-102436000D01*
D12*
X87097800Y-85420200D02*
G75*
G03X87097800Y-85420200I-100000J0D01*
G01*
D13*
X85637800Y-87690200D02*
X82357800Y-87690200D01*
X82357800Y-83150200D02*
X85637800Y-83150200D01*
X82357800Y-87690200D02*
G75*
G02X82357800Y-83150200I2270000J2270000D01*
G01*
X85637800Y-87690200D02*
G75*
G03X85637800Y-83150200I-2270000J2270000D01*
G01*
D18*
X286059000Y-129608000D02*
G75*
G03X286059000Y-129608000I-100000J0D01*
G01*
D13*
X285559000Y-127508000D02*
G75*
G03X285559000Y-127508000I-4000000J0D01*
G01*
D15*
X271961000Y-117256000D02*
X274901000Y-117256000D01*
X271961000Y-117016000D02*
X274901000Y-117016000D01*
X271961000Y-117136000D02*
X274901000Y-117136000D01*
X273431000Y-111576000D02*
X273431000Y-112596000D01*
X273431000Y-119056000D02*
X273431000Y-118036000D01*
X271961000Y-112596000D02*
X271961000Y-118036000D01*
X274901000Y-112596000D02*
X271961000Y-112596000D01*
X274901000Y-118036000D02*
X274901000Y-112596000D01*
X271961000Y-118036000D02*
X274901000Y-118036000D01*
D18*
X253293000Y-129862000D02*
G75*
G03X253293000Y-129862000I-100000J0D01*
G01*
D13*
X252793000Y-127762000D02*
G75*
G03X252793000Y-127762000I-4000000J0D01*
G01*
D15*
X238687000Y-117256000D02*
X241627000Y-117256000D01*
X238687000Y-117016000D02*
X241627000Y-117016000D01*
X238687000Y-117136000D02*
X241627000Y-117136000D01*
X240157000Y-111576000D02*
X240157000Y-112596000D01*
X240157000Y-119056000D02*
X240157000Y-118036000D01*
X238687000Y-112596000D02*
X238687000Y-118036000D01*
X241627000Y-112596000D02*
X238687000Y-112596000D01*
X241627000Y-118036000D02*
X241627000Y-112596000D01*
X238687000Y-118036000D02*
X241627000Y-118036000D01*
D18*
X220019000Y-129862000D02*
G75*
G03X220019000Y-129862000I-100000J0D01*
G01*
D13*
X219519000Y-127762000D02*
G75*
G03X219519000Y-127762000I-4000000J0D01*
G01*
D15*
X205921000Y-117256000D02*
X208861000Y-117256000D01*
X205921000Y-117016000D02*
X208861000Y-117016000D01*
X205921000Y-117136000D02*
X208861000Y-117136000D01*
X207391000Y-111576000D02*
X207391000Y-112596000D01*
X207391000Y-119056000D02*
X207391000Y-118036000D01*
X205921000Y-112596000D02*
X205921000Y-118036000D01*
X208861000Y-112596000D02*
X205921000Y-112596000D01*
X208861000Y-118036000D02*
X208861000Y-112596000D01*
X205921000Y-118036000D02*
X208861000Y-118036000D01*
D18*
X187507000Y-129862000D02*
G75*
G03X187507000Y-129862000I-100000J0D01*
G01*
D13*
X187007000Y-127762000D02*
G75*
G03X187007000Y-127762000I-4000000J0D01*
G01*
D18*
X154487000Y-130116000D02*
G75*
G03X154487000Y-130116000I-100000J0D01*
G01*
D13*
X153987000Y-128016000D02*
G75*
G03X153987000Y-128016000I-4000000J0D01*
G01*
D15*
X139881000Y-117256000D02*
X142821000Y-117256000D01*
X139881000Y-117016000D02*
X142821000Y-117016000D01*
X139881000Y-117136000D02*
X142821000Y-117136000D01*
X141351000Y-111576000D02*
X141351000Y-112596000D01*
X141351000Y-119056000D02*
X141351000Y-118036000D01*
X139881000Y-112596000D02*
X139881000Y-118036000D01*
X142821000Y-112596000D02*
X139881000Y-112596000D01*
X142821000Y-118036000D02*
X142821000Y-112596000D01*
X139881000Y-118036000D02*
X142821000Y-118036000D01*
X304346000Y-118036000D02*
X307286000Y-118036000D01*
X307286000Y-118036000D02*
X307286000Y-112596000D01*
X307286000Y-112596000D02*
X304346000Y-112596000D01*
X304346000Y-112596000D02*
X304346000Y-118036000D01*
X305816000Y-119056000D02*
X305816000Y-118036000D01*
X305816000Y-111576000D02*
X305816000Y-112596000D01*
X304346000Y-117136000D02*
X307286000Y-117136000D01*
X304346000Y-117016000D02*
X307286000Y-117016000D01*
X304346000Y-117256000D02*
X307286000Y-117256000D01*
D13*
X318452000Y-127508000D02*
G75*
G03X318452000Y-127508000I-4000000J0D01*
G01*
D18*
X318952000Y-129608000D02*
G75*
G03X318952000Y-129608000I-100000J0D01*
G01*
D13*
X308036000Y-43472000D02*
X308036000Y-74592000D01*
X308036000Y-74592000D02*
X339156000Y-74592000D01*
X339156000Y-74592000D02*
X339156000Y-43472000D01*
X339156000Y-43472000D02*
X308036000Y-43472000D01*
D16*
X306896000Y-58152000D02*
G75*
G03X306896000Y-58152000I-200000J0D01*
G01*
D17*
X308023000Y-84836000D02*
X308023000Y-102436000D01*
X308023000Y-102436000D02*
X310383000Y-102436000D01*
X310383000Y-102436000D02*
X310383000Y-117346000D01*
X310383000Y-117346000D02*
X330673000Y-117346000D01*
X330673000Y-117346000D02*
X330673000Y-97636000D01*
X330673000Y-97636000D02*
X335453000Y-97636000D01*
X335453000Y-97636000D02*
X335453000Y-84836000D01*
X335453000Y-84836000D02*
X308023000Y-84836000D01*
D12*
X309203000Y-110236000D02*
G75*
G03X309203000Y-110236000I-100000J0D01*
G01*
D15*
X324898000Y-126138000D02*
X324898000Y-128878000D01*
X324898000Y-128878000D02*
X331438000Y-128878000D01*
X331438000Y-128878000D02*
X331438000Y-126138000D01*
X331438000Y-126138000D02*
X324898000Y-126138000D01*
X324128000Y-127508000D02*
X324898000Y-127508000D01*
X332208000Y-127508000D02*
X331438000Y-127508000D01*
X87535000Y-92051200D02*
X87535000Y-94791200D01*
X87535000Y-94791200D02*
X94075000Y-94791200D01*
X94075000Y-94791200D02*
X94075000Y-92051200D01*
X94075000Y-92051200D02*
X87535000Y-92051200D01*
X86765000Y-93421200D02*
X87535000Y-93421200D01*
X94845000Y-93421200D02*
X94075000Y-93421200D01*
D19*
X183562594Y-174634372D02*
X184563506Y-174634372D01*
X184763688Y-174701099D01*
X184897143Y-174834554D01*
X184963870Y-175034736D01*
X184963870Y-175168191D01*
X184163141Y-173766915D02*
X184096414Y-173900370D01*
X184029686Y-173967097D01*
X183896231Y-174033825D01*
X183829504Y-174033825D01*
X183696049Y-173967097D01*
X183629322Y-173900370D01*
X183562594Y-173766915D01*
X183562594Y-173500005D01*
X183629322Y-173366550D01*
X183696049Y-173299823D01*
X183829504Y-173233096D01*
X183896231Y-173233096D01*
X184029686Y-173299823D01*
X184096414Y-173366550D01*
X184163141Y-173500005D01*
X184163141Y-173766915D01*
X184229868Y-173900370D01*
X184296596Y-173967097D01*
X184430051Y-174033825D01*
X184696960Y-174033825D01*
X184830415Y-173967097D01*
X184897143Y-173900370D01*
X184963870Y-173766915D01*
X184963870Y-173500005D01*
X184897143Y-173366550D01*
X184830415Y-173299823D01*
X184696960Y-173233096D01*
X184430051Y-173233096D01*
X184296596Y-173299823D01*
X184229868Y-173366550D01*
X184163141Y-173500005D01*
X208962594Y-174634372D02*
X209963506Y-174634372D01*
X210163688Y-174701099D01*
X210297143Y-174834554D01*
X210363870Y-175034736D01*
X210363870Y-175168191D01*
X210363870Y-173900370D02*
X210363870Y-173633460D01*
X210297143Y-173500005D01*
X210230415Y-173433278D01*
X210030233Y-173299823D01*
X209763323Y-173233096D01*
X209229504Y-173233096D01*
X209096049Y-173299823D01*
X209029322Y-173366550D01*
X208962594Y-173500005D01*
X208962594Y-173766915D01*
X209029322Y-173900370D01*
X209096049Y-173967097D01*
X209229504Y-174033825D01*
X209563141Y-174033825D01*
X209696596Y-173967097D01*
X209763323Y-173900370D01*
X209830051Y-173766915D01*
X209830051Y-173500005D01*
X209763323Y-173366550D01*
X209696596Y-173299823D01*
X209563141Y-173233096D01*
X272462594Y-175301646D02*
X273463506Y-175301646D01*
X273663688Y-175368373D01*
X273797143Y-175501828D01*
X273863870Y-175702010D01*
X273863870Y-175835465D01*
X273863870Y-173900370D02*
X273863870Y-174701099D01*
X273863870Y-174300734D02*
X272462594Y-174300734D01*
X272662776Y-174434189D01*
X272796231Y-174567644D01*
X272862959Y-174701099D01*
X273863870Y-172565821D02*
X273863870Y-173366550D01*
X273863870Y-172966186D02*
X272462594Y-172966186D01*
X272662776Y-173099641D01*
X272796231Y-173233096D01*
X272862959Y-173366550D01*
X335962594Y-175301646D02*
X336963506Y-175301646D01*
X337163688Y-175368373D01*
X337297143Y-175501828D01*
X337363870Y-175702010D01*
X337363870Y-175835465D01*
X337363870Y-173900370D02*
X337363870Y-174701099D01*
X337363870Y-174300734D02*
X335962594Y-174300734D01*
X336162776Y-174434189D01*
X336296231Y-174567644D01*
X336362959Y-174701099D01*
X336096049Y-173366550D02*
X336029322Y-173299823D01*
X335962594Y-173166368D01*
X335962594Y-172832731D01*
X336029322Y-172699276D01*
X336096049Y-172632549D01*
X336229504Y-172565821D01*
X336362959Y-172565821D01*
X336563141Y-172632549D01*
X337363870Y-173433278D01*
X337363870Y-172565821D01*
X228012594Y-175301646D02*
X229013506Y-175301646D01*
X229213688Y-175368373D01*
X229347143Y-175501828D01*
X229413870Y-175702010D01*
X229413870Y-175835465D01*
X229413870Y-173900370D02*
X229413870Y-174701099D01*
X229413870Y-174300734D02*
X228012594Y-174300734D01*
X228212776Y-174434189D01*
X228346231Y-174567644D01*
X228412959Y-174701099D01*
X228012594Y-173433278D02*
X228012594Y-172565821D01*
X228546414Y-173032913D01*
X228546414Y-172832731D01*
X228613141Y-172699276D01*
X228679868Y-172632549D01*
X228813323Y-172565821D01*
X229146960Y-172565821D01*
X229280415Y-172632549D01*
X229347143Y-172699276D01*
X229413870Y-172832731D01*
X229413870Y-173233096D01*
X229347143Y-173366550D01*
X229280415Y-173433278D01*
X291512594Y-175301646D02*
X292513506Y-175301646D01*
X292713688Y-175368373D01*
X292847143Y-175501828D01*
X292913870Y-175702010D01*
X292913870Y-175835465D01*
X292913870Y-173900370D02*
X292913870Y-174701099D01*
X292913870Y-174300734D02*
X291512594Y-174300734D01*
X291712776Y-174434189D01*
X291846231Y-174567644D01*
X291912959Y-174701099D01*
X291979686Y-172699276D02*
X292913870Y-172699276D01*
X291445867Y-173032913D02*
X292446778Y-173366550D01*
X292446778Y-172499094D01*
X247062594Y-175301646D02*
X248063506Y-175301646D01*
X248263688Y-175368373D01*
X248397143Y-175501828D01*
X248463870Y-175702010D01*
X248463870Y-175835465D01*
X248463870Y-173900370D02*
X248463870Y-174701099D01*
X248463870Y-174300734D02*
X247062594Y-174300734D01*
X247262776Y-174434189D01*
X247396231Y-174567644D01*
X247462959Y-174701099D01*
X247062594Y-172632549D02*
X247062594Y-173299823D01*
X247729868Y-173366550D01*
X247663141Y-173299823D01*
X247596414Y-173166368D01*
X247596414Y-172832731D01*
X247663141Y-172699276D01*
X247729868Y-172632549D01*
X247863323Y-172565821D01*
X248196960Y-172565821D01*
X248330415Y-172632549D01*
X248397143Y-172699276D01*
X248463870Y-172832731D01*
X248463870Y-173166368D01*
X248397143Y-173299823D01*
X248330415Y-173366550D01*
X316912594Y-175301646D02*
X317913506Y-175301646D01*
X318113688Y-175368373D01*
X318247143Y-175501828D01*
X318313870Y-175702010D01*
X318313870Y-175835465D01*
X318313870Y-173900370D02*
X318313870Y-174701099D01*
X318313870Y-174300734D02*
X316912594Y-174300734D01*
X317112776Y-174434189D01*
X317246231Y-174567644D01*
X317312959Y-174701099D01*
X316912594Y-173032913D02*
X316912594Y-172899458D01*
X316979322Y-172766004D01*
X317046049Y-172699276D01*
X317179504Y-172632549D01*
X317446414Y-172565821D01*
X317780051Y-172565821D01*
X318046960Y-172632549D01*
X318180415Y-172699276D01*
X318247143Y-172766004D01*
X318313870Y-172899458D01*
X318313870Y-173032913D01*
X318247143Y-173166368D01*
X318180415Y-173233096D01*
X318046960Y-173299823D01*
X317780051Y-173366550D01*
X317446414Y-173366550D01*
X317179504Y-173299823D01*
X317046049Y-173233096D01*
X316979322Y-173166368D01*
X316912594Y-173032913D01*
D10*
X140756019Y-148656838D02*
X140708400Y-148752076D01*
X140613161Y-148847314D01*
X140470304Y-148990171D01*
X140422685Y-149085409D01*
X140422685Y-149180647D01*
X140660780Y-149133028D02*
X140613161Y-149228266D01*
X140517923Y-149323504D01*
X140327447Y-149371123D01*
X139994114Y-149371123D01*
X139803638Y-149323504D01*
X139708400Y-149228266D01*
X139660780Y-149133028D01*
X139660780Y-148942552D01*
X139708400Y-148847314D01*
X139803638Y-148752076D01*
X139994114Y-148704457D01*
X140327447Y-148704457D01*
X140517923Y-148752076D01*
X140613161Y-148847314D01*
X140660780Y-148942552D01*
X140660780Y-149133028D01*
X140660780Y-147752076D02*
X140660780Y-148323504D01*
X140660780Y-148037790D02*
X139660780Y-148037790D01*
X139803638Y-148133028D01*
X139898876Y-148228266D01*
X139946495Y-148323504D01*
X240453942Y-162598180D02*
X240120609Y-162121990D01*
X239882514Y-162598180D02*
X239882514Y-161598180D01*
X240263466Y-161598180D01*
X240358704Y-161645800D01*
X240406323Y-161693419D01*
X240453942Y-161788657D01*
X240453942Y-161931514D01*
X240406323Y-162026752D01*
X240358704Y-162074371D01*
X240263466Y-162121990D01*
X239882514Y-162121990D01*
X241406323Y-162598180D02*
X240834895Y-162598180D01*
X241120609Y-162598180D02*
X241120609Y-161598180D01*
X241025371Y-161741038D01*
X240930133Y-161836276D01*
X240834895Y-161883895D01*
X242358704Y-162598180D02*
X241787276Y-162598180D01*
X242072990Y-162598180D02*
X242072990Y-161598180D01*
X241977752Y-161741038D01*
X241882514Y-161836276D01*
X241787276Y-161883895D01*
X177633333Y-163487180D02*
X177300000Y-163010990D01*
X177061904Y-163487180D02*
X177061904Y-162487180D01*
X177442857Y-162487180D01*
X177538095Y-162534800D01*
X177585714Y-162582419D01*
X177633333Y-162677657D01*
X177633333Y-162820514D01*
X177585714Y-162915752D01*
X177538095Y-162963371D01*
X177442857Y-163010990D01*
X177061904Y-163010990D01*
X177966666Y-162487180D02*
X178633333Y-162487180D01*
X178204761Y-163487180D01*
D19*
X143323984Y-75731117D02*
X143323984Y-76674007D01*
X143261124Y-76862585D01*
X143135406Y-76988304D01*
X142946828Y-77051164D01*
X142821109Y-77051164D01*
X143889718Y-75856835D02*
X143952578Y-75793976D01*
X144078296Y-75731117D01*
X144392593Y-75731117D01*
X144518312Y-75793976D01*
X144581171Y-75856835D01*
X144644031Y-75982554D01*
X144644031Y-76108273D01*
X144581171Y-76296851D01*
X143826859Y-77051164D01*
X144644031Y-77051164D01*
D10*
X172353380Y-116054095D02*
X171353380Y-116054095D01*
X171353380Y-115816000D01*
X171401000Y-115673142D01*
X171496238Y-115577904D01*
X171591476Y-115530285D01*
X171781952Y-115482666D01*
X171924809Y-115482666D01*
X172115285Y-115530285D01*
X172210523Y-115577904D01*
X172305761Y-115673142D01*
X172353380Y-115816000D01*
X172353380Y-116054095D01*
X171353380Y-115149333D02*
X171353380Y-114530285D01*
X171734333Y-114863619D01*
X171734333Y-114720761D01*
X171781952Y-114625523D01*
X171829571Y-114577904D01*
X171924809Y-114530285D01*
X172162904Y-114530285D01*
X172258142Y-114577904D01*
X172305761Y-114625523D01*
X172353380Y-114720761D01*
X172353380Y-115006476D01*
X172305761Y-115101714D01*
X172258142Y-115149333D01*
D19*
X275067996Y-83943292D02*
X275067996Y-82547804D01*
X275865418Y-83943292D02*
X275267352Y-83145870D01*
X275865418Y-82547804D02*
X275067996Y-83345225D01*
X277128003Y-82547804D02*
X276463484Y-82547804D01*
X276397033Y-83212322D01*
X276463484Y-83145870D01*
X276596388Y-83079418D01*
X276928647Y-83079418D01*
X277061551Y-83145870D01*
X277128003Y-83212322D01*
X277194454Y-83345225D01*
X277194454Y-83677484D01*
X277128003Y-83810388D01*
X277061551Y-83876840D01*
X276928647Y-83943292D01*
X276596388Y-83943292D01*
X276463484Y-83876840D01*
X276397033Y-83810388D01*
X176597984Y-75477117D02*
X176597984Y-76420007D01*
X176535124Y-76608585D01*
X176409406Y-76734304D01*
X176220828Y-76797164D01*
X176095109Y-76797164D01*
X177100859Y-75477117D02*
X177918031Y-75477117D01*
X177478015Y-75979992D01*
X177666593Y-75979992D01*
X177792312Y-76042851D01*
X177855171Y-76105710D01*
X177918031Y-76231429D01*
X177918031Y-76545726D01*
X177855171Y-76671445D01*
X177792312Y-76734304D01*
X177666593Y-76797164D01*
X177289437Y-76797164D01*
X177163718Y-76734304D01*
X177100859Y-76671445D01*
X376758052Y-86400739D02*
X377473744Y-86400739D01*
X377616883Y-86448452D01*
X377712308Y-86543878D01*
X377760021Y-86687016D01*
X377760021Y-86782442D01*
X377760021Y-85398770D02*
X377760021Y-85971324D01*
X377760021Y-85685047D02*
X376758052Y-85685047D01*
X376901191Y-85780473D01*
X376996616Y-85875898D01*
X377044329Y-85971324D01*
D10*
X394295380Y-116814504D02*
X395104904Y-116814504D01*
X395200142Y-116766885D01*
X395247761Y-116719266D01*
X395295380Y-116624028D01*
X395295380Y-116433552D01*
X395247761Y-116338314D01*
X395200142Y-116290695D01*
X395104904Y-116243076D01*
X394295380Y-116243076D01*
X395295380Y-115243076D02*
X395295380Y-115814504D01*
X395295380Y-115528790D02*
X394295380Y-115528790D01*
X394438238Y-115624028D01*
X394533476Y-115719266D01*
X394581095Y-115814504D01*
D19*
X275657984Y-75477117D02*
X275657984Y-76420007D01*
X275595124Y-76608585D01*
X275469406Y-76734304D01*
X275280828Y-76797164D01*
X275155109Y-76797164D01*
X276852312Y-75477117D02*
X276600875Y-75477117D01*
X276475156Y-75539976D01*
X276412296Y-75602835D01*
X276286578Y-75791414D01*
X276223718Y-76042851D01*
X276223718Y-76545726D01*
X276286578Y-76671445D01*
X276349437Y-76734304D01*
X276475156Y-76797164D01*
X276726593Y-76797164D01*
X276852312Y-76734304D01*
X276915171Y-76671445D01*
X276978031Y-76545726D01*
X276978031Y-76231429D01*
X276915171Y-76105710D01*
X276852312Y-76042851D01*
X276726593Y-75979992D01*
X276475156Y-75979992D01*
X276349437Y-76042851D01*
X276286578Y-76105710D01*
X276223718Y-76231429D01*
X242637984Y-75477117D02*
X242637984Y-76420007D01*
X242575124Y-76608585D01*
X242449406Y-76734304D01*
X242260828Y-76797164D01*
X242135109Y-76797164D01*
X243895171Y-75477117D02*
X243266578Y-75477117D01*
X243203718Y-76105710D01*
X243266578Y-76042851D01*
X243392296Y-75979992D01*
X243706593Y-75979992D01*
X243832312Y-76042851D01*
X243895171Y-76105710D01*
X243958031Y-76231429D01*
X243958031Y-76545726D01*
X243895171Y-76671445D01*
X243832312Y-76734304D01*
X243706593Y-76797164D01*
X243392296Y-76797164D01*
X243266578Y-76734304D01*
X243203718Y-76671445D01*
X209617984Y-75477117D02*
X209617984Y-76420007D01*
X209555124Y-76608585D01*
X209429406Y-76734304D01*
X209240828Y-76797164D01*
X209115109Y-76797164D01*
X210812312Y-75917132D02*
X210812312Y-76797164D01*
X210498015Y-75414257D02*
X210183718Y-76357148D01*
X211000890Y-76357148D01*
X242174996Y-83943292D02*
X242174996Y-82547804D01*
X242972418Y-83943292D02*
X242374352Y-83145870D01*
X242972418Y-82547804D02*
X242174996Y-83345225D01*
X244168551Y-83012966D02*
X244168551Y-83943292D01*
X243836292Y-82481352D02*
X243504033Y-83478129D01*
X244367906Y-83478129D01*
X107439815Y-163712542D02*
X107439815Y-164524488D01*
X107487577Y-164620011D01*
X107535338Y-164667772D01*
X107630861Y-164715534D01*
X107821907Y-164715534D01*
X107917430Y-164667772D01*
X107965192Y-164620011D01*
X108012953Y-164524488D01*
X108012953Y-163712542D01*
X108395046Y-163712542D02*
X109015945Y-163712542D01*
X108681615Y-164094634D01*
X108824899Y-164094634D01*
X108920422Y-164142396D01*
X108968184Y-164190157D01*
X109015945Y-164285680D01*
X109015945Y-164524488D01*
X108968184Y-164620011D01*
X108920422Y-164667772D01*
X108824899Y-164715534D01*
X108538330Y-164715534D01*
X108442807Y-164667772D01*
X108395046Y-164620011D01*
X68777538Y-162149557D02*
X68777538Y-161147840D01*
X69159145Y-161147840D01*
X69254546Y-161195541D01*
X69302247Y-161243242D01*
X69349948Y-161338643D01*
X69349948Y-161481746D01*
X69302247Y-161577147D01*
X69254546Y-161624848D01*
X69159145Y-161672549D01*
X68777538Y-161672549D01*
X69779255Y-162149557D02*
X69779255Y-161147840D01*
X70160862Y-161147840D01*
X70256263Y-161195541D01*
X70303964Y-161243242D01*
X70351665Y-161338643D01*
X70351665Y-161481746D01*
X70303964Y-161577147D01*
X70256263Y-161624848D01*
X70160862Y-161672549D01*
X69779255Y-161672549D01*
X70637870Y-161147840D02*
X71210279Y-161147840D01*
X70924075Y-162149557D02*
X70924075Y-161147840D01*
X72116595Y-162054156D02*
X72068894Y-162101856D01*
X71925792Y-162149557D01*
X71830390Y-162149557D01*
X71687288Y-162101856D01*
X71591886Y-162006455D01*
X71544185Y-161911053D01*
X71496484Y-161720250D01*
X71496484Y-161577147D01*
X71544185Y-161386344D01*
X71591886Y-161290943D01*
X71687288Y-161195541D01*
X71830390Y-161147840D01*
X71925792Y-161147840D01*
X72068894Y-161195541D01*
X72116595Y-161243242D01*
X73070611Y-162149557D02*
X72498201Y-162149557D01*
X72784406Y-162149557D02*
X72784406Y-161147840D01*
X72689005Y-161290943D01*
X72593603Y-161386344D01*
X72498201Y-161434045D01*
X73976926Y-161147840D02*
X73499918Y-161147840D01*
X73452218Y-161624848D01*
X73499918Y-161577147D01*
X73595320Y-161529447D01*
X73833824Y-161529447D01*
X73929226Y-161577147D01*
X73976926Y-161624848D01*
X74024627Y-161720250D01*
X74024627Y-161958754D01*
X73976926Y-162054156D01*
X73929226Y-162101856D01*
X73833824Y-162149557D01*
X73595320Y-162149557D01*
X73499918Y-162101856D01*
X73452218Y-162054156D01*
X74978643Y-162149557D02*
X74406234Y-162149557D01*
X74692439Y-162149557D02*
X74692439Y-161147840D01*
X74597037Y-161290943D01*
X74501635Y-161386344D01*
X74406234Y-161434045D01*
X75884959Y-162149557D02*
X75407951Y-162149557D01*
X75407951Y-161147840D01*
X76552770Y-161624848D02*
X76218864Y-161624848D01*
X76218864Y-162149557D02*
X76218864Y-161147840D01*
X76695873Y-161147840D01*
X77411385Y-161624848D02*
X77554487Y-161672549D01*
X77602188Y-161720250D01*
X77649889Y-161815652D01*
X77649889Y-161958754D01*
X77602188Y-162054156D01*
X77554487Y-162101856D01*
X77459086Y-162149557D01*
X77077479Y-162149557D01*
X77077479Y-161147840D01*
X77411385Y-161147840D01*
X77506786Y-161195541D01*
X77554487Y-161243242D01*
X77602188Y-161338643D01*
X77602188Y-161434045D01*
X77554487Y-161529447D01*
X77506786Y-161577147D01*
X77411385Y-161624848D01*
X77077479Y-161624848D01*
X78079196Y-162149557D02*
X78079196Y-161147840D01*
X78651606Y-162149557D01*
X78651606Y-161147840D01*
X79128614Y-161767951D02*
X79891827Y-161767951D01*
X80941245Y-162149557D02*
X80607339Y-161672549D01*
X80368835Y-162149557D02*
X80368835Y-161147840D01*
X80750441Y-161147840D01*
X80845843Y-161195541D01*
X80893544Y-161243242D01*
X80941245Y-161338643D01*
X80941245Y-161481746D01*
X80893544Y-161577147D01*
X80845843Y-161624848D01*
X80750441Y-161672549D01*
X80368835Y-161672549D01*
X81942962Y-162054156D02*
X81895261Y-162101856D01*
X81752158Y-162149557D01*
X81656757Y-162149557D01*
X81513654Y-162101856D01*
X81418253Y-162006455D01*
X81370552Y-161911053D01*
X81322851Y-161720250D01*
X81322851Y-161577147D01*
X81370552Y-161386344D01*
X81418253Y-161290943D01*
X81513654Y-161195541D01*
X81656757Y-161147840D01*
X81752158Y-161147840D01*
X81895261Y-161195541D01*
X81942962Y-161243242D01*
X107185815Y-148472542D02*
X107185815Y-149284488D01*
X107233577Y-149380011D01*
X107281338Y-149427772D01*
X107376861Y-149475534D01*
X107567907Y-149475534D01*
X107663430Y-149427772D01*
X107711192Y-149380011D01*
X107758953Y-149284488D01*
X107758953Y-148472542D01*
X108188807Y-148568065D02*
X108236569Y-148520304D01*
X108332092Y-148472542D01*
X108570899Y-148472542D01*
X108666422Y-148520304D01*
X108714184Y-148568065D01*
X108761945Y-148663588D01*
X108761945Y-148759111D01*
X108714184Y-148902396D01*
X108141046Y-149475534D01*
X108761945Y-149475534D01*
X68625138Y-145664957D02*
X68625138Y-144663240D01*
X69006745Y-144663240D01*
X69102146Y-144710941D01*
X69149847Y-144758642D01*
X69197548Y-144854043D01*
X69197548Y-144997146D01*
X69149847Y-145092547D01*
X69102146Y-145140248D01*
X69006745Y-145187949D01*
X68625138Y-145187949D01*
X69626855Y-145664957D02*
X69626855Y-144663240D01*
X70008462Y-144663240D01*
X70103863Y-144710941D01*
X70151564Y-144758642D01*
X70199265Y-144854043D01*
X70199265Y-144997146D01*
X70151564Y-145092547D01*
X70103863Y-145140248D01*
X70008462Y-145187949D01*
X69626855Y-145187949D01*
X70485470Y-144663240D02*
X71057879Y-144663240D01*
X70771675Y-145664957D02*
X70771675Y-144663240D01*
X71964195Y-145569556D02*
X71916494Y-145617256D01*
X71773392Y-145664957D01*
X71677990Y-145664957D01*
X71534888Y-145617256D01*
X71439486Y-145521855D01*
X71391785Y-145426453D01*
X71344084Y-145235650D01*
X71344084Y-145092547D01*
X71391785Y-144901744D01*
X71439486Y-144806343D01*
X71534888Y-144710941D01*
X71677990Y-144663240D01*
X71773392Y-144663240D01*
X71916494Y-144710941D01*
X71964195Y-144758642D01*
X72918211Y-145664957D02*
X72345801Y-145664957D01*
X72632006Y-145664957D02*
X72632006Y-144663240D01*
X72536605Y-144806343D01*
X72441203Y-144901744D01*
X72345801Y-144949445D01*
X73824526Y-144663240D02*
X73347518Y-144663240D01*
X73299818Y-145140248D01*
X73347518Y-145092547D01*
X73442920Y-145044847D01*
X73681424Y-145044847D01*
X73776826Y-145092547D01*
X73824526Y-145140248D01*
X73872227Y-145235650D01*
X73872227Y-145474154D01*
X73824526Y-145569556D01*
X73776826Y-145617256D01*
X73681424Y-145664957D01*
X73442920Y-145664957D01*
X73347518Y-145617256D01*
X73299818Y-145569556D01*
X74826243Y-145664957D02*
X74253834Y-145664957D01*
X74540039Y-145664957D02*
X74540039Y-144663240D01*
X74444637Y-144806343D01*
X74349235Y-144901744D01*
X74253834Y-144949445D01*
X75732559Y-145664957D02*
X75255551Y-145664957D01*
X75255551Y-144663240D01*
X76400370Y-145140248D02*
X76066464Y-145140248D01*
X76066464Y-145664957D02*
X76066464Y-144663240D01*
X76543473Y-144663240D01*
X77258985Y-145140248D02*
X77402087Y-145187949D01*
X77449788Y-145235650D01*
X77497489Y-145331052D01*
X77497489Y-145474154D01*
X77449788Y-145569556D01*
X77402087Y-145617256D01*
X77306686Y-145664957D01*
X76925079Y-145664957D01*
X76925079Y-144663240D01*
X77258985Y-144663240D01*
X77354386Y-144710941D01*
X77402087Y-144758642D01*
X77449788Y-144854043D01*
X77449788Y-144949445D01*
X77402087Y-145044847D01*
X77354386Y-145092547D01*
X77258985Y-145140248D01*
X76925079Y-145140248D01*
X77926796Y-145664957D02*
X77926796Y-144663240D01*
X78499206Y-145664957D01*
X78499206Y-144663240D01*
X78976214Y-145283351D02*
X79739427Y-145283351D01*
X80788845Y-145664957D02*
X80454939Y-145187949D01*
X80216435Y-145664957D02*
X80216435Y-144663240D01*
X80598041Y-144663240D01*
X80693443Y-144710941D01*
X80741144Y-144758642D01*
X80788845Y-144854043D01*
X80788845Y-144997146D01*
X80741144Y-145092547D01*
X80693443Y-145140248D01*
X80598041Y-145187949D01*
X80216435Y-145187949D01*
X81790562Y-145569556D02*
X81742861Y-145617256D01*
X81599758Y-145664957D01*
X81504357Y-145664957D01*
X81361254Y-145617256D01*
X81265853Y-145521855D01*
X81218152Y-145426453D01*
X81170451Y-145235650D01*
X81170451Y-145092547D01*
X81218152Y-144901744D01*
X81265853Y-144806343D01*
X81361254Y-144710941D01*
X81504357Y-144663240D01*
X81599758Y-144663240D01*
X81742861Y-144710941D01*
X81790562Y-144758642D01*
D10*
X221073742Y-162496580D02*
X220740409Y-162020390D01*
X220502314Y-162496580D02*
X220502314Y-161496580D01*
X220883266Y-161496580D01*
X220978504Y-161544200D01*
X221026123Y-161591819D01*
X221073742Y-161687057D01*
X221073742Y-161829914D01*
X221026123Y-161925152D01*
X220978504Y-161972771D01*
X220883266Y-162020390D01*
X220502314Y-162020390D01*
X222026123Y-162496580D02*
X221454695Y-162496580D01*
X221740409Y-162496580D02*
X221740409Y-161496580D01*
X221645171Y-161639438D01*
X221549933Y-161734676D01*
X221454695Y-161782295D01*
X222645171Y-161496580D02*
X222740409Y-161496580D01*
X222835647Y-161544200D01*
X222883266Y-161591819D01*
X222930885Y-161687057D01*
X222978504Y-161877533D01*
X222978504Y-162115628D01*
X222930885Y-162306104D01*
X222883266Y-162401342D01*
X222835647Y-162448961D01*
X222740409Y-162496580D01*
X222645171Y-162496580D01*
X222549933Y-162448961D01*
X222502314Y-162401342D01*
X222454695Y-162306104D01*
X222407076Y-162115628D01*
X222407076Y-161877533D01*
X222454695Y-161687057D01*
X222502314Y-161591819D01*
X222549933Y-161544200D01*
X222645171Y-161496580D01*
X202753933Y-162648980D02*
X202420600Y-162172790D01*
X202182504Y-162648980D02*
X202182504Y-161648980D01*
X202563457Y-161648980D01*
X202658695Y-161696600D01*
X202706314Y-161744219D01*
X202753933Y-161839457D01*
X202753933Y-161982314D01*
X202706314Y-162077552D01*
X202658695Y-162125171D01*
X202563457Y-162172790D01*
X202182504Y-162172790D01*
X203230123Y-162648980D02*
X203420600Y-162648980D01*
X203515838Y-162601361D01*
X203563457Y-162553742D01*
X203658695Y-162410885D01*
X203706314Y-162220409D01*
X203706314Y-161839457D01*
X203658695Y-161744219D01*
X203611076Y-161696600D01*
X203515838Y-161648980D01*
X203325361Y-161648980D01*
X203230123Y-161696600D01*
X203182504Y-161744219D01*
X203134885Y-161839457D01*
X203134885Y-162077552D01*
X203182504Y-162172790D01*
X203230123Y-162220409D01*
X203325361Y-162268028D01*
X203515838Y-162268028D01*
X203611076Y-162220409D01*
X203658695Y-162172790D01*
X203706314Y-162077552D01*
X293584333Y-125590380D02*
X293251000Y-125114190D01*
X293012904Y-125590380D02*
X293012904Y-124590380D01*
X293393857Y-124590380D01*
X293489095Y-124638000D01*
X293536714Y-124685619D01*
X293584333Y-124780857D01*
X293584333Y-124923714D01*
X293536714Y-125018952D01*
X293489095Y-125066571D01*
X293393857Y-125114190D01*
X293012904Y-125114190D01*
X294489095Y-124590380D02*
X294012904Y-124590380D01*
X293965285Y-125066571D01*
X294012904Y-125018952D01*
X294108142Y-124971333D01*
X294346238Y-124971333D01*
X294441476Y-125018952D01*
X294489095Y-125066571D01*
X294536714Y-125161809D01*
X294536714Y-125399904D01*
X294489095Y-125495142D01*
X294441476Y-125542761D01*
X294346238Y-125590380D01*
X294108142Y-125590380D01*
X294012904Y-125542761D01*
X293965285Y-125495142D01*
X260564333Y-126098380D02*
X260231000Y-125622190D01*
X259992904Y-126098380D02*
X259992904Y-125098380D01*
X260373857Y-125098380D01*
X260469095Y-125146000D01*
X260516714Y-125193619D01*
X260564333Y-125288857D01*
X260564333Y-125431714D01*
X260516714Y-125526952D01*
X260469095Y-125574571D01*
X260373857Y-125622190D01*
X259992904Y-125622190D01*
X261421476Y-125431714D02*
X261421476Y-126098380D01*
X261183380Y-125050761D02*
X260945285Y-125765047D01*
X261564333Y-125765047D01*
X227544333Y-126098380D02*
X227211000Y-125622190D01*
X226972904Y-126098380D02*
X226972904Y-125098380D01*
X227353857Y-125098380D01*
X227449095Y-125146000D01*
X227496714Y-125193619D01*
X227544333Y-125288857D01*
X227544333Y-125431714D01*
X227496714Y-125526952D01*
X227449095Y-125574571D01*
X227353857Y-125622190D01*
X226972904Y-125622190D01*
X227877666Y-125098380D02*
X228496714Y-125098380D01*
X228163380Y-125479333D01*
X228306238Y-125479333D01*
X228401476Y-125526952D01*
X228449095Y-125574571D01*
X228496714Y-125669809D01*
X228496714Y-125907904D01*
X228449095Y-126003142D01*
X228401476Y-126050761D01*
X228306238Y-126098380D01*
X228020523Y-126098380D01*
X227925285Y-126050761D01*
X227877666Y-126003142D01*
X194524333Y-126098380D02*
X194191000Y-125622190D01*
X193952904Y-126098380D02*
X193952904Y-125098380D01*
X194333857Y-125098380D01*
X194429095Y-125146000D01*
X194476714Y-125193619D01*
X194524333Y-125288857D01*
X194524333Y-125431714D01*
X194476714Y-125526952D01*
X194429095Y-125574571D01*
X194333857Y-125622190D01*
X193952904Y-125622190D01*
X194905285Y-125193619D02*
X194952904Y-125146000D01*
X195048142Y-125098380D01*
X195286238Y-125098380D01*
X195381476Y-125146000D01*
X195429095Y-125193619D01*
X195476714Y-125288857D01*
X195476714Y-125384095D01*
X195429095Y-125526952D01*
X194857666Y-126098380D01*
X195476714Y-126098380D01*
X161504333Y-126098380D02*
X161171000Y-125622190D01*
X160932904Y-126098380D02*
X160932904Y-125098380D01*
X161313857Y-125098380D01*
X161409095Y-125146000D01*
X161456714Y-125193619D01*
X161504333Y-125288857D01*
X161504333Y-125431714D01*
X161456714Y-125526952D01*
X161409095Y-125574571D01*
X161313857Y-125622190D01*
X160932904Y-125622190D01*
X162456714Y-126098380D02*
X161885285Y-126098380D01*
X162171000Y-126098380D02*
X162171000Y-125098380D01*
X162075761Y-125241238D01*
X161980523Y-125336476D01*
X161885285Y-125384095D01*
D19*
X209154996Y-83943292D02*
X209154996Y-82547804D01*
X209952418Y-83943292D02*
X209354352Y-83145870D01*
X209952418Y-82547804D02*
X209154996Y-83345225D01*
X210417581Y-82547804D02*
X211281454Y-82547804D01*
X210816292Y-83079418D01*
X211015647Y-83079418D01*
X211148551Y-83145870D01*
X211215003Y-83212322D01*
X211281454Y-83345225D01*
X211281454Y-83677484D01*
X211215003Y-83810388D01*
X211148551Y-83876840D01*
X211015647Y-83943292D01*
X210616936Y-83943292D01*
X210484033Y-83876840D01*
X210417581Y-83810388D01*
X176134996Y-83943292D02*
X176134996Y-82547804D01*
X176932418Y-83943292D02*
X176334352Y-83145870D01*
X176932418Y-82547804D02*
X176134996Y-83345225D01*
X177464033Y-82680707D02*
X177530484Y-82614256D01*
X177663388Y-82547804D01*
X177995647Y-82547804D01*
X178128551Y-82614256D01*
X178195003Y-82680707D01*
X178261454Y-82813611D01*
X178261454Y-82946515D01*
X178195003Y-83145870D01*
X177397581Y-83943292D01*
X178261454Y-83943292D01*
X143368996Y-83943292D02*
X143368996Y-82547804D01*
X144166418Y-83943292D02*
X143568352Y-83145870D01*
X144166418Y-82547804D02*
X143368996Y-83345225D01*
X145495454Y-83943292D02*
X144698033Y-83943292D01*
X145096744Y-83943292D02*
X145096744Y-82547804D01*
X144963840Y-82747159D01*
X144830936Y-82880063D01*
X144698033Y-82946515D01*
X82817519Y-89000561D02*
X82817519Y-87999742D01*
X83055810Y-87999742D01*
X83198784Y-88047400D01*
X83294100Y-88142716D01*
X83341758Y-88238032D01*
X83389416Y-88428664D01*
X83389416Y-88571639D01*
X83341758Y-88762271D01*
X83294100Y-88857587D01*
X83198784Y-88952903D01*
X83055810Y-89000561D01*
X82817519Y-89000561D01*
X84342577Y-89000561D02*
X83770680Y-89000561D01*
X84056629Y-89000561D02*
X84056629Y-87999742D01*
X83961312Y-88142716D01*
X83865996Y-88238032D01*
X83770680Y-88285690D01*
X84676183Y-87999742D02*
X85295738Y-87999742D01*
X84962131Y-88381006D01*
X85105106Y-88381006D01*
X85200422Y-88428664D01*
X85248080Y-88476322D01*
X85295738Y-88571639D01*
X85295738Y-88809929D01*
X85248080Y-88905245D01*
X85200422Y-88952903D01*
X85105106Y-89000561D01*
X84819157Y-89000561D01*
X84723841Y-88952903D01*
X84676183Y-88905245D01*
X280979714Y-133675380D02*
X280979714Y-132675380D01*
X281217809Y-132675380D01*
X281360666Y-132723000D01*
X281455904Y-132818238D01*
X281503523Y-132913476D01*
X281551142Y-133103952D01*
X281551142Y-133246809D01*
X281503523Y-133437285D01*
X281455904Y-133532523D01*
X281360666Y-133627761D01*
X281217809Y-133675380D01*
X280979714Y-133675380D01*
X282503523Y-133675380D02*
X281932095Y-133675380D01*
X282217809Y-133675380D02*
X282217809Y-132675380D01*
X282122571Y-132818238D01*
X282027333Y-132913476D01*
X281932095Y-132961095D01*
X283122571Y-132675380D02*
X283217809Y-132675380D01*
X283313047Y-132723000D01*
X283360666Y-132770619D01*
X283408285Y-132865857D01*
X283455904Y-133056333D01*
X283455904Y-133294428D01*
X283408285Y-133484904D01*
X283360666Y-133580142D01*
X283313047Y-133627761D01*
X283217809Y-133675380D01*
X283122571Y-133675380D01*
X283027333Y-133627761D01*
X282979714Y-133580142D01*
X282932095Y-133484904D01*
X282884476Y-133294428D01*
X282884476Y-133056333D01*
X282932095Y-132865857D01*
X282979714Y-132770619D01*
X283027333Y-132723000D01*
X283122571Y-132675380D01*
D10*
X271413380Y-116054095D02*
X270413380Y-116054095D01*
X270413380Y-115816000D01*
X270461000Y-115673142D01*
X270556238Y-115577904D01*
X270651476Y-115530285D01*
X270841952Y-115482666D01*
X270984809Y-115482666D01*
X271175285Y-115530285D01*
X271270523Y-115577904D01*
X271365761Y-115673142D01*
X271413380Y-115816000D01*
X271413380Y-116054095D01*
X271413380Y-115006476D02*
X271413380Y-114816000D01*
X271365761Y-114720761D01*
X271318142Y-114673142D01*
X271175285Y-114577904D01*
X270984809Y-114530285D01*
X270603857Y-114530285D01*
X270508619Y-114577904D01*
X270461000Y-114625523D01*
X270413380Y-114720761D01*
X270413380Y-114911238D01*
X270461000Y-115006476D01*
X270508619Y-115054095D01*
X270603857Y-115101714D01*
X270841952Y-115101714D01*
X270937190Y-115054095D01*
X270984809Y-115006476D01*
X271032428Y-114911238D01*
X271032428Y-114720761D01*
X270984809Y-114625523D01*
X270937190Y-114577904D01*
X270841952Y-114530285D01*
D19*
X248689904Y-133929380D02*
X248689904Y-132929380D01*
X248928000Y-132929380D01*
X249070857Y-132977000D01*
X249166095Y-133072238D01*
X249213714Y-133167476D01*
X249261333Y-133357952D01*
X249261333Y-133500809D01*
X249213714Y-133691285D01*
X249166095Y-133786523D01*
X249070857Y-133881761D01*
X248928000Y-133929380D01*
X248689904Y-133929380D01*
X249832761Y-133357952D02*
X249737523Y-133310333D01*
X249689904Y-133262714D01*
X249642285Y-133167476D01*
X249642285Y-133119857D01*
X249689904Y-133024619D01*
X249737523Y-132977000D01*
X249832761Y-132929380D01*
X250023238Y-132929380D01*
X250118476Y-132977000D01*
X250166095Y-133024619D01*
X250213714Y-133119857D01*
X250213714Y-133167476D01*
X250166095Y-133262714D01*
X250118476Y-133310333D01*
X250023238Y-133357952D01*
X249832761Y-133357952D01*
X249737523Y-133405571D01*
X249689904Y-133453190D01*
X249642285Y-133548428D01*
X249642285Y-133738904D01*
X249689904Y-133834142D01*
X249737523Y-133881761D01*
X249832761Y-133929380D01*
X250023238Y-133929380D01*
X250118476Y-133881761D01*
X250166095Y-133834142D01*
X250213714Y-133738904D01*
X250213714Y-133548428D01*
X250166095Y-133453190D01*
X250118476Y-133405571D01*
X250023238Y-133357952D01*
D10*
X238139380Y-116054095D02*
X237139380Y-116054095D01*
X237139380Y-115816000D01*
X237187000Y-115673142D01*
X237282238Y-115577904D01*
X237377476Y-115530285D01*
X237567952Y-115482666D01*
X237710809Y-115482666D01*
X237901285Y-115530285D01*
X237996523Y-115577904D01*
X238091761Y-115673142D01*
X238139380Y-115816000D01*
X238139380Y-116054095D01*
X237139380Y-115149333D02*
X237139380Y-114482666D01*
X238139380Y-114911238D01*
D19*
X215415904Y-133929380D02*
X215415904Y-132929380D01*
X215654000Y-132929380D01*
X215796857Y-132977000D01*
X215892095Y-133072238D01*
X215939714Y-133167476D01*
X215987333Y-133357952D01*
X215987333Y-133500809D01*
X215939714Y-133691285D01*
X215892095Y-133786523D01*
X215796857Y-133881761D01*
X215654000Y-133929380D01*
X215415904Y-133929380D01*
X216844476Y-132929380D02*
X216654000Y-132929380D01*
X216558761Y-132977000D01*
X216511142Y-133024619D01*
X216415904Y-133167476D01*
X216368285Y-133357952D01*
X216368285Y-133738904D01*
X216415904Y-133834142D01*
X216463523Y-133881761D01*
X216558761Y-133929380D01*
X216749238Y-133929380D01*
X216844476Y-133881761D01*
X216892095Y-133834142D01*
X216939714Y-133738904D01*
X216939714Y-133500809D01*
X216892095Y-133405571D01*
X216844476Y-133357952D01*
X216749238Y-133310333D01*
X216558761Y-133310333D01*
X216463523Y-133357952D01*
X216415904Y-133405571D01*
X216368285Y-133500809D01*
D10*
X205373380Y-116054095D02*
X204373380Y-116054095D01*
X204373380Y-115816000D01*
X204421000Y-115673142D01*
X204516238Y-115577904D01*
X204611476Y-115530285D01*
X204801952Y-115482666D01*
X204944809Y-115482666D01*
X205135285Y-115530285D01*
X205230523Y-115577904D01*
X205325761Y-115673142D01*
X205373380Y-115816000D01*
X205373380Y-116054095D01*
X204373380Y-114577904D02*
X204373380Y-115054095D01*
X204849571Y-115101714D01*
X204801952Y-115054095D01*
X204754333Y-114958857D01*
X204754333Y-114720761D01*
X204801952Y-114625523D01*
X204849571Y-114577904D01*
X204944809Y-114530285D01*
X205182904Y-114530285D01*
X205278142Y-114577904D01*
X205325761Y-114625523D01*
X205373380Y-114720761D01*
X205373380Y-114958857D01*
X205325761Y-115054095D01*
X205278142Y-115101714D01*
D19*
X182903904Y-133929380D02*
X182903904Y-132929380D01*
X183142000Y-132929380D01*
X183284857Y-132977000D01*
X183380095Y-133072238D01*
X183427714Y-133167476D01*
X183475333Y-133357952D01*
X183475333Y-133500809D01*
X183427714Y-133691285D01*
X183380095Y-133786523D01*
X183284857Y-133881761D01*
X183142000Y-133929380D01*
X182903904Y-133929380D01*
X184332476Y-133262714D02*
X184332476Y-133929380D01*
X184094380Y-132881761D02*
X183856285Y-133596047D01*
X184475333Y-133596047D01*
X149883904Y-134183380D02*
X149883904Y-133183380D01*
X150122000Y-133183380D01*
X150264857Y-133231000D01*
X150360095Y-133326238D01*
X150407714Y-133421476D01*
X150455333Y-133611952D01*
X150455333Y-133754809D01*
X150407714Y-133945285D01*
X150360095Y-134040523D01*
X150264857Y-134135761D01*
X150122000Y-134183380D01*
X149883904Y-134183380D01*
X150836285Y-133278619D02*
X150883904Y-133231000D01*
X150979142Y-133183380D01*
X151217238Y-133183380D01*
X151312476Y-133231000D01*
X151360095Y-133278619D01*
X151407714Y-133373857D01*
X151407714Y-133469095D01*
X151360095Y-133611952D01*
X150788666Y-134183380D01*
X151407714Y-134183380D01*
D10*
X139333380Y-116054095D02*
X138333380Y-116054095D01*
X138333380Y-115816000D01*
X138381000Y-115673142D01*
X138476238Y-115577904D01*
X138571476Y-115530285D01*
X138761952Y-115482666D01*
X138904809Y-115482666D01*
X139095285Y-115530285D01*
X139190523Y-115577904D01*
X139285761Y-115673142D01*
X139333380Y-115816000D01*
X139333380Y-116054095D01*
X139333380Y-114530285D02*
X139333380Y-115101714D01*
X139333380Y-114816000D02*
X138333380Y-114816000D01*
X138476238Y-114911238D01*
X138571476Y-115006476D01*
X138619095Y-115101714D01*
X303798380Y-116530285D02*
X302798380Y-116530285D01*
X302798380Y-116292190D01*
X302846000Y-116149333D01*
X302941238Y-116054095D01*
X303036476Y-116006476D01*
X303226952Y-115958857D01*
X303369809Y-115958857D01*
X303560285Y-116006476D01*
X303655523Y-116054095D01*
X303750761Y-116149333D01*
X303798380Y-116292190D01*
X303798380Y-116530285D01*
X303798380Y-115006476D02*
X303798380Y-115577904D01*
X303798380Y-115292190D02*
X302798380Y-115292190D01*
X302941238Y-115387428D01*
X303036476Y-115482666D01*
X303084095Y-115577904D01*
X303798380Y-114054095D02*
X303798380Y-114625523D01*
X303798380Y-114339809D02*
X302798380Y-114339809D01*
X302941238Y-114435047D01*
X303036476Y-114530285D01*
X303084095Y-114625523D01*
X304168380Y-120657904D02*
X303168380Y-120657904D01*
X304168380Y-120086476D02*
X303596952Y-120515047D01*
X303168380Y-120086476D02*
X303739809Y-120657904D01*
D19*
X313872714Y-133675380D02*
X313872714Y-132675380D01*
X314110809Y-132675380D01*
X314253666Y-132723000D01*
X314348904Y-132818238D01*
X314396523Y-132913476D01*
X314444142Y-133103952D01*
X314444142Y-133246809D01*
X314396523Y-133437285D01*
X314348904Y-133532523D01*
X314253666Y-133627761D01*
X314110809Y-133675380D01*
X313872714Y-133675380D01*
X315396523Y-133675380D02*
X314825095Y-133675380D01*
X315110809Y-133675380D02*
X315110809Y-132675380D01*
X315015571Y-132818238D01*
X314920333Y-132913476D01*
X314825095Y-132961095D01*
X315777476Y-132770619D02*
X315825095Y-132723000D01*
X315920333Y-132675380D01*
X316158428Y-132675380D01*
X316253666Y-132723000D01*
X316301285Y-132770619D01*
X316348904Y-132865857D01*
X316348904Y-132961095D01*
X316301285Y-133103952D01*
X315729857Y-133675380D01*
X316348904Y-133675380D01*
X308677984Y-76239117D02*
X308677984Y-77182007D01*
X308615124Y-77370585D01*
X308489406Y-77496304D01*
X308300828Y-77559164D01*
X308175109Y-77559164D01*
X309180859Y-76239117D02*
X310060890Y-76239117D01*
X309495156Y-77559164D01*
X311407971Y-83647257D02*
X311407971Y-82251769D01*
X312205393Y-83647257D02*
X311607327Y-82849835D01*
X312205393Y-82251769D02*
X311407971Y-83049190D01*
X313401526Y-82251769D02*
X313135719Y-82251769D01*
X313002815Y-82318221D01*
X312936363Y-82384672D01*
X312803459Y-82584028D01*
X312737008Y-82849835D01*
X312737008Y-83381449D01*
X312803459Y-83514353D01*
X312869911Y-83580805D01*
X313002815Y-83647257D01*
X313268622Y-83647257D01*
X313401526Y-83580805D01*
X313467978Y-83514353D01*
X313534429Y-83381449D01*
X313534429Y-83049190D01*
X313467978Y-82916287D01*
X313401526Y-82849835D01*
X313268622Y-82783383D01*
X313002815Y-82783383D01*
X312869911Y-82849835D01*
X312803459Y-82916287D01*
X312737008Y-83049190D01*
D10*
X328001333Y-125590380D02*
X327668000Y-125114190D01*
X327429904Y-125590380D02*
X327429904Y-124590380D01*
X327810857Y-124590380D01*
X327906095Y-124638000D01*
X327953714Y-124685619D01*
X328001333Y-124780857D01*
X328001333Y-124923714D01*
X327953714Y-125018952D01*
X327906095Y-125066571D01*
X327810857Y-125114190D01*
X327429904Y-125114190D01*
X328858476Y-124590380D02*
X328668000Y-124590380D01*
X328572761Y-124638000D01*
X328525142Y-124685619D01*
X328429904Y-124828476D01*
X328382285Y-125018952D01*
X328382285Y-125399904D01*
X328429904Y-125495142D01*
X328477523Y-125542761D01*
X328572761Y-125590380D01*
X328763238Y-125590380D01*
X328858476Y-125542761D01*
X328906095Y-125495142D01*
X328953714Y-125399904D01*
X328953714Y-125161809D01*
X328906095Y-125066571D01*
X328858476Y-125018952D01*
X328763238Y-124971333D01*
X328572761Y-124971333D01*
X328477523Y-125018952D01*
X328429904Y-125066571D01*
X328382285Y-125161809D01*
X90638333Y-91503580D02*
X90305000Y-91027390D01*
X90066904Y-91503580D02*
X90066904Y-90503580D01*
X90447857Y-90503580D01*
X90543095Y-90551200D01*
X90590714Y-90598819D01*
X90638333Y-90694057D01*
X90638333Y-90836914D01*
X90590714Y-90932152D01*
X90543095Y-90979771D01*
X90447857Y-91027390D01*
X90066904Y-91027390D01*
X91209761Y-90932152D02*
X91114523Y-90884533D01*
X91066904Y-90836914D01*
X91019285Y-90741676D01*
X91019285Y-90694057D01*
X91066904Y-90598819D01*
X91114523Y-90551200D01*
X91209761Y-90503580D01*
X91400238Y-90503580D01*
X91495476Y-90551200D01*
X91543095Y-90598819D01*
X91590714Y-90694057D01*
X91590714Y-90741676D01*
X91543095Y-90836914D01*
X91495476Y-90884533D01*
X91400238Y-90932152D01*
X91209761Y-90932152D01*
X91114523Y-90979771D01*
X91066904Y-91027390D01*
X91019285Y-91122628D01*
X91019285Y-91313104D01*
X91066904Y-91408342D01*
X91114523Y-91455961D01*
X91209761Y-91503580D01*
X91400238Y-91503580D01*
X91495476Y-91455961D01*
X91543095Y-91408342D01*
X91590714Y-91313104D01*
X91590714Y-91122628D01*
X91543095Y-91027390D01*
X91495476Y-90979771D01*
X91400238Y-90932152D01*
M02*
