M48
; DRILL file {KiCad 5.1.5-52549c5~84~ubuntu18.04.1} date Sun 01 Mar 2020 08:41:01 PM EST
; FORMAT={-:-/ absolute / inch / decimal}
; #@! TF.CreationDate,2020-03-01T20:41:01-05:00
; #@! TF.GenerationSoftware,Kicad,Pcbnew,5.1.5-52549c5~84~ubuntu18.04.1
FMAT,2
INCH
T1C0.0256
T2C0.0276
T3C0.0315
T4C0.0323
T5C0.0394
T6C0.0402
T7C0.0433
T8C0.0461
T9C0.0709
T10C0.0811
T11C0.0862
T12C0.1000
T13C0.0276
T14C0.1378
%
G90
G05
T1
X3.2401Y-3.363
X3.3739Y-3.363
T2
X8.687Y-6.7232
X8.7185Y-6.7704
X8.75Y-6.7232
X8.7815Y-6.7704
X8.813Y-6.7232
X6.937Y-6.7232
X6.9685Y-6.7704
X7.0Y-6.7232
X7.0315Y-6.7704
X7.063Y-6.7232
X10.437Y-6.7232
X10.4685Y-6.7704
X10.5Y-6.7232
X10.5315Y-6.7704
X10.563Y-6.7232
X12.937Y-6.7232
X12.9685Y-6.7704
X13.0Y-6.7232
X13.0315Y-6.7704
X13.063Y-6.7232
X9.437Y-6.7232
X9.4685Y-6.7704
X9.5Y-6.7232
X9.5315Y-6.7704
X9.563Y-6.7232
X7.937Y-6.7232
X7.9685Y-6.7704
X8.0Y-6.7232
X8.0315Y-6.7704
X8.063Y-6.7232
X11.187Y-6.7232
X11.2185Y-6.7704
X11.25Y-6.7232
X11.2815Y-6.7704
X11.313Y-6.7232
X12.187Y-6.7232
X12.2185Y-6.7704
X12.25Y-6.7232
X12.2815Y-6.7704
X12.313Y-6.7232
T3
X8.765Y-5.04
X9.165Y-5.04
X3.375Y-3.678
X3.775Y-3.678
X6.165Y-5.04
X6.565Y-5.04
X12.72Y-5.02
X13.12Y-5.02
X7.789Y-6.479
X8.189Y-6.479
X7.465Y-5.04
X7.865Y-5.04
X8.529Y-6.473
X8.929Y-6.473
X6.8Y-6.512
X7.2Y-6.512
X11.365Y-5.02
X11.765Y-5.02
X9.292Y-6.477
X9.692Y-6.477
X10.065Y-5.04
X10.465Y-5.04
T4
X8.4161Y-5.03
X8.5539Y-5.03
X7.1361Y-5.03
X7.2739Y-5.03
X9.7261Y-5.03
X9.8639Y-5.03
X11.0161Y-5.02
X11.1539Y-5.02
X5.8361Y-5.04
X5.9739Y-5.04
X12.3111Y-5.02
X12.4489Y-5.02
T5
X5.646Y-5.704
X5.646Y-6.004
X5.746Y-5.704
X5.746Y-6.004
X5.846Y-5.704
X5.846Y-6.004
X5.946Y-5.704
X5.946Y-6.004
X6.046Y-5.704
X6.046Y-6.004
X6.146Y-5.704
X6.146Y-6.004
X6.246Y-5.704
X6.246Y-6.004
X6.346Y-5.704
X6.346Y-6.004
T6
X2.75Y-6.48
X2.85Y-6.48
X2.95Y-6.48
X3.05Y-6.48
X3.15Y-6.48
X3.25Y-6.48
X3.35Y-6.48
X3.45Y-6.48
X3.55Y-6.48
X3.65Y-6.48
X3.75Y-6.48
X3.85Y-6.48
X3.95Y-6.48
X4.05Y-6.48
X4.15Y-6.48
X2.75Y-5.88
X2.85Y-5.88
X2.95Y-5.88
X3.05Y-5.88
X3.15Y-5.88
X3.25Y-5.88
X3.35Y-5.88
X3.45Y-5.88
X3.55Y-5.88
X3.65Y-5.88
X3.75Y-5.88
X3.85Y-5.88
X3.95Y-5.88
X4.05Y-5.88
X4.15Y-5.88
T7
X12.04Y-4.34
X12.04Y-4.74
X14.9439Y-4.2545
X15.0817Y-6.6561
X15.2983Y-4.2545
X15.2983Y-6.6561
X8.165Y-4.34
X8.165Y-4.74
X9.455Y-4.34
X9.455Y-4.74
X5.565Y-4.34
X5.565Y-4.74
X10.765Y-4.34
X10.765Y-4.74
X6.865Y-4.34
X6.865Y-4.74
T8
X8.555Y-4.34
X8.955Y-4.34
X7.255Y-4.34
X7.655Y-4.34
X12.445Y-4.34
X12.845Y-4.34
X5.955Y-4.34
X6.355Y-4.34
X9.855Y-4.34
X10.255Y-4.34
X11.15Y-4.34
X11.55Y-4.34
T9
X15.045Y-2.5688
X15.045Y-2.8444
X15.045Y-3.12
T10
X8.405Y-3.84
X7.105Y-3.84
X12.295Y-3.84
X5.805Y-3.84
X9.705Y-3.84
X11.0Y-3.84
T11
X9.105Y-3.74
X7.805Y-3.74
X12.995Y-3.74
X6.505Y-3.74
X10.405Y-3.74
X11.7Y-3.74
T12
X12.49Y-2.2922
X12.74Y-2.4572
X12.99Y-2.2922
X8.6Y-2.2922
X8.85Y-2.4572
X9.1Y-2.2922
X7.295Y-2.2922
X7.545Y-2.4572
X7.795Y-2.2922
X9.895Y-2.2922
X10.145Y-2.4572
X10.395Y-2.2922
X11.195Y-2.2922
X11.445Y-2.4572
X11.695Y-2.2922
X5.995Y-2.2922
X6.245Y-2.4572
X6.495Y-2.2922
T13
X7.8563Y-6.922
X8.1437Y-6.922
X11.1063Y-6.922
X11.3937Y-6.922
X12.1063Y-6.922
X12.3937Y-6.922
X8.6063Y-6.922
X8.8937Y-6.922
X6.8563Y-6.922
X7.1437Y-6.922
X10.3563Y-6.922
X10.6437Y-6.922
X12.8563Y-6.922
X13.1437Y-6.922
X9.3563Y-6.922
X9.6437Y-6.922
T14
X15.3324Y-2.0669
X15.3324Y-3.622
T0
M30
